M48
; DRILL file {KiCad 9.0.7} date 2026-04-18T16:59:33+0300
; FORMAT={-:-/ absolute / metric / decimal}
; #@! TF.CreationDate,2026-04-18T16:59:33+03:00
; #@! TF.GenerationSoftware,Kicad,Pcbnew,9.0.7
; #@! TF.FileFunction,Plated,1,4,PTH
FMAT,2
METRIC
; #@! TA.AperFunction,Plated,PTH,ViaDrill
T1C0.200
; #@! TA.AperFunction,Plated,PTH,ComponentDrill
T2C0.200
; #@! TA.AperFunction,Plated,PTH,ViaDrill
T3C0.330
; #@! TA.AperFunction,Plated,PTH,ViaDrill
T4C0.381
; #@! TA.AperFunction,Plated,PTH,ComponentDrill
T5C1.000
; #@! TA.AperFunction,Plated,PTH,ComponentDrill
T6C1.300
; #@! TA.AperFunction,Plated,PTH,ViaDrill
T7C2.032
; #@! TA.AperFunction,Plated,PTH,ComponentDrill
T8C2.200
%
G90
G05
T1
X129.0Y-118.8
X129.6Y-123.35
X131.6Y-115.825
X131.6Y-116.585
X131.6Y-117.345
X131.825Y-118.65
X131.85Y-119.675
X135.725Y-119.425
X135.8Y-117.975
X167.75Y-97.695
X167.825Y-92.725
X167.975Y-87.725
X168.965Y-104.02
X169.17Y-133.655
X169.415Y-69.38
X169.54Y-104.7
X169.815Y-135.14
X169.905Y-137.61
X170.05Y-65.5
X170.122Y-104.005
X170.82Y-125.62
X171.29Y-136.335
X172.285Y-120.13
X172.335Y-119.155
X172.54Y-135.71
X172.7Y-88.0
X172.86Y-65.15
X172.905Y-116.08
X173.126Y-123.018
X173.339Y-121.402
X173.586Y-124.687
X173.708Y-122.604
X174.113Y-131.113
X174.21Y-130.24
X175.15Y-122.185
X175.17Y-138.3
X175.57Y-137.664
X175.745Y-135.289
X175.92Y-70.94
X176.11Y-116.48
X176.26Y-137.715
X176.312Y-65.038
X176.869Y-139.0
X176.941Y-138.052
X177.25Y-133.88
X177.7Y-131.9
X177.86Y-133.06
X178.0Y-129.8
X178.3Y-132.358
X178.327Y-138.2
X178.5Y-130.6
X178.5Y-131.4
X178.596Y-122.448
X178.645Y-93.165
X178.675Y-71.53
X178.675Y-88.045
X178.9Y-129.1
X179.046Y-125.379
X179.1Y-127.8
X179.175Y-138.059
X179.2Y-127.0
X179.228Y-123.0
X179.5Y-126.2
X179.76Y-122.338
X180.228Y-122.904
X180.36Y-72.0
X180.873Y-134.873
X180.904Y-122.616
X181.3Y-109.125
X181.6Y-134.1
X181.639Y-122.582
X182.572Y-123.249
X182.6Y-133.9
X182.785Y-135.16
X183.105Y-71.17
X183.269Y-123.349
X183.6Y-133.8
X183.606Y-122.712
X184.274Y-123.019
X184.282Y-135.06
X184.29Y-111.06
X184.647Y-87.817
X184.7Y-132.7
X184.791Y-122.441
X185.311Y-122.96
X185.4Y-133.1
X185.575Y-93.42
X185.575Y-103.24
X185.66Y-71.25
X185.825Y-109.12
X185.891Y-122.397
X186.2Y-133.5
X186.245Y-114.895
X186.5Y-124.5
X186.6Y-134.2
X186.9Y-134.9
X186.945Y-122.8
X187.145Y-123.945
X187.8Y-134.7
X188.2Y-140.0
X188.7Y-134.3
X188.9Y-131.7
X188.905Y-130.965
X189.1Y-130.3
X189.2Y-133.5
X189.205Y-128.255
X189.3Y-132.761
X189.455Y-71.29
X189.475Y-109.065
X189.7Y-127.393
X189.7Y-126.7
X189.9Y-144.156
X189.906Y-132.039
X189.972Y-129.718
X190.146Y-134.824
X190.151Y-133.253
X190.53Y-121.615
X190.56Y-137.165
X190.61Y-101.405
X190.615Y-103.245
X190.8Y-144.429
X191.21Y-122.117
X191.58Y-144.651
X191.917Y-121.917
X192.6Y-145.038
X192.647Y-121.835
X193.14Y-145.537
X193.955Y-73.825
X194.273Y-87.865
X194.49Y-80.265
X194.54Y-104.5
X194.6Y-148.121
X194.87Y-109.1
X194.965Y-107.785
X195.375Y-92.195
X195.58Y-148.617
X195.835Y-104.565
X195.89Y-83.96
X196.07Y-90.055
X196.393Y-149.07
X196.8Y-73.865
X197.0Y-149.588
X197.315Y-120.04
X197.956Y-79.923
X198.0Y-150.08
X198.025Y-72.3
X198.445Y-88.105
X199.0Y-79.5
X199.03Y-142.815
X199.25Y-73.875
X200.235Y-72.335
X200.43Y-89.445
X201.147Y-131.922
X201.357Y-90.117
X201.444Y-102.655
X201.69Y-79.895
X201.86Y-73.81
X202.33Y-83.941
X202.55Y-112.445
X202.82Y-102.645
X203.55Y-111.005
X203.565Y-72.38
X204.295Y-73.871
X204.6Y-79.67
X205.25Y-72.38
X206.59Y-145.587
X206.61Y-73.925
X206.897Y-129.7
X206.94Y-87.82
X207.345Y-72.2
X207.35Y-144.974
X207.82Y-91.21
X208.11Y-104.5
X208.712Y-85.005
X208.763Y-80.052
X208.992Y-73.793
X209.45Y-95.925
X209.47Y-102.995
X210.185Y-72.135
X210.23Y-90.84
X210.85Y-99.015
X211.345Y-73.85
X211.345Y-79.66
X211.5Y-133.885
X211.6Y-71.125
X213.695Y-90.355
X213.955Y-87.85
X214.21Y-71.065
X214.245Y-73.905
X214.265Y-79.405
X214.3Y-103.465
X214.985Y-147.02
X215.955Y-91.25
X216.055Y-103.305
X216.365Y-79.388
X216.502Y-84.272
X216.93Y-74.305
X218.98Y-90.82
X218.99Y-88.03
X219.588Y-78.055
X221.0Y-69.01
X221.235Y-104.34
X221.24Y-92.35
X222.395Y-106.8
X222.66Y-88.49
X222.77Y-117.24
X223.065Y-106.495
X223.34Y-90.93
X223.65Y-109.478
X223.66Y-103.71
X223.7Y-74.0
X224.17Y-99.48
X224.26Y-106.475
X224.545Y-73.485
X224.785Y-103.96
X225.175Y-106.61
X225.32Y-116.56
X225.4Y-111.4
X225.5Y-73.1
X225.83Y-113.315
X225.89Y-116.05
X225.975Y-106.595
X226.1Y-72.5
X226.1Y-111.2
X226.385Y-115.54
X226.65Y-92.895
X226.735Y-106.58
X227.0Y-111.1
X227.585Y-106.52
X227.8Y-110.9
X227.885Y-102.195
X228.355Y-106.075
X228.535Y-110.9
X229.13Y-106.0
X229.13Y-110.4
X229.215Y-104.515
X230.065Y-88.792
X230.92Y-93.12
X232.51Y-87.225
X234.271Y-90.142
X235.23Y-106.22
X235.245Y-111.255
X235.74Y-90.175
X235.83Y-102.47
X235.845Y-105.8
X235.945Y-111.24
X236.495Y-106.4
X236.61Y-111.0
X237.317Y-110.97
X237.41Y-106.01
X237.945Y-111.293
X238.2Y-106.1
X238.8Y-106.9
X239.2Y-107.5
X240.359Y-107.3
X240.8Y-108.3
T2
X127.45Y-114.2
X127.45Y-115.35
X128.2Y-114.2
X128.2Y-115.35
X128.2Y-116.5
X129.25Y-114.545
X129.26Y-116.19
T3
X122.43Y-128.15
X124.2Y-134.1
X126.05Y-122.33
X127.175Y-122.33
X131.8Y-128.3
X132.35Y-124.97
X133.495Y-136.875
X133.5Y-136.0
X133.5Y-137.77
X138.16Y-107.31
X139.805Y-132.98
X141.6Y-83.4
X143.12Y-124.72
X143.74Y-139.145
X145.17Y-138.63
X145.315Y-109.325
X150.025Y-132.5
X150.025Y-133.5
X150.035Y-134.535
X151.0Y-132.5
X151.0Y-133.5
X151.0Y-134.525
X152.0Y-132.5
X152.0Y-133.5
X152.0Y-134.525
X152.92Y-86.02
X152.92Y-91.2
X152.92Y-96.18
X152.92Y-101.22
X152.92Y-106.21
X152.93Y-111.11
X153.025Y-132.5
X153.025Y-133.5
X153.025Y-134.525
X154.95Y-101.01
X155.09Y-106.05
X155.17Y-111.06
X155.21Y-96.11
X155.34Y-91.12
X155.49Y-86.1
X161.67Y-96.112
X161.745Y-97.37
X161.9Y-102.28
X161.91Y-106.01
X161.91Y-107.33
X161.91Y-112.39
X161.92Y-100.97
X161.92Y-111.05
X161.93Y-87.25
X161.93Y-91.1
X161.93Y-92.35
X161.96Y-86.13
X163.0Y-136.58
X163.32Y-130.485
X164.72Y-133.88
X166.79Y-90.35
X166.81Y-95.41
X166.82Y-100.24
X166.82Y-105.34
X166.82Y-115.27
X166.83Y-110.17
X170.53Y-76.025
X172.56Y-73.76
X175.42Y-96.6
X176.705Y-94.695
X176.84Y-118.05
X179.37Y-117.935
X181.118Y-95.122
X182.953Y-96.742
X186.85Y-107.985
X188.39Y-111.33
X189.995Y-114.09
X191.51Y-94.635
X191.66Y-96.2
X193.233Y-114.673
X194.68Y-121.43
X195.0Y-127.765
X197.978Y-114.727
X199.845Y-114.78
X200.72Y-136.205
X201.185Y-128.795
X201.31Y-127.98
X201.95Y-134.8
X203.23Y-134.79
X206.195Y-114.78
X209.43Y-145.47
X212.7Y-135.895
X212.935Y-138.24
X213.05Y-114.795
X215.945Y-136.395
X216.1Y-139.8
X219.63Y-114.79
X220.975Y-141.755
X224.785Y-132.29
X226.435Y-139.87
X227.86Y-134.08
X229.195Y-132.16
X230.945Y-139.98
X232.322Y-134.002
X234.317Y-141.96
X236.265Y-130.135
X238.065Y-141.95
T4
X134.6Y-87.6
X134.6Y-89.0
X134.6Y-90.5
T5
X138.5Y-66.8
X138.5Y-69.34
X138.5Y-75.39
X138.5Y-77.93
X141.04Y-66.8
X141.04Y-69.34
X141.04Y-75.39
X141.04Y-77.93
X143.58Y-66.8
X143.58Y-69.34
X143.58Y-75.39
X143.58Y-77.93
X146.12Y-66.8
X146.12Y-69.34
X146.12Y-75.39
X146.12Y-77.93
X148.66Y-66.8
X148.66Y-69.34
X148.66Y-75.39
X148.66Y-77.93
X151.2Y-66.8
X151.2Y-69.34
X151.2Y-75.39
X151.2Y-77.93
X153.74Y-66.8
X153.74Y-69.34
X153.74Y-75.39
X153.74Y-77.93
X156.28Y-66.8
X156.28Y-69.34
X156.28Y-75.39
X156.28Y-77.93
X172.22Y-66.8
X172.22Y-69.34
X172.22Y-75.39
X172.22Y-77.93
X174.76Y-66.8
X174.76Y-69.34
X174.76Y-75.39
X174.76Y-77.93
X177.3Y-66.8
X177.3Y-69.34
X177.3Y-75.39
X177.3Y-77.93
X179.84Y-66.8
X179.84Y-69.34
X179.84Y-75.39
X179.84Y-77.93
X182.38Y-66.8
X182.38Y-69.34
X182.38Y-75.39
X182.38Y-77.93
X184.92Y-66.8
X184.92Y-69.34
X184.92Y-75.39
X184.92Y-77.93
X187.46Y-66.8
X187.46Y-69.34
X187.46Y-75.39
X187.46Y-77.93
X190.0Y-66.8
X190.0Y-69.34
X190.0Y-75.39
X190.0Y-77.93
X192.54Y-66.8
X192.54Y-69.34
X192.54Y-75.39
X192.54Y-77.93
X195.08Y-66.8
X195.08Y-69.34
X195.08Y-75.39
X195.08Y-77.93
X197.62Y-66.8
X197.62Y-69.34
X197.62Y-75.39
X197.62Y-77.93
X200.16Y-66.8
X200.16Y-69.34
X200.16Y-75.39
X200.16Y-77.93
X202.7Y-66.8
X202.7Y-69.34
X202.7Y-75.39
X202.7Y-77.93
X205.24Y-66.8
X205.24Y-69.34
X205.24Y-75.39
X205.24Y-77.93
X207.78Y-66.8
X207.78Y-69.34
X207.78Y-75.39
X207.78Y-77.93
X210.32Y-66.8
X210.32Y-69.34
X210.32Y-75.39
X210.32Y-77.93
X212.86Y-66.8
X212.86Y-69.34
X212.86Y-75.39
X212.86Y-77.93
X215.4Y-66.8
X215.4Y-69.34
X215.4Y-75.39
X215.4Y-77.93
X217.94Y-66.8
X217.94Y-69.34
X217.94Y-75.39
X217.94Y-77.93
T6
X119.0Y-69.8
X119.0Y-77.93
X121.9Y-72.13
X124.8Y-69.8
X124.8Y-77.93
X127.7Y-72.13
X130.6Y-69.8
X130.6Y-77.93
X225.85Y-69.8
X225.85Y-77.93
X228.75Y-72.13
X231.65Y-69.8
X231.65Y-77.93
T7
X113.3Y-127.4
X122.9Y-103.785
X122.95Y-90.925
X126.6Y-124.66
X130.305Y-137.115
X133.37Y-107.8
X133.96Y-97.865
T8
X109.1Y-87.1
X109.1Y-145.3
X241.7Y-145.3
M30
