%TF.GenerationSoftware,KiCad,Pcbnew,9.0.7*%
%TF.CreationDate,2026-04-18T16:59:30+03:00*%
%TF.ProjectId,G473_dev_board,47343733-5f64-4657-965f-626f6172642e,rev?*%
%TF.SameCoordinates,Original*%
%TF.FileFunction,Paste,Bot*%
%TF.FilePolarity,Positive*%
%FSLAX46Y46*%
G04 Gerber Fmt 4.6, Leading zero omitted, Abs format (unit mm)*
G04 Created by KiCad (PCBNEW 9.0.7) date 2026-04-18 16:59:30*
%MOMM*%
%LPD*%
G01*
G04 APERTURE LIST*
G04 Aperture macros list*
%AMRoundRect*
0 Rectangle with rounded corners*
0 $1 Rounding radius*
0 $2 $3 $4 $5 $6 $7 $8 $9 X,Y pos of 4 corners*
0 Add a 4 corners polygon primitive as box body*
4,1,4,$2,$3,$4,$5,$6,$7,$8,$9,$2,$3,0*
0 Add four circle primitives for the rounded corners*
1,1,$1+$1,$2,$3*
1,1,$1+$1,$4,$5*
1,1,$1+$1,$6,$7*
1,1,$1+$1,$8,$9*
0 Add four rect primitives between the rounded corners*
20,1,$1+$1,$2,$3,$4,$5,0*
20,1,$1+$1,$4,$5,$6,$7,0*
20,1,$1+$1,$6,$7,$8,$9,0*
20,1,$1+$1,$8,$9,$2,$3,0*%
G04 Aperture macros list end*
%ADD10RoundRect,0.135000X0.185000X-0.135000X0.185000X0.135000X-0.185000X0.135000X-0.185000X-0.135000X0*%
%ADD11RoundRect,0.135000X-0.135000X-0.185000X0.135000X-0.185000X0.135000X0.185000X-0.135000X0.185000X0*%
%ADD12RoundRect,0.150000X0.512500X0.150000X-0.512500X0.150000X-0.512500X-0.150000X0.512500X-0.150000X0*%
%ADD13RoundRect,0.140000X-0.140000X-0.170000X0.140000X-0.170000X0.140000X0.170000X-0.140000X0.170000X0*%
%ADD14RoundRect,0.135000X-0.185000X0.135000X-0.185000X-0.135000X0.185000X-0.135000X0.185000X0.135000X0*%
%ADD15RoundRect,0.140000X0.140000X0.170000X-0.140000X0.170000X-0.140000X-0.170000X0.140000X-0.170000X0*%
%ADD16R,0.187000X0.225000*%
%ADD17RoundRect,0.125000X0.125000X-0.487500X0.125000X0.487500X-0.125000X0.487500X-0.125000X-0.487500X0*%
%ADD18RoundRect,0.135000X0.135000X0.185000X-0.135000X0.185000X-0.135000X-0.185000X0.135000X-0.185000X0*%
%ADD19RoundRect,0.125000X0.487500X0.125000X-0.487500X0.125000X-0.487500X-0.125000X0.487500X-0.125000X0*%
%ADD20RoundRect,0.125000X0.125000X-0.125000X0.125000X0.125000X-0.125000X0.125000X-0.125000X-0.125000X0*%
%ADD21RoundRect,0.162500X-0.447500X-0.162500X0.447500X-0.162500X0.447500X0.162500X-0.447500X0.162500X0*%
%ADD22R,0.225000X0.187000*%
%ADD23RoundRect,0.162500X-0.617500X-0.162500X0.617500X-0.162500X0.617500X0.162500X-0.617500X0.162500X0*%
%ADD24RoundRect,0.140000X0.170000X-0.140000X0.170000X0.140000X-0.170000X0.140000X-0.170000X-0.140000X0*%
%ADD25RoundRect,0.112500X-0.187500X-0.112500X0.187500X-0.112500X0.187500X0.112500X-0.187500X0.112500X0*%
%ADD26RoundRect,0.200000X-0.200000X0.750000X-0.200000X-0.750000X0.200000X-0.750000X0.200000X0.750000X0*%
%ADD27RoundRect,0.250000X0.475000X-0.250000X0.475000X0.250000X-0.475000X0.250000X-0.475000X-0.250000X0*%
%ADD28RoundRect,0.140000X-0.170000X0.140000X-0.170000X-0.140000X0.170000X-0.140000X0.170000X0.140000X0*%
%ADD29RoundRect,0.150000X-0.512500X-0.150000X0.512500X-0.150000X0.512500X0.150000X-0.512500X0.150000X0*%
%ADD30RoundRect,0.125000X-0.125000X0.487500X-0.125000X-0.487500X0.125000X-0.487500X0.125000X0.487500X0*%
%ADD31RoundRect,0.225000X-0.225000X-0.250000X0.225000X-0.250000X0.225000X0.250000X-0.225000X0.250000X0*%
%ADD32RoundRect,0.250000X0.450000X-0.262500X0.450000X0.262500X-0.450000X0.262500X-0.450000X-0.262500X0*%
%ADD33RoundRect,0.250000X0.262500X0.450000X-0.262500X0.450000X-0.262500X-0.450000X0.262500X-0.450000X0*%
G04 APERTURE END LIST*
D10*
%TO.C,R149*%
X173100000Y-87210000D03*
X173100000Y-86190000D03*
%TD*%
D11*
%TO.C,R72*%
X159590000Y-107300000D03*
X160610000Y-107300000D03*
%TD*%
%TO.C,R148*%
X199590000Y-111300000D03*
X200610000Y-111300000D03*
%TD*%
D12*
%TO.C,Q9*%
X165037500Y-102250000D03*
X165037500Y-104150000D03*
X162762500Y-103200000D03*
%TD*%
D13*
%TO.C,C51*%
X159620000Y-94300000D03*
X160580000Y-94300000D03*
%TD*%
D14*
%TO.C,R68*%
X166900000Y-107690000D03*
X166900000Y-108710000D03*
%TD*%
D15*
%TO.C,C87*%
X222080000Y-101400000D03*
X221120000Y-101400000D03*
%TD*%
D16*
%TO.C,D83*%
X173969000Y-65400000D03*
X173631000Y-65400000D03*
%TD*%
D10*
%TO.C,R78*%
X234300000Y-87210000D03*
X234300000Y-86190000D03*
%TD*%
D11*
%TO.C,R81*%
X159590000Y-112300000D03*
X160610000Y-112300000D03*
%TD*%
D16*
%TO.C,D71*%
X209869000Y-73800000D03*
X209531000Y-73800000D03*
%TD*%
D17*
%TO.C,D9*%
X225550000Y-91737500D03*
X224250000Y-91737500D03*
X224900000Y-89862500D03*
%TD*%
D18*
%TO.C,R135*%
X179910000Y-109100000D03*
X178890000Y-109100000D03*
%TD*%
D10*
%TO.C,R100*%
X213900000Y-87210000D03*
X213900000Y-86190000D03*
%TD*%
D14*
%TO.C,R120*%
X208500000Y-143590000D03*
X208500000Y-144610000D03*
%TD*%
D19*
%TO.C,D27*%
X195937500Y-107750000D03*
X195937500Y-109050000D03*
X194062500Y-108400000D03*
%TD*%
D20*
%TO.C,D88*%
X152900000Y-94500000D03*
X152900000Y-92300000D03*
%TD*%
D19*
%TO.C,D43*%
X225737500Y-101450000D03*
X225737500Y-102750000D03*
X223862500Y-102100000D03*
%TD*%
D16*
%TO.C,D78*%
X202669000Y-73800000D03*
X202331000Y-73800000D03*
%TD*%
D21*
%TO.C,Q10*%
X155090000Y-104350000D03*
X155090000Y-102450000D03*
X157710000Y-103400000D03*
%TD*%
D22*
%TO.C,D77*%
X202300000Y-79531000D03*
X202300000Y-79869000D03*
%TD*%
D17*
%TO.C,D8*%
X179950000Y-91737500D03*
X178650000Y-91737500D03*
X179300000Y-89862500D03*
%TD*%
D23*
%TO.C,U8*%
X210850000Y-146910000D03*
X210850000Y-145960000D03*
X210850000Y-145010000D03*
X213550000Y-145010000D03*
X213550000Y-146910000D03*
%TD*%
D22*
%TO.C,D64*%
X210100000Y-71131000D03*
X210100000Y-71469000D03*
%TD*%
D11*
%TO.C,R143*%
X206290000Y-101700000D03*
X207310000Y-101700000D03*
%TD*%
D21*
%TO.C,Q8*%
X155090000Y-99350000D03*
X155090000Y-97450000D03*
X157710000Y-98400000D03*
%TD*%
D19*
%TO.C,D38*%
X205837500Y-111350000D03*
X205837500Y-112650000D03*
X203962500Y-112000000D03*
%TD*%
D24*
%TO.C,C57*%
X195000000Y-88180000D03*
X195000000Y-87220000D03*
%TD*%
D14*
%TO.C,R69*%
X230600000Y-85190000D03*
X230600000Y-86210000D03*
%TD*%
D16*
%TO.C,D60*%
X210331000Y-79600000D03*
X210669000Y-79600000D03*
%TD*%
D11*
%TO.C,R134*%
X177990000Y-107800000D03*
X179010000Y-107800000D03*
%TD*%
D16*
%TO.C,D57*%
X197669000Y-73800000D03*
X197331000Y-73800000D03*
%TD*%
D12*
%TO.C,Q4*%
X165037500Y-87250000D03*
X165037500Y-89150000D03*
X162762500Y-88200000D03*
%TD*%
D14*
%TO.C,R53*%
X185500000Y-85190000D03*
X185500000Y-86210000D03*
%TD*%
D16*
%TO.C,D86*%
X182131000Y-70900000D03*
X182469000Y-70900000D03*
%TD*%
D13*
%TO.C,C55*%
X159620000Y-104300000D03*
X160580000Y-104300000D03*
%TD*%
D14*
%TO.C,R58*%
X210200000Y-85190000D03*
X210200000Y-86210000D03*
%TD*%
%TO.C,R93*%
X225500000Y-85190000D03*
X225500000Y-86210000D03*
%TD*%
D11*
%TO.C,R13*%
X132490000Y-115600000D03*
X133510000Y-115600000D03*
%TD*%
D16*
%TO.C,D85*%
X177269000Y-65100000D03*
X176931000Y-65100000D03*
%TD*%
D12*
%TO.C,Q5*%
X165037500Y-92250000D03*
X165037500Y-94150000D03*
X162762500Y-93200000D03*
%TD*%
D14*
%TO.C,R121*%
X208600000Y-146290000D03*
X208600000Y-147310000D03*
%TD*%
D10*
%TO.C,R99*%
X203800000Y-87210000D03*
X203800000Y-86190000D03*
%TD*%
D16*
%TO.C,D58*%
X200069000Y-79400000D03*
X199731000Y-79400000D03*
%TD*%
D18*
%TO.C,R156*%
X196610000Y-103200000D03*
X195590000Y-103200000D03*
%TD*%
%TO.C,R17*%
X135510000Y-116700000D03*
X134490000Y-116700000D03*
%TD*%
D16*
%TO.C,D39*%
X170269000Y-69300000D03*
X169931000Y-69300000D03*
%TD*%
%TO.C,D46*%
X184531000Y-70900000D03*
X184869000Y-70900000D03*
%TD*%
D10*
%TO.C,R70*%
X229300000Y-87210000D03*
X229300000Y-86190000D03*
%TD*%
D21*
%TO.C,Q6*%
X155090000Y-94350000D03*
X155090000Y-92450000D03*
X157710000Y-93400000D03*
%TD*%
D16*
%TO.C,D49*%
X188031000Y-71200000D03*
X188369000Y-71200000D03*
%TD*%
D24*
%TO.C,C65*%
X230600000Y-88180000D03*
X230600000Y-87220000D03*
%TD*%
D14*
%TO.C,R56*%
X205100000Y-85190000D03*
X205100000Y-86210000D03*
%TD*%
D16*
%TO.C,D68*%
X171069000Y-65500000D03*
X170731000Y-65500000D03*
%TD*%
D15*
%TO.C,C88*%
X197480000Y-101900000D03*
X196520000Y-101900000D03*
%TD*%
D25*
%TO.C,D19*%
X144450000Y-134000000D03*
X146550000Y-134000000D03*
%TD*%
D18*
%TO.C,R91*%
X184710000Y-103200000D03*
X183690000Y-103200000D03*
%TD*%
D11*
%TO.C,R152*%
X219190000Y-101400000D03*
X220210000Y-101400000D03*
%TD*%
%TO.C,R14*%
X182790000Y-101900000D03*
X183810000Y-101900000D03*
%TD*%
D15*
%TO.C,C66*%
X192380000Y-107700000D03*
X191420000Y-107700000D03*
%TD*%
D16*
%TO.C,D74*%
X200069000Y-73800000D03*
X199731000Y-73800000D03*
%TD*%
D11*
%TO.C,R62*%
X159590000Y-102300000D03*
X160610000Y-102300000D03*
%TD*%
D16*
%TO.C,D70*%
X212369000Y-73900000D03*
X212031000Y-73900000D03*
%TD*%
D15*
%TO.C,C42*%
X185680000Y-101900000D03*
X184720000Y-101900000D03*
%TD*%
D20*
%TO.C,D55*%
X152900000Y-89500000D03*
X152900000Y-87300000D03*
%TD*%
D17*
%TO.C,D16*%
X230550000Y-91737500D03*
X229250000Y-91737500D03*
X229900000Y-89862500D03*
%TD*%
D26*
%TO.C,Q1*%
X211950000Y-138600000D03*
X213850000Y-138600000D03*
X212900000Y-141600000D03*
%TD*%
D15*
%TO.C,C84*%
X209280000Y-101700000D03*
X208320000Y-101700000D03*
%TD*%
D20*
%TO.C,D90*%
X152900000Y-99500000D03*
X152900000Y-97300000D03*
%TD*%
D24*
%TO.C,C58*%
X205100000Y-88180000D03*
X205100000Y-87220000D03*
%TD*%
D14*
%TO.C,R94*%
X195000000Y-85190000D03*
X195000000Y-86210000D03*
%TD*%
%TO.C,R20*%
X179900000Y-85190000D03*
X179900000Y-86210000D03*
%TD*%
D12*
%TO.C,Q13*%
X165037500Y-112250000D03*
X165037500Y-114150000D03*
X162762500Y-113200000D03*
%TD*%
D22*
%TO.C,D73*%
X219400000Y-78969000D03*
X219400000Y-78631000D03*
%TD*%
D24*
%TO.C,C78*%
X225500000Y-88180000D03*
X225500000Y-87220000D03*
%TD*%
D11*
%TO.C,R44*%
X159590000Y-92300000D03*
X160610000Y-92300000D03*
%TD*%
D27*
%TO.C,C19*%
X138100000Y-137950000D03*
X138100000Y-136050000D03*
%TD*%
D24*
%TO.C,C69*%
X235600000Y-88180000D03*
X235600000Y-87220000D03*
%TD*%
D22*
%TO.C,D54*%
X203500000Y-71231000D03*
X203500000Y-71569000D03*
%TD*%
D21*
%TO.C,Q3*%
X155090000Y-89350000D03*
X155090000Y-87450000D03*
X157710000Y-88400000D03*
%TD*%
D14*
%TO.C,R23*%
X166900000Y-87690000D03*
X166900000Y-88710000D03*
%TD*%
%TO.C,R50*%
X166900000Y-97690000D03*
X166900000Y-98710000D03*
%TD*%
D17*
%TO.C,D26*%
X220250000Y-91737500D03*
X218950000Y-91737500D03*
X219600000Y-89862500D03*
%TD*%
%TO.C,D10*%
X210150000Y-91737500D03*
X208850000Y-91737500D03*
X209500000Y-89862500D03*
%TD*%
D11*
%TO.C,R82*%
X189390000Y-107700000D03*
X190410000Y-107700000D03*
%TD*%
D13*
%TO.C,C98*%
X159620000Y-114300000D03*
X160580000Y-114300000D03*
%TD*%
D11*
%TO.C,R71*%
X190390000Y-109000000D03*
X191410000Y-109000000D03*
%TD*%
D16*
%TO.C,D61*%
X212931000Y-79700000D03*
X213269000Y-79700000D03*
%TD*%
D12*
%TO.C,Q11*%
X165037500Y-107250000D03*
X165037500Y-109150000D03*
X162762500Y-108200000D03*
%TD*%
D14*
%TO.C,R80*%
X166900000Y-112690000D03*
X166900000Y-113710000D03*
%TD*%
D19*
%TO.C,D37*%
X212837500Y-101650000D03*
X212837500Y-102950000D03*
X210962500Y-102300000D03*
%TD*%
D13*
%TO.C,C54*%
X159620000Y-99300000D03*
X160580000Y-99300000D03*
%TD*%
D24*
%TO.C,C60*%
X215200000Y-88180000D03*
X215200000Y-87220000D03*
%TD*%
D16*
%TO.C,D81*%
X207469000Y-73900000D03*
X207131000Y-73900000D03*
%TD*%
D15*
%TO.C,C81*%
X180880000Y-107800000D03*
X179920000Y-107800000D03*
%TD*%
%TO.C,C70*%
X212780000Y-148300000D03*
X211820000Y-148300000D03*
%TD*%
D22*
%TO.C,D80*%
X208200000Y-79331000D03*
X208200000Y-79669000D03*
%TD*%
D13*
%TO.C,C56*%
X159620000Y-109300000D03*
X160580000Y-109300000D03*
%TD*%
D24*
%TO.C,C11*%
X200100000Y-88180000D03*
X200100000Y-87220000D03*
%TD*%
D14*
%TO.C,R147*%
X174400000Y-85190000D03*
X174400000Y-86210000D03*
%TD*%
D22*
%TO.C,D50*%
X198000000Y-71331000D03*
X198000000Y-71669000D03*
%TD*%
D10*
%TO.C,R98*%
X198800000Y-87210000D03*
X198800000Y-86190000D03*
%TD*%
D16*
%TO.C,D66*%
X215069000Y-71000000D03*
X214731000Y-71000000D03*
%TD*%
D10*
%TO.C,R54*%
X184200000Y-87210000D03*
X184200000Y-86190000D03*
%TD*%
%TO.C,R101*%
X208900000Y-87210000D03*
X208900000Y-86190000D03*
%TD*%
D17*
%TO.C,D44*%
X174450000Y-91737500D03*
X173150000Y-91737500D03*
X173800000Y-89862500D03*
%TD*%
D10*
%TO.C,R31*%
X178600000Y-87210000D03*
X178600000Y-86190000D03*
%TD*%
D12*
%TO.C,Q7*%
X165037500Y-97250000D03*
X165037500Y-99150000D03*
X162762500Y-98200000D03*
%TD*%
D24*
%TO.C,C43*%
X179900000Y-88180000D03*
X179900000Y-87220000D03*
%TD*%
D17*
%TO.C,D11*%
X185550000Y-91737500D03*
X184250000Y-91737500D03*
X184900000Y-89862500D03*
%TD*%
D19*
%TO.C,D45*%
X184537500Y-107750000D03*
X184537500Y-109050000D03*
X182662500Y-108400000D03*
%TD*%
D18*
%TO.C,R150*%
X201610000Y-112600000D03*
X200590000Y-112600000D03*
%TD*%
D15*
%TO.C,C86*%
X202580000Y-111300000D03*
X201620000Y-111300000D03*
%TD*%
D11*
%TO.C,R11*%
X159590000Y-87300000D03*
X160610000Y-87300000D03*
%TD*%
D14*
%TO.C,R35*%
X166900000Y-92690000D03*
X166900000Y-93710000D03*
%TD*%
%TO.C,R87*%
X220300000Y-85190000D03*
X220300000Y-86210000D03*
%TD*%
D28*
%TO.C,C38*%
X131000000Y-119320000D03*
X131000000Y-120280000D03*
%TD*%
D20*
%TO.C,D95*%
X152900000Y-109500000D03*
X152900000Y-107300000D03*
%TD*%
D29*
%TO.C,U6*%
X140262500Y-137350000D03*
X140262500Y-136400000D03*
X140262500Y-135450000D03*
X142537500Y-135450000D03*
X142537500Y-137350000D03*
%TD*%
D22*
%TO.C,D76*%
X197200000Y-79531000D03*
X197200000Y-79869000D03*
%TD*%
D20*
%TO.C,D93*%
X152900000Y-104500000D03*
X152900000Y-102300000D03*
%TD*%
D16*
%TO.C,D72*%
X215331000Y-79700000D03*
X215669000Y-79700000D03*
%TD*%
%TO.C,D100*%
X170369000Y-75000000D03*
X170031000Y-75000000D03*
%TD*%
%TO.C,D79*%
X205169000Y-73900000D03*
X204831000Y-73900000D03*
%TD*%
D17*
%TO.C,D40*%
X200050000Y-91737500D03*
X198750000Y-91737500D03*
X199400000Y-89862500D03*
%TD*%
D18*
%TO.C,R119*%
X216610000Y-146400000D03*
X215590000Y-146400000D03*
%TD*%
D30*
%TO.C,D13*%
X193750000Y-89862500D03*
X195050000Y-89862500D03*
X194400000Y-91737500D03*
%TD*%
D18*
%TO.C,R2*%
X212210000Y-136800000D03*
X211190000Y-136800000D03*
%TD*%
D16*
%TO.C,D67*%
X219931000Y-69000000D03*
X220269000Y-69000000D03*
%TD*%
D11*
%TO.C,R155*%
X194590000Y-101900000D03*
X195610000Y-101900000D03*
%TD*%
D19*
%TO.C,D7*%
X189337500Y-101850000D03*
X189337500Y-103150000D03*
X187462500Y-102500000D03*
%TD*%
D17*
%TO.C,D28*%
X235650000Y-91737500D03*
X234350000Y-91737500D03*
X235000000Y-89862500D03*
%TD*%
D14*
%TO.C,R59*%
X166900000Y-102690000D03*
X166900000Y-103710000D03*
%TD*%
D24*
%TO.C,C75*%
X220300000Y-88180000D03*
X220300000Y-87220000D03*
%TD*%
D22*
%TO.C,D82*%
X178000000Y-71131000D03*
X178000000Y-71469000D03*
%TD*%
D10*
%TO.C,R79*%
X219000000Y-87210000D03*
X219000000Y-86190000D03*
%TD*%
D24*
%TO.C,C85*%
X174400000Y-88180000D03*
X174400000Y-87220000D03*
%TD*%
%TO.C,C49*%
X185500000Y-88180000D03*
X185500000Y-87220000D03*
%TD*%
D19*
%TO.C,D42*%
X201137500Y-101950000D03*
X201137500Y-103250000D03*
X199262500Y-102600000D03*
%TD*%
D21*
%TO.C,Q14*%
X155090000Y-114350000D03*
X155090000Y-112450000D03*
X157710000Y-113400000D03*
%TD*%
D16*
%TO.C,D62*%
X194969000Y-73800000D03*
X194631000Y-73800000D03*
%TD*%
D31*
%TO.C,C21*%
X144325000Y-137300000D03*
X145875000Y-137300000D03*
%TD*%
D14*
%TO.C,R77*%
X235600000Y-85190000D03*
X235600000Y-86210000D03*
%TD*%
D10*
%TO.C,R95*%
X193700000Y-87210000D03*
X193700000Y-86190000D03*
%TD*%
D16*
%TO.C,D65*%
X212469000Y-71000000D03*
X212131000Y-71000000D03*
%TD*%
D18*
%TO.C,R153*%
X221110000Y-102700000D03*
X220090000Y-102700000D03*
%TD*%
D16*
%TO.C,D99*%
X173769000Y-73700000D03*
X173431000Y-73700000D03*
%TD*%
D20*
%TO.C,D97*%
X152900000Y-114500000D03*
X152900000Y-112300000D03*
%TD*%
D18*
%TO.C,R10*%
X133510000Y-116600000D03*
X132490000Y-116600000D03*
%TD*%
D22*
%TO.C,D53*%
X200200000Y-71231000D03*
X200200000Y-71569000D03*
%TD*%
D16*
%TO.C,D56*%
X174831000Y-71000000D03*
X175169000Y-71000000D03*
%TD*%
D11*
%TO.C,R51*%
X159590000Y-97300000D03*
X160610000Y-97300000D03*
%TD*%
D21*
%TO.C,Q12*%
X155090000Y-109350000D03*
X155090000Y-107450000D03*
X157710000Y-108400000D03*
%TD*%
D10*
%TO.C,R96*%
X224200000Y-87210000D03*
X224200000Y-86190000D03*
%TD*%
D17*
%TO.C,D41*%
X205150000Y-91737500D03*
X203850000Y-91737500D03*
X204500000Y-89862500D03*
%TD*%
D14*
%TO.C,R52*%
X200100000Y-85190000D03*
X200100000Y-86210000D03*
%TD*%
%TO.C,R60*%
X215200000Y-85190000D03*
X215200000Y-86210000D03*
%TD*%
D32*
%TO.C,R116*%
X221600000Y-146712500D03*
X221600000Y-144887500D03*
%TD*%
D16*
%TO.C,D59*%
X205369000Y-79600000D03*
X205031000Y-79600000D03*
%TD*%
D24*
%TO.C,C59*%
X210200000Y-88180000D03*
X210200000Y-87220000D03*
%TD*%
D11*
%TO.C,R118*%
X217890000Y-144900000D03*
X218910000Y-144900000D03*
%TD*%
D22*
%TO.C,D47*%
X205200000Y-71231000D03*
X205200000Y-71569000D03*
%TD*%
%TO.C,D75*%
X194600000Y-79331000D03*
X194600000Y-79669000D03*
%TD*%
D33*
%TO.C,R34*%
X217712500Y-141500000D03*
X215887500Y-141500000D03*
%TD*%
D22*
%TO.C,D84*%
X180300000Y-71031000D03*
X180300000Y-71369000D03*
%TD*%
D16*
%TO.C,D69*%
X215169000Y-73900000D03*
X214831000Y-73900000D03*
%TD*%
D17*
%TO.C,D18*%
X215250000Y-91737500D03*
X213950000Y-91737500D03*
X214600000Y-89862500D03*
%TD*%
D13*
%TO.C,C20*%
X159620000Y-89300000D03*
X160580000Y-89300000D03*
%TD*%
D22*
%TO.C,D52*%
X207300000Y-71231000D03*
X207300000Y-71569000D03*
%TD*%
D18*
%TO.C,R144*%
X208310000Y-103000000D03*
X207290000Y-103000000D03*
%TD*%
D11*
%TO.C,R117*%
X217990000Y-146800000D03*
X219010000Y-146800000D03*
%TD*%
D16*
%TO.C,D63*%
X217769000Y-73800000D03*
X217431000Y-73800000D03*
%TD*%
M02*
