ISO-10303-21;
HEADER;
FILE_DESCRIPTION (( 'STEP AP214' ),
    '1' );
FILE_NAME ('BAT30F4.STEP',
    '2024-01-22T14:15:44',
    ( 'LENOVO' ),
    ( '' ),
    'SwSTEP 2.0',
    'SolidWorks 2021',
    '' );
FILE_SCHEMA (( 'AUTOMOTIVE_DESIGN' ));
ENDSEC;

DATA;
#1 = CARTESIAN_POINT ( 'NONE',  ( 0.2999999999999998779, 0.000000000000000000, 0.1499999999999999944 ) ) ;
#2 = FACE_OUTER_BOUND ( 'NONE', #506, .T. ) ;
#3 = DIRECTION ( 'NONE',  ( 1.000000000000000000, -0.000000000000000000, 0.000000000000000000 ) ) ;
#4 = CARTESIAN_POINT ( 'NONE',  ( 0.1049999999999997879, 0.000000000000000000, -0.09500000000000005662 ) ) ;
#5 = ORIENTED_EDGE ( 'NONE', *, *, #166, .T. ) ;
#6 = LINE ( 'NONE', #173, #768 ) ;
#7 = ORIENTED_EDGE ( 'NONE', *, *, #112, .F. ) ;
#8 = DIRECTION ( 'NONE',  ( -1.000000000000000000, 0.000000000000000000, -9.680376540049147084E-17 ) ) ;
#9 = VECTOR ( 'NONE', #634, 1000.000000000000000 ) ;
#10 = EDGE_CURVE ( 'NONE', #886, #1022, #501, .T. ) ;
#11 = ORIENTED_EDGE ( 'NONE', *, *, #961, .F. ) ;
#12 = VECTOR ( 'NONE', #16, 1000.000000000000000 ) ;
#13 = DIRECTION ( 'NONE',  ( 0.000000000000000000, -0.000000000000000000, -1.000000000000000000 ) ) ;
#14 = VERTEX_POINT ( 'NONE', #4 ) ;
#15 = VECTOR ( 'NONE', #834, 1000.000000000000000 ) ;
#16 = DIRECTION ( 'NONE',  ( -1.000000000000000000, 0.000000000000000000, 0.000000000000000000 ) ) ;
#17 = ADVANCED_FACE ( 'NONE', ( #877 ), #213, .T. ) ;
#18 = VERTEX_POINT ( 'NONE', #967 ) ;
#19 = LINE ( 'NONE', #289, #9 ) ;
#20 = LINE ( 'NONE', #82, #79 ) ;
#21 = ORIENTED_EDGE ( 'NONE', *, *, #556, .T. ) ;
#22 = CARTESIAN_POINT ( 'NONE',  ( -0.2449999999999999956, 0.000000000000000000, 0.09499999999999994560 ) ) ;
#23 = VECTOR ( 'NONE', #371, 1000.000000000000000 ) ;
#24 = EDGE_LOOP ( 'NONE', ( #323, #719, #130, #26 ) ) ;
#25 = VECTOR ( 'NONE', #336, 1000.000000000000000 ) ;
#26 = ORIENTED_EDGE ( 'NONE', *, *, #900, .F. ) ;
#27 = CARTESIAN_POINT ( 'NONE',  ( -0.1500000000000001055, 0.2200000000000000289, -0.1489999999999999936 ) ) ;
#28 = AXIS2_PLACEMENT_3D ( 'NONE', #983, #1053, #13 ) ;
#29 = FACE_OUTER_BOUND ( 'NONE', #688, .T. ) ;
#30 = PLANE ( 'NONE',  #497 ) ;
#31 = CARTESIAN_POINT ( 'NONE',  ( -0.1050000000000000100, 0.09999999999999999167, -0.09500000000000005662 ) ) ;
#32 = EDGE_CURVE ( 'NONE', #433, #986, #502, .T. ) ;
#33 = ORIENTED_EDGE ( 'NONE', *, *, #1082, .F. ) ;
#34 = EDGE_LOOP ( 'NONE', ( #466, #810, #639, #92 ) ) ;
#35 = CARTESIAN_POINT ( 'NONE',  ( 0.1049999999999997879, 0.1000000000000000056, -0.09500000000000005662 ) ) ;
#36 = ORIENTED_EDGE ( 'NONE', *, *, #1082, .T. ) ;
#37 = DIRECTION ( 'NONE',  ( 0.000000000000000000, 1.000000000000000000, 0.000000000000000000 ) ) ;
#38 = ADVANCED_FACE ( 'NONE', ( #471 ), #437, .F. ) ;
#39 = ORIENTED_EDGE ( 'NONE', *, *, #646, .T. ) ;
#40 =( LENGTH_UNIT ( ) NAMED_UNIT ( * ) SI_UNIT ( .MILLI., .METRE. ) );
#41 = ORIENTED_EDGE ( 'NONE', *, *, #333, .F. ) ;
#42 = MECHANICAL_DESIGN_GEOMETRIC_PRESENTATION_REPRESENTATION (  '', ( #538 ), #707 ) ;
#43 = PLANE ( 'NONE',  #933 ) ;
#44 = AXIS2_PLACEMENT_3D ( 'NONE', #665, #687, #236 ) ;
#45 = VERTEX_POINT ( 'NONE', #602 ) ;
#46 = VERTEX_POINT ( 'NONE', #977 ) ;
#47 =( NAMED_UNIT ( * ) SI_UNIT ( $, .STERADIAN. ) SOLID_ANGLE_UNIT ( ) );
#48 = EDGE_CURVE ( 'NONE', #1094, #71, #127, .T. ) ;
#49 =( NAMED_UNIT ( * ) PLANE_ANGLE_UNIT ( ) SI_UNIT ( $, .RADIAN. ) );
#50 = DIRECTION ( 'NONE',  ( -1.000000000000000000, 0.000000000000000000, -0.000000000000000000 ) ) ;
#51 = ORIENTED_EDGE ( 'NONE', *, *, #750, .T. ) ;
#52 = DIRECTION ( 'NONE',  ( 0.000000000000000000, -1.000000000000000000, 0.000000000000000000 ) ) ;
#53 = CARTESIAN_POINT ( 'NONE',  ( 0.2449999999999997735, 0.000000000000000000, 0.09499999999999994560 ) ) ;
#54 = AXIS2_PLACEMENT_3D ( 'NONE', #699, #599, #478 ) ;
#55 = ORIENTED_EDGE ( 'NONE', *, *, #427, .F. ) ;
#56 = EDGE_CURVE ( 'NONE', #851, #433, #138, .T. ) ;
#57 = FILL_AREA_STYLE_COLOUR ( '', #454 ) ;
#58 = ORIENTED_EDGE ( 'NONE', *, *, #813, .T. ) ;
#59 = LINE ( 'NONE', #598, #511 ) ;
#60 = ORIENTED_EDGE ( 'NONE', *, *, #1095, .T. ) ;
#61 = ORIENTED_EDGE ( 'NONE', *, *, #734, .T. ) ;
#62 = ORIENTED_EDGE ( 'NONE', *, *, #1058, .F. ) ;
#63 = VECTOR ( 'NONE', #292, 1000.000000000000000 ) ;
#64 = CARTESIAN_POINT ( 'NONE',  ( -0.2990000000000000435, 0.2200000000000000289, -0.1489999999999999936 ) ) ;
#65 = ORIENTED_EDGE ( 'NONE', *, *, #606, .T. ) ;
#66 = LINE ( 'NONE', #300, #63 ) ;
#67 = VECTOR ( 'NONE', #775, 1000.000000000000000 ) ;
#68 = CARTESIAN_POINT ( 'NONE',  ( 0.2449999999999997735, 0.1000000000000000056, -0.09500000000000005662 ) ) ;
#69 = ORIENTED_EDGE ( 'NONE', *, *, #750, .F. ) ;
#70 = SURFACE_STYLE_FILL_AREA ( #738 ) ;
#71 = VERTEX_POINT ( 'NONE', #1 ) ;
#72 = FACE_OUTER_BOUND ( 'NONE', #817, .T. ) ;
#73 = ORIENTED_EDGE ( 'NONE', *, *, #586, .F. ) ;
#74 = APPLICATION_PROTOCOL_DEFINITION ( 'draft international standard', 'automotive_design', 1998, #976 ) ;
#75 = PLANE ( 'NONE',  #136 ) ;
#76 = VECTOR ( 'NONE', #1025, 1000.000000000000000 ) ;
#77 = ORIENTED_EDGE ( 'NONE', *, *, #572, .T. ) ;
#78 = AXIS2_PLACEMENT_3D ( 'NONE', #583, #170, #1001 ) ;
#79 = VECTOR ( 'NONE', #605, 1000.000000000000000 ) ;
#80 = ORIENTED_EDGE ( 'NONE', *, *, #735, .F. ) ;
#81 = EDGE_LOOP ( 'NONE', ( #760, #69, #682, #377 ) ) ;
#82 = CARTESIAN_POINT ( 'NONE',  ( 0.2449999999999997735, 0.1000000000000000056, -0.09500000000000005662 ) ) ;
#83 = FACE_OUTER_BOUND ( 'NONE', #797, .T. ) ;
#84 = EDGE_CURVE ( 'NONE', #426, #341, #512, .T. ) ;
#85 = ORIENTED_EDGE ( 'NONE', *, *, #1005, .F. ) ;
#86 = EDGE_LOOP ( 'NONE', ( #757, #990, #233, #363 ) ) ;
#87 = CARTESIAN_POINT ( 'NONE',  ( -0.2449999999999999956, 0.000000000000000000, 0.09499999999999994560 ) ) ;
#88 = ORIENTED_EDGE ( 'NONE', *, *, #604, .T. ) ;
#89 = EDGE_LOOP ( 'NONE', ( #867, #123, #279, #496 ) ) ;
#90 = ORIENTED_EDGE ( 'NONE', *, *, #379, .F. ) ;
#91 = DIRECTION ( 'NONE',  ( 1.819131161888430285E-16, 0.000000000000000000, 1.000000000000000000 ) ) ;
#92 = ORIENTED_EDGE ( 'NONE', *, *, #479, .F. ) ;
#93 = VECTOR ( 'NONE', #592, 1000.000000000000000 ) ;
#94 = ORIENTED_EDGE ( 'NONE', *, *, #556, .F. ) ;
#95 = ORIENTED_EDGE ( 'NONE', *, *, #172, .T. ) ;
#96 = DIRECTION ( 'NONE',  ( -1.000000000000000000, 0.000000000000000000, 1.819131161888430285E-16 ) ) ;
#97 = ORIENTED_EDGE ( 'NONE', *, *, #1005, .T. ) ;
#98 = ORIENTED_EDGE ( 'NONE', *, *, #1103, .F. ) ;
#99 = DIRECTION ( 'NONE',  ( -1.000000000000000000, -0.000000000000000000, -0.000000000000000000 ) ) ;
#100 = DIRECTION ( 'NONE',  ( 1.000000000000000000, 0.000000000000000000, -7.132909029509896943E-17 ) ) ;
#101 = VECTOR ( 'NONE', #187, 1000.000000000000000 ) ;
#102 = ORIENTED_EDGE ( 'NONE', *, *, #796, .T. ) ;
#103 = VERTEX_POINT ( 'NONE', #257 ) ;
#104 = FACE_OUTER_BOUND ( 'NONE', #418, .T. ) ;
#105 = ORIENTED_EDGE ( 'NONE', *, *, #179, .F. ) ;
#106 = CARTESIAN_POINT ( 'NONE',  ( -0.1500000000000001055, 0.2200000000000000289, -0.1489999999999999936 ) ) ;
#107 = VERTEX_POINT ( 'NONE', #533 ) ;
#108 = STYLED_ITEM ( 'NONE', ( #786 ), #625 ) ;
#109 = VERTEX_POINT ( 'NONE', #245 ) ;
#110 = VERTEX_POINT ( 'NONE', #212 ) ;
#111 = DIRECTION ( 'NONE',  ( -1.000000000000000000, -0.000000000000000000, -0.000000000000000000 ) ) ;
#112 = EDGE_CURVE ( 'NONE', #125, #720, #832, .T. ) ;
#113 = VECTOR ( 'NONE', #525, 1000.000000000000000 ) ;
#114 = ORIENTED_EDGE ( 'NONE', *, *, #346, .T. ) ;
#115 = VECTOR ( 'NONE', #1097, 1000.000000000000000 ) ;
#116 = VERTEX_POINT ( 'NONE', #106 ) ;
#117 = CARTESIAN_POINT ( 'NONE',  ( -0.1050000000000000100, 0.000000000000000000, -0.09500000000000005662 ) ) ;
#118 = DIRECTION ( 'NONE',  ( 9.680376540049147084E-17, -0.000000000000000000, 1.000000000000000000 ) ) ;
#119 = VECTOR ( 'NONE', #593, 1000.000000000000000 ) ;
#120 = ORIENTED_EDGE ( 'NONE', *, *, #883, .T. ) ;
#121 = ORIENTED_EDGE ( 'NONE', *, *, #858, .F. ) ;
#122 = VECTOR ( 'NONE', #234, 1000.000000000000000 ) ;
#123 = ORIENTED_EDGE ( 'NONE', *, *, #1095, .F. ) ;
#124 = CARTESIAN_POINT ( 'NONE',  ( 0.1049999999999997741, 0.1000000000000000056, 0.09499999999999993172 ) ) ;
#125 = VERTEX_POINT ( 'NONE', #124 ) ;
#126 = LINE ( 'NONE', #615, #101 ) ;
#127 = LINE ( 'NONE', #613, #879 ) ;
#128 = DIRECTION ( 'NONE',  ( -9.095655809442151424E-17, -0.000000000000000000, -1.000000000000000000 ) ) ;
#129 = ADVANCED_FACE ( 'NONE', ( #847 ), #1037, .F. ) ;
#130 = ORIENTED_EDGE ( 'NONE', *, *, #400, .T. ) ;
#131 = CARTESIAN_POINT ( 'NONE',  ( 0.2449999999999997735, 0.09999999999999999167, -0.09500000000000005662 ) ) ;
#132 = CARTESIAN_POINT ( 'NONE',  ( -0.1050000000000000100, 0.1000000000000000056, -0.09500000000000005662 ) ) ;
#133 = ORIENTED_EDGE ( 'NONE', *, *, #84, .T. ) ;
#134 = VECTOR ( 'NONE', #1064, 1000.000000000000000 ) ;
#135 = VECTOR ( 'NONE', #330, 1000.000000000000000 ) ;
#136 = AXIS2_PLACEMENT_3D ( 'NONE', #971, #677, #767 ) ;
#137 = CARTESIAN_POINT ( 'NONE',  ( -0.2449999999999999956, 0.09999999999999999167, -0.09500000000000005662 ) ) ;
#138 = LINE ( 'NONE', #685, #836 ) ;
#139 = CARTESIAN_POINT ( 'NONE',  ( -0.1500000000000001055, 0.2200000000000000289, -0.1489999999999999936 ) ) ;
#140 = VECTOR ( 'NONE', #872, 1000.000000000000000 ) ;
#141 = SURFACE_STYLE_FILL_AREA ( #290 ) ;
#142 = CARTESIAN_POINT ( 'NONE',  ( 0.2449999999999997735, 0.1000000000000000056, 0.09499999999999994560 ) ) ;
#143 = LINE ( 'NONE', #546, #957 ) ;
#144 = CARTESIAN_POINT ( 'NONE',  ( -0.2449999999999999956, 0.1000000000000000056, -0.09500000000000005662 ) ) ;
#145 = VECTOR ( 'NONE', #503, 1000.000000000000000 ) ;
#146 = LINE ( 'NONE', #907, #134 ) ;
#147 = CARTESIAN_POINT ( 'NONE',  ( -0.2990000000000000435, 0.2200000000000000289, -0.1489999999999999936 ) ) ;
#148 = LINE ( 'NONE', #619, #904 ) ;
#149 =( GEOMETRIC_REPRESENTATION_CONTEXT ( 3 ) GLOBAL_UNCERTAINTY_ASSIGNED_CONTEXT ( ( #1098 ) ) GLOBAL_UNIT_ASSIGNED_CONTEXT ( ( #1015, #492, #47 ) ) REPRESENTATION_CONTEXT ( 'NONE', 'WORKASPACE' ) );
#150 = DIRECTION ( 'NONE',  ( -0.000000000000000000, -1.000000000000000000, -0.000000000000000000 ) ) ;
#151 = LINE ( 'NONE', #622, #523 ) ;
#152 = PRESENTATION_LAYER_ASSIGNMENT (  '', '', ( #1067 ) ) ;
#153 = VECTOR ( 'NONE', #539, 1000.000000000000000 ) ;
#154 =( NAMED_UNIT ( * ) SI_UNIT ( $, .STERADIAN. ) SOLID_ANGLE_UNIT ( ) );
#155 = FACE_OUTER_BOUND ( 'NONE', #812, .T. ) ;
#156 = FACE_OUTER_BOUND ( 'NONE', #729, .T. ) ;
#157 = CARTESIAN_POINT ( 'NONE',  ( -0.3000000000000000999, 0.3200000000000000067, 0.1499999999999999944 ) ) ;
#158 = DIRECTION ( 'NONE',  ( -9.095655809442151424E-17, -0.000000000000000000, -1.000000000000000000 ) ) ;
#159 = CARTESIAN_POINT ( 'NONE',  ( -0.3000000000000000999, 0.000000000000000000, 0.1499999999999999944 ) ) ;
#160 = LINE ( 'NONE', #208, #932 ) ;
#161 = ADVANCED_FACE ( 'NONE', ( #445 ), #1100, .T. ) ;
#162 = LINE ( 'NONE', #87, #580 ) ;
#163 = FACE_OUTER_BOUND ( 'NONE', #256, .T. ) ;
#164 = CARTESIAN_POINT ( 'NONE',  ( -0.3000000000000000999, 0.3200000000000000067, 0.1499999999999999944 ) ) ;
#165 = CARTESIAN_POINT ( 'NONE',  ( 0.2449999999999997735, 0.3360084744241189636, 0.09499999999999994560 ) ) ;
#166 = EDGE_CURVE ( 'NONE', #125, #774, #824, .T. ) ;
#167 = DIRECTION ( 'NONE',  ( 0.000000000000000000, 0.000000000000000000, 1.000000000000000000 ) ) ;
#168 = EDGE_CURVE ( 'NONE', #45, #474, #455, .T. ) ;
#169 = LINE ( 'NONE', #199, #514 ) ;
#170 = DIRECTION ( 'NONE',  ( 1.000000000000000000, 0.000000000000000000, -7.132909029509896943E-17 ) ) ;
#171 = VECTOR ( 'NONE', #1038, 1000.000000000000000 ) ;
#172 = EDGE_CURVE ( 'NONE', #392, #1065, #148, .T. ) ;
#173 = CARTESIAN_POINT ( 'NONE',  ( -0.3000000000000000999, 0.000000000000000000, -0.1499999999999999944 ) ) ;
#174 = VECTOR ( 'NONE', #327, 1000.000000000000000 ) ;
#175 = FACE_OUTER_BOUND ( 'NONE', #1017, .T. ) ;
#176 = CARTESIAN_POINT ( 'NONE',  ( 0.2449999999999997735, 0.3360084744241189636, 0.09499999999999994560 ) ) ;
#177 =( GEOMETRIC_REPRESENTATION_CONTEXT ( 3 ) GLOBAL_UNCERTAINTY_ASSIGNED_CONTEXT ( ( #1031 ) ) GLOBAL_UNIT_ASSIGNED_CONTEXT ( ( #40, #49, #732 ) ) REPRESENTATION_CONTEXT ( 'NONE', 'WORKASPACE' ) );
#178 = LINE ( 'NONE', #131, #946 ) ;
#179 = EDGE_CURVE ( 'NONE', #401, #107, #920, .T. ) ;
#180 = CARTESIAN_POINT ( 'NONE',  ( -0.1049999999999999961, 0.1000000000000000056, 0.09499999999999993172 ) ) ;
#181 = VECTOR ( 'NONE', #339, 1000.000000000000000 ) ;
#182 = LINE ( 'NONE', #446, #181 ) ;
#183 = CARTESIAN_POINT ( 'NONE',  ( -0.2449999999999999956, 0.000000000000000000, -0.09500000000000005662 ) ) ;
#184 = CARTESIAN_POINT ( 'NONE',  ( -0.1500000000000000777, 0.3200000000000000067, 0.1489999999999999936 ) ) ;
#185 = PLANE ( 'NONE',  #376 ) ;
#186 = DIRECTION ( 'NONE',  ( 7.132909029509896943E-17, 0.000000000000000000, 1.000000000000000000 ) ) ;
#187 = DIRECTION ( 'NONE',  ( 0.000000000000000000, -1.000000000000000000, 0.000000000000000000 ) ) ;
#188 = CARTESIAN_POINT ( 'NONE',  ( 0.2999999999999998779, 0.3200000000000000067, 0.1499999999999999944 ) ) ;
#189 = VECTOR ( 'NONE', #150, 1000.000000000000000 ) ;
#190 = DIRECTION ( 'NONE',  ( -0.000000000000000000, -0.000000000000000000, -1.000000000000000000 ) ) ;
#191 = LINE ( 'NONE', #653, #609 ) ;
#192 = EDGE_CURVE ( 'NONE', #449, #1091, #151, .T. ) ;
#193 = CARTESIAN_POINT ( 'NONE',  ( 0.000000000000000000, 0.000000000000000000, 0.000000000000000000 ) ) ;
#194 = DIRECTION ( 'NONE',  ( 0.000000000000000000, -0.000000000000000000, 1.000000000000000000 ) ) ;
#195 = FACE_OUTER_BOUND ( 'NONE', #443, .T. ) ;
#196 = DIRECTION ( 'NONE',  ( -1.000000000000000000, -0.000000000000000000, -0.000000000000000000 ) ) ;
#197 = FACE_OUTER_BOUND ( 'NONE', #839, .T. ) ;
#198 = DIRECTION ( 'NONE',  ( 0.000000000000000000, 0.000000000000000000, 1.000000000000000000 ) ) ;
#199 = CARTESIAN_POINT ( 'NONE',  ( -0.1500000000000000777, 0.2200000000000000289, 0.1489999999999999936 ) ) ;
#200 = DIRECTION ( 'NONE',  ( 0.000000000000000000, -0.000000000000000000, 1.000000000000000000 ) ) ;
#201 = DIRECTION ( 'NONE',  ( -1.000000000000000000, 0.000000000000000000, -0.000000000000000000 ) ) ;
#202 = MECHANICAL_DESIGN_GEOMETRIC_PRESENTATION_REPRESENTATION (  '', ( #108 ), #959 ) ;
#203 = VECTOR ( 'NONE', #463, 1000.000000000000000 ) ;
#204 = SURFACE_STYLE_FILL_AREA ( #631 ) ;
#205 = DIRECTION ( 'NONE',  ( -9.095655809442151424E-17, 0.000000000000000000, -1.000000000000000000 ) ) ;
#206 = EDGE_CURVE ( 'NONE', #335, #780, #895, .T. ) ;
#207 = LINE ( 'NONE', #637, #552 ) ;
#208 = CARTESIAN_POINT ( 'NONE',  ( -0.2449999999999999956, 0.000000000000000000, -0.09500000000000005662 ) ) ;
#209 = DIRECTION ( 'NONE',  ( 0.000000000000000000, 1.000000000000000000, 0.000000000000000000 ) ) ;
#210 = COLOUR_RGB ( '',1.000000000000000000, 1.000000000000000000, 1.000000000000000000 ) ;
#211 = ADVANCED_FACE ( 'NONE', ( #175 ), #75, .F. ) ;
#212 = CARTESIAN_POINT ( 'NONE',  ( 0.2999999999999998779, 0.000000000000000000, -0.1499999999999999944 ) ) ;
#213 = PLANE ( 'NONE',  #1092 ) ;
#214 = CARTESIAN_POINT ( 'NONE',  ( -0.2989999999999999880, 0.2200000000000000289, 0.1489999999999999936 ) ) ;
#215 = EDGE_CURVE ( 'NONE', #401, #248, #892, .T. ) ;
#216 = CARTESIAN_POINT ( 'NONE',  ( -0.1050000000000000100, 0.000000000000000000, -0.09500000000000005662 ) ) ;
#217 = EDGE_CURVE ( 'NONE', #335, #1091, #532, .T. ) ;
#218 = EDGE_CURVE ( 'NONE', #432, #774, #143, .T. ) ;
#219 = VECTOR ( 'NONE', #564, 1000.000000000000000 ) ;
#220 = CARTESIAN_POINT ( 'NONE',  ( 0.2449999999999997735, 0.000000000000000000, -0.09500000000000005662 ) ) ;
#221 = CARTESIAN_POINT ( 'NONE',  ( -0.2989999999999999880, 0.2200000000000000289, 0.1489999999999999936 ) ) ;
#222 = DIRECTION ( 'NONE',  ( -0.000000000000000000, -1.000000000000000000, -0.000000000000000000 ) ) ;
#223 = FILL_AREA_STYLE_COLOUR ( '', #542 ) ;
#224 = EDGE_CURVE ( 'NONE', #851, #772, #974, .T. ) ;
#225 = LINE ( 'NONE', #1034, #219 ) ;
#226 = CARTESIAN_POINT ( 'NONE',  ( -0.3000000000000000999, 0.3200000000000000067, 0.1499999999999999944 ) ) ;
#227 = DIRECTION ( 'NONE',  ( 1.000000000000000000, 0.000000000000000000, 0.000000000000000000 ) ) ;
#228 = CARTESIAN_POINT ( 'NONE',  ( -0.2449999999999999956, 0.3360084744241189636, 0.09499999999999994560 ) ) ;
#229 = MANIFOLD_SOLID_BREP ( 'Cut-Extrude2', #1089 ) ;
#230 = DIRECTION ( 'NONE',  ( -0.000000000000000000, -1.000000000000000000, -0.000000000000000000 ) ) ;
#231 = EDGE_CURVE ( 'NONE', #986, #866, #582, .T. ) ;
#232 = DIRECTION ( 'NONE',  ( -9.680376540049147084E-17, 0.000000000000000000, 1.000000000000000000 ) ) ;
#233 = ORIENTED_EDGE ( 'NONE', *, *, #263, .F. ) ;
#234 = DIRECTION ( 'NONE',  ( 7.132909029509896943E-17, -0.000000000000000000, -1.000000000000000000 ) ) ;
#235 = FACE_OUTER_BOUND ( 'NONE', #806, .T. ) ;
#236 = DIRECTION ( 'NONE',  ( 0.000000000000000000, 0.000000000000000000, 1.000000000000000000 ) ) ;
#237 = DIRECTION ( 'NONE',  ( 1.000000000000000000, -0.000000000000000000, 0.000000000000000000 ) ) ;
#238 = AXIS2_PLACEMENT_3D ( 'NONE', #313, #412, #1076 ) ;
#239 = VECTOR ( 'NONE', #209, 1000.000000000000000 ) ;
#240 = VERTEX_POINT ( 'NONE', #357 ) ;
#241 = VECTOR ( 'NONE', #230, 1000.000000000000000 ) ;
#242 = DIRECTION ( 'NONE',  ( 1.000000000000000000, 0.000000000000000000, 0.000000000000000000 ) ) ;
#243 = LINE ( 'NONE', #663, #140 ) ;
#244 = ORIENTED_EDGE ( 'NONE', *, *, #1035, .F. ) ;
#245 = CARTESIAN_POINT ( 'NONE',  ( 0.1049999999999997741, 0.000000000000000000, 0.09499999999999993172 ) ) ;
#246 = VECTOR ( 'NONE', #1051, 1000.000000000000000 ) ;
#247 = CARTESIAN_POINT ( 'NONE',  ( -0.2989999999999999880, 0.2200000000000000289, 0.1489999999999999936 ) ) ;
#248 = VERTEX_POINT ( 'NONE', #941 ) ;
#249 = AXIS2_PLACEMENT_3D ( 'NONE', #422, #680, #1018 ) ;
#250 = DIRECTION ( 'NONE',  ( 0.000000000000000000, -0.000000000000000000, 1.000000000000000000 ) ) ;
#251 = EDGE_CURVE ( 'NONE', #433, #882, #588, .T. ) ;
#252 = DIRECTION ( 'NONE',  ( -0.000000000000000000, 1.000000000000000000, -0.000000000000000000 ) ) ;
#253 = DIRECTION ( 'NONE',  ( 1.819131161888430285E-16, 0.000000000000000000, 1.000000000000000000 ) ) ;
#254 = MANIFOLD_SOLID_BREP ( 'Boss-Extrude2', #833 ) ;
#255 = PLANE ( 'NONE',  #913 ) ;
#256 = EDGE_LOOP ( 'NONE', ( #440, #691, #1006, #849 ) ) ;
#257 = CARTESIAN_POINT ( 'NONE',  ( 0.2449999999999997735, 0.1000000000000000056, -0.09500000000000005662 ) ) ;
#258 = ORIENTED_EDGE ( 'NONE', *, *, #442, .T. ) ;
#259 = LINE ( 'NONE', #355, #246 ) ;
#260 = PLANE ( 'NONE',  #249 ) ;
#261 = AXIS2_PLACEMENT_3D ( 'NONE', #132, #100, #1039 ) ;
#262 = ORIENTED_EDGE ( 'NONE', *, *, #112, .T. ) ;
#263 = EDGE_CURVE ( 'NONE', #777, #1094, #405, .T. ) ;
#264 = ORIENTED_EDGE ( 'NONE', *, *, #900, .T. ) ;
#265 = DIRECTION ( 'NONE',  ( -0.000000000000000000, -0.000000000000000000, 1.000000000000000000 ) ) ;
#266 = VERTEX_POINT ( 'NONE', #226 ) ;
#267 = DIRECTION ( 'NONE',  ( -1.000000000000000000, 0.000000000000000000, 0.000000000000000000 ) ) ;
#268 = CARTESIAN_POINT ( 'NONE',  ( -0.2449999999999999956, 0.1000000000000000056, -0.09500000000000005662 ) ) ;
#269 = ADVANCED_FACE ( 'NONE', ( #378 ), #518, .T. ) ;
#270 = DIRECTION ( 'NONE',  ( 7.132909029509896943E-17, -0.000000000000000000, 1.000000000000000000 ) ) ;
#271 = PLANE ( 'NONE',  #553 ) ;
#272 = ORIENTED_EDGE ( 'NONE', *, *, #168, .T. ) ;
#273 = DIRECTION ( 'NONE',  ( 1.000000000000000000, 0.000000000000000000, -0.000000000000000000 ) ) ;
#274 = AXIS2_PLACEMENT_3D ( 'NONE', #64, #96, #253 ) ;
#275 = ORIENTED_EDGE ( 'NONE', *, *, #747, .T. ) ;
#276 = CARTESIAN_POINT ( 'NONE',  ( -0.1500000000000001055, 0.2200000000000000289, -0.1489999999999999936 ) ) ;
#277 = EDGE_CURVE ( 'NONE', #116, #799, #374, .T. ) ;
#278 = SURFACE_STYLE_FILL_AREA ( #340 ) ;
#279 = ORIENTED_EDGE ( 'NONE', *, *, #322, .F. ) ;
#280 = CARTESIAN_POINT ( 'NONE',  ( -0.1050000000000000100, 0.1000000000000000056, -0.09500000000000005662 ) ) ;
#281 = ORIENTED_EDGE ( 'NONE', *, *, #1116, .F. ) ;
#282 = CARTESIAN_POINT ( 'NONE',  ( -0.1050000000000000100, 0.1000000000000000056, -0.09500000000000005662 ) ) ;
#283 = EDGE_LOOP ( 'NONE', ( #244, #982, #1063, #696 ) ) ;
#284 = PLANE ( 'NONE',  #475 ) ;
#285 = ADVANCED_FACE ( 'NONE', ( #29 ), #710, .F. ) ;
#286 = AXIS2_PLACEMENT_3D ( 'NONE', #947, #600, #1007 ) ;
#287 =( NAMED_UNIT ( * ) PLANE_ANGLE_UNIT ( ) SI_UNIT ( $, .RADIAN. ) );
#288 = EDGE_CURVE ( 'NONE', #886, #612, #423, .T. ) ;
#289 = CARTESIAN_POINT ( 'NONE',  ( 0.1049999999999997879, 0.09999999999999999167, -0.09500000000000005662 ) ) ;
#290 = FILL_AREA_STYLE ('',( #223 ) ) ;
#291 = ADVANCED_FACE ( 'NONE', ( #756 ), #507, .T. ) ;
#292 = DIRECTION ( 'NONE',  ( -0.000000000000000000, -1.000000000000000000, -0.000000000000000000 ) ) ;
#293 = ORIENTED_EDGE ( 'NONE', *, *, #224, .F. ) ;
#294 = AXIS2_PLACEMENT_3D ( 'NONE', #714, #1046, #194 ) ;
#295 = AXIS2_PLACEMENT_3D ( 'NONE', #891, #1041, #785 ) ;
#296 = ORIENTED_EDGE ( 'NONE', *, *, #595, .T. ) ;
#297 = DIRECTION ( 'NONE',  ( -1.000000000000000000, 0.000000000000000000, -9.680376540049147084E-17 ) ) ;
#298 = EDGE_CURVE ( 'NONE', #774, #337, #395, .T. ) ;
#299 = ORIENTED_EDGE ( 'NONE', *, *, #586, .T. ) ;
#300 = CARTESIAN_POINT ( 'NONE',  ( -0.3000000000000000999, 0.3200000000000000067, -0.1499999999999999944 ) ) ;
#301 = ORIENTED_EDGE ( 'NONE', *, *, #747, .F. ) ;
#302 = DIRECTION ( 'NONE',  ( -0.000000000000000000, -0.000000000000000000, -1.000000000000000000 ) ) ;
#303 = ORIENTED_EDGE ( 'NONE', *, *, #813, .F. ) ;
#304 = DIRECTION ( 'NONE',  ( -0.000000000000000000, 1.000000000000000000, 0.000000000000000000 ) ) ;
#305 = ORIENTED_EDGE ( 'NONE', *, *, #994, .F. ) ;
#306 = DIRECTION ( 'NONE',  ( -1.000000000000000000, 0.000000000000000000, -0.000000000000000000 ) ) ;
#307 = ADVANCED_FACE ( 'NONE', ( #383, #805 ), #924, .F. ) ;
#308 = DIRECTION ( 'NONE',  ( 9.680376540049147084E-17, 0.000000000000000000, 1.000000000000000000 ) ) ;
#309 = VERTEX_POINT ( 'NONE', #144 ) ;
#310 = EDGE_LOOP ( 'NONE', ( #51, #293, #85, #769 ) ) ;
#311 = CARTESIAN_POINT ( 'NONE',  ( -0.2449999999999999956, 0.09999999999999999167, -0.09500000000000005662 ) ) ;
#312 = ORIENTED_EDGE ( 'NONE', *, *, #1011, .F. ) ;
#313 = CARTESIAN_POINT ( 'NONE',  ( 0.000000000000000000, 0.1000000000000000056, 0.000000000000000000 ) ) ;
#314 = VERTEX_POINT ( 'NONE', #216 ) ;
#315 = ADVANCED_FACE ( 'NONE', ( #386 ), #1030, .F. ) ;
#316 = PRODUCT_CONTEXT ( 'NONE', #783, 'mechanical' ) ;
#317 = ORIENTED_EDGE ( 'NONE', *, *, #298, .F. ) ;
#318 = PLANE ( 'NONE',  #1071 ) ;
#319 = EDGE_LOOP ( 'NONE', ( #33, #133, #853, #723 ) ) ;
#320 = DIRECTION ( 'NONE',  ( -1.000000000000000000, 0.000000000000000000, -0.000000000000000000 ) ) ;
#321 =( GEOMETRIC_REPRESENTATION_CONTEXT ( 3 ) GLOBAL_UNCERTAINTY_ASSIGNED_CONTEXT ( ( #644 ) ) GLOBAL_UNIT_ASSIGNED_CONTEXT ( ( #820, #287, #154 ) ) REPRESENTATION_CONTEXT ( 'NONE', 'WORKASPACE' ) );
#322 = EDGE_CURVE ( 'NONE', #103, #845, #20, .T. ) ;
#323 = ORIENTED_EDGE ( 'NONE', *, *, #10, .F. ) ;
#324 = ORIENTED_EDGE ( 'NONE', *, *, #660, .F. ) ;
#325 = ADVANCED_BREP_SHAPE_REPRESENTATION ( 'BAT30F4', ( #254, #229, #625, #742, #678 ), #149 ) ;
#326 = VERTEX_POINT ( 'NONE', #1096 ) ;
#327 = DIRECTION ( 'NONE',  ( 7.132909029509896943E-17, 0.000000000000000000, 1.000000000000000000 ) ) ;
#328 = CARTESIAN_POINT ( 'NONE',  ( -0.2989999999999999880, -0.1131741286474686053, 0.1489999999999999936 ) ) ;
#329 = CLOSED_SHELL ( 'NONE', ( #908, #285, #1044, #547, #161, #291 ) ) ;
#330 = DIRECTION ( 'NONE',  ( -0.000000000000000000, -1.000000000000000000, -0.000000000000000000 ) ) ;
#331 = AXIS2_PLACEMENT_3D ( 'NONE', #566, #993, #457 ) ;
#332 = PLANE ( 'NONE',  #759 ) ;
#333 = EDGE_CURVE ( 'NONE', #1048, #314, #126, .T. ) ;
#334 = EDGE_CURVE ( 'NONE', #489, #248, #505, .T. ) ;
#335 = VERTEX_POINT ( 'NONE', #247 ) ;
#336 = DIRECTION ( 'NONE',  ( -0.000000000000000000, -1.000000000000000000, -0.000000000000000000 ) ) ;
#337 = VERTEX_POINT ( 'NONE', #758 ) ;
#338 =( NAMED_UNIT ( * ) PLANE_ANGLE_UNIT ( ) SI_UNIT ( $, .RADIAN. ) );
#339 = DIRECTION ( 'NONE',  ( 0.000000000000000000, -1.000000000000000000, 0.000000000000000000 ) ) ;
#340 = FILL_AREA_STYLE ('',( #554 ) ) ;
#341 = VERTEX_POINT ( 'NONE', #311 ) ;
#342 =( GEOMETRIC_REPRESENTATION_CONTEXT ( 3 ) GLOBAL_UNCERTAINTY_ASSIGNED_CONTEXT ( ( #370 ) ) GLOBAL_UNIT_ASSIGNED_CONTEXT ( ( #559, #338, #645 ) ) REPRESENTATION_CONTEXT ( 'NONE', 'WORKASPACE' ) );
#343 = SHAPE_DEFINITION_REPRESENTATION ( #369, #325 ) ;
#344 = VERTEX_POINT ( 'NONE', #1087 ) ;
#345 = AXIS2_PLACEMENT_3D ( 'NONE', #425, #37, #250 ) ;
#346 = EDGE_CURVE ( 'NONE', #715, #415, #885, .T. ) ;
#347 = EDGE_LOOP ( 'NONE', ( #494, #1101, #764, #1014 ) ) ;
#348 = ADVANCED_FACE ( 'NONE', ( #83 ), #863, .F. ) ;
#349 = CARTESIAN_POINT ( 'NONE',  ( 0.2999999999999998779, 0.000000000000000000, 0.1499999999999999944 ) ) ;
#350 = DIRECTION ( 'NONE',  ( -0.000000000000000000, -1.000000000000000000, -0.000000000000000000 ) ) ;
#351 = ORIENTED_EDGE ( 'NONE', *, *, #573, .T. ) ;
#352 = PLANE ( 'NONE',  #331 ) ;
#353 = VERTEX_POINT ( 'NONE', #431 ) ;
#354 = FACE_OUTER_BOUND ( 'NONE', #842, .T. ) ;
#355 = CARTESIAN_POINT ( 'NONE',  ( 0.2999999999999998779, 0.3200000000000000067, 0.1499999999999999944 ) ) ;
#356 = ORIENTED_EDGE ( 'NONE', *, *, #573, .F. ) ;
#357 = CARTESIAN_POINT ( 'NONE',  ( -0.1500000000000000777, 0.2200000000000000289, 0.1489999999999999936 ) ) ;
#358 = PRODUCT_DEFINITION ( 'UNKNOWN', '', #515, #601 ) ;
#359 = FACE_OUTER_BOUND ( 'NONE', #421, .T. ) ;
#360 = ORIENTED_EDGE ( 'NONE', *, *, #606, .F. ) ;
#361 = CARTESIAN_POINT ( 'NONE',  ( -0.3000000000000000999, 0.3200000000000000067, 0.1499999999999999944 ) ) ;
#362 = LINE ( 'NONE', #139, #387 ) ;
#363 = ORIENTED_EDGE ( 'NONE', *, *, #604, .F. ) ;
#364 = LINE ( 'NONE', #164, #390 ) ;
#365 = CARTESIAN_POINT ( 'NONE',  ( -0.3000000000000000999, 0.000000000000000000, 0.1499999999999999944 ) ) ;
#366 = DIRECTION ( 'NONE',  ( -0.000000000000000000, 1.000000000000000000, -0.000000000000000000 ) ) ;
#367 = VECTOR ( 'NONE', #705, 1000.000000000000000 ) ;
#368 = ADVANCED_FACE ( 'NONE', ( #104 ), #778, .F. ) ;
#369 = PRODUCT_DEFINITION_SHAPE ( 'NONE', 'NONE',  #358 ) ;
#370 = UNCERTAINTY_MEASURE_WITH_UNIT (LENGTH_MEASURE( 1.000000000000000082E-05 ), #559, 'distance_accuracy_value', 'NONE');
#371 = DIRECTION ( 'NONE',  ( 0.000000000000000000, 1.000000000000000000, 0.000000000000000000 ) ) ;
#372 = FACE_OUTER_BOUND ( 'NONE', #1086, .T. ) ;
#373 = EDGE_LOOP ( 'NONE', ( #41, #438, #717, #98 ) ) ;
#374 = LINE ( 'NONE', #928, #15 ) ;
#375 = CARTESIAN_POINT ( 'NONE',  ( 0.2449999999999997735, 0.1000000000000000056, -0.09500000000000005662 ) ) ;
#376 = AXIS2_PLACEMENT_3D ( 'NONE', #68, #840, #320 ) ;
#377 = ORIENTED_EDGE ( 'NONE', *, *, #231, .F. ) ;
#378 = FACE_OUTER_BOUND ( 'NONE', #24, .T. ) ;
#379 = EDGE_CURVE ( 'NONE', #45, #110, #464, .T. ) ;
#380 =( NAMED_UNIT ( * ) SI_UNIT ( $, .STERADIAN. ) SOLID_ANGLE_UNIT ( ) );
#381 = VECTOR ( 'NONE', #914, 1000.000000000000000 ) ;
#382 = ADVANCED_FACE ( 'NONE', ( #481 ), #260, .T. ) ;
#383 = FACE_BOUND ( 'NONE', #1075, .T. ) ;
#384 = VECTOR ( 'NONE', #1010, 1000.000000000000000 ) ;
#385 = CARTESIAN_POINT ( 'NONE',  ( 0.000000000000000000, 0.2200000000000000289, 0.000000000000000000 ) ) ;
#386 = FACE_OUTER_BOUND ( 'NONE', #1016, .T. ) ;
#387 = VECTOR ( 'NONE', #128, 1000.000000000000000 ) ;
#388 = DIRECTION ( 'NONE',  ( -1.000000000000000000, -0.000000000000000000, 9.680376540049147084E-17 ) ) ;
#389 = ORIENTED_EDGE ( 'NONE', *, *, #399, .T. ) ;
#390 = VECTOR ( 'NONE', #629, 1000.000000000000000 ) ;
#391 = SURFACE_STYLE_FILL_AREA ( #724 ) ;
#392 = VERTEX_POINT ( 'NONE', #416 ) ;
#393 = ORIENTED_EDGE ( 'NONE', *, *, #179, .T. ) ;
#394 = STYLED_ITEM ( 'NONE', ( #972 ), #229 ) ;
#395 = LINE ( 'NONE', #802, #1123 ) ;
#396 = DIRECTION ( 'NONE',  ( 1.000000000000000000, 0.000000000000000000, -0.000000000000000000 ) ) ;
#397 = VERTEX_POINT ( 'NONE', #184 ) ;
#398 = VECTOR ( 'NONE', #562, 1000.000000000000000 ) ;
#399 = EDGE_CURVE ( 'NONE', #107, #240, #59, .T. ) ;
#400 = EDGE_CURVE ( 'NONE', #612, #109, #468, .T. ) ;
#401 = VERTEX_POINT ( 'NONE', #535 ) ;
#402 = DIRECTION ( 'NONE',  ( 0.000000000000000000, 0.000000000000000000, -1.000000000000000000 ) ) ;
#403 = LINE ( 'NONE', #147, #1118 ) ;
#404 = CARTESIAN_POINT ( 'NONE',  ( -0.2449999999999999956, 0.1000000000000000056, -0.09500000000000005662 ) ) ;
#405 = LINE ( 'NONE', #159, #776 ) ;
#406 = ORIENTED_EDGE ( 'NONE', *, *, #1103, .T. ) ;
#407 = ADVANCED_FACE ( 'NONE', ( #873 ), #1111, .F. ) ;
#408 = ORIENTED_EDGE ( 'NONE', *, *, #660, .T. ) ;
#409 = PRODUCT_RELATED_PRODUCT_CATEGORY ( 'part', '', ( #1060 ) ) ;
#410 = CARTESIAN_POINT ( 'NONE',  ( -0.2449999999999999956, 0.09999999999999999167, -0.09500000000000005662 ) ) ;
#411 = ORIENTED_EDGE ( 'NONE', *, *, #858, .T. ) ;
#412 = DIRECTION ( 'NONE',  ( -0.000000000000000000, 1.000000000000000000, 0.000000000000000000 ) ) ;
#413 = ORIENTED_EDGE ( 'NONE', *, *, #779, .T. ) ;
#414 = AXIS2_PLACEMENT_3D ( 'NONE', #771, #198, #396 ) ;
#415 = VERTEX_POINT ( 'NONE', #896 ) ;
#416 = CARTESIAN_POINT ( 'NONE',  ( 0.2449999999999997735, 0.09999999999999999167, -0.09500000000000005662 ) ) ;
#417 = ORIENTED_EDGE ( 'NONE', *, *, #1021, .F. ) ;
#418 = EDGE_LOOP ( 'NONE', ( #39, #80, #62, #1050 ) ) ;
#419 =( LENGTH_UNIT ( ) NAMED_UNIT ( * ) SI_UNIT ( .MILLI., .METRE. ) );
#420 = ORIENTED_EDGE ( 'NONE', *, *, #659, .T. ) ;
#421 = EDGE_LOOP ( 'NONE', ( #1107, #819, #852, #65 ) ) ;
#422 = CARTESIAN_POINT ( 'NONE',  ( 0.2449999999999997735, 0.3360084744241189636, -0.09500000000000005662 ) ) ;
#423 = LINE ( 'NONE', #991, #803 ) ;
#424 = ORIENTED_EDGE ( 'NONE', *, *, #527, .T. ) ;
#425 = CARTESIAN_POINT ( 'NONE',  ( 0.000000000000000000, 0.3200000000000000067, 0.000000000000000000 ) ) ;
#426 = VERTEX_POINT ( 'NONE', #522 ) ;
#427 = EDGE_CURVE ( 'NONE', #103, #827, #447, .T. ) ;
#428 = DIRECTION ( 'NONE',  ( 0.000000000000000000, 1.000000000000000000, 0.000000000000000000 ) ) ;
#429 = PRESENTATION_STYLE_ASSIGNMENT (( #997 ) ) ;
#430 = EDGE_CURVE ( 'NONE', #248, #18, #818, .T. ) ;
#431 = CARTESIAN_POINT ( 'NONE',  ( 0.2999999999999998779, 0.3200000000000000067, 0.1499999999999999944 ) ) ;
#432 = VERTEX_POINT ( 'NONE', #53 ) ;
#433 = VERTEX_POINT ( 'NONE', #180 ) ;
#434 = DIRECTION ( 'NONE',  ( 1.000000000000000000, 0.000000000000000000, 0.000000000000000000 ) ) ;
#435 = CARTESIAN_POINT ( 'NONE',  ( 0.2449999999999997735, 0.000000000000000000, 0.09499999999999994560 ) ) ;
#436 = ADVANCED_FACE ( 'NONE', ( #1112 ), #318, .F. ) ;
#437 = PLANE ( 'NONE',  #295 ) ;
#438 = ORIENTED_EDGE ( 'NONE', *, *, #722, .T. ) ;
#439 = DIRECTION ( 'NONE',  ( 0.000000000000000000, 0.000000000000000000, -1.000000000000000000 ) ) ;
#440 = ORIENTED_EDGE ( 'NONE', *, *, #519, .F. ) ;
#441 = VECTOR ( 'NONE', #561, 1000.000000000000000 ) ;
#442 = EDGE_CURVE ( 'NONE', #266, #353, #364, .T. ) ;
#443 = EDGE_LOOP ( 'NONE', ( #1056, #647, #651, #859 ) ) ;
#444 = PLANE ( 'NONE',  #621 ) ;
#445 = FACE_OUTER_BOUND ( 'NONE', #793, .T. ) ;
#446 = CARTESIAN_POINT ( 'NONE',  ( 0.1049999999999997879, 0.3360084744241189636, -0.09500000000000005662 ) ) ;
#447 = LINE ( 'NONE', #945, #119 ) ;
#448 = EDGE_CURVE ( 'NONE', #1091, #326, #1114, .T. ) ;
#449 = VERTEX_POINT ( 'NONE', #557 ) ;
#450 = ORIENTED_EDGE ( 'NONE', *, *, #1116, .T. ) ;
#451 =( NAMED_UNIT ( * ) PLANE_ANGLE_UNIT ( ) SI_UNIT ( $, .RADIAN. ) );
#452 = DIRECTION ( 'NONE',  ( 1.819131161888430285E-16, 0.000000000000000000, 1.000000000000000000 ) ) ;
#453 = ORIENTED_EDGE ( 'NONE', *, *, #448, .T. ) ;
#454 = COLOUR_RGB ( '',0.7921568627450980005, 0.8196078431372548767, 0.9333333333333333481 ) ;
#455 = LINE ( 'NONE', #1110, #459 ) ;
#456 = ADVANCED_FACE ( 'NONE', ( #372 ), #352, .T. ) ;
#457 = DIRECTION ( 'NONE',  ( 0.000000000000000000, -0.000000000000000000, 1.000000000000000000 ) ) ;
#458 = EDGE_LOOP ( 'NONE', ( #862, #654, #855, #97 ) ) ;
#459 = VECTOR ( 'NONE', #196, 1000.000000000000000 ) ;
#460 = EDGE_LOOP ( 'NONE', ( #88, #360, #1068, #831 ) ) ;
#461 = LINE ( 'NONE', #743, #470 ) ;
#462 = ORIENTED_EDGE ( 'NONE', *, *, #504, .F. ) ;
#463 = DIRECTION ( 'NONE',  ( -0.000000000000000000, 1.000000000000000000, -0.000000000000000000 ) ) ;
#464 = LINE ( 'NONE', #1023, #135 ) ;
#465 = ORIENTED_EDGE ( 'NONE', *, *, #192, .F. ) ;
#466 = ORIENTED_EDGE ( 'NONE', *, *, #172, .F. ) ;
#467 = DIRECTION ( 'NONE',  ( 0.000000000000000000, -0.000000000000000000, 1.000000000000000000 ) ) ;
#468 = LINE ( 'NONE', #1093, #848 ) ;
#469 = ORIENTED_EDGE ( 'NONE', *, *, #277, .F. ) ;
#470 = VECTOR ( 'NONE', #237, 1000.000000000000000 ) ;
#471 = FACE_OUTER_BOUND ( 'NONE', #89, .T. ) ;
#472 = VECTOR ( 'NONE', #222, 1000.000000000000000 ) ;
#473 = CARTESIAN_POINT ( 'NONE',  ( 0.2449999999999997735, 0.09999999999999999167, -0.09500000000000005662 ) ) ;
#474 = VERTEX_POINT ( 'NONE', #569 ) ;
#475 = AXIS2_PLACEMENT_3D ( 'NONE', #361, #3, #439 ) ;
#476 = ORIENTED_EDGE ( 'NONE', *, *, #206, .F. ) ;
#477 = ORIENTED_EDGE ( 'NONE', *, *, #659, .F. ) ;
#478 = DIRECTION ( 'NONE',  ( -9.095655809442152657E-17, 0.000000000000000000, -1.000000000000000000 ) ) ;
#479 = EDGE_CURVE ( 'NONE', #1065, #1022, #746, .T. ) ;
#480 = LINE ( 'NONE', #157, #472 ) ;
#481 = FACE_OUTER_BOUND ( 'NONE', #1077, .T. ) ;
#482 = ORIENTED_EDGE ( 'NONE', *, *, #334, .T. ) ;
#483 = LINE ( 'NONE', #815, #145 ) ;
#484 = SURFACE_STYLE_USAGE ( .BOTH. , #1080 ) ;
#485 = ORIENTED_EDGE ( 'NONE', *, *, #430, .F. ) ;
#486 = VECTOR ( 'NONE', #190, 1000.000000000000000 ) ;
#487 = DIRECTION ( 'NONE',  ( 0.000000000000000000, 0.000000000000000000, -1.000000000000000000 ) ) ;
#488 = ORIENTED_EDGE ( 'NONE', *, *, #540, .T. ) ;
#489 = VERTEX_POINT ( 'NONE', #985 ) ;
#490 = ORIENTED_EDGE ( 'NONE', *, *, #298, .T. ) ;
#491 = ORIENTED_EDGE ( 'NONE', *, *, #994, .T. ) ;
#492 =( NAMED_UNIT ( * ) PLANE_ANGLE_UNIT ( ) SI_UNIT ( $, .RADIAN. ) );
#493 = DIRECTION ( 'NONE',  ( 0.000000000000000000, -1.000000000000000000, 0.000000000000000000 ) ) ;
#494 = ORIENTED_EDGE ( 'NONE', *, *, #231, .T. ) ;
#495 = VERTEX_POINT ( 'NONE', #814 ) ;
#496 = ORIENTED_EDGE ( 'NONE', *, *, #427, .T. ) ;
#497 = AXIS2_PLACEMENT_3D ( 'NONE', #228, #308, #944 ) ;
#498 = DIRECTION ( 'NONE',  ( 1.000000000000000000, 0.000000000000000000, 0.000000000000000000 ) ) ;
#499 = DIRECTION ( 'NONE',  ( 0.000000000000000000, -1.000000000000000000, 0.000000000000000000 ) ) ;
#500 = ORIENTED_EDGE ( 'NONE', *, *, #970, .F. ) ;
#501 = LINE ( 'NONE', #165, #508 ) ;
#502 = LINE ( 'NONE', #702, #888 ) ;
#503 = DIRECTION ( 'NONE',  ( 9.095655809442152657E-17, -0.000000000000000000, 1.000000000000000000 ) ) ;
#504 = EDGE_CURVE ( 'NONE', #392, #886, #761, .T. ) ;
#505 = LINE ( 'NONE', #671, #841 ) ;
#506 = EDGE_LOOP ( 'NONE', ( #676, #356, #73, #1019 ) ) ;
#507 = PLANE ( 'NONE',  #78 ) ;
#508 = VECTOR ( 'NONE', #499, 1000.000000000000000 ) ;
#509 = SURFACE_STYLE_USAGE ( .BOTH. , #584 ) ;
#510 = EDGE_LOOP ( 'NONE', ( #490, #808, #7, #5 ) ) ;
#511 = VECTOR ( 'NONE', #242, 1000.000000000000000 ) ;
#512 = LINE ( 'NONE', #137, #441 ) ;
#513 = DIRECTION ( 'NONE',  ( 0.000000000000000000, -1.000000000000000000, 0.000000000000000000 ) ) ;
#514 = VECTOR ( 'NONE', #366, 1000.000000000000000 ) ;
#515 = PRODUCT_DEFINITION_FORMATION_WITH_SPECIFIED_SOURCE ( 'ANY', '', #1060, .NOT_KNOWN. ) ;
#516 = LINE ( 'NONE', #375, #894 ) ;
#517 = AXIS2_PLACEMENT_3D ( 'NONE', #1013, #1090, #880 ) ;
#518 = PLANE ( 'NONE',  #809 ) ;
#519 = EDGE_CURVE ( 'NONE', #495, #335, #1109, .T. ) ;
#520 = DIRECTION ( 'NONE',  ( 0.000000000000000000, 0.000000000000000000, -1.000000000000000000 ) ) ;
#521 = FACE_OUTER_BOUND ( 'NONE', #86, .T. ) ;
#522 = CARTESIAN_POINT ( 'NONE',  ( -0.2449999999999999956, 0.09999999999999999167, 0.09499999999999994560 ) ) ;
#523 = VECTOR ( 'NONE', #91, 1000.000000000000000 ) ;
#524 = VECTOR ( 'NONE', #252, 1000.000000000000000 ) ;
#525 = DIRECTION ( 'NONE',  ( -0.000000000000000000, -1.000000000000000000, -0.000000000000000000 ) ) ;
#526 = LINE ( 'NONE', #31, #534 ) ;
#527 = EDGE_CURVE ( 'NONE', #612, #46, #19, .T. ) ;
#528 = FACE_BOUND ( 'NONE', #875, .T. ) ;
#529 = CARTESIAN_POINT ( 'NONE',  ( 0.000000000000000000, 0.000000000000000000, 0.000000000000000000 ) ) ;
#530 = EDGE_CURVE ( 'NONE', #18, #397, #755, .T. ) ;
#531 = CARTESIAN_POINT ( 'NONE',  ( 0.2449999999999997735, 0.000000000000000000, -0.09500000000000005662 ) ) ;
#532 = LINE ( 'NONE', #328, #927 ) ;
#533 = CARTESIAN_POINT ( 'NONE',  ( -0.2989999999999999880, 0.2200000000000000289, 0.1489999999999999936 ) ) ;
#534 = VECTOR ( 'NONE', #270, 1000.000000000000000 ) ;
#535 = CARTESIAN_POINT ( 'NONE',  ( -0.2990000000000000435, 0.2200000000000000289, -0.1489999999999999936 ) ) ;
#536 = DIRECTION ( 'NONE',  ( 0.000000000000000000, 1.000000000000000000, 0.000000000000000000 ) ) ;
#537 = ADVANCED_FACE ( 'NONE', ( #354 ), #1049, .T. ) ;
#538 = STYLED_ITEM ( 'NONE', ( #1040 ), #325 ) ;
#539 = DIRECTION ( 'NONE',  ( -1.819131161888430531E-16, 0.000000000000000000, -1.000000000000000000 ) ) ;
#540 = EDGE_CURVE ( 'NONE', #780, #449, #753, .T. ) ;
#541 = VECTOR ( 'NONE', #52, 1000.000000000000000 ) ;
#542 = COLOUR_RGB ( '',0.7921568627450980005, 0.8196078431372548767, 0.9333333333333333481 ) ;
#543 = DIRECTION ( 'NONE',  ( 0.000000000000000000, -1.000000000000000000, 0.000000000000000000 ) ) ;
#544 = VECTOR ( 'NONE', #452, 1000.000000000000000 ) ;
#545 = DIRECTION ( 'NONE',  ( -9.680376540049147084E-17, 0.000000000000000000, 1.000000000000000000 ) ) ;
#546 = CARTESIAN_POINT ( 'NONE',  ( 0.2449999999999997735, 0.000000000000000000, 0.09499999999999994560 ) ) ;
#547 = ADVANCED_FACE ( 'NONE', ( #737 ), #798, .T. ) ;
#548 = LINE ( 'NONE', #922, #189 ) ;
#549 = DIRECTION ( 'NONE',  ( 0.000000000000000000, -0.000000000000000000, 1.000000000000000000 ) ) ;
#550 = CARTESIAN_POINT ( 'NONE',  ( -0.1500000000000001055, 0.3200000000000000067, -0.1489999999999999936 ) ) ;
#551 = UNCERTAINTY_MEASURE_WITH_UNIT (LENGTH_MEASURE( 1.000000000000000082E-05 ), #966, 'distance_accuracy_value', 'NONE');
#552 = VECTOR ( 'NONE', #830, 1000.000000000000000 ) ;
#553 = AXIS2_PLACEMENT_3D ( 'NONE', #807, #118, #668 ) ;
#554 = FILL_AREA_STYLE_COLOUR ( '', #664 ) ;
#555 = DIRECTION ( 'NONE',  ( 0.000000000000000000, 0.000000000000000000, -1.000000000000000000 ) ) ;
#556 = EDGE_CURVE ( 'NONE', #795, #401, #403, .T. ) ;
#557 = CARTESIAN_POINT ( 'NONE',  ( -0.2990000000000000435, 0.3200000000000000067, -0.1489999999999999936 ) ) ;
#558 = ADVANCED_FACE ( 'NONE', ( #359 ), #284, .F. ) ;
#559 =( LENGTH_UNIT ( ) NAMED_UNIT ( * ) SI_UNIT ( .MILLI., .METRE. ) );
#560 = CARTESIAN_POINT ( 'NONE',  ( 0.1049999999999997879, 0.3360084744241189636, -0.09500000000000005662 ) ) ;
#561 = DIRECTION ( 'NONE',  ( 0.000000000000000000, 0.000000000000000000, -1.000000000000000000 ) ) ;
#562 = DIRECTION ( 'NONE',  ( 0.000000000000000000, -0.000000000000000000, 1.000000000000000000 ) ) ;
#563 = FACE_OUTER_BOUND ( 'NONE', #708, .T. ) ;
#564 = DIRECTION ( 'NONE',  ( -1.000000000000000000, 0.000000000000000000, 9.680376540049147084E-17 ) ) ;
#565 = DIRECTION ( 'NONE',  ( -1.000000000000000000, 0.000000000000000000, -9.680376540049147084E-17 ) ) ;
#566 = CARTESIAN_POINT ( 'NONE',  ( 0.000000000000000000, 0.1000000000000000056, 0.000000000000000000 ) ) ;
#567 = CARTESIAN_POINT ( 'NONE',  ( -0.1049999999999999961, 0.000000000000000000, 0.09499999999999993172 ) ) ;
#568 = LINE ( 'NONE', #349, #929 ) ;
#569 = CARTESIAN_POINT ( 'NONE',  ( -0.3000000000000000999, 0.3200000000000000067, -0.1499999999999999944 ) ) ;
#570 = AXIS2_PLACEMENT_3D ( 'NONE', #591, #536, #1004 ) ;
#571 = SURFACE_STYLE_USAGE ( .BOTH. , #931 ) ;
#572 = EDGE_CURVE ( 'NONE', #720, #337, #739, .T. ) ;
#573 = EDGE_CURVE ( 'NONE', #795, #489, #1104, .T. ) ;
#574 = CARTESIAN_POINT ( 'NONE',  ( -0.2449999999999999956, 0.000000000000000000, 0.09499999999999994560 ) ) ;
#575 = LINE ( 'NONE', #844, #940 ) ;
#576 = DIRECTION ( 'NONE',  ( -1.000000000000000000, 0.000000000000000000, 1.819131161888430531E-16 ) ) ;
#577 = LINE ( 'NONE', #1057, #951 ) ;
#578 = CARTESIAN_POINT ( 'NONE',  ( -0.2449999999999999956, 0.3360084744241189636, -0.09500000000000005662 ) ) ;
#579 = DIRECTION ( 'NONE',  ( 1.000000000000000000, 0.000000000000000000, 0.000000000000000000 ) ) ;
#580 = VECTOR ( 'NONE', #657, 1000.000000000000000 ) ;
#581 = FACE_OUTER_BOUND ( 'NONE', #347, .T. ) ;
#582 = LINE ( 'NONE', #574, #952 ) ;
#583 = CARTESIAN_POINT ( 'NONE',  ( -0.1050000000000000100, 0.3360084744241189636, -0.09500000000000005662 ) ) ;
#584 = SURFACE_SIDE_STYLE ('',( #70 ) ) ;
#585 = DIRECTION ( 'NONE',  ( 0.000000000000000000, 1.000000000000000000, 0.000000000000000000 ) ) ;
#586 = EDGE_CURVE ( 'NONE', #240, #795, #362, .T. ) ;
#587 = LINE ( 'NONE', #1105, #960 ) ;
#588 = LINE ( 'NONE', #1066, #956 ) ;
#589 = CARTESIAN_POINT ( 'NONE',  ( 0.000000000000000000, 0.000000000000000000, 0.000000000000000000 ) ) ;
#590 = FACE_OUTER_BOUND ( 'NONE', #1079, .T. ) ;
#591 = CARTESIAN_POINT ( 'NONE',  ( 0.000000000000000000, 0.1000000000000000056, 0.000000000000000000 ) ) ;
#592 = DIRECTION ( 'NONE',  ( 0.000000000000000000, -1.000000000000000000, 0.000000000000000000 ) ) ;
#593 = DIRECTION ( 'NONE',  ( -0.000000000000000000, -1.000000000000000000, -0.000000000000000000 ) ) ;
#594 = AXIS2_PLACEMENT_3D ( 'NONE', #980, #618, #200 ) ;
#595 = EDGE_CURVE ( 'NONE', #415, #314, #740, .T. ) ;
#596 = ADVANCED_FACE ( 'NONE', ( #2 ), #973, .F. ) ;
#597 = PLANE ( 'NONE',  #1115 ) ;
#598 = CARTESIAN_POINT ( 'NONE',  ( -0.2989999999999999880, 0.2200000000000000289, 0.1489999999999999936 ) ) ;
#599 = DIRECTION ( 'NONE',  ( 1.000000000000000000, 0.000000000000000000, -9.095655809442152657E-17 ) ) ;
#600 = DIRECTION ( 'NONE',  ( 0.000000000000000000, 0.000000000000000000, -1.000000000000000000 ) ) ;
#601 = PRODUCT_DEFINITION_CONTEXT ( 'detailed design', #976, 'design' ) ;
#602 = CARTESIAN_POINT ( 'NONE',  ( 0.2999999999999998779, 0.3200000000000000067, -0.1499999999999999944 ) ) ;
#603 = ADVANCED_FACE ( 'NONE', ( #765 ), #943, .F. ) ;
#604 = EDGE_CURVE ( 'NONE', #110, #777, #6, .T. ) ;
#605 = DIRECTION ( 'NONE',  ( 0.000000000000000000, 0.000000000000000000, 1.000000000000000000 ) ) ;
#606 = EDGE_CURVE ( 'NONE', #474, #777, #66, .T. ) ;
#607 = DIRECTION ( 'NONE',  ( -1.000000000000000000, -0.000000000000000000, -0.000000000000000000 ) ) ;
#608 = COLOUR_RGB ( '',0.2509803921568627416, 0.2509803921568627416, 0.2509803921568627416 ) ;
#609 = VECTOR ( 'NONE', #748, 1000.000000000000000 ) ;
#610 = CARTESIAN_POINT ( 'NONE',  ( -0.2449999999999999956, 0.3360084744241189636, -0.09500000000000005662 ) ) ;
#611 = CARTESIAN_POINT ( 'NONE',  ( 0.1049999999999997879, 0.1000000000000000056, -0.09500000000000005662 ) ) ;
#612 = VERTEX_POINT ( 'NONE', #673 ) ;
#613 = CARTESIAN_POINT ( 'NONE',  ( -0.3000000000000000999, 0.000000000000000000, 0.1499999999999999944 ) ) ;
#614 = PRESENTATION_LAYER_ASSIGNMENT (  '', '', ( #1000 ) ) ;
#615 = CARTESIAN_POINT ( 'NONE',  ( -0.1050000000000000100, 0.3360084744241189636, -0.09500000000000005662 ) ) ;
#616 = VECTOR ( 'NONE', #626, 1000.000000000000000 ) ;
#617 = DIRECTION ( 'NONE',  ( -7.132909029509896943E-17, 0.000000000000000000, 1.000000000000000000 ) ) ;
#618 = DIRECTION ( 'NONE',  ( 0.000000000000000000, 1.000000000000000000, 0.000000000000000000 ) ) ;
#619 = CARTESIAN_POINT ( 'NONE',  ( 0.2449999999999997735, 0.3360084744241189636, -0.09500000000000005662 ) ) ;
#620 = DIRECTION ( 'NONE',  ( 1.000000000000000000, -0.000000000000000000, -0.000000000000000000 ) ) ;
#621 = AXIS2_PLACEMENT_3D ( 'NONE', #193, #493, #969 ) ;
#622 = CARTESIAN_POINT ( 'NONE',  ( -0.2990000000000000435, 0.3200000000000000067, -0.1489999999999999936 ) ) ;
#623 = CARTESIAN_POINT ( 'NONE',  ( -0.2990000000000000435, -0.1131741286474686053, -0.1489999999999999936 ) ) ;
#624 = LINE ( 'NONE', #690, #239 ) ;
#625 = MANIFOLD_SOLID_BREP ( 'Boss-Extrude3[1]', #329 ) ;
#626 = DIRECTION ( 'NONE',  ( 1.000000000000000000, -0.000000000000000000, 0.000000000000000000 ) ) ;
#627 = FACE_OUTER_BOUND ( 'NONE', #283, .T. ) ;
#628 = FILL_AREA_STYLE_COLOUR ( '', #608 ) ;
#629 = DIRECTION ( 'NONE',  ( 1.000000000000000000, 0.000000000000000000, 0.000000000000000000 ) ) ;
#630 = PLANE ( 'NONE',  #294 ) ;
#631 = FILL_AREA_STYLE ('',( #628 ) ) ;
#632 = LINE ( 'NONE', #410, #616 ) ;
#633 = ORIENTED_EDGE ( 'NONE', *, *, #796, .F. ) ;
#634 = DIRECTION ( 'NONE',  ( 7.132909029509896943E-17, 0.000000000000000000, -1.000000000000000000 ) ) ;
#635 = EDGE_LOOP ( 'NONE', ( #120, #90, #500, #1028 ) ) ;
#636 = CARTESIAN_POINT ( 'NONE',  ( -0.1049999999999999961, 0.3360084744241189636, 0.09499999999999993172 ) ) ;
#637 = CARTESIAN_POINT ( 'NONE',  ( 0.2449999999999997735, 0.000000000000000000, -0.09500000000000005662 ) ) ;
#638 = DIRECTION ( 'NONE',  ( -0.000000000000000000, -0.000000000000000000, 1.000000000000000000 ) ) ;
#639 = ORIENTED_EDGE ( 'NONE', *, *, #10, .T. ) ;
#640 = CARTESIAN_POINT ( 'NONE',  ( 0.2449999999999997735, 0.000000000000000000, -0.09500000000000005662 ) ) ;
#641 = ADVANCED_FACE ( 'NONE', ( #893 ), #958, .F. ) ;
#642 = AXIS2_PLACEMENT_3D ( 'NONE', #589, #304, #467 ) ;
#643 = ORIENTED_EDGE ( 'NONE', *, *, #442, .F. ) ;
#644 = UNCERTAINTY_MEASURE_WITH_UNIT (LENGTH_MEASURE( 1.000000000000000082E-05 ), #820, 'distance_accuracy_value', 'NONE');
#645 =( NAMED_UNIT ( * ) SI_UNIT ( $, .STERADIAN. ) SOLID_ANGLE_UNIT ( ) );
#646 = EDGE_CURVE ( 'NONE', #866, #1061, #835, .T. ) ;
#647 = ORIENTED_EDGE ( 'NONE', *, *, #658, .T. ) ;
#648 = DIRECTION ( 'NONE',  ( 7.132909029509896943E-17, -0.000000000000000000, -1.000000000000000000 ) ) ;
#649 = ORIENTED_EDGE ( 'NONE', *, *, #1012, .F. ) ;
#650 = PLANE ( 'NONE',  #286 ) ;
#651 = ORIENTED_EDGE ( 'NONE', *, *, #1035, .T. ) ;
#652 = ADVANCED_FACE ( 'NONE', ( #871 ), #650, .T. ) ;
#653 = CARTESIAN_POINT ( 'NONE',  ( 0.2449999999999997735, 0.1000000000000000056, 0.09499999999999994560 ) ) ;
#654 = ORIENTED_EDGE ( 'NONE', *, *, #251, .T. ) ;
#655 = DIRECTION ( 'NONE',  ( -0.000000000000000000, -1.000000000000000000, -0.000000000000000000 ) ) ;
#656 = ORIENTED_EDGE ( 'NONE', *, *, #530, .F. ) ;
#657 = DIRECTION ( 'NONE',  ( -1.000000000000000000, -0.000000000000000000, 9.680376540049147084E-17 ) ) ;
#658 = EDGE_CURVE ( 'NONE', #780, #116, #461, .T. ) ;
#659 = EDGE_CURVE ( 'NONE', #14, #1065, #846, .T. ) ;
#660 = EDGE_CURVE ( 'NONE', #344, #715, #162, .T. ) ;
#661 = ORIENTED_EDGE ( 'NONE', *, *, #166, .F. ) ;
#662 = ADVANCED_FACE ( 'NONE', ( #935 ), #43, .F. ) ;
#663 = CARTESIAN_POINT ( 'NONE',  ( -0.2449999999999999956, 0.1000000000000000056, -0.09500000000000005662 ) ) ;
#664 = COLOUR_RGB ( '',0.7921568627450980005, 0.8196078431372548767, 0.9333333333333333481 ) ;
#665 = CARTESIAN_POINT ( 'NONE',  ( -0.2449999999999999956, 0.1000000000000000056, -0.09500000000000005662 ) ) ;
#666 = PRESENTATION_LAYER_ASSIGNMENT (  '', '', ( #538 ) ) ;
#667 = PRESENTATION_LAYER_ASSIGNMENT (  '', '', ( #394 ) ) ;
#668 = DIRECTION ( 'NONE',  ( 1.000000000000000000, 0.000000000000000000, -9.680376540049147084E-17 ) ) ;
#669 = CARTESIAN_POINT ( 'NONE',  ( -0.2990000000000000435, 0.2200000000000000289, -0.1489999999999999936 ) ) ;
#670 = CARTESIAN_POINT ( 'NONE',  ( 0.2449999999999997735, 0.3360084744241189636, -0.09500000000000005662 ) ) ;
#671 = CARTESIAN_POINT ( 'NONE',  ( -0.2990000000000000435, 0.3200000000000000067, -0.1489999999999999936 ) ) ;
#672 = ORIENTED_EDGE ( 'NONE', *, *, #218, .F. ) ;
#673 = CARTESIAN_POINT ( 'NONE',  ( 0.1049999999999997602, 0.09999999999999999167, 0.09499999999999993172 ) ) ;
#674 = ADVANCED_FACE ( 'NONE', ( #563 ), #185, .F. ) ;
#675 = EDGE_LOOP ( 'NONE', ( #61, #1026, #686, #823 ) ) ;
#676 = ORIENTED_EDGE ( 'NONE', *, *, #711, .T. ) ;
#677 = DIRECTION ( 'NONE',  ( -0.000000000000000000, 0.000000000000000000, 1.000000000000000000 ) ) ;
#678 = AXIS2_PLACEMENT_3D ( 'NONE', #962, #953, #1036 ) ;
#679 = ORIENTED_EDGE ( 'NONE', *, *, #711, .F. ) ;
#680 = DIRECTION ( 'NONE',  ( -0.000000000000000000, 0.000000000000000000, -1.000000000000000000 ) ) ;
#681 = ORIENTED_EDGE ( 'NONE', *, *, #782, .T. ) ;
#682 = ORIENTED_EDGE ( 'NONE', *, *, #646, .F. ) ;
#683 = ADVANCED_FACE ( 'NONE', ( #155 ), #937, .F. ) ;
#684 = ORIENTED_EDGE ( 'NONE', *, *, #334, .F. ) ;
#685 = CARTESIAN_POINT ( 'NONE',  ( -0.1050000000000000100, 0.1000000000000000056, -0.09500000000000005662 ) ) ;
#686 = ORIENTED_EDGE ( 'NONE', *, *, #56, .F. ) ;
#687 = DIRECTION ( 'NONE',  ( -1.000000000000000000, 0.000000000000000000, 0.000000000000000000 ) ) ;
#688 = EDGE_LOOP ( 'NONE', ( #406, #408, #114, #296 ) ) ;
#689 = CARTESIAN_POINT ( 'NONE',  ( 0.2449999999999997735, 0.1000000000000000056, 0.09499999999999994560 ) ) ;
#690 = CARTESIAN_POINT ( 'NONE',  ( -0.1500000000000000777, -0.1131741286474686053, 0.1489999999999999936 ) ) ;
#691 = ORIENTED_EDGE ( 'NONE', *, *, #981, .T. ) ;
#692 = EDGE_LOOP ( 'NONE', ( #482, #1120, #94, #351 ) ) ;
#693 = DIRECTION ( 'NONE',  ( 0.000000000000000000, -1.000000000000000000, 0.000000000000000000 ) ) ;
#694 = AXIS2_PLACEMENT_3D ( 'NONE', #726, #825, #1062 ) ;
#695 = ADVANCED_FACE ( 'NONE', ( #163 ), #868, .T. ) ;
#696 = ORIENTED_EDGE ( 'NONE', *, *, #981, .F. ) ;
#697 = EDGE_CURVE ( 'NONE', #240, #397, #169, .T. ) ;
#698 = CARTESIAN_POINT ( 'NONE',  ( -0.3000000000000000999, 0.000000000000000000, -0.1499999999999999944 ) ) ;
#699 = CARTESIAN_POINT ( 'NONE',  ( -0.1500000000000001055, -0.1131741286474686053, -0.1489999999999999936 ) ) ;
#700 = ORIENTED_EDGE ( 'NONE', *, *, #215, .T. ) ;
#701 = APPLICATION_PROTOCOL_DEFINITION ( 'draft international standard', 'automotive_design', 1998, #783 ) ;
#702 = CARTESIAN_POINT ( 'NONE',  ( -0.1049999999999999961, 0.1000000000000000056, 0.09499999999999993172 ) ) ;
#703 = ADVANCED_FACE ( 'NONE', ( #156 ), #995, .F. ) ;
#704 = ORIENTED_EDGE ( 'NONE', *, *, #479, .T. ) ;
#705 = DIRECTION ( 'NONE',  ( 0.000000000000000000, 0.000000000000000000, 1.000000000000000000 ) ) ;
#706 = CARTESIAN_POINT ( 'NONE',  ( -0.2449999999999999956, 0.1000000000000000056, 0.09499999999999994560 ) ) ;
#707 =( GEOMETRIC_REPRESENTATION_CONTEXT ( 3 ) GLOBAL_UNCERTAINTY_ASSIGNED_CONTEXT ( ( #551 ) ) GLOBAL_UNIT_ASSIGNED_CONTEXT ( ( #966, #451, #794 ) ) REPRESENTATION_CONTEXT ( 'NONE', 'WORKASPACE' ) );
#708 = EDGE_LOOP ( 'NONE', ( #681, #55, #301, #77 ) ) ;
#709 = AXIS2_PLACEMENT_3D ( 'NONE', #610, #555, #201 ) ;
#710 = PLANE ( 'NONE',  #642 ) ;
#711 = EDGE_CURVE ( 'NONE', #397, #489, #146, .T. ) ;
#712 = EDGE_CURVE ( 'NONE', #326, #799, #901, .T. ) ;
#713 = CARTESIAN_POINT ( 'NONE',  ( -0.2989999999999999880, 0.3200000000000000067, 0.1489999999999999936 ) ) ;
#714 = CARTESIAN_POINT ( 'NONE',  ( 0.000000000000000000, 0.2200000000000000289, 0.000000000000000000 ) ) ;
#715 = VERTEX_POINT ( 'NONE', #899 ) ;
#716 = SURFACE_SIDE_STYLE ('',( #391 ) ) ;
#717 = ORIENTED_EDGE ( 'NONE', *, *, #1021, .T. ) ;
#718 = CARTESIAN_POINT ( 'NONE',  ( -0.2449999999999999956, 0.000000000000000000, -0.09500000000000005662 ) ) ;
#719 = ORIENTED_EDGE ( 'NONE', *, *, #288, .T. ) ;
#720 = VERTEX_POINT ( 'NONE', #816 ) ;
#721 = CARTESIAN_POINT ( 'NONE',  ( -0.1500000000000001055, 0.3200000000000000067, -0.1489999999999999936 ) ) ;
#722 = EDGE_CURVE ( 'NONE', #1048, #804, #526, .T. ) ;
#723 = ORIENTED_EDGE ( 'NONE', *, *, #346, .F. ) ;
#724 = FILL_AREA_STYLE ('',( #1074 ) ) ;
#725 = EDGE_LOOP ( 'NONE', ( #275, #800, #450, #262 ) ) ;
#726 = CARTESIAN_POINT ( 'NONE',  ( -0.2449999999999999956, 0.3360084744241189636, -0.09500000000000005662 ) ) ;
#727 = EDGE_LOOP ( 'NONE', ( #874, #488, #633, #469 ) ) ;
#728 = CARTESIAN_POINT ( 'NONE',  ( 0.2449999999999997735, 0.000000000000000000, 0.09499999999999994560 ) ) ;
#729 = EDGE_LOOP ( 'NONE', ( #876, #661, #281, #60 ) ) ;
#730 = DIRECTION ( 'NONE',  ( -1.000000000000000000, 0.000000000000000000, -7.132909029509896943E-17 ) ) ;
#731 = ADVANCED_FACE ( 'NONE', ( #921, #528, #521 ), #444, .T. ) ;
#732 =( NAMED_UNIT ( * ) SI_UNIT ( $, .STERADIAN. ) SOLID_ANGLE_UNIT ( ) );
#733 = ORIENTED_EDGE ( 'NONE', *, *, #1059, .T. ) ;
#734 = EDGE_CURVE ( 'NONE', #772, #986, #909, .T. ) ;
#735 = EDGE_CURVE ( 'NONE', #309, #1061, #912, .T. ) ;
#736 = ADVANCED_FACE ( 'NONE', ( #918 ), #255, .F. ) ;
#737 = FACE_OUTER_BOUND ( 'NONE', #319, .T. ) ;
#738 = FILL_AREA_STYLE ('',( #57 ) ) ;
#739 = LINE ( 'NONE', #35, #25 ) ;
#740 = LINE ( 'NONE', #718, #381 ) ;
#741 = CARTESIAN_POINT ( 'NONE',  ( -0.2990000000000000435, 0.3200000000000000067, -0.1489999999999999936 ) ) ;
#742 = MANIFOLD_SOLID_BREP ( 'Boss-Extrude3[2]', #1099 ) ;
#743 = CARTESIAN_POINT ( 'NONE',  ( -0.2990000000000000435, 0.2200000000000000289, -0.1489999999999999936 ) ) ;
#744 = PRESENTATION_LAYER_ASSIGNMENT (  '', '', ( #108 ) ) ;
#745 = ORIENTED_EDGE ( 'NONE', *, *, #430, .T. ) ;
#746 = LINE ( 'NONE', #640, #367 ) ;
#747 = EDGE_CURVE ( 'NONE', #720, #103, #516, .T. ) ;
#748 = DIRECTION ( 'NONE',  ( -1.000000000000000000, 0.000000000000000000, -9.680376540049147084E-17 ) ) ;
#749 = ORIENTED_EDGE ( 'NONE', *, *, #970, .T. ) ;
#750 = EDGE_CURVE ( 'NONE', #1061, #772, #160, .T. ) ;
#751 = ORIENTED_EDGE ( 'NONE', *, *, #942, .F. ) ;
#752 = VECTOR ( 'NONE', #498, 1000.000000000000000 ) ;
#753 = LINE ( 'NONE', #1054, #23 ) ;
#754 = CARTESIAN_POINT ( 'NONE',  ( -0.3000000000000000999, 0.3200000000000000067, 0.1499999999999999944 ) ) ;
#755 = LINE ( 'NONE', #713, #752 ) ;
#756 = FACE_OUTER_BOUND ( 'NONE', #373, .T. ) ;
#757 = ORIENTED_EDGE ( 'NONE', *, *, #883, .F. ) ;
#758 = CARTESIAN_POINT ( 'NONE',  ( 0.1049999999999997879, 0.000000000000000000, -0.09500000000000005662 ) ) ;
#759 = AXIS2_PLACEMENT_3D ( 'NONE', #560, #781, #926 ) ;
#760 = ORIENTED_EDGE ( 'NONE', *, *, #734, .F. ) ;
#761 = LINE ( 'NONE', #473, #398 ) ;
#762 = MECHANICAL_DESIGN_GEOMETRIC_PRESENTATION_REPRESENTATION (  '', ( #1000 ), #177 ) ;
#763 =( NAMED_UNIT ( * ) PLANE_ANGLE_UNIT ( ) SI_UNIT ( $, .RADIAN. ) );
#764 = ORIENTED_EDGE ( 'NONE', *, *, #251, .F. ) ;
#765 = FACE_OUTER_BOUND ( 'NONE', #725, .T. ) ;
#766 = ORIENTED_EDGE ( 'NONE', *, *, #697, .F. ) ;
#767 = DIRECTION ( 'NONE',  ( 1.000000000000000000, 0.000000000000000000, 0.000000000000000000 ) ) ;
#768 = VECTOR ( 'NONE', #607, 1000.000000000000000 ) ;
#769 = ORIENTED_EDGE ( 'NONE', *, *, #735, .T. ) ;
#770 = VECTOR ( 'NONE', #227, 1000.000000000000000 ) ;
#771 = CARTESIAN_POINT ( 'NONE',  ( -0.3000000000000000999, 0.3200000000000000067, -0.1499999999999999944 ) ) ;
#772 = VERTEX_POINT ( 'NONE', #790 ) ;
#773 = CARTESIAN_POINT ( 'NONE',  ( -0.1500000000000001055, 0.2200000000000000289, -0.1489999999999999936 ) ) ;
#774 = VERTEX_POINT ( 'NONE', #999 ) ;
#775 = DIRECTION ( 'NONE',  ( -0.000000000000000000, -1.000000000000000000, -0.000000000000000000 ) ) ;
#776 = VECTOR ( 'NONE', #638, 1000.000000000000000 ) ;
#777 = VERTEX_POINT ( 'NONE', #698 ) ;
#778 = PLANE ( 'NONE',  #44 ) ;
#779 = EDGE_CURVE ( 'NONE', #46, #392, #178, .T. ) ;
#780 = VERTEX_POINT ( 'NONE', #1033 ) ;
#781 = DIRECTION ( 'NONE',  ( -1.000000000000000000, 0.000000000000000000, -7.132909029509896943E-17 ) ) ;
#782 = EDGE_CURVE ( 'NONE', #337, #827, #207, .T. ) ;
#783 = APPLICATION_CONTEXT ( 'automotive_design' ) ;
#784 = ORIENTED_EDGE ( 'NONE', *, *, #527, .F. ) ;
#785 = DIRECTION ( 'NONE',  ( 0.000000000000000000, 0.000000000000000000, -1.000000000000000000 ) ) ;
#786 = PRESENTATION_STYLE_ASSIGNMENT (( #509 ) ) ;
#787 = ORIENTED_EDGE ( 'NONE', *, *, #779, .F. ) ;
#788 = DIRECTION ( 'NONE',  ( -0.000000000000000000, 1.000000000000000000, -0.000000000000000000 ) ) ;
#789 = ORIENTED_EDGE ( 'NONE', *, *, #1011, .T. ) ;
#790 = CARTESIAN_POINT ( 'NONE',  ( -0.1050000000000000100, 0.000000000000000000, -0.09500000000000005662 ) ) ;
#791 = PLANE ( 'NONE',  #54 ) ;
#792 = ADVANCED_FACE ( 'NONE', ( #197 ), #1072, .T. ) ;
#793 = EDGE_LOOP ( 'NONE', ( #1081, #491, #801, #1084 ) ) ;
#794 =( NAMED_UNIT ( * ) SI_UNIT ( $, .STERADIAN. ) SOLID_ANGLE_UNIT ( ) );
#795 = VERTEX_POINT ( 'NONE', #773 ) ;
#796 = EDGE_CURVE ( 'NONE', #799, #449, #587, .T. ) ;
#797 = EDGE_LOOP ( 'NONE', ( #745, #303, #105, #700 ) ) ;
#798 = PLANE ( 'NONE',  #694 ) ;
#799 = VERTEX_POINT ( 'NONE', #550 ) ;
#800 = ORIENTED_EDGE ( 'NONE', *, *, #322, .T. ) ;
#801 = ORIENTED_EDGE ( 'NONE', *, *, #333, .T. ) ;
#802 = CARTESIAN_POINT ( 'NONE',  ( 0.1049999999999997879, 0.000000000000000000, -0.09500000000000005662 ) ) ;
#803 = VECTOR ( 'NONE', #565, 1000.000000000000000 ) ;
#804 = VERTEX_POINT ( 'NONE', #965 ) ;
#805 = FACE_OUTER_BOUND ( 'NONE', #864, .T. ) ;
#806 = EDGE_LOOP ( 'NONE', ( #393, #389, #299, #21 ) ) ;
#807 = CARTESIAN_POINT ( 'NONE',  ( -0.2449999999999999956, 0.1000000000000000056, 0.09499999999999994560 ) ) ;
#808 = ORIENTED_EDGE ( 'NONE', *, *, #572, .F. ) ;
#809 = AXIS2_PLACEMENT_3D ( 'NONE', #176, #232, #811 ) ;
#810 = ORIENTED_EDGE ( 'NONE', *, *, #504, .T. ) ;
#811 = DIRECTION ( 'NONE',  ( 1.000000000000000000, 0.000000000000000000, 9.680376540049147084E-17 ) ) ;
#812 = EDGE_LOOP ( 'NONE', ( #870, #751, #643, #733 ) ) ;
#813 = EDGE_CURVE ( 'NONE', #107, #18, #955, .T. ) ;
#814 = CARTESIAN_POINT ( 'NONE',  ( -0.1500000000000000777, 0.2200000000000000289, 0.1489999999999999936 ) ) ;
#815 = CARTESIAN_POINT ( 'NONE',  ( -0.1500000000000001055, 0.2200000000000000289, -0.1489999999999999936 ) ) ;
#816 = CARTESIAN_POINT ( 'NONE',  ( 0.1049999999999997879, 0.1000000000000000056, -0.09500000000000005662 ) ) ;
#817 = EDGE_LOOP ( 'NONE', ( #417, #826, #36, #324 ) ) ;
#818 = LINE ( 'NONE', #741, #384 ) ;
#819 = ORIENTED_EDGE ( 'NONE', *, *, #1059, .F. ) ;
#820 =( LENGTH_UNIT ( ) NAMED_UNIT ( * ) SI_UNIT ( .MILLI., .METRE. ) );
#821 = VECTOR ( 'NONE', #1027, 1000.000000000000000 ) ;
#822 = ADVANCED_FACE ( 'NONE', ( #581 ), #271, .F. ) ;
#823 = ORIENTED_EDGE ( 'NONE', *, *, #224, .T. ) ;
#824 = LINE ( 'NONE', #884, #67 ) ;
#825 = DIRECTION ( 'NONE',  ( -1.000000000000000000, 0.000000000000000000, 0.000000000000000000 ) ) ;
#826 = ORIENTED_EDGE ( 'NONE', *, *, #961, .T. ) ;
#827 = VERTEX_POINT ( 'NONE', #531 ) ;
#828 = MECHANICAL_DESIGN_GEOMETRIC_PRESENTATION_REPRESENTATION (  '', ( #1067 ), #342 ) ;
#829 = CARTESIAN_POINT ( 'NONE',  ( 0.2449999999999997735, 0.000000000000000000, -0.09500000000000005662 ) ) ;
#830 = DIRECTION ( 'NONE',  ( 1.000000000000000000, -0.000000000000000000, -0.000000000000000000 ) ) ;
#831 = ORIENTED_EDGE ( 'NONE', *, *, #379, .T. ) ;
#832 = LINE ( 'NONE', #903, #821 ) ;
#833 = CLOSED_SHELL ( 'NONE', ( #537, #652, #979, #695, #792, #1108 ) ) ;
#834 = DIRECTION ( 'NONE',  ( 0.000000000000000000, 1.000000000000000000, 0.000000000000000000 ) ) ;
#835 = LINE ( 'NONE', #183, #76 ) ;
#836 = VECTOR ( 'NONE', #186, 1000.000000000000000 ) ;
#837 = LINE ( 'NONE', #404, #865 ) ;
#838 = ORIENTED_EDGE ( 'NONE', *, *, #782, .F. ) ;
#839 = EDGE_LOOP ( 'NONE', ( #984, #453, #1073, #102 ) ) ;
#840 = DIRECTION ( 'NONE',  ( 0.000000000000000000, 0.000000000000000000, -1.000000000000000000 ) ) ;
#841 = VECTOR ( 'NONE', #111, 1000.000000000000000 ) ;
#842 = EDGE_LOOP ( 'NONE', ( #476, #1069, #465, #989 ) ) ;
#843 = EDGE_LOOP ( 'NONE', ( #1032, #305, #1024, #11 ) ) ;
#844 = CARTESIAN_POINT ( 'NONE',  ( -0.1050000000000000100, 0.000000000000000000, -0.09500000000000005662 ) ) ;
#845 = VERTEX_POINT ( 'NONE', #142 ) ;
#846 = LINE ( 'NONE', #1083, #115 ) ;
#847 = FACE_OUTER_BOUND ( 'NONE', #635, .T. ) ;
#848 = VECTOR ( 'NONE', #543, 1000.000000000000000 ) ;
#849 = ORIENTED_EDGE ( 'NONE', *, *, #217, .F. ) ;
#850 = DIRECTION ( 'NONE',  ( -1.000000000000000000, -0.000000000000000000, 9.680376540049147084E-17 ) ) ;
#851 = VERTEX_POINT ( 'NONE', #280 ) ;
#852 = ORIENTED_EDGE ( 'NONE', *, *, #925, .F. ) ;
#853 = ORIENTED_EDGE ( 'NONE', *, *, #1102, .T. ) ;
#854 = LINE ( 'NONE', #948, #861 ) ;
#855 = ORIENTED_EDGE ( 'NONE', *, *, #1058, .T. ) ;
#856 = LINE ( 'NONE', #636, #93 ) ;
#857 = CARTESIAN_POINT ( 'NONE',  ( -0.2449999999999999956, 0.1000000000000000056, 0.09499999999999994560 ) ) ;
#858 = EDGE_CURVE ( 'NONE', #46, #14, #182, .T. ) ;
#859 = ORIENTED_EDGE ( 'NONE', *, *, #519, .T. ) ;
#860 = ORIENTED_EDGE ( 'NONE', *, *, #400, .F. ) ;
#861 = VECTOR ( 'NONE', #513, 1000.000000000000000 ) ;
#862 = ORIENTED_EDGE ( 'NONE', *, *, #56, .T. ) ;
#863 = PLANE ( 'NONE',  #274 ) ;
#864 = EDGE_LOOP ( 'NONE', ( #749, #272, #1020, #258 ) ) ;
#865 = VECTOR ( 'NONE', #302, 1000.000000000000000 ) ;
#866 = VERTEX_POINT ( 'NONE', #22 ) ;
#867 = ORIENTED_EDGE ( 'NONE', *, *, #1012, .T. ) ;
#868 = PLANE ( 'NONE',  #517 ) ;
#869 = LINE ( 'NONE', #936, #113 ) ;
#870 = ORIENTED_EDGE ( 'NONE', *, *, #48, .T. ) ;
#871 = FACE_OUTER_BOUND ( 'NONE', #727, .T. ) ;
#872 = DIRECTION ( 'NONE',  ( 1.000000000000000000, 0.000000000000000000, 0.000000000000000000 ) ) ;
#873 = FACE_OUTER_BOUND ( 'NONE', #460, .T. ) ;
#874 = ORIENTED_EDGE ( 'NONE', *, *, #658, .F. ) ;
#875 = EDGE_LOOP ( 'NONE', ( #838, #317, #672, #649 ) ) ;
#876 = ORIENTED_EDGE ( 'NONE', *, *, #218, .T. ) ;
#877 = FACE_OUTER_BOUND ( 'NONE', #34, .T. ) ;
#878 = VECTOR ( 'NONE', #167, 1000.000000000000000 ) ;
#879 = VECTOR ( 'NONE', #1047, 1000.000000000000000 ) ;
#880 = DIRECTION ( 'NONE',  ( 1.000000000000000000, 0.000000000000000000, -0.000000000000000000 ) ) ;
#881 = AXIS2_PLACEMENT_3D ( 'NONE', #754, #520, #306 ) ;
#882 = VERTEX_POINT ( 'NONE', #706 ) ;
#883 = EDGE_CURVE ( 'NONE', #71, #110, #568, .T. ) ;
#884 = CARTESIAN_POINT ( 'NONE',  ( 0.1049999999999997741, 0.1000000000000000056, 0.09499999999999993172 ) ) ;
#885 = LINE ( 'NONE', #906, #486 ) ;
#886 = VERTEX_POINT ( 'NONE', #1113 ) ;
#887 = DIRECTION ( 'NONE',  ( 0.000000000000000000, 1.000000000000000000, 0.000000000000000000 ) ) ;
#888 = VECTOR ( 'NONE', #350, 1000.000000000000000 ) ;
#889 = ADVANCED_FACE ( 'NONE', ( #590 ), #332, .T. ) ;
#890 = LINE ( 'NONE', #220, #878 ) ;
#891 = CARTESIAN_POINT ( 'NONE',  ( 0.2449999999999997735, 0.1000000000000000056, -0.09500000000000005662 ) ) ;
#892 = LINE ( 'NONE', #963, #524 ) ;
#893 = FACE_OUTER_BOUND ( 'NONE', #458, .T. ) ;
#894 = VECTOR ( 'NONE', #620, 1000.000000000000000 ) ;
#895 = LINE ( 'NONE', #911, #153 ) ;
#896 = CARTESIAN_POINT ( 'NONE',  ( -0.2449999999999999956, 0.000000000000000000, -0.09500000000000005662 ) ) ;
#897 = LINE ( 'NONE', #930, #122 ) ;
#898 = AXIS2_PLACEMENT_3D ( 'NONE', #188, #267, #1117 ) ;
#899 = CARTESIAN_POINT ( 'NONE',  ( -0.2449999999999999956, 0.000000000000000000, 0.09499999999999994560 ) ) ;
#900 = EDGE_CURVE ( 'NONE', #1022, #109, #949, .T. ) ;
#901 = LINE ( 'NONE', #721, #905 ) ;
#902 = SURFACE_SIDE_STYLE ('',( #278 ) ) ;
#903 = CARTESIAN_POINT ( 'NONE',  ( 0.1049999999999997879, 0.1000000000000000056, -0.09500000000000005662 ) ) ;
#904 = VECTOR ( 'NONE', #693, 1000.000000000000000 ) ;
#905 = VECTOR ( 'NONE', #158, 1000.000000000000000 ) ;
#906 = CARTESIAN_POINT ( 'NONE',  ( -0.2449999999999999956, 0.000000000000000000, -0.09500000000000005662 ) ) ;
#907 = CARTESIAN_POINT ( 'NONE',  ( -0.1500000000000001055, 0.3200000000000000067, -0.1489999999999999936 ) ) ;
#908 = ADVANCED_FACE ( 'NONE', ( #950 ), #988, .T. ) ;
#909 = LINE ( 'NONE', #117, #174 ) ;
#910 = SURFACE_STYLE_USAGE ( .BOTH. , #902 ) ;
#911 = CARTESIAN_POINT ( 'NONE',  ( -0.2990000000000000435, 0.2200000000000000289, -0.1489999999999999936 ) ) ;
#912 = LINE ( 'NONE', #1045, #171 ) ;
#913 = AXIS2_PLACEMENT_3D ( 'NONE', #611, #730, #617 ) ;
#914 = DIRECTION ( 'NONE',  ( 1.000000000000000000, 0.000000000000000000, 0.000000000000000000 ) ) ;
#915 = AXIS2_PLACEMENT_3D ( 'NONE', #689, #545, #975 ) ;
#916 = LINE ( 'NONE', #578, #541 ) ;
#917 = DIRECTION ( 'NONE',  ( -0.000000000000000000, 0.000000000000000000, -1.000000000000000000 ) ) ;
#918 = FACE_OUTER_BOUND ( 'NONE', #510, .T. ) ;
#919 = UNCERTAINTY_MEASURE_WITH_UNIT (LENGTH_MEASURE( 1.000000000000000082E-05 ), #419, 'distance_accuracy_value', 'NONE');
#920 = LINE ( 'NONE', #954, #544 ) ;
#921 = FACE_BOUND ( 'NONE', #81, .T. ) ;
#922 = CARTESIAN_POINT ( 'NONE',  ( 0.2999999999999998779, 0.3200000000000000067, 0.1499999999999999944 ) ) ;
#923 = PRESENTATION_STYLE_ASSIGNMENT (( #571 ) ) ;
#924 = PLANE ( 'NONE',  #28 ) ;
#925 = EDGE_CURVE ( 'NONE', #474, #266, #577, .T. ) ;
#926 = DIRECTION ( 'NONE',  ( -7.132909029509896943E-17, 0.000000000000000000, 1.000000000000000000 ) ) ;
#927 = VECTOR ( 'NONE', #428, 1000.000000000000000 ) ;
#928 = CARTESIAN_POINT ( 'NONE',  ( -0.1500000000000001055, -0.1131741286474686053, -0.1489999999999999936 ) ) ;
#929 = VECTOR ( 'NONE', #1122, 1000.000000000000000 ) ;
#930 = CARTESIAN_POINT ( 'NONE',  ( 0.1049999999999997879, 0.000000000000000000, -0.09500000000000005662 ) ) ;
#931 = SURFACE_SIDE_STYLE ('',( #141 ) ) ;
#932 = VECTOR ( 'NONE', #579, 1000.000000000000000 ) ;
#933 = AXIS2_PLACEMENT_3D ( 'NONE', #669, #402, #50 ) ;
#934 = DIRECTION ( 'NONE',  ( -1.000000000000000000, -0.000000000000000000, -0.000000000000000000 ) ) ;
#935 = FACE_OUTER_BOUND ( 'NONE', #692, .T. ) ;
#936 = CARTESIAN_POINT ( 'NONE',  ( 0.2449999999999997735, 0.1000000000000000056, 0.09499999999999994560 ) ) ;
#937 = PLANE ( 'NONE',  #881 ) ;
#938 = DIRECTION ( 'NONE',  ( 7.132909029509896943E-17, 0.000000000000000000, 1.000000000000000000 ) ) ;
#939 = AXIS2_PLACEMENT_3D ( 'NONE', #623, #576, #1042 ) ;
#940 = VECTOR ( 'NONE', #938, 1000.000000000000000 ) ;
#941 = CARTESIAN_POINT ( 'NONE',  ( -0.2990000000000000435, 0.3200000000000000067, -0.1489999999999999936 ) ) ;
#942 = EDGE_CURVE ( 'NONE', #353, #71, #548, .T. ) ;
#943 = PLANE ( 'NONE',  #570 ) ;
#944 = DIRECTION ( 'NONE',  ( 1.000000000000000000, 0.000000000000000000, -9.680376540049147084E-17 ) ) ;
#945 = CARTESIAN_POINT ( 'NONE',  ( 0.2449999999999997735, 0.1000000000000000056, -0.09500000000000005662 ) ) ;
#946 = VECTOR ( 'NONE', #434, 1000.000000000000000 ) ;
#947 = CARTESIAN_POINT ( 'NONE',  ( -0.2990000000000000435, -0.1131741286474686053, -0.1489999999999999936 ) ) ;
#948 = CARTESIAN_POINT ( 'NONE',  ( -0.2449999999999999956, 0.3360084744241189636, 0.09499999999999994560 ) ) ;
#949 = LINE ( 'NONE', #435, #964 ) ;
#950 = FACE_OUTER_BOUND ( 'NONE', #843, .T. ) ;
#951 = VECTOR ( 'NONE', #265, 1000.000000000000000 ) ;
#952 = VECTOR ( 'NONE', #850, 1000.000000000000000 ) ;
#953 = DIRECTION ( 'NONE',  ( 0.000000000000000000, 0.000000000000000000, 1.000000000000000000 ) ) ;
#954 = CARTESIAN_POINT ( 'NONE',  ( -0.2990000000000000435, 0.2200000000000000289, -0.1489999999999999936 ) ) ;
#955 = LINE ( 'NONE', #214, #203 ) ;
#956 = VECTOR ( 'NONE', #388, 1000.000000000000000 ) ;
#957 = VECTOR ( 'NONE', #297, 1000.000000000000000 ) ;
#958 = PLANE ( 'NONE',  #238 ) ;
#959 =( GEOMETRIC_REPRESENTATION_CONTEXT ( 3 ) GLOBAL_UNCERTAINTY_ASSIGNED_CONTEXT ( ( #919 ) ) GLOBAL_UNIT_ASSIGNED_CONTEXT ( ( #419, #763, #380 ) ) REPRESENTATION_CONTEXT ( 'NONE', 'WORKASPACE' ) );
#960 = VECTOR ( 'NONE', #99, 1000.000000000000000 ) ;
#961 = EDGE_CURVE ( 'NONE', #804, #426, #225, .T. ) ;
#962 = CARTESIAN_POINT ( 'NONE',  ( 0.000000000000000000, 0.000000000000000000, 0.000000000000000000 ) ) ;
#963 = CARTESIAN_POINT ( 'NONE',  ( -0.2990000000000000435, 0.2200000000000000289, -0.1489999999999999936 ) ) ;
#964 = VECTOR ( 'NONE', #8, 1000.000000000000000 ) ;
#965 = CARTESIAN_POINT ( 'NONE',  ( -0.1049999999999999822, 0.09999999999999999167, 0.09499999999999993172 ) ) ;
#966 =( LENGTH_UNIT ( ) NAMED_UNIT ( * ) SI_UNIT ( .MILLI., .METRE. ) );
#967 = CARTESIAN_POINT ( 'NONE',  ( -0.2989999999999999880, 0.3200000000000000067, 0.1489999999999999936 ) ) ;
#968 = VECTOR ( 'NONE', #655, 1000.000000000000000 ) ;
#969 = DIRECTION ( 'NONE',  ( 0.000000000000000000, -0.000000000000000000, -1.000000000000000000 ) ) ;
#970 = EDGE_CURVE ( 'NONE', #353, #45, #259, .T. ) ;
#971 = CARTESIAN_POINT ( 'NONE',  ( -0.2989999999999999880, 0.2200000000000000289, 0.1489999999999999936 ) ) ;
#972 = PRESENTATION_STYLE_ASSIGNMENT (( #484 ) ) ;
#973 = PLANE ( 'NONE',  #1009 ) ;
#974 = LINE ( 'NONE', #282, #968 ) ;
#975 = DIRECTION ( 'NONE',  ( 1.000000000000000000, 0.000000000000000000, 9.680376540049147084E-17 ) ) ;
#976 = APPLICATION_CONTEXT ( 'automotive_design' ) ;
#977 = CARTESIAN_POINT ( 'NONE',  ( 0.1049999999999997879, 0.09999999999999999167, -0.09500000000000005662 ) ) ;
#978 = DIRECTION ( 'NONE',  ( -1.000000000000000000, 0.000000000000000000, -0.000000000000000000 ) ) ;
#979 = ADVANCED_FACE ( 'NONE', ( #627 ), #791, .T. ) ;
#980 = CARTESIAN_POINT ( 'NONE',  ( 0.000000000000000000, 0.1000000000000000056, 0.000000000000000000 ) ) ;
#981 = EDGE_CURVE ( 'NONE', #495, #326, #624, .T. ) ;
#982 = ORIENTED_EDGE ( 'NONE', *, *, #277, .T. ) ;
#983 = CARTESIAN_POINT ( 'NONE',  ( 0.000000000000000000, 0.3200000000000000067, 0.000000000000000000 ) ) ;
#984 = ORIENTED_EDGE ( 'NONE', *, *, #192, .T. ) ;
#985 = CARTESIAN_POINT ( 'NONE',  ( -0.1500000000000001055, 0.3200000000000000067, -0.1489999999999999936 ) ) ;
#986 = VERTEX_POINT ( 'NONE', #567 ) ;
#987 = ADVANCED_FACE ( 'NONE', ( #235 ), #630, .T. ) ;
#988 = PLANE ( 'NONE',  #594 ) ;
#989 = ORIENTED_EDGE ( 'NONE', *, *, #540, .F. ) ;
#990 = ORIENTED_EDGE ( 'NONE', *, *, #48, .F. ) ;
#991 = CARTESIAN_POINT ( 'NONE',  ( 0.2449999999999997735, 0.09999999999999999167, 0.09499999999999994560 ) ) ;
#992 = LINE ( 'NONE', #857, #241 ) ;
#993 = DIRECTION ( 'NONE',  ( 0.000000000000000000, 1.000000000000000000, 0.000000000000000000 ) ) ;
#994 = EDGE_CURVE ( 'NONE', #341, #1048, #632, .T. ) ;
#995 = PLANE ( 'NONE',  #915 ) ;
#996 = FACE_OUTER_BOUND ( 'NONE', #675, .T. ) ;
#997 = SURFACE_STYLE_USAGE ( .BOTH. , #716 ) ;
#998 = CARTESIAN_POINT ( 'NONE',  ( -0.1050000000000000100, 0.09999999999999999167, -0.09500000000000005662 ) ) ;
#999 = CARTESIAN_POINT ( 'NONE',  ( 0.1049999999999997741, 0.000000000000000000, 0.09499999999999993172 ) ) ;
#1000 = STYLED_ITEM ( 'NONE', ( #429 ), #254 ) ;
#1001 = DIRECTION ( 'NONE',  ( -7.132909029509896943E-17, 0.000000000000000000, -1.000000000000000000 ) ) ;
#1002 = ADVANCED_FACE ( 'NONE', ( #996 ), #1106, .F. ) ;
#1003 = EDGE_CURVE ( 'NONE', #882, #866, #992, .T. ) ;
#1004 = DIRECTION ( 'NONE',  ( 0.000000000000000000, -0.000000000000000000, 1.000000000000000000 ) ) ;
#1005 = EDGE_CURVE ( 'NONE', #309, #851, #243, .T. ) ;
#1006 = ORIENTED_EDGE ( 'NONE', *, *, #448, .F. ) ;
#1007 = DIRECTION ( 'NONE',  ( -1.000000000000000000, 0.000000000000000000, -0.000000000000000000 ) ) ;
#1008 = CARTESIAN_POINT ( 'NONE',  ( -0.2449999999999999956, 0.000000000000000000, -0.09500000000000005662 ) ) ;
#1009 = AXIS2_PLACEMENT_3D ( 'NONE', #276, #1119, #205 ) ;
#1010 = DIRECTION ( 'NONE',  ( 1.819131161888430285E-16, 0.000000000000000000, 1.000000000000000000 ) ) ;
#1011 = EDGE_CURVE ( 'NONE', #109, #14, #897, .T. ) ;
#1012 = EDGE_CURVE ( 'NONE', #827, #432, #890, .T. ) ;
#1013 = CARTESIAN_POINT ( 'NONE',  ( -0.2989999999999999880, -0.1131741286474686053, 0.1489999999999999936 ) ) ;
#1014 = ORIENTED_EDGE ( 'NONE', *, *, #32, .T. ) ;
#1015 =( LENGTH_UNIT ( ) NAMED_UNIT ( * ) SI_UNIT ( .MILLI., .METRE. ) );
#1016 = EDGE_LOOP ( 'NONE', ( #420, #704, #264, #789 ) ) ;
#1017 = EDGE_LOOP ( 'NONE', ( #1029, #766, #1052, #58 ) ) ;
#1018 = DIRECTION ( 'NONE',  ( -1.000000000000000000, 0.000000000000000000, 0.000000000000000000 ) ) ;
#1019 = ORIENTED_EDGE ( 'NONE', *, *, #697, .T. ) ;
#1020 = ORIENTED_EDGE ( 'NONE', *, *, #925, .T. ) ;
#1021 = EDGE_CURVE ( 'NONE', #804, #344, #856, .T. ) ;
#1022 = VERTEX_POINT ( 'NONE', #728 ) ;
#1023 = CARTESIAN_POINT ( 'NONE',  ( 0.2999999999999998779, 0.3200000000000000067, -0.1499999999999999944 ) ) ;
#1024 = ORIENTED_EDGE ( 'NONE', *, *, #84, .F. ) ;
#1025 = DIRECTION ( 'NONE',  ( -0.000000000000000000, -0.000000000000000000, -1.000000000000000000 ) ) ;
#1026 = ORIENTED_EDGE ( 'NONE', *, *, #32, .F. ) ;
#1027 = DIRECTION ( 'NONE',  ( 7.132909029509896943E-17, -0.000000000000000000, -1.000000000000000000 ) ) ;
#1028 = ORIENTED_EDGE ( 'NONE', *, *, #942, .T. ) ;
#1029 = ORIENTED_EDGE ( 'NONE', *, *, #530, .T. ) ;
#1030 = PLANE ( 'NONE',  #1043 ) ;
#1031 = UNCERTAINTY_MEASURE_WITH_UNIT (LENGTH_MEASURE( 1.000000000000000082E-05 ), #40, 'distance_accuracy_value', 'NONE');
#1032 = ORIENTED_EDGE ( 'NONE', *, *, #722, .F. ) ;
#1033 = CARTESIAN_POINT ( 'NONE',  ( -0.2990000000000000435, 0.2200000000000000289, -0.1489999999999999936 ) ) ;
#1034 = CARTESIAN_POINT ( 'NONE',  ( -0.2449999999999999956, 0.09999999999999999167, 0.09499999999999994560 ) ) ;
#1035 = EDGE_CURVE ( 'NONE', #116, #495, #483, .T. ) ;
#1036 = DIRECTION ( 'NONE',  ( 1.000000000000000000, 0.000000000000000000, 0.000000000000000000 ) ) ;
#1037 = PLANE ( 'NONE',  #898 ) ;
#1038 = DIRECTION ( 'NONE',  ( -0.000000000000000000, -1.000000000000000000, -0.000000000000000000 ) ) ;
#1039 = DIRECTION ( 'NONE',  ( -7.132909029509896943E-17, 0.000000000000000000, -1.000000000000000000 ) ) ;
#1040 = PRESENTATION_STYLE_ASSIGNMENT (( #910 ) ) ;
#1041 = DIRECTION ( 'NONE',  ( 1.000000000000000000, 0.000000000000000000, 0.000000000000000000 ) ) ;
#1042 = DIRECTION ( 'NONE',  ( 1.819131161888430531E-16, 0.000000000000000000, 1.000000000000000000 ) ) ;
#1043 = AXIS2_PLACEMENT_3D ( 'NONE', #529, #887, #549 ) ;
#1044 = ADVANCED_FACE ( 'NONE', ( #72 ), #30, .T. ) ;
#1045 = CARTESIAN_POINT ( 'NONE',  ( -0.2449999999999999956, 0.1000000000000000056, -0.09500000000000005662 ) ) ;
#1046 = DIRECTION ( 'NONE',  ( 0.000000000000000000, 1.000000000000000000, 0.000000000000000000 ) ) ;
#1047 = DIRECTION ( 'NONE',  ( 1.000000000000000000, 0.000000000000000000, 0.000000000000000000 ) ) ;
#1048 = VERTEX_POINT ( 'NONE', #998 ) ;
#1049 = PLANE ( 'NONE',  #939 ) ;
#1050 = ORIENTED_EDGE ( 'NONE', *, *, #1003, .T. ) ;
#1051 = DIRECTION ( 'NONE',  ( 0.000000000000000000, 0.000000000000000000, -1.000000000000000000 ) ) ;
#1052 = ORIENTED_EDGE ( 'NONE', *, *, #399, .F. ) ;
#1053 = DIRECTION ( 'NONE',  ( 0.000000000000000000, -1.000000000000000000, 0.000000000000000000 ) ) ;
#1054 = CARTESIAN_POINT ( 'NONE',  ( -0.2990000000000000435, -0.1131741286474686053, -0.1489999999999999936 ) ) ;
#1055 = MECHANICAL_DESIGN_GEOMETRIC_PRESENTATION_REPRESENTATION (  '', ( #394 ), #321 ) ;
#1056 = ORIENTED_EDGE ( 'NONE', *, *, #206, .T. ) ;
#1057 = CARTESIAN_POINT ( 'NONE',  ( -0.3000000000000000999, 0.3200000000000000067, 0.1499999999999999944 ) ) ;
#1058 = EDGE_CURVE ( 'NONE', #882, #309, #837, .T. ) ;
#1059 = EDGE_CURVE ( 'NONE', #266, #1094, #480, .T. ) ;
#1060 = PRODUCT ( 'BAT30F4', 'BAT30F4', '', ( #316 ) ) ;
#1061 = VERTEX_POINT ( 'NONE', #1008 ) ;
#1062 = DIRECTION ( 'NONE',  ( 0.000000000000000000, 0.000000000000000000, 1.000000000000000000 ) ) ;
#1063 = ORIENTED_EDGE ( 'NONE', *, *, #712, .F. ) ;
#1064 = DIRECTION ( 'NONE',  ( -9.095655809442151424E-17, -0.000000000000000000, -1.000000000000000000 ) ) ;
#1065 = VERTEX_POINT ( 'NONE', #829 ) ;
#1066 = CARTESIAN_POINT ( 'NONE',  ( -0.2449999999999999956, 0.1000000000000000056, 0.09499999999999994560 ) ) ;
#1067 = STYLED_ITEM ( 'NONE', ( #923 ), #742 ) ;
#1068 = ORIENTED_EDGE ( 'NONE', *, *, #168, .F. ) ;
#1069 = ORIENTED_EDGE ( 'NONE', *, *, #217, .T. ) ;
#1070 = CARTESIAN_POINT ( 'NONE',  ( -0.2989999999999999880, 0.3200000000000000067, 0.1489999999999999936 ) ) ;
#1071 = AXIS2_PLACEMENT_3D ( 'NONE', #268, #487, #978 ) ;
#1072 = PLANE ( 'NONE',  #345 ) ;
#1073 = ORIENTED_EDGE ( 'NONE', *, *, #712, .T. ) ;
#1074 = FILL_AREA_STYLE_COLOUR ( '', #210 ) ;
#1075 = EDGE_LOOP ( 'NONE', ( #656, #485, #684, #679 ) ) ;
#1076 = DIRECTION ( 'NONE',  ( 0.000000000000000000, -0.000000000000000000, 1.000000000000000000 ) ) ;
#1077 = EDGE_LOOP ( 'NONE', ( #121, #413, #95, #477 ) ) ;
#1078 = DIRECTION ( 'NONE',  ( 0.000000000000000000, -0.000000000000000000, 1.000000000000000000 ) ) ;
#1079 = EDGE_LOOP ( 'NONE', ( #860, #424, #411, #312 ) ) ;
#1080 = SURFACE_SIDE_STYLE ('',( #204 ) ) ;
#1081 = ORIENTED_EDGE ( 'NONE', *, *, #1102, .F. ) ;
#1082 = EDGE_CURVE ( 'NONE', #426, #715, #854, .T. ) ;
#1083 = CARTESIAN_POINT ( 'NONE',  ( 0.2449999999999997735, 0.000000000000000000, -0.09500000000000005662 ) ) ;
#1084 = ORIENTED_EDGE ( 'NONE', *, *, #595, .F. ) ;
#1085 = CARTESIAN_POINT ( 'NONE',  ( -0.2989999999999999880, 0.3200000000000000067, 0.1489999999999999936 ) ) ;
#1086 = EDGE_LOOP ( 'NONE', ( #787, #784, #1088, #462 ) ) ;
#1087 = CARTESIAN_POINT ( 'NONE',  ( -0.1049999999999999961, 0.000000000000000000, 0.09499999999999993172 ) ) ;
#1088 = ORIENTED_EDGE ( 'NONE', *, *, #288, .F. ) ;
#1089 = CLOSED_SHELL ( 'NONE', ( #129, #407, #558, #683, #307, #731, #348, #662, #596, #211, #987, #674, #736, #703, #38, #603, #1002, #436, #368, #822, #641 ) ) ;
#1090 = DIRECTION ( 'NONE',  ( 0.000000000000000000, 0.000000000000000000, 1.000000000000000000 ) ) ;
#1091 = VERTEX_POINT ( 'NONE', #1085 ) ;
#1092 = AXIS2_PLACEMENT_3D ( 'NONE', #670, #273, #917 ) ;
#1093 = CARTESIAN_POINT ( 'NONE',  ( 0.1049999999999997741, 0.3360084744241189636, 0.09499999999999993172 ) ) ;
#1094 = VERTEX_POINT ( 'NONE', #365 ) ;
#1095 = EDGE_CURVE ( 'NONE', #845, #432, #869, .T. ) ;
#1096 = CARTESIAN_POINT ( 'NONE',  ( -0.1500000000000000777, 0.3200000000000000067, 0.1489999999999999936 ) ) ;
#1097 = DIRECTION ( 'NONE',  ( 1.000000000000000000, -0.000000000000000000, -0.000000000000000000 ) ) ;
#1098 = UNCERTAINTY_MEASURE_WITH_UNIT (LENGTH_MEASURE( 1.000000000000000082E-05 ), #1015, 'distance_accuracy_value', 'NONE');
#1099 = CLOSED_SHELL ( 'NONE', ( #456, #315, #17, #269, #889, #382 ) ) ;
#1100 = PLANE ( 'NONE',  #709 ) ;
#1101 = ORIENTED_EDGE ( 'NONE', *, *, #1003, .F. ) ;
#1102 = EDGE_CURVE ( 'NONE', #341, #415, #916, .T. ) ;
#1103 = EDGE_CURVE ( 'NONE', #314, #344, #575, .T. ) ;
#1104 = LINE ( 'NONE', #27, #1121 ) ;
#1105 = CARTESIAN_POINT ( 'NONE',  ( -0.2990000000000000435, 0.3200000000000000067, -0.1489999999999999936 ) ) ;
#1106 = PLANE ( 'NONE',  #261 ) ;
#1107 = ORIENTED_EDGE ( 'NONE', *, *, #263, .T. ) ;
#1108 = ADVANCED_FACE ( 'NONE', ( #195 ), #597, .F. ) ;
#1109 = LINE ( 'NONE', #221, #12 ) ;
#1110 = CARTESIAN_POINT ( 'NONE',  ( -0.3000000000000000999, 0.3200000000000000067, -0.1499999999999999944 ) ) ;
#1111 = PLANE ( 'NONE',  #414 ) ;
#1112 = FACE_OUTER_BOUND ( 'NONE', #310, .T. ) ;
#1113 = CARTESIAN_POINT ( 'NONE',  ( 0.2449999999999997735, 0.09999999999999999167, 0.09499999999999994560 ) ) ;
#1114 = LINE ( 'NONE', #1070, #770 ) ;
#1115 = AXIS2_PLACEMENT_3D ( 'NONE', #385, #585, #1078 ) ;
#1116 = EDGE_CURVE ( 'NONE', #845, #125, #191, .T. ) ;
#1117 = DIRECTION ( 'NONE',  ( 0.000000000000000000, 0.000000000000000000, 1.000000000000000000 ) ) ;
#1118 = VECTOR ( 'NONE', #934, 1000.000000000000000 ) ;
#1119 = DIRECTION ( 'NONE',  ( 1.000000000000000000, 0.000000000000000000, -9.095655809442151424E-17 ) ) ;
#1120 = ORIENTED_EDGE ( 'NONE', *, *, #215, .F. ) ;
#1121 = VECTOR ( 'NONE', #788, 1000.000000000000000 ) ;
#1122 = DIRECTION ( 'NONE',  ( 0.000000000000000000, 0.000000000000000000, -1.000000000000000000 ) ) ;
#1123 = VECTOR ( 'NONE', #648, 1000.000000000000000 ) ;
ENDSEC;
END-ISO-10303-21;
