M48
; DRILL file {KiCad 9.0.7} date 2026-04-19T22:05:45+0300
; FORMAT={-:-/ absolute / metric / decimal}
; #@! TF.CreationDate,2026-04-19T22:05:45+03:00
; #@! TF.GenerationSoftware,Kicad,Pcbnew,9.0.7
; #@! TF.FileFunction,Plated,1,2,Blind
FMAT,2
METRIC
; #@! TA.AperFunction,Plated,Buried,ViaDrill
T1C0.200
; #@! TA.AperFunction,Plated,Buried,ViaDrill
T2C0.330
%
G90
G05
T1
X166.09Y-122.09
X166.1Y-121.045
X166.12Y-119.045
X166.125Y-120.055
X168.6Y-111.2
X173.8Y-111.2
X174.75Y-89.37
X174.78Y-86.405
X175.735Y-146.265
X176.74Y-146.29
X177.755Y-146.285
X178.66Y-119.855
X178.745Y-146.265
X180.8Y-141.7
X180.945Y-119.865
X182.39Y-86.53
X182.395Y-89.435
X184.036Y-142.736
X184.1Y-145.6
X186.3Y-141.2
X187.575Y-138.58
X190.08Y-86.505
X190.1Y-89.34
X192.925Y-130.88
X193.165Y-123.3
X193.192Y-129.065
X194.5Y-100.1
X200.885Y-111.53
X202.73Y-90.06
X204.08Y-128.72
X205.375Y-128.715
X207.705Y-112.315
X214.335Y-112.42
X220.82Y-112.715
X221.435Y-100.15
X228.06Y-100.115
X234.512Y-104.66
T2
X194.93Y-111.54
X204.515Y-114.76
X211.145Y-114.74
X217.725Y-114.725
X225.0Y-140.0
X229.55Y-139.875
M30
