%TF.GenerationSoftware,KiCad,Pcbnew,9.0.7*%
%TF.CreationDate,2026-04-21T21:49:32+03:00*%
%TF.ProjectId,G473_dev_board,47343733-5f64-4657-965f-626f6172642e,rev?*%
%TF.SameCoordinates,Original*%
%TF.FileFunction,Copper,L1,Top*%
%TF.FilePolarity,Positive*%
%FSLAX46Y46*%
G04 Gerber Fmt 4.6, Leading zero omitted, Abs format (unit mm)*
G04 Created by KiCad (PCBNEW 9.0.7) date 2026-04-21 21:49:32*
%MOMM*%
%LPD*%
G01*
G04 APERTURE LIST*
G04 Aperture macros list*
%AMRoundRect*
0 Rectangle with rounded corners*
0 $1 Rounding radius*
0 $2 $3 $4 $5 $6 $7 $8 $9 X,Y pos of 4 corners*
0 Add a 4 corners polygon primitive as box body*
4,1,4,$2,$3,$4,$5,$6,$7,$8,$9,$2,$3,0*
0 Add four circle primitives for the rounded corners*
1,1,$1+$1,$2,$3*
1,1,$1+$1,$4,$5*
1,1,$1+$1,$6,$7*
1,1,$1+$1,$8,$9*
0 Add four rect primitives between the rounded corners*
20,1,$1+$1,$2,$3,$4,$5,0*
20,1,$1+$1,$4,$5,$6,$7,0*
20,1,$1+$1,$6,$7,$8,$9,0*
20,1,$1+$1,$8,$9,$2,$3,0*%
%AMFreePoly0*
4,1,15,2.200000,0.087500,0.150000,0.087500,0.150000,-0.287500,0.144291,-0.316201,0.128033,-0.340533,0.103701,-0.356791,0.075000,-0.362500,-0.075000,-0.362500,-0.103701,-0.356791,-0.128033,-0.340533,-0.144291,-0.316201,-0.150000,-0.287500,-0.150000,0.362500,2.200000,0.362500,2.200000,0.087500,2.200000,0.087500,$1*%
%AMFreePoly1*
4,1,9,1.825000,0.245000,1.175000,0.245000,1.175000,-0.500000,0.500000,-0.500000,-0.500000,-0.500000,-1.000000,-0.500000,-1.000000,0.700000,1.825000,0.700000,1.825000,0.245000,1.825000,0.245000,$1*%
G04 Aperture macros list end*
%TA.AperFunction,SMDPad,CuDef*%
%ADD10RoundRect,0.225000X0.225000X0.250000X-0.225000X0.250000X-0.225000X-0.250000X0.225000X-0.250000X0*%
%TD*%
%TA.AperFunction,SMDPad,CuDef*%
%ADD11RoundRect,0.135000X-0.185000X0.135000X-0.185000X-0.135000X0.185000X-0.135000X0.185000X0.135000X0*%
%TD*%
%TA.AperFunction,SMDPad,CuDef*%
%ADD12RoundRect,0.140000X0.140000X0.170000X-0.140000X0.170000X-0.140000X-0.170000X0.140000X-0.170000X0*%
%TD*%
%TA.AperFunction,SMDPad,CuDef*%
%ADD13C,1.000000*%
%TD*%
%TA.AperFunction,SMDPad,CuDef*%
%ADD14RoundRect,0.135000X0.185000X-0.135000X0.185000X0.135000X-0.185000X0.135000X-0.185000X-0.135000X0*%
%TD*%
%TA.AperFunction,SMDPad,CuDef*%
%ADD15RoundRect,0.200000X-0.275000X0.200000X-0.275000X-0.200000X0.275000X-0.200000X0.275000X0.200000X0*%
%TD*%
%TA.AperFunction,SMDPad,CuDef*%
%ADD16R,0.187000X0.225000*%
%TD*%
%TA.AperFunction,SMDPad,CuDef*%
%ADD17RoundRect,0.250000X0.325000X0.450000X-0.325000X0.450000X-0.325000X-0.450000X0.325000X-0.450000X0*%
%TD*%
%TA.AperFunction,SMDPad,CuDef*%
%ADD18RoundRect,0.150000X0.150000X-0.825000X0.150000X0.825000X-0.150000X0.825000X-0.150000X-0.825000X0*%
%TD*%
%TA.AperFunction,SMDPad,CuDef*%
%ADD19RoundRect,0.135000X0.135000X0.185000X-0.135000X0.185000X-0.135000X-0.185000X0.135000X-0.185000X0*%
%TD*%
%TA.AperFunction,SMDPad,CuDef*%
%ADD20R,0.900000X1.700000*%
%TD*%
%TA.AperFunction,SMDPad,CuDef*%
%ADD21RoundRect,0.218750X0.218750X0.256250X-0.218750X0.256250X-0.218750X-0.256250X0.218750X-0.256250X0*%
%TD*%
%TA.AperFunction,SMDPad,CuDef*%
%ADD22R,1.750000X0.600000*%
%TD*%
%TA.AperFunction,SMDPad,CuDef*%
%ADD23RoundRect,0.135000X-0.135000X-0.185000X0.135000X-0.185000X0.135000X0.185000X-0.135000X0.185000X0*%
%TD*%
%TA.AperFunction,SMDPad,CuDef*%
%ADD24RoundRect,0.250000X-0.325000X-0.450000X0.325000X-0.450000X0.325000X0.450000X-0.325000X0.450000X0*%
%TD*%
%TA.AperFunction,SMDPad,CuDef*%
%ADD25RoundRect,0.250000X1.100000X-0.325000X1.100000X0.325000X-1.100000X0.325000X-1.100000X-0.325000X0*%
%TD*%
%TA.AperFunction,SMDPad,CuDef*%
%ADD26RoundRect,0.140000X-0.140000X-0.170000X0.140000X-0.170000X0.140000X0.170000X-0.140000X0.170000X0*%
%TD*%
%TA.AperFunction,SMDPad,CuDef*%
%ADD27RoundRect,0.250000X-0.262500X-0.450000X0.262500X-0.450000X0.262500X0.450000X-0.262500X0.450000X0*%
%TD*%
%TA.AperFunction,ComponentPad*%
%ADD28C,2.600000*%
%TD*%
%TA.AperFunction,ConnectorPad*%
%ADD29C,4.400000*%
%TD*%
%TA.AperFunction,SMDPad,CuDef*%
%ADD30RoundRect,0.125000X0.125000X-0.487500X0.125000X0.487500X-0.125000X0.487500X-0.125000X-0.487500X0*%
%TD*%
%TA.AperFunction,SMDPad,CuDef*%
%ADD31RoundRect,0.250000X1.500000X0.900000X-1.500000X0.900000X-1.500000X-0.900000X1.500000X-0.900000X0*%
%TD*%
%TA.AperFunction,SMDPad,CuDef*%
%ADD32RoundRect,0.125000X-0.125000X0.487500X-0.125000X-0.487500X0.125000X-0.487500X0.125000X0.487500X0*%
%TD*%
%TA.AperFunction,SMDPad,CuDef*%
%ADD33RoundRect,0.162500X-0.162500X0.617500X-0.162500X-0.617500X0.162500X-0.617500X0.162500X0.617500X0*%
%TD*%
%TA.AperFunction,SMDPad,CuDef*%
%ADD34RoundRect,0.140000X-0.170000X0.140000X-0.170000X-0.140000X0.170000X-0.140000X0.170000X0.140000X0*%
%TD*%
%TA.AperFunction,SMDPad,CuDef*%
%ADD35RoundRect,0.250000X-0.450000X0.325000X-0.450000X-0.325000X0.450000X-0.325000X0.450000X0.325000X0*%
%TD*%
%TA.AperFunction,SMDPad,CuDef*%
%ADD36RoundRect,0.140000X0.170000X-0.140000X0.170000X0.140000X-0.170000X0.140000X-0.170000X-0.140000X0*%
%TD*%
%TA.AperFunction,SMDPad,CuDef*%
%ADD37RoundRect,0.250000X-0.325000X-1.100000X0.325000X-1.100000X0.325000X1.100000X-0.325000X1.100000X0*%
%TD*%
%TA.AperFunction,SMDPad,CuDef*%
%ADD38R,0.225000X0.187000*%
%TD*%
%TA.AperFunction,SMDPad,CuDef*%
%ADD39RoundRect,0.225000X-0.225000X-0.250000X0.225000X-0.250000X0.225000X0.250000X-0.225000X0.250000X0*%
%TD*%
%TA.AperFunction,SMDPad,CuDef*%
%ADD40RoundRect,0.250000X0.475000X-0.250000X0.475000X0.250000X-0.475000X0.250000X-0.475000X-0.250000X0*%
%TD*%
%TA.AperFunction,SMDPad,CuDef*%
%ADD41R,0.600000X1.750000*%
%TD*%
%TA.AperFunction,SMDPad,CuDef*%
%ADD42RoundRect,0.150000X-0.150000X0.512500X-0.150000X-0.512500X0.150000X-0.512500X0.150000X0.512500X0*%
%TD*%
%TA.AperFunction,SMDPad,CuDef*%
%ADD43RoundRect,0.225000X0.250000X-0.225000X0.250000X0.225000X-0.250000X0.225000X-0.250000X-0.225000X0*%
%TD*%
%TA.AperFunction,SMDPad,CuDef*%
%ADD44RoundRect,0.225000X-0.250000X0.225000X-0.250000X-0.225000X0.250000X-0.225000X0.250000X0.225000X0*%
%TD*%
%TA.AperFunction,SMDPad,CuDef*%
%ADD45R,1.200000X0.950000*%
%TD*%
%TA.AperFunction,SMDPad,CuDef*%
%ADD46RoundRect,0.075000X-0.075000X-0.287500X0.075000X-0.287500X0.075000X0.287500X-0.075000X0.287500X0*%
%TD*%
%TA.AperFunction,SMDPad,CuDef*%
%ADD47FreePoly0,270.000000*%
%TD*%
%TA.AperFunction,SMDPad,CuDef*%
%ADD48RoundRect,0.075000X-0.287500X0.075000X-0.287500X-0.075000X0.287500X-0.075000X0.287500X0.075000X0*%
%TD*%
%TA.AperFunction,SMDPad,CuDef*%
%ADD49R,1.050000X1.575000*%
%TD*%
%TA.AperFunction,HeatsinkPad*%
%ADD50C,0.450000*%
%TD*%
%TA.AperFunction,SMDPad,CuDef*%
%ADD51R,1.050000X1.150000*%
%TD*%
%TA.AperFunction,HeatsinkPad*%
%ADD52C,0.550000*%
%TD*%
%TA.AperFunction,SMDPad,CuDef*%
%ADD53FreePoly1,270.000000*%
%TD*%
%TA.AperFunction,SMDPad,CuDef*%
%ADD54RoundRect,0.095000X0.095000X-0.195000X0.095000X0.195000X-0.095000X0.195000X-0.095000X-0.195000X0*%
%TD*%
%TA.AperFunction,SMDPad,CuDef*%
%ADD55RoundRect,0.200000X0.275000X-0.200000X0.275000X0.200000X-0.275000X0.200000X-0.275000X-0.200000X0*%
%TD*%
%TA.AperFunction,SMDPad,CuDef*%
%ADD56RoundRect,0.250000X0.262500X0.450000X-0.262500X0.450000X-0.262500X-0.450000X0.262500X-0.450000X0*%
%TD*%
%TA.AperFunction,SMDPad,CuDef*%
%ADD57RoundRect,0.249999X-0.450001X-1.450001X0.450001X-1.450001X0.450001X1.450001X-0.450001X1.450001X0*%
%TD*%
%TA.AperFunction,SMDPad,CuDef*%
%ADD58RoundRect,0.162500X0.617500X0.162500X-0.617500X0.162500X-0.617500X-0.162500X0.617500X-0.162500X0*%
%TD*%
%TA.AperFunction,SMDPad,CuDef*%
%ADD59RoundRect,0.162500X0.162500X-0.617500X0.162500X0.617500X-0.162500X0.617500X-0.162500X-0.617500X0*%
%TD*%
%TA.AperFunction,SMDPad,CuDef*%
%ADD60RoundRect,0.100000X-0.100000X0.130000X-0.100000X-0.130000X0.100000X-0.130000X0.100000X0.130000X0*%
%TD*%
%TA.AperFunction,SMDPad,CuDef*%
%ADD61RoundRect,0.250000X0.625000X-0.400000X0.625000X0.400000X-0.625000X0.400000X-0.625000X-0.400000X0*%
%TD*%
%TA.AperFunction,SMDPad,CuDef*%
%ADD62RoundRect,0.250000X-0.412500X-0.650000X0.412500X-0.650000X0.412500X0.650000X-0.412500X0.650000X0*%
%TD*%
%TA.AperFunction,SMDPad,CuDef*%
%ADD63RoundRect,0.100000X0.100000X-0.130000X0.100000X0.130000X-0.100000X0.130000X-0.100000X-0.130000X0*%
%TD*%
%TA.AperFunction,SMDPad,CuDef*%
%ADD64RoundRect,0.237500X0.287500X0.237500X-0.287500X0.237500X-0.287500X-0.237500X0.287500X-0.237500X0*%
%TD*%
%TA.AperFunction,SMDPad,CuDef*%
%ADD65RoundRect,0.200000X0.750000X0.200000X-0.750000X0.200000X-0.750000X-0.200000X0.750000X-0.200000X0*%
%TD*%
%TA.AperFunction,SMDPad,CuDef*%
%ADD66RoundRect,0.237500X0.237500X-0.287500X0.237500X0.287500X-0.237500X0.287500X-0.237500X-0.287500X0*%
%TD*%
%TA.AperFunction,ComponentPad*%
%ADD67R,1.950000X1.950000*%
%TD*%
%TA.AperFunction,ComponentPad*%
%ADD68C,1.950000*%
%TD*%
%TA.AperFunction,ComponentPad*%
%ADD69C,1.508000*%
%TD*%
%TA.AperFunction,SMDPad,CuDef*%
%ADD70R,2.500000X5.100000*%
%TD*%
%TA.AperFunction,SMDPad,CuDef*%
%ADD71C,10.200000*%
%TD*%
%TA.AperFunction,SMDPad,CuDef*%
%ADD72R,1.000000X1.000000*%
%TD*%
%TA.AperFunction,SMDPad,CuDef*%
%ADD73RoundRect,0.150000X0.150000X-0.512500X0.150000X0.512500X-0.150000X0.512500X-0.150000X-0.512500X0*%
%TD*%
%TA.AperFunction,SMDPad,CuDef*%
%ADD74RoundRect,0.075000X-0.725000X-0.075000X0.725000X-0.075000X0.725000X0.075000X-0.725000X0.075000X0*%
%TD*%
%TA.AperFunction,SMDPad,CuDef*%
%ADD75RoundRect,0.075000X-0.075000X-0.725000X0.075000X-0.725000X0.075000X0.725000X-0.075000X0.725000X0*%
%TD*%
%TA.AperFunction,SMDPad,CuDef*%
%ADD76RoundRect,0.250000X0.650000X-1.000000X0.650000X1.000000X-0.650000X1.000000X-0.650000X-1.000000X0*%
%TD*%
%TA.AperFunction,SMDPad,CuDef*%
%ADD77R,3.124000X3.251000*%
%TD*%
%TA.AperFunction,SMDPad,CuDef*%
%ADD78RoundRect,0.200000X-0.750000X-0.200000X0.750000X-0.200000X0.750000X0.200000X-0.750000X0.200000X0*%
%TD*%
%TA.AperFunction,SMDPad,CuDef*%
%ADD79RoundRect,0.200000X-0.200000X-0.275000X0.200000X-0.275000X0.200000X0.275000X-0.200000X0.275000X0*%
%TD*%
%TA.AperFunction,SMDPad,CuDef*%
%ADD80R,1.300000X1.100000*%
%TD*%
%TA.AperFunction,SMDPad,CuDef*%
%ADD81RoundRect,0.112500X-0.112500X0.187500X-0.112500X-0.187500X0.112500X-0.187500X0.112500X0.187500X0*%
%TD*%
%TA.AperFunction,SMDPad,CuDef*%
%ADD82RoundRect,0.150000X0.825000X0.150000X-0.825000X0.150000X-0.825000X-0.150000X0.825000X-0.150000X0*%
%TD*%
%TA.AperFunction,ViaPad*%
%ADD83C,0.660400*%
%TD*%
%TA.AperFunction,ViaPad*%
%ADD84C,0.685800*%
%TD*%
%TA.AperFunction,ViaPad*%
%ADD85C,2.540000*%
%TD*%
%TA.AperFunction,ViaPad*%
%ADD86C,0.889000*%
%TD*%
%TA.AperFunction,Conductor*%
%ADD87C,0.254000*%
%TD*%
%TA.AperFunction,Conductor*%
%ADD88C,0.381000*%
%TD*%
%TA.AperFunction,Conductor*%
%ADD89C,0.889000*%
%TD*%
%TA.AperFunction,Conductor*%
%ADD90C,0.508000*%
%TD*%
%TA.AperFunction,Conductor*%
%ADD91C,0.203200*%
%TD*%
%TA.AperFunction,Conductor*%
%ADD92C,0.762000*%
%TD*%
G04 APERTURE END LIST*
D10*
%TO.P,C76,1*%
%TO.N,GND*%
X171675000Y-133600000D03*
%TO.P,C76,2*%
%TO.N,+3V3*%
X170125000Y-133600000D03*
%TD*%
D11*
%TO.P,R28,1*%
%TO.N,REVERSE*%
X221200000Y-85890000D03*
%TO.P,R28,2*%
%TO.N,PC3*%
X221200000Y-86910000D03*
%TD*%
D12*
%TO.P,C31,1*%
%TO.N,+3V3*%
X190480000Y-99900000D03*
%TO.P,C31,2*%
%TO.N,GND*%
X189520000Y-99900000D03*
%TD*%
%TO.P,C16,1*%
%TO.N,GND*%
X194180000Y-128300000D03*
%TO.P,C16,2*%
%TO.N,+3V3*%
X193220000Y-128300000D03*
%TD*%
D11*
%TO.P,R24,1*%
%TO.N,Net-(C7-Pad1)*%
X193400000Y-110490000D03*
%TO.P,R24,2*%
%TO.N,GND*%
X193400000Y-111510000D03*
%TD*%
D13*
%TO.P,+5V'2,1,1*%
%TO.N,+5V*%
X227500000Y-141300000D03*
%TD*%
D11*
%TO.P,R126,1*%
%TO.N,PA0*%
X234600000Y-98290000D03*
%TO.P,R126,2*%
%TO.N,GND*%
X234600000Y-99310000D03*
%TD*%
D14*
%TO.P,R27,1*%
%TO.N,REVERSE*%
X222500000Y-85810000D03*
%TO.P,R27,2*%
%TO.N,+3V3*%
X222500000Y-84790000D03*
%TD*%
D12*
%TO.P,C1,1*%
%TO.N,NRST*%
X166680000Y-133800000D03*
%TO.P,C1,2*%
%TO.N,GND*%
X165720000Y-133800000D03*
%TD*%
D14*
%TO.P,R12,1*%
%TO.N,Net-(U2-V_{DD})*%
X129600000Y-122510000D03*
%TO.P,R12,2*%
%TO.N,Net-(U2-P_{GOOD})*%
X129600000Y-121490000D03*
%TD*%
D15*
%TO.P,R136,1*%
%TO.N,SWD_CLK*%
X171500000Y-83875000D03*
%TO.P,R136,2*%
%TO.N,PA14*%
X171500000Y-85525000D03*
%TD*%
D11*
%TO.P,R141,1*%
%TO.N,PA1*%
X228000000Y-98290000D03*
%TO.P,R141,2*%
%TO.N,GND*%
X228000000Y-99310000D03*
%TD*%
D14*
%TO.P,R37,1*%
%TO.N,CAN2_TX*%
X180400000Y-100910000D03*
%TO.P,R37,2*%
%TO.N,Net-(U4-TXD)*%
X180400000Y-99890000D03*
%TD*%
D16*
%TO.P,D91,1,K*%
%TO.N,PB9*%
X167069000Y-120000000D03*
%TO.P,D91,2,A*%
%TO.N,GND*%
X166731000Y-120000000D03*
%TD*%
D12*
%TO.P,C32,1*%
%TO.N,+3V3*%
X182780000Y-99900000D03*
%TO.P,C32,2*%
%TO.N,GND*%
X181820000Y-99900000D03*
%TD*%
D14*
%TO.P,R63,1*%
%TO.N,PC2*%
X229100000Y-85810000D03*
%TO.P,R63,2*%
%TO.N,DIG_INPUT_1*%
X229100000Y-84790000D03*
%TD*%
D17*
%TO.P,D102,1,K*%
%TO.N,Net-(D102-K)*%
X155025000Y-140300000D03*
%TO.P,D102,2,A*%
%TO.N,Net-(D102-A)*%
X152975000Y-140300000D03*
%TD*%
D18*
%TO.P,U17,1,A0*%
%TO.N,GND*%
X199395000Y-137975000D03*
%TO.P,U17,2,A1*%
X200665000Y-137975000D03*
%TO.P,U17,3,A2*%
X201935000Y-137975000D03*
%TO.P,U17,4,GND*%
X203205000Y-137975000D03*
%TO.P,U17,5,SDA*%
%TO.N,I2C3_SDA*%
X203205000Y-133025000D03*
%TO.P,U17,6,SCL*%
%TO.N,I2C3_SCL*%
X201935000Y-133025000D03*
%TO.P,U17,7,WP*%
%TO.N,GND*%
X200665000Y-133025000D03*
%TO.P,U17,8,VCC*%
%TO.N,+3V3*%
X199395000Y-133025000D03*
%TD*%
D19*
%TO.P,R86,1*%
%TO.N,Net-(C7-Pad1)*%
X192310000Y-110400000D03*
%TO.P,R86,2*%
%TO.N,SPEED_SENS_1*%
X191290000Y-110400000D03*
%TD*%
D20*
%TO.P,SW2,1,1*%
%TO.N,Net-(D101-K)*%
X175100000Y-115600000D03*
%TO.P,SW2,2,2*%
%TO.N,+3V3*%
X178500000Y-115600000D03*
%TD*%
D21*
%TO.P,HSO1,1,K*%
%TO.N,GND*%
X164087500Y-89300000D03*
%TO.P,HSO1,2,A*%
%TO.N,Net-(HSO1-A)*%
X162512500Y-89300000D03*
%TD*%
D22*
%TO.P,J2,1,Pin_1*%
%TO.N,PB4*%
X168725000Y-119000000D03*
%TO.P,J2,2,Pin_2*%
%TO.N,PB9*%
X170475000Y-120000000D03*
%TO.P,J2,3,Pin_3*%
%TO.N,PE1*%
X168725000Y-121000000D03*
%TO.P,J2,4,Pin_4*%
%TO.N,PE0*%
X170475000Y-122000000D03*
%TD*%
D23*
%TO.P,R18,1*%
%TO.N,Net-(U2-EN)*%
X134490000Y-116700000D03*
%TO.P,R18,2*%
%TO.N,Net-(D15-K)*%
X135510000Y-116700000D03*
%TD*%
D11*
%TO.P,R102,1*%
%TO.N,Net-(C9-Pad1)*%
X206500000Y-110490000D03*
%TO.P,R102,2*%
%TO.N,GND*%
X206500000Y-111510000D03*
%TD*%
D24*
%TO.P,D6,1,K*%
%TO.N,GND*%
X134075000Y-125000000D03*
%TO.P,D6,2,A*%
%TO.N,Net-(D6-A)*%
X136125000Y-125000000D03*
%TD*%
D25*
%TO.P,C40,1*%
%TO.N,+5V*%
X122000000Y-132575000D03*
%TO.P,C40,2*%
%TO.N,GND*%
X122000000Y-129625000D03*
%TD*%
D26*
%TO.P,C23,1*%
%TO.N,GND*%
X175320000Y-88800000D03*
%TO.P,C23,2*%
%TO.N,CAN1_L*%
X176280000Y-88800000D03*
%TD*%
D11*
%TO.P,R45,1*%
%TO.N,Net-(C8-Pad1)*%
X199900000Y-110490000D03*
%TO.P,R45,2*%
%TO.N,GND*%
X199900000Y-111510000D03*
%TD*%
%TO.P,R159,1*%
%TO.N,PARK*%
X208000000Y-85890000D03*
%TO.P,R159,2*%
%TO.N,PD6*%
X208000000Y-86910000D03*
%TD*%
D13*
%TO.P,GND1,1,1*%
%TO.N,GND*%
X185900000Y-105900000D03*
%TD*%
D26*
%TO.P,C26,1*%
%TO.N,GND*%
X182920000Y-88800000D03*
%TO.P,C26,2*%
%TO.N,CAN2_L*%
X183880000Y-88800000D03*
%TD*%
D11*
%TO.P,R108,1*%
%TO.N,PC11*%
X194500000Y-98290000D03*
%TO.P,R108,2*%
%TO.N,GND*%
X194500000Y-99310000D03*
%TD*%
D12*
%TO.P,C8,1*%
%TO.N,Net-(C8-Pad1)*%
X198780000Y-111500000D03*
%TO.P,C8,2*%
%TO.N,GND*%
X197820000Y-111500000D03*
%TD*%
D27*
%TO.P,R57,1*%
%TO.N,OUT_HSO_3*%
X158987500Y-99300000D03*
%TO.P,R57,2*%
%TO.N,Net-(HSO3-A)*%
X160812500Y-99300000D03*
%TD*%
D13*
%TO.P,+3V3,1,1*%
%TO.N,+3V3*%
X142500000Y-140200000D03*
%TD*%
D28*
%TO.P,H2,1,1*%
%TO.N,GND*%
X109100000Y-145300000D03*
D29*
X109100000Y-145300000D03*
%TD*%
D30*
%TO.P,D35,1,A*%
%TO.N,GND*%
X221250000Y-103337500D03*
%TO.P,D35,2,K*%
%TO.N,+3V3*%
X222550000Y-103337500D03*
%TO.P,D35,3,COM*%
%TO.N,PA3*%
X221900000Y-101462500D03*
%TD*%
D31*
%TO.P,D48,1,A1*%
%TO.N,+24V*%
X131100000Y-85500000D03*
%TO.P,D48,2,A2*%
%TO.N,GND*%
X125700000Y-85500000D03*
%TD*%
D12*
%TO.P,C7,1*%
%TO.N,Net-(C7-Pad1)*%
X192180000Y-111500000D03*
%TO.P,C7,2*%
%TO.N,GND*%
X191220000Y-111500000D03*
%TD*%
D11*
%TO.P,R109,1*%
%TO.N,PC10*%
X222800000Y-110990000D03*
%TO.P,R109,2*%
%TO.N,GND*%
X222800000Y-112010000D03*
%TD*%
D32*
%TO.P,D23,1,A*%
%TO.N,GND*%
X209250000Y-89062500D03*
%TO.P,D23,2,K*%
%TO.N,+3V3*%
X207950000Y-89062500D03*
%TO.P,D23,3,COM*%
%TO.N,PD6*%
X208600000Y-90937500D03*
%TD*%
D11*
%TO.P,R42,1*%
%TO.N,Net-(U5-RXD)*%
X191800000Y-99890000D03*
%TO.P,R42,2*%
%TO.N,CAN3_RX*%
X191800000Y-100910000D03*
%TD*%
%TO.P,R104,1*%
%TO.N,Net-(C45-Pad1)*%
X219700000Y-110490000D03*
%TO.P,R104,2*%
%TO.N,GND*%
X219700000Y-111510000D03*
%TD*%
D20*
%TO.P,SW1,1,1*%
%TO.N,GND*%
X164500000Y-136500000D03*
%TO.P,SW1,2,2*%
%TO.N,NRST*%
X167900000Y-136500000D03*
%TD*%
D33*
%TO.P,U12,1,NC*%
%TO.N,unconnected-(U12-NC-Pad1)*%
X219550000Y-113350000D03*
%TO.P,U12,2*%
%TO.N,Net-(C45-Pad1)*%
X218600000Y-113350000D03*
%TO.P,U12,3,GND*%
%TO.N,GND*%
X217650000Y-113350000D03*
%TO.P,U12,4*%
%TO.N,PD13*%
X217650000Y-116050000D03*
%TO.P,U12,5,VCC*%
%TO.N,+3V3*%
X219550000Y-116050000D03*
%TD*%
D11*
%TO.P,R113,1*%
%TO.N,Net-(U13-+)*%
X222200000Y-137790000D03*
%TO.P,R113,2*%
%TO.N,GND*%
X222200000Y-138810000D03*
%TD*%
D34*
%TO.P,C47,1*%
%TO.N,PC3*%
X222500000Y-86720000D03*
%TO.P,C47,2*%
%TO.N,GND*%
X222500000Y-87680000D03*
%TD*%
D14*
%TO.P,R137,1*%
%TO.N,DIG_INPUT_7*%
X216000000Y-98210000D03*
%TO.P,R137,2*%
%TO.N,+3V3*%
X216000000Y-97190000D03*
%TD*%
D34*
%TO.P,C48,1*%
%TO.N,PD4*%
X202700000Y-86720000D03*
%TO.P,C48,2*%
%TO.N,GND*%
X202700000Y-87680000D03*
%TD*%
D11*
%TO.P,R138,1*%
%TO.N,DIG_INPUT_7*%
X214800000Y-98290000D03*
%TO.P,R138,2*%
%TO.N,PD7*%
X214800000Y-99310000D03*
%TD*%
D14*
%TO.P,R75,1*%
%TO.N,PD3*%
X202800000Y-98210000D03*
%TO.P,R75,2*%
%TO.N,DIG_INPUT_5*%
X202800000Y-97190000D03*
%TD*%
D33*
%TO.P,U9,1,NC*%
%TO.N,unconnected-(U9-NC-Pad1)*%
X199750000Y-113350000D03*
%TO.P,U9,2*%
%TO.N,Net-(C8-Pad1)*%
X198800000Y-113350000D03*
%TO.P,U9,3,GND*%
%TO.N,GND*%
X197850000Y-113350000D03*
%TO.P,U9,4*%
%TO.N,PC6*%
X197850000Y-116050000D03*
%TO.P,U9,5,VCC*%
%TO.N,+3V3*%
X199750000Y-116050000D03*
%TD*%
D14*
%TO.P,R21,1*%
%TO.N,KEYON_IGNITION*%
X215900000Y-85810000D03*
%TO.P,R21,2*%
%TO.N,+3V3*%
X215900000Y-84790000D03*
%TD*%
D35*
%TO.P,D2,1,K*%
%TO.N,GND*%
X146800000Y-139275000D03*
%TO.P,D2,2,A*%
%TO.N,Net-(D2-A)*%
X146800000Y-141325000D03*
%TD*%
D36*
%TO.P,C28,1*%
%TO.N,Net-(C28-Pad1)*%
X190000000Y-90780000D03*
%TO.P,C28,2*%
%TO.N,GND*%
X190000000Y-89820000D03*
%TD*%
D11*
%TO.P,R89,1*%
%TO.N,Net-(C5-Pad2)*%
X184100000Y-140880000D03*
%TO.P,R89,2*%
%TO.N,GND*%
X184100000Y-141900000D03*
%TD*%
D14*
%TO.P,R170,1*%
%TO.N,Net-(Q15-B)*%
X162600000Y-143210000D03*
%TO.P,R170,2*%
%TO.N,PB6*%
X162600000Y-142190000D03*
%TD*%
D37*
%TO.P,C94,1*%
%TO.N,GND*%
X127150000Y-106800000D03*
%TO.P,C94,2*%
%TO.N,Net-(D15-K)*%
X130100000Y-106800000D03*
%TD*%
D36*
%TO.P,C52,1*%
%TO.N,GND*%
X184000000Y-144680000D03*
%TO.P,C52,2*%
%TO.N,Net-(U7-K)*%
X184000000Y-143720000D03*
%TD*%
D38*
%TO.P,D105,1,K*%
%TO.N,PA8*%
X204000000Y-127631000D03*
%TO.P,D105,2,A*%
%TO.N,GND*%
X204000000Y-127969000D03*
%TD*%
D11*
%TO.P,R166,1*%
%TO.N,+3V3*%
X167700000Y-130290000D03*
%TO.P,R166,2*%
%TO.N,Net-(Y1-TRI-STATE)*%
X167700000Y-131310000D03*
%TD*%
D39*
%TO.P,C34,1*%
%TO.N,GND*%
X127725000Y-111700000D03*
%TO.P,C34,2*%
%TO.N,Net-(D15-K)*%
X129275000Y-111700000D03*
%TD*%
D21*
%TO.P,HSO5,1,K*%
%TO.N,GND*%
X164087500Y-109300000D03*
%TO.P,HSO5,2,A*%
%TO.N,Net-(HSO5-A)*%
X162512500Y-109300000D03*
%TD*%
D14*
%TO.P,R29,1*%
%TO.N,DRIVE*%
X202700000Y-85810000D03*
%TO.P,R29,2*%
%TO.N,+3V3*%
X202700000Y-84790000D03*
%TD*%
D15*
%TO.P,R3,1*%
%TO.N,+3V3*%
X144900000Y-139875000D03*
%TO.P,R3,2*%
%TO.N,Net-(D2-A)*%
X144900000Y-141525000D03*
%TD*%
D38*
%TO.P,D107,1,K*%
%TO.N,PA14*%
X173100000Y-111600000D03*
%TO.P,D107,2,A*%
%TO.N,GND*%
X173100000Y-111262000D03*
%TD*%
D12*
%TO.P,C36,1*%
%TO.N,Net-(C36-Pad1)*%
X133080000Y-114500000D03*
%TO.P,C36,2*%
%TO.N,Net-(U2-BOOT)*%
X132120000Y-114500000D03*
%TD*%
D40*
%TO.P,C39,1*%
%TO.N,+5V*%
X129800000Y-132050000D03*
%TO.P,C39,2*%
%TO.N,GND*%
X129800000Y-130150000D03*
%TD*%
D21*
%TO.P,HSO6,1,K*%
%TO.N,GND*%
X164087500Y-114300000D03*
%TO.P,HSO6,2,A*%
%TO.N,Net-(HSO6-A)*%
X162512500Y-114300000D03*
%TD*%
D18*
%TO.P,U3,1,TXD*%
%TO.N,Net-(U3-TXD)*%
X172795000Y-98075000D03*
%TO.P,U3,2,GND*%
%TO.N,GND*%
X174065000Y-98075000D03*
%TO.P,U3,3,VCC*%
%TO.N,+3V3*%
X175335000Y-98075000D03*
%TO.P,U3,4,RXD*%
%TO.N,Net-(U3-RXD)*%
X176605000Y-98075000D03*
%TO.P,U3,5,SHDN*%
%TO.N,GND*%
X176605000Y-93125000D03*
%TO.P,U3,6,CANL*%
%TO.N,CAN1_L*%
X175335000Y-93125000D03*
%TO.P,U3,7,CANH*%
%TO.N,CAN1_H*%
X174065000Y-93125000D03*
%TO.P,U3,8,S*%
%TO.N,GND*%
X172795000Y-93125000D03*
%TD*%
D23*
%TO.P,R114,1*%
%TO.N,DISABLE_HVIL*%
X213390000Y-134100000D03*
%TO.P,R114,2*%
%TO.N,Net-(Q2-B)*%
X214410000Y-134100000D03*
%TD*%
D12*
%TO.P,C30,1*%
%TO.N,GND*%
X189480000Y-88800000D03*
%TO.P,C30,2*%
%TO.N,CAN3_H*%
X188520000Y-88800000D03*
%TD*%
D32*
%TO.P,D33,1,A*%
%TO.N,GND*%
X215950000Y-101462500D03*
%TO.P,D33,2,K*%
%TO.N,+3V3*%
X214650000Y-101462500D03*
%TO.P,D33,3,COM*%
%TO.N,PD7*%
X215300000Y-103337500D03*
%TD*%
D11*
%TO.P,R112,1*%
%TO.N,Net-(Q2-C)*%
X222200000Y-135790000D03*
%TO.P,R112,2*%
%TO.N,Net-(U13-+)*%
X222200000Y-136810000D03*
%TD*%
D21*
%TO.P,HSO4,1,K*%
%TO.N,GND*%
X164087500Y-104300000D03*
%TO.P,HSO4,2,A*%
%TO.N,Net-(HSO4-A)*%
X162512500Y-104300000D03*
%TD*%
D14*
%TO.P,R128,1*%
%TO.N,DIG_INPUT_6*%
X209400000Y-98210000D03*
%TO.P,R128,2*%
%TO.N,+3V3*%
X209400000Y-97190000D03*
%TD*%
D41*
%TO.P,J3,1,Pin_1*%
%TO.N,PA4*%
X175700000Y-143575000D03*
%TO.P,J3,2,Pin_2*%
%TO.N,PA7*%
X176700000Y-141825000D03*
%TO.P,J3,3,Pin_3*%
%TO.N,PC4*%
X177700000Y-143575000D03*
%TO.P,J3,4,Pin_4*%
%TO.N,PC5*%
X178700000Y-141825000D03*
%TD*%
D42*
%TO.P,D4,1,K*%
%TO.N,CAN2_L*%
X183350000Y-85062500D03*
%TO.P,D4,2,K*%
%TO.N,CAN2_H*%
X181450000Y-85062500D03*
%TO.P,D4,3,A*%
%TO.N,GND*%
X182400000Y-87337500D03*
%TD*%
D12*
%TO.P,C96,1*%
%TO.N,Net-(U18-+)*%
X142180000Y-103900000D03*
%TO.P,C96,2*%
%TO.N,GND*%
X141220000Y-103900000D03*
%TD*%
D18*
%TO.P,U4,1,TXD*%
%TO.N,Net-(U4-TXD)*%
X180395000Y-98075000D03*
%TO.P,U4,2,GND*%
%TO.N,GND*%
X181665000Y-98075000D03*
%TO.P,U4,3,VCC*%
%TO.N,+3V3*%
X182935000Y-98075000D03*
%TO.P,U4,4,RXD*%
%TO.N,Net-(U4-RXD)*%
X184205000Y-98075000D03*
%TO.P,U4,5,SHDN*%
%TO.N,GND*%
X184205000Y-93125000D03*
%TO.P,U4,6,CANL*%
%TO.N,CAN2_L*%
X182935000Y-93125000D03*
%TO.P,U4,7,CANH*%
%TO.N,CAN2_H*%
X181665000Y-93125000D03*
%TO.P,U4,8,S*%
%TO.N,GND*%
X180395000Y-93125000D03*
%TD*%
D23*
%TO.P,R46,1*%
%TO.N,Net-(Q6-G)*%
X156890000Y-91100000D03*
%TO.P,R46,2*%
%TO.N,Net-(Q5-D)*%
X157910000Y-91100000D03*
%TD*%
D16*
%TO.P,D89,1,K*%
%TO.N,PE1*%
X166969000Y-121000000D03*
%TO.P,D89,2,A*%
%TO.N,GND*%
X166631000Y-121000000D03*
%TD*%
D12*
%TO.P,C9,1*%
%TO.N,Net-(C9-Pad1)*%
X205380000Y-111500000D03*
%TO.P,C9,2*%
%TO.N,GND*%
X204420000Y-111500000D03*
%TD*%
D14*
%TO.P,R8,1*%
%TO.N,Net-(R142-Pad2)*%
X188900000Y-90810000D03*
%TO.P,R8,2*%
%TO.N,Net-(C28-Pad1)*%
X188900000Y-89790000D03*
%TD*%
D43*
%TO.P,C12,1*%
%TO.N,GND*%
X167600000Y-127075000D03*
%TO.P,C12,2*%
%TO.N,+3V3*%
X167600000Y-125525000D03*
%TD*%
D14*
%TO.P,R39,1*%
%TO.N,CAN1_TX*%
X172800000Y-101010000D03*
%TO.P,R39,2*%
%TO.N,Net-(U3-TXD)*%
X172800000Y-99990000D03*
%TD*%
D11*
%TO.P,R85,1*%
%TO.N,Net-(C4-Pad2)*%
X180900000Y-139780000D03*
%TO.P,R85,2*%
%TO.N,GND*%
X180900000Y-140800000D03*
%TD*%
D32*
%TO.P,D32,1,A*%
%TO.N,GND*%
X209350000Y-101462500D03*
%TO.P,D32,2,K*%
%TO.N,+3V3*%
X208050000Y-101462500D03*
%TO.P,D32,3,COM*%
%TO.N,PD5*%
X208700000Y-103337500D03*
%TD*%
D44*
%TO.P,C6,1*%
%TO.N,VBAT*%
X161900000Y-128825000D03*
%TO.P,C6,2*%
%TO.N,GND*%
X161900000Y-130375000D03*
%TD*%
D19*
%TO.P,R88,1*%
%TO.N,Net-(C8-Pad1)*%
X198810000Y-110400000D03*
%TO.P,R88,2*%
%TO.N,SPEED_SENS_2*%
X197790000Y-110400000D03*
%TD*%
D45*
%TO.P,Y2,1,TRI-STATE_OR_NC*%
%TO.N,Net-(Y2-TRI-STATE_OR_NC)*%
X169800000Y-127275000D03*
%TO.P,Y2,2,GND*%
%TO.N,GND*%
X172000000Y-127275000D03*
%TO.P,Y2,3,OUTPUT*%
%TO.N,OSC32_IN*%
X172000000Y-125525000D03*
%TO.P,Y2,4,VDD*%
%TO.N,+3V3*%
X169800000Y-125525000D03*
%TD*%
D46*
%TO.P,U2,1,V_{IN}*%
%TO.N,Net-(D15-K)*%
X129325000Y-113762500D03*
%TO.P,U2,2,V_{IN}*%
X128875000Y-113762500D03*
%TO.P,U2,3,P_{GND}*%
%TO.N,GND*%
X127975000Y-113762500D03*
%TO.P,U2,4,P_{GND}*%
X127525000Y-113762500D03*
D47*
%TO.P,U2,5,SW*%
%TO.N,Net-(L1-Pad1)*%
X126562500Y-114225000D03*
D48*
%TO.P,U2,6,SW*%
X126562500Y-114675000D03*
%TO.P,U2,7,SW*%
X126562500Y-115125000D03*
%TO.P,U2,8,SW*%
X126562500Y-115825000D03*
%TO.P,U2,9,SW*%
X126562500Y-116275000D03*
%TO.P,U2,10,GL*%
%TO.N,unconnected-(U2-GL-Pad10)_1*%
X126565000Y-116725000D03*
D46*
%TO.P,U2,11,GL*%
%TO.N,unconnected-(U2-GL-Pad10)*%
X127075000Y-117637500D03*
%TO.P,U2,12,V_{DRV}*%
%TO.N,Net-(U2-V_{DRV})*%
X127525000Y-117637500D03*
%TO.P,U2,13,P_{GND}*%
%TO.N,GND*%
X127975000Y-117637500D03*
%TO.P,U2,14,P_{GOOD}*%
%TO.N,Net-(U2-P_{GOOD})*%
X128425000Y-117637500D03*
%TO.P,U2,15,V_{DD}*%
%TO.N,Net-(U2-V_{DD})*%
X128875000Y-117637500D03*
%TO.P,U2,16,A_{GND}*%
%TO.N,GND*%
X129325000Y-117637500D03*
%TO.P,U2,17,FB*%
%TO.N,Net-(U2-FB)*%
X129775000Y-117637500D03*
D48*
%TO.P,U2,18,V_{OUT}*%
%TO.N,+5V*%
X130437500Y-117175000D03*
%TO.P,U2,19,EN*%
%TO.N,Net-(U2-EN)*%
X130437500Y-116725000D03*
%TO.P,U2,20,MODE2*%
%TO.N,Net-(U2-MODE2)*%
X130437500Y-116275000D03*
%TO.P,U2,21,MODE1*%
%TO.N,Net-(U2-MODE1)*%
X130437500Y-115825000D03*
%TO.P,U2,22,V_{IN}*%
%TO.N,Net-(D15-K)*%
X130437500Y-115125000D03*
%TO.P,U2,23,BOOT*%
%TO.N,Net-(U2-BOOT)*%
X130437500Y-114675000D03*
%TO.P,U2,24,PHASE*%
%TO.N,Net-(U2-PHASE)*%
X130437500Y-114225000D03*
D49*
%TO.P,U2,25,A_{GND}*%
%TO.N,GND*%
X129250000Y-116187500D03*
D50*
X129260000Y-116190000D03*
D51*
%TO.P,U2,26,V_{IN}*%
%TO.N,Net-(D15-K)*%
X129250000Y-114525000D03*
D50*
X129250000Y-114545000D03*
D52*
%TO.P,U2,27,P_{GND}*%
%TO.N,GND*%
X128200000Y-114200000D03*
X127450000Y-114200000D03*
D53*
X127725000Y-114950000D03*
D52*
X128200000Y-115350000D03*
X127450000Y-115350000D03*
X128200000Y-116500000D03*
D54*
%TO.P,U2,28,GL*%
%TO.N,unconnected-(U2-GL-Pad10)_2*%
X127510000Y-116685000D03*
%TD*%
D42*
%TO.P,D3,1,K*%
%TO.N,CAN1_L*%
X175750000Y-84962500D03*
%TO.P,D3,2,K*%
%TO.N,CAN1_H*%
X173850000Y-84962500D03*
%TO.P,D3,3,A*%
%TO.N,GND*%
X174800000Y-87237500D03*
%TD*%
D55*
%TO.P,R16,1*%
%TO.N,+5V*%
X136200000Y-131825000D03*
%TO.P,R16,2*%
%TO.N,Net-(D6-A)*%
X136200000Y-130175000D03*
%TD*%
D12*
%TO.P,C24,1*%
%TO.N,GND*%
X174280000Y-88800000D03*
%TO.P,C24,2*%
%TO.N,CAN1_H*%
X173320000Y-88800000D03*
%TD*%
D56*
%TO.P,R97,1*%
%TO.N,Net-(U18-+)*%
X142712500Y-100200000D03*
%TO.P,R97,2*%
%TO.N,+24V*%
X140887500Y-100200000D03*
%TD*%
D25*
%TO.P,C41,1*%
%TO.N,+5V*%
X125800000Y-132575000D03*
%TO.P,C41,2*%
%TO.N,GND*%
X125800000Y-129625000D03*
%TD*%
D23*
%TO.P,R19,1*%
%TO.N,Net-(Q3-G)*%
X156890000Y-86100000D03*
%TO.P,R19,2*%
%TO.N,Net-(Q4-D)*%
X157910000Y-86100000D03*
%TD*%
D19*
%TO.P,R49,1*%
%TO.N,Net-(C10-Pad1)*%
X212010000Y-110400000D03*
%TO.P,R49,2*%
%TO.N,SPEED_SENS_4*%
X210990000Y-110400000D03*
%TD*%
D57*
%TO.P,C35,1*%
%TO.N,GND*%
X126550000Y-97400000D03*
%TO.P,C35,2*%
%TO.N,Net-(D15-K)*%
X130650000Y-97400000D03*
%TD*%
D28*
%TO.P,H3,1,1*%
%TO.N,GND*%
X241700000Y-145300000D03*
D29*
X241700000Y-145300000D03*
%TD*%
D12*
%TO.P,C2,1*%
%TO.N,+5V*%
X218660000Y-147900000D03*
%TO.P,C2,2*%
%TO.N,GND*%
X217700000Y-147900000D03*
%TD*%
D38*
%TO.P,D104,1,K*%
%TO.N,PA4*%
X175700000Y-145231000D03*
%TO.P,D104,2,A*%
%TO.N,GND*%
X175700000Y-145569000D03*
%TD*%
D33*
%TO.P,U11,1,NC*%
%TO.N,unconnected-(U11-NC-Pad1)*%
X212950000Y-113350000D03*
%TO.P,U11,2*%
%TO.N,Net-(C10-Pad1)*%
X212000000Y-113350000D03*
%TO.P,U11,3,GND*%
%TO.N,GND*%
X211050000Y-113350000D03*
%TO.P,U11,4*%
%TO.N,PD14*%
X211050000Y-116050000D03*
%TO.P,U11,5,VCC*%
%TO.N,+3V3*%
X212950000Y-116050000D03*
%TD*%
D27*
%TO.P,R66,1*%
%TO.N,OUT_HSO_4*%
X158987500Y-104300000D03*
%TO.P,R66,2*%
%TO.N,Net-(HSO4-A)*%
X160812500Y-104300000D03*
%TD*%
D14*
%TO.P,R6,1*%
%TO.N,Net-(R154-Pad2)*%
X181200000Y-90910000D03*
%TO.P,R6,2*%
%TO.N,Net-(C25-Pad1)*%
X181200000Y-89890000D03*
%TD*%
D55*
%TO.P,R139,1*%
%TO.N,PA13*%
X169900000Y-85525000D03*
%TO.P,R139,2*%
%TO.N,SWD_IO*%
X169900000Y-83875000D03*
%TD*%
D58*
%TO.P,U13,1*%
%TO.N,Net-(C50-Pad2)*%
X220250000Y-139950000D03*
%TO.P,U13,2,V-*%
%TO.N,GND*%
X220250000Y-139000000D03*
%TO.P,U13,3,+*%
%TO.N,Net-(U13-+)*%
X220250000Y-138050000D03*
%TO.P,U13,4,-*%
%TO.N,Net-(U13--)*%
X217550000Y-138050000D03*
%TO.P,U13,5,V+*%
%TO.N,+5V*%
X217550000Y-139950000D03*
%TD*%
D30*
%TO.P,D20,1,A*%
%TO.N,GND*%
X194450000Y-103337500D03*
%TO.P,D20,2,K*%
%TO.N,+3V3*%
X195750000Y-103337500D03*
%TO.P,D20,3,COM*%
%TO.N,PC11*%
X195100000Y-101462500D03*
%TD*%
D34*
%TO.P,C89,1*%
%TO.N,PD6*%
X209300000Y-86720000D03*
%TO.P,C89,2*%
%TO.N,GND*%
X209300000Y-87680000D03*
%TD*%
D14*
%TO.P,R130,1*%
%TO.N,Net-(Q15-B)*%
X162600000Y-141210000D03*
%TO.P,R130,2*%
%TO.N,GND*%
X162600000Y-140190000D03*
%TD*%
D59*
%TO.P,U18,1*%
%TO.N,PC0*%
X141050000Y-108450000D03*
%TO.P,U18,2,V-*%
%TO.N,GND*%
X142000000Y-108450000D03*
%TO.P,U18,3,+*%
%TO.N,Net-(U18-+)*%
X142950000Y-108450000D03*
%TO.P,U18,4,-*%
%TO.N,PC0*%
X142950000Y-105750000D03*
%TO.P,U18,5,V+*%
%TO.N,+3V3*%
X141050000Y-105750000D03*
%TD*%
D14*
%TO.P,R65,1*%
%TO.N,PC1*%
X235700000Y-85810000D03*
%TO.P,R65,2*%
%TO.N,DIG_INPUT_2*%
X235700000Y-84790000D03*
%TD*%
D60*
%TO.P,R154,1*%
%TO.N,CAN2_H*%
X180300000Y-90080000D03*
%TO.P,R154,2*%
%TO.N,Net-(R154-Pad2)*%
X180300000Y-90720000D03*
%TD*%
D42*
%TO.P,D5,1,K*%
%TO.N,CAN3_L*%
X190950000Y-85062500D03*
%TO.P,D5,2,K*%
%TO.N,CAN3_H*%
X189050000Y-85062500D03*
%TO.P,D5,3,A*%
%TO.N,GND*%
X190000000Y-87337500D03*
%TD*%
D19*
%TO.P,R47,1*%
%TO.N,Net-(C9-Pad1)*%
X205410000Y-110400000D03*
%TO.P,R47,2*%
%TO.N,SPEED_SENS_3*%
X204390000Y-110400000D03*
%TD*%
D11*
%TO.P,R106,1*%
%TO.N,PC1*%
X234400000Y-85890000D03*
%TO.P,R106,2*%
%TO.N,GND*%
X234400000Y-86910000D03*
%TD*%
D36*
%TO.P,C22,1*%
%TO.N,Net-(C22-Pad1)*%
X174700000Y-90780000D03*
%TO.P,C22,2*%
%TO.N,GND*%
X174700000Y-89820000D03*
%TD*%
D27*
%TO.P,R84,1*%
%TO.N,OUT_HSO_6*%
X158987500Y-114300000D03*
%TO.P,R84,2*%
%TO.N,Net-(HSO6-A)*%
X160812500Y-114300000D03*
%TD*%
D34*
%TO.P,C46,1*%
%TO.N,PD2*%
X195800000Y-86720000D03*
%TO.P,C46,2*%
%TO.N,GND*%
X195800000Y-87680000D03*
%TD*%
D37*
%TO.P,C93,1*%
%TO.N,GND*%
X127125000Y-102000000D03*
%TO.P,C93,2*%
%TO.N,Net-(D15-K)*%
X130075000Y-102000000D03*
%TD*%
D34*
%TO.P,C18,1*%
%TO.N,GND*%
X177700000Y-118320000D03*
%TO.P,C18,2*%
%TO.N,+3V3*%
X177700000Y-119280000D03*
%TD*%
D23*
%TO.P,R83,1*%
%TO.N,Net-(Q14-G)*%
X156490000Y-111000000D03*
%TO.P,R83,2*%
%TO.N,Net-(Q13-D)*%
X157510000Y-111000000D03*
%TD*%
D11*
%TO.P,R168,1*%
%TO.N,+3V3*%
X203200000Y-130090000D03*
%TO.P,R168,2*%
%TO.N,I2C3_SDA*%
X203200000Y-131110000D03*
%TD*%
D17*
%TO.P,D92,1,K*%
%TO.N,GND*%
X140725000Y-85000000D03*
%TO.P,D92,2,A*%
%TO.N,Net-(D92-A)*%
X138675000Y-85000000D03*
%TD*%
D11*
%TO.P,R103,1*%
%TO.N,Net-(C10-Pad1)*%
X213100000Y-110490000D03*
%TO.P,R103,2*%
%TO.N,GND*%
X213100000Y-111510000D03*
%TD*%
D61*
%TO.P,R110,1*%
%TO.N,+5V*%
X238000000Y-140050000D03*
%TO.P,R110,2*%
%TO.N,Net-(D51-A)*%
X238000000Y-136950000D03*
%TD*%
D38*
%TO.P,D108,1,K*%
%TO.N,PA13*%
X169300000Y-111600000D03*
%TO.P,D108,2,A*%
%TO.N,GND*%
X169300000Y-111262000D03*
%TD*%
D23*
%TO.P,R74,1*%
%TO.N,Net-(Q12-G)*%
X156490000Y-106000000D03*
%TO.P,R74,2*%
%TO.N,Net-(Q11-D)*%
X157510000Y-106000000D03*
%TD*%
D21*
%TO.P,HSO2,1,K*%
%TO.N,GND*%
X164087500Y-94300000D03*
%TO.P,HSO2,2,A*%
%TO.N,Net-(HSO2-A)*%
X162512500Y-94300000D03*
%TD*%
D11*
%TO.P,R169,1*%
%TO.N,+3V3*%
X201900000Y-130090000D03*
%TO.P,R169,2*%
%TO.N,I2C3_SCL*%
X201900000Y-131110000D03*
%TD*%
D62*
%TO.P,C37,1*%
%TO.N,Net-(U2-V_{DRV})*%
X124137500Y-119900000D03*
%TO.P,C37,2*%
%TO.N,GND*%
X127262500Y-119900000D03*
%TD*%
D16*
%TO.P,D101,1,K*%
%TO.N,Net-(D101-K)*%
X173844000Y-116085000D03*
%TO.P,D101,2,A*%
%TO.N,GND*%
X173506000Y-116085000D03*
%TD*%
%TO.P,D87,1,K*%
%TO.N,PE0*%
X166969000Y-122000000D03*
%TO.P,D87,2,A*%
%TO.N,GND*%
X166631000Y-122000000D03*
%TD*%
D27*
%TO.P,R48,1*%
%TO.N,OUT_HSO_2*%
X158987500Y-94300000D03*
%TO.P,R48,2*%
%TO.N,Net-(HSO2-A)*%
X160812500Y-94300000D03*
%TD*%
D11*
%TO.P,R129,1*%
%TO.N,DIG_INPUT_6*%
X208200000Y-98290000D03*
%TO.P,R129,2*%
%TO.N,PD5*%
X208200000Y-99310000D03*
%TD*%
D14*
%TO.P,R158,1*%
%TO.N,PARK*%
X209300000Y-85810000D03*
%TO.P,R158,2*%
%TO.N,+3V3*%
X209300000Y-84790000D03*
%TD*%
D36*
%TO.P,C83,1*%
%TO.N,PA1*%
X229200000Y-100080000D03*
%TO.P,C83,2*%
%TO.N,GND*%
X229200000Y-99120000D03*
%TD*%
%TO.P,C25,1*%
%TO.N,Net-(C25-Pad1)*%
X182300000Y-90880000D03*
%TO.P,C25,2*%
%TO.N,GND*%
X182300000Y-89920000D03*
%TD*%
D63*
%TO.P,R157,1*%
%TO.N,Net-(R157-Pad1)*%
X184400000Y-90720000D03*
%TO.P,R157,2*%
%TO.N,CAN2_L*%
X184400000Y-90080000D03*
%TD*%
D22*
%TO.P,J4,1,Pin_1*%
%TO.N,PA9*%
X204875000Y-125300000D03*
%TO.P,J4,2,Pin_2*%
%TO.N,PA8*%
X203125000Y-126300000D03*
%TD*%
D36*
%TO.P,C97,1*%
%TO.N,+3V3*%
X139500000Y-105980000D03*
%TO.P,C97,2*%
%TO.N,GND*%
X139500000Y-105020000D03*
%TD*%
D64*
%TO.P,FB2,1*%
%TO.N,+3V3*%
X186875000Y-139600000D03*
%TO.P,FB2,2*%
%TO.N,+3.3VA*%
X185125000Y-139600000D03*
%TD*%
D27*
%TO.P,R32,1*%
%TO.N,OUT_HSO_1*%
X158987500Y-89300000D03*
%TO.P,R32,2*%
%TO.N,Net-(HSO1-A)*%
X160812500Y-89300000D03*
%TD*%
D36*
%TO.P,C64,1*%
%TO.N,PC11*%
X195800000Y-100080000D03*
%TO.P,C64,2*%
%TO.N,GND*%
X195800000Y-99120000D03*
%TD*%
D23*
%TO.P,R167,1*%
%TO.N,+3V3*%
X167690000Y-128700000D03*
%TO.P,R167,2*%
%TO.N,Net-(Y2-TRI-STATE_OR_NC)*%
X168710000Y-128700000D03*
%TD*%
D32*
%TO.P,D25,1,A*%
%TO.N,GND*%
X215850000Y-89062500D03*
%TO.P,D25,2,K*%
%TO.N,+3V3*%
X214550000Y-89062500D03*
%TO.P,D25,3,COM*%
%TO.N,PF2*%
X215200000Y-90937500D03*
%TD*%
D34*
%TO.P,C80,1*%
%TO.N,PA3*%
X222600000Y-99120000D03*
%TO.P,C80,2*%
%TO.N,GND*%
X222600000Y-100080000D03*
%TD*%
D26*
%TO.P,C29,1*%
%TO.N,GND*%
X190520000Y-88800000D03*
%TO.P,C29,2*%
%TO.N,CAN3_L*%
X191480000Y-88800000D03*
%TD*%
D38*
%TO.P,D98,1,K*%
%TO.N,PC4*%
X177700000Y-145231000D03*
%TO.P,D98,2,A*%
%TO.N,GND*%
X177700000Y-145569000D03*
%TD*%
D14*
%TO.P,R73,1*%
%TO.N,PC11*%
X195800000Y-98210000D03*
%TO.P,R73,2*%
%TO.N,DIG_INPUT_4*%
X195800000Y-97190000D03*
%TD*%
%TO.P,R41,1*%
%TO.N,CAN3_TX*%
X188200000Y-100910000D03*
%TO.P,R41,2*%
%TO.N,Net-(U5-TXD)*%
X188200000Y-99890000D03*
%TD*%
D34*
%TO.P,C44,1*%
%TO.N,PF2*%
X215900000Y-86720000D03*
%TO.P,C44,2*%
%TO.N,GND*%
X215900000Y-87680000D03*
%TD*%
D10*
%TO.P,RFB2,1*%
%TO.N,Net-(U2-FB)*%
X134575000Y-119600000D03*
%TO.P,RFB2,2*%
%TO.N,GND*%
X133025000Y-119600000D03*
%TD*%
D12*
%TO.P,C10,1*%
%TO.N,Net-(C10-Pad1)*%
X211980000Y-111500000D03*
%TO.P,C10,2*%
%TO.N,GND*%
X211020000Y-111500000D03*
%TD*%
D19*
%TO.P,R61,1*%
%TO.N,Net-(C45-Pad1)*%
X218610000Y-110400000D03*
%TO.P,R61,2*%
%TO.N,SPEED_SENS_5*%
X217590000Y-110400000D03*
%TD*%
D16*
%TO.P,D94,1,K*%
%TO.N,PB4*%
X166969000Y-119000000D03*
%TO.P,D94,2,A*%
%TO.N,GND*%
X166631000Y-119000000D03*
%TD*%
D23*
%TO.P,R55,1*%
%TO.N,Net-(Q8-G)*%
X156890000Y-96100000D03*
%TO.P,R55,2*%
%TO.N,Net-(Q7-D)*%
X157910000Y-96100000D03*
%TD*%
D32*
%TO.P,D21,1,A*%
%TO.N,GND*%
X202750000Y-101462500D03*
%TO.P,D21,2,K*%
%TO.N,+3V3*%
X201450000Y-101462500D03*
%TO.P,D21,3,COM*%
%TO.N,PD3*%
X202100000Y-103337500D03*
%TD*%
D19*
%TO.P,R1,1*%
%TO.N,GND*%
X175410000Y-118200000D03*
%TO.P,R1,2*%
%TO.N,Net-(D101-K)*%
X174390000Y-118200000D03*
%TD*%
D28*
%TO.P,H1,1,1*%
%TO.N,GND*%
X109100000Y-87100000D03*
D29*
X109100000Y-87100000D03*
%TD*%
D23*
%TO.P,R124,1*%
%TO.N,Net-(D101-K)*%
X174290000Y-113000000D03*
%TO.P,R124,2*%
%TO.N,BOOT0*%
X175310000Y-113000000D03*
%TD*%
D38*
%TO.P,D106,1,K*%
%TO.N,PA9*%
X205300000Y-127631000D03*
%TO.P,D106,2,A*%
%TO.N,GND*%
X205300000Y-127969000D03*
%TD*%
D65*
%TO.P,Q15,1,B*%
%TO.N,Net-(Q15-B)*%
X160400000Y-143150000D03*
%TO.P,Q15,2,E*%
%TO.N,GND*%
X160400000Y-141250000D03*
%TO.P,Q15,3,C*%
%TO.N,Net-(D102-K)*%
X157400000Y-142200000D03*
%TD*%
D41*
%TO.P,J5,1,Pin_1*%
%TO.N,PA14*%
X171700000Y-113500000D03*
%TO.P,J5,2,Pin_2*%
%TO.N,PA13*%
X170700000Y-111750000D03*
%TD*%
D34*
%TO.P,C62,1*%
%TO.N,PC1*%
X235700000Y-86720000D03*
%TO.P,C62,2*%
%TO.N,GND*%
X235700000Y-87680000D03*
%TD*%
D66*
%TO.P,FB1,1*%
%TO.N,Net-(U7-K)*%
X182100000Y-143175000D03*
%TO.P,FB1,2*%
%TO.N,VREF+*%
X182100000Y-141425000D03*
%TD*%
D63*
%TO.P,R151,1*%
%TO.N,Net-(R151-Pad1)*%
X176800000Y-90620000D03*
%TO.P,R151,2*%
%TO.N,CAN1_L*%
X176800000Y-89980000D03*
%TD*%
D27*
%TO.P,R76,1*%
%TO.N,OUT_HSO_5*%
X158987500Y-109300000D03*
%TO.P,R76,2*%
%TO.N,Net-(HSO5-A)*%
X160812500Y-109300000D03*
%TD*%
D30*
%TO.P,D17,1,A*%
%TO.N,GND*%
X222750000Y-116037500D03*
%TO.P,D17,2,K*%
%TO.N,+3V3*%
X224050000Y-116037500D03*
%TO.P,D17,3,COM*%
%TO.N,PC10*%
X223400000Y-114162500D03*
%TD*%
D34*
%TO.P,C72,1*%
%TO.N,GND*%
X229000000Y-133120000D03*
%TO.P,C72,2*%
%TO.N,Net-(U14A-+)*%
X229000000Y-134080000D03*
%TD*%
D14*
%TO.P,R115,1*%
%TO.N,+5V*%
X215500000Y-135110000D03*
%TO.P,R115,2*%
%TO.N,Net-(Q2-B)*%
X215500000Y-134090000D03*
%TD*%
%TO.P,R131,1*%
%TO.N,PA3*%
X222600000Y-98210000D03*
%TO.P,R131,2*%
%TO.N,DIG_INPUT_8*%
X222600000Y-97190000D03*
%TD*%
D67*
%TO.P,J1,1,1*%
%TO.N,GND*%
X231650000Y-69800000D03*
D68*
%TO.P,J1,2,2*%
X225850000Y-69800000D03*
%TO.P,J1,3,3*%
X228750000Y-72130000D03*
%TO.P,J1,4,4*%
%TO.N,HVIL_START*%
X231650000Y-77930000D03*
%TO.P,J1,5,5*%
%TO.N,HVIL_END*%
X225850000Y-77930000D03*
D69*
%TO.P,J1,6,6*%
%TO.N,CAN1_H*%
X172220000Y-77930000D03*
%TO.P,J1,7,7*%
%TO.N,GND*%
X174760000Y-77930000D03*
%TO.P,J1,8,8*%
%TO.N,CAN1_L*%
X177300000Y-77930000D03*
%TO.P,J1,9,9*%
%TO.N,CAN2_H*%
X179840000Y-77930000D03*
%TO.P,J1,10,10*%
%TO.N,GND*%
X182380000Y-77930000D03*
%TO.P,J1,11,11*%
%TO.N,CAN2_L*%
X184920000Y-77930000D03*
%TO.P,J1,12,12*%
%TO.N,CAN3_H*%
X187460000Y-77930000D03*
%TO.P,J1,13,13*%
%TO.N,GND*%
X190000000Y-77930000D03*
%TO.P,J1,14,14*%
%TO.N,CAN3_L*%
X192540000Y-77930000D03*
%TO.P,J1,15,15*%
%TO.N,DIG_INPUT_4*%
X195080000Y-77930000D03*
%TO.P,J1,16,16*%
%TO.N,DIG_INPUT_5*%
X197620000Y-77930000D03*
%TO.P,J1,17,17*%
%TO.N,DRIVE*%
X200160000Y-77930000D03*
%TO.P,J1,18,18*%
%TO.N,DIG_INPUT_6*%
X202700000Y-77930000D03*
%TO.P,J1,19,19*%
%TO.N,PARK*%
X205240000Y-77930000D03*
%TO.P,J1,20,20*%
%TO.N,DIG_INPUT_9*%
X207780000Y-77930000D03*
%TO.P,J1,21,21*%
%TO.N,KEYON_IGNITION*%
X210320000Y-77930000D03*
%TO.P,J1,22,22*%
%TO.N,REVERSE*%
X212860000Y-77930000D03*
%TO.P,J1,23,23*%
%TO.N,DIG_INPUT_1*%
X215400000Y-77930000D03*
%TO.P,J1,24,24*%
%TO.N,DIG_INPUT_2*%
X217940000Y-77930000D03*
%TO.P,J1,25,25*%
%TO.N,SWD_IO*%
X172220000Y-75390000D03*
%TO.P,J1,26,26*%
%TO.N,SWD_CLK*%
X174760000Y-75390000D03*
%TO.P,J1,27,27*%
%TO.N,+5V*%
X177300000Y-75390000D03*
%TO.P,J1,28,28*%
X179840000Y-75390000D03*
%TO.P,J1,29,29*%
X182380000Y-75390000D03*
%TO.P,J1,30,30*%
%TO.N,GND*%
X184920000Y-75390000D03*
%TO.P,J1,31,31*%
X187460000Y-75390000D03*
%TO.P,J1,32,32*%
X190000000Y-75390000D03*
%TO.P,J1,33,33*%
X192540000Y-75390000D03*
%TO.P,J1,34,34*%
%TO.N,SPEED_SENS_1*%
X195080000Y-75390000D03*
%TO.P,J1,35,35*%
%TO.N,NEUTRAL*%
X197620000Y-75390000D03*
%TO.P,J1,36,36*%
%TO.N,DIG_INPUT_3*%
X200160000Y-75390000D03*
%TO.P,J1,37,37*%
%TO.N,DIG_INPUT_7*%
X202700000Y-75390000D03*
%TO.P,J1,38,38*%
%TO.N,DIG_INPUT_8*%
X205240000Y-75390000D03*
%TO.P,J1,39,39*%
%TO.N,DIG_INPUT_10*%
X207780000Y-75390000D03*
%TO.P,J1,40,40*%
%TO.N,SPEED_SENS_5*%
X210320000Y-75390000D03*
%TO.P,J1,41,41*%
%TO.N,SPEED_SENS_4*%
X212860000Y-75390000D03*
%TO.P,J1,42,42*%
%TO.N,SPEED_SENS_3*%
X215400000Y-75390000D03*
%TO.P,J1,43,43*%
%TO.N,SPEED_SENS_2*%
X217940000Y-75390000D03*
%TO.P,J1,44,44*%
%TO.N,ANALOG_IN15*%
X172220000Y-69340000D03*
%TO.P,J1,45,45*%
%TO.N,ANALOG_IN0*%
X174760000Y-69340000D03*
%TO.P,J1,46,46*%
%TO.N,ANALOG_IN11*%
X177300000Y-69340000D03*
%TO.P,J1,47,47*%
%TO.N,ANALOG_IN13*%
X179840000Y-69340000D03*
%TO.P,J1,48,48*%
%TO.N,ACC_SENS_1*%
X182380000Y-69340000D03*
%TO.P,J1,49,49*%
%TO.N,ACC_SENS_2*%
X184920000Y-69340000D03*
%TO.P,J1,50,50*%
%TO.N,BRAKE_SENS*%
X187460000Y-69340000D03*
%TO.P,J1,51,51*%
%TO.N,+5V*%
X190000000Y-69340000D03*
%TO.P,J1,52,52*%
X192540000Y-69340000D03*
%TO.P,J1,53,53*%
X195080000Y-69340000D03*
%TO.P,J1,54,54*%
%TO.N,ANALOG_IN1*%
X197620000Y-69340000D03*
%TO.P,J1,55,55*%
%TO.N,ANALOG_IN2*%
X200160000Y-69340000D03*
%TO.P,J1,56,56*%
%TO.N,ANALOG_IN3*%
X202700000Y-69340000D03*
%TO.P,J1,57,57*%
%TO.N,ANALOG_IN4*%
X205240000Y-69340000D03*
%TO.P,J1,58,58*%
%TO.N,ANALOG_IN5*%
X207780000Y-69340000D03*
%TO.P,J1,59,59*%
%TO.N,ANALOG_IN6*%
X210320000Y-69340000D03*
%TO.P,J1,60,60*%
%TO.N,ANALOG_IN7*%
X212860000Y-69340000D03*
%TO.P,J1,61,61*%
%TO.N,ANALOG_IN8*%
X215400000Y-69340000D03*
%TO.P,J1,62,62*%
%TO.N,ANALOG_IN9*%
X217940000Y-69340000D03*
%TO.P,J1,63,63*%
%TO.N,ANALOG_IN10*%
X172220000Y-66800000D03*
%TO.P,J1,64,64*%
%TO.N,ANALOG_IN12*%
X174760000Y-66800000D03*
%TO.P,J1,65,65*%
%TO.N,ANALOG_IN14*%
X177300000Y-66800000D03*
%TO.P,J1,66,66*%
%TO.N,+5V*%
X179840000Y-66800000D03*
%TO.P,J1,67,67*%
X182380000Y-66800000D03*
%TO.P,J1,68,68*%
X184920000Y-66800000D03*
%TO.P,J1,69,69*%
X187460000Y-66800000D03*
%TO.P,J1,70,70*%
%TO.N,unconnected-(J1-Pad70)*%
X190000000Y-66800000D03*
%TO.P,J1,71,71*%
%TO.N,unconnected-(J1-Pad71)*%
X192540000Y-66800000D03*
%TO.P,J1,72,72*%
%TO.N,GND*%
X195080000Y-66800000D03*
%TO.P,J1,73,73*%
X197620000Y-66800000D03*
%TO.P,J1,74,74*%
X200160000Y-66800000D03*
%TO.P,J1,75,75*%
X202700000Y-66800000D03*
%TO.P,J1,76,76*%
X205240000Y-66800000D03*
%TO.P,J1,77,77*%
X207780000Y-66800000D03*
%TO.P,J1,78,78*%
X210320000Y-66800000D03*
%TO.P,J1,79,79*%
X212860000Y-66800000D03*
%TO.P,J1,80,80*%
X215400000Y-66800000D03*
%TO.P,J1,81,81*%
X217940000Y-66800000D03*
%TO.P,J1,82,82*%
%TO.N,unconnected-(J1-Pad82)*%
X156280000Y-66800000D03*
%TO.P,J1,83,83*%
%TO.N,unconnected-(J1-Pad83)*%
X153740000Y-66800000D03*
%TO.P,J1,84,84*%
%TO.N,unconnected-(J1-Pad84)*%
X151200000Y-66800000D03*
%TO.P,J1,85,85*%
%TO.N,unconnected-(J1-Pad85)*%
X148660000Y-66800000D03*
%TO.P,J1,86,86*%
%TO.N,unconnected-(J1-Pad86)*%
X146120000Y-66800000D03*
%TO.P,J1,87,87*%
%TO.N,unconnected-(J1-Pad87)*%
X143580000Y-66800000D03*
%TO.P,J1,88,88*%
%TO.N,unconnected-(J1-Pad88)*%
X141040000Y-66800000D03*
%TO.P,J1,89,89*%
%TO.N,unconnected-(J1-Pad89)*%
X138500000Y-66800000D03*
%TO.P,J1,90,90*%
%TO.N,GND*%
X156280000Y-69340000D03*
%TO.P,J1,91,91*%
X153740000Y-69340000D03*
%TO.P,J1,92,92*%
X151200000Y-69340000D03*
%TO.P,J1,93,93*%
X148660000Y-69340000D03*
%TO.P,J1,94,94*%
X146120000Y-69340000D03*
%TO.P,J1,95,95*%
X143580000Y-69340000D03*
%TO.P,J1,96,96*%
X141040000Y-69340000D03*
%TO.P,J1,97,97*%
X138500000Y-69340000D03*
%TO.P,J1,98,98*%
X156280000Y-75390000D03*
%TO.P,J1,99,99*%
X153740000Y-75390000D03*
%TO.P,J1,100,100*%
X151200000Y-75390000D03*
%TO.P,J1,101,101*%
X148660000Y-75390000D03*
%TO.P,J1,102,102*%
X146120000Y-75390000D03*
%TO.P,J1,103,103*%
X143580000Y-75390000D03*
%TO.P,J1,104,104*%
X141040000Y-75390000D03*
%TO.P,J1,105,105*%
X138500000Y-75390000D03*
%TO.P,J1,106,106*%
%TO.N,OUT_HSO_1*%
X156280000Y-77930000D03*
%TO.P,J1,107,107*%
%TO.N,OUT_HSO_2*%
X153740000Y-77930000D03*
%TO.P,J1,108,108*%
%TO.N,OUT_HSO_3*%
X151200000Y-77930000D03*
%TO.P,J1,109,109*%
%TO.N,OUT_HSO_4*%
X148660000Y-77930000D03*
%TO.P,J1,110,110*%
%TO.N,OUT_HSO_5*%
X146120000Y-77930000D03*
%TO.P,J1,111,111*%
%TO.N,OUT_HSO_6*%
X143580000Y-77930000D03*
%TO.P,J1,112,112*%
%TO.N,GND*%
X141040000Y-77930000D03*
%TO.P,J1,113,113*%
X138500000Y-77930000D03*
D68*
%TO.P,J1,114,114*%
X130600000Y-69800000D03*
%TO.P,J1,115,115*%
X124800000Y-69800000D03*
%TO.P,J1,116,116*%
X119000000Y-69800000D03*
%TO.P,J1,117,117*%
X127700000Y-72130000D03*
%TO.P,J1,118,118*%
X121900000Y-72130000D03*
%TO.P,J1,119,119*%
%TO.N,+24V*%
X130600000Y-77930000D03*
%TO.P,J1,120,120*%
%TO.N,GND*%
X124800000Y-77930000D03*
%TO.P,J1,121,121*%
X119000000Y-77930000D03*
%TD*%
D26*
%TO.P,C68,1*%
%TO.N,+5V*%
X219120000Y-141500000D03*
%TO.P,C68,2*%
%TO.N,GND*%
X220080000Y-141500000D03*
%TD*%
D32*
%TO.P,D22,1,A*%
%TO.N,GND*%
X202650000Y-89062500D03*
%TO.P,D22,2,K*%
%TO.N,+3V3*%
X201350000Y-89062500D03*
%TO.P,D22,3,COM*%
%TO.N,PD4*%
X202000000Y-90937500D03*
%TD*%
D36*
%TO.P,C67,1*%
%TO.N,PD3*%
X202800000Y-100080000D03*
%TO.P,C67,2*%
%TO.N,GND*%
X202800000Y-99120000D03*
%TD*%
D14*
%TO.P,R125,1*%
%TO.N,PA0*%
X235800000Y-98210000D03*
%TO.P,R125,2*%
%TO.N,DIG_INPUT_10*%
X235800000Y-97190000D03*
%TD*%
D30*
%TO.P,D34,1,A*%
%TO.N,GND*%
X227850000Y-103337500D03*
%TO.P,D34,2,K*%
%TO.N,+3V3*%
X229150000Y-103337500D03*
%TO.P,D34,3,COM*%
%TO.N,PA1*%
X228500000Y-101462500D03*
%TD*%
D70*
%TO.P,BT1,1,+*%
%TO.N,VBAT*%
X146700000Y-124700000D03*
X161900000Y-124700000D03*
D71*
%TO.P,BT1,2,-*%
%TO.N,GND*%
X154300000Y-124700000D03*
%TD*%
D30*
%TO.P,D36,1,A*%
%TO.N,GND*%
X234450000Y-103337500D03*
%TO.P,D36,2,K*%
%TO.N,+3V3*%
X235750000Y-103337500D03*
%TO.P,D36,3,COM*%
%TO.N,PA0*%
X235100000Y-101462500D03*
%TD*%
D72*
%TO.P,PGOOD1,1,1*%
%TO.N,Net-(U2-P_{GOOD})*%
X131900000Y-122100000D03*
%TD*%
D11*
%TO.P,R22,1*%
%TO.N,KEYON_IGNITION*%
X214600000Y-85890000D03*
%TO.P,R22,2*%
%TO.N,PF2*%
X214600000Y-86910000D03*
%TD*%
D18*
%TO.P,U5,1,TXD*%
%TO.N,Net-(U5-TXD)*%
X188095000Y-98075000D03*
%TO.P,U5,2,GND*%
%TO.N,GND*%
X189365000Y-98075000D03*
%TO.P,U5,3,VCC*%
%TO.N,+3V3*%
X190635000Y-98075000D03*
%TO.P,U5,4,RXD*%
%TO.N,Net-(U5-RXD)*%
X191905000Y-98075000D03*
%TO.P,U5,5,SHDN*%
%TO.N,GND*%
X191905000Y-93125000D03*
%TO.P,U5,6,CANL*%
%TO.N,CAN3_L*%
X190635000Y-93125000D03*
%TO.P,U5,7,CANH*%
%TO.N,CAN3_H*%
X189365000Y-93125000D03*
%TO.P,U5,8,S*%
%TO.N,GND*%
X188095000Y-93125000D03*
%TD*%
D60*
%TO.P,R142,1*%
%TO.N,CAN3_H*%
X188000000Y-89980000D03*
%TO.P,R142,2*%
%TO.N,Net-(R142-Pad2)*%
X188000000Y-90620000D03*
%TD*%
D73*
%TO.P,U7,1*%
%TO.N,N/C*%
X185450000Y-143775000D03*
%TO.P,U7,2*%
X186400000Y-143775000D03*
%TO.P,U7,3*%
X187350000Y-143775000D03*
%TO.P,U7,4,K*%
%TO.N,Net-(U7-K)*%
X187350000Y-141500000D03*
%TO.P,U7,5,A*%
%TO.N,GND*%
X185450000Y-141500000D03*
%TD*%
D38*
%TO.P,D103,1,K*%
%TO.N,PA7*%
X176700000Y-145231000D03*
%TO.P,D103,2,A*%
%TO.N,GND*%
X176700000Y-145569000D03*
%TD*%
D21*
%TO.P,HSO3,1,K*%
%TO.N,GND*%
X164087500Y-99300000D03*
%TO.P,HSO3,2,A*%
%TO.N,Net-(HSO3-A)*%
X162512500Y-99300000D03*
%TD*%
D74*
%TO.P,U1,1,PE2*%
%TO.N,IN_HSO_1*%
X176025000Y-122800000D03*
%TO.P,U1,2,PE3*%
%TO.N,IN_HSO_2*%
X176025000Y-123300000D03*
%TO.P,U1,3,PE4*%
%TO.N,IN_HSO_3*%
X176025000Y-123800000D03*
%TO.P,U1,4,PE5*%
%TO.N,IN_HSO_4*%
X176025000Y-124300000D03*
%TO.P,U1,5,PE6*%
%TO.N,IN_HSO_5*%
X176025000Y-124800000D03*
%TO.P,U1,6,VBAT*%
%TO.N,VBAT*%
X176025000Y-125300000D03*
%TO.P,U1,7,PC13*%
%TO.N,IN_HSO_6*%
X176025000Y-125800000D03*
%TO.P,U1,8,PC14*%
%TO.N,OSC32_IN*%
X176025000Y-126300000D03*
%TO.P,U1,9,PC15*%
%TO.N,GND*%
X176025000Y-126800000D03*
%TO.P,U1,10,PF9*%
X176025000Y-127300000D03*
%TO.P,U1,11,PF10*%
X176025000Y-127800000D03*
%TO.P,U1,12,PF0*%
%TO.N,OSC_IN*%
X176025000Y-128300000D03*
%TO.P,U1,13,PF1*%
%TO.N,GND*%
X176025000Y-128800000D03*
%TO.P,U1,14,PG10*%
%TO.N,NRST*%
X176025000Y-129300000D03*
%TO.P,U1,15,PC0*%
%TO.N,PC0*%
X176025000Y-129800000D03*
%TO.P,U1,16,PC1*%
%TO.N,PC1*%
X176025000Y-130300000D03*
%TO.P,U1,17,PC2*%
%TO.N,PC2*%
X176025000Y-130800000D03*
%TO.P,U1,18,PC3*%
%TO.N,PC3*%
X176025000Y-131300000D03*
%TO.P,U1,19,PF2*%
%TO.N,PF2*%
X176025000Y-131800000D03*
%TO.P,U1,20,PA0*%
%TO.N,PA0*%
X176025000Y-132300000D03*
%TO.P,U1,21,PA1*%
%TO.N,PA1*%
X176025000Y-132800000D03*
%TO.P,U1,22,PA2*%
%TO.N,GND*%
X176025000Y-133300000D03*
%TO.P,U1,23,VSS*%
X176025000Y-133800000D03*
%TO.P,U1,24,VDD*%
%TO.N,+3V3*%
X176025000Y-134300000D03*
%TO.P,U1,25,PA3*%
%TO.N,PA3*%
X176025000Y-134800000D03*
D75*
%TO.P,U1,26,PA4*%
%TO.N,PA4*%
X177700000Y-136475000D03*
%TO.P,U1,27,PA5*%
%TO.N,HVIL_MEAS*%
X178200000Y-136475000D03*
%TO.P,U1,28,PA6*%
%TO.N,HVIL_RETURN*%
X178700000Y-136475000D03*
%TO.P,U1,29,PA7*%
%TO.N,PA7*%
X179200000Y-136475000D03*
%TO.P,U1,30,PC4*%
%TO.N,PC4*%
X179700000Y-136475000D03*
%TO.P,U1,31,PC5*%
%TO.N,PC5*%
X180200000Y-136475000D03*
%TO.P,U1,32,PB0*%
%TO.N,PB0*%
X180700000Y-136475000D03*
%TO.P,U1,33,PB1*%
%TO.N,PB1*%
X181200000Y-136475000D03*
%TO.P,U1,34,PB2*%
%TO.N,PB2*%
X181700000Y-136475000D03*
%TO.P,U1,35,VSSA*%
%TO.N,GND*%
X182200000Y-136475000D03*
%TO.P,U1,36,VREF+*%
%TO.N,VREF+*%
X182700000Y-136475000D03*
%TO.P,U1,37,VDDA*%
%TO.N,+3.3VA*%
X183200000Y-136475000D03*
%TO.P,U1,38,PE7*%
%TO.N,PE7*%
X183700000Y-136475000D03*
%TO.P,U1,39,PE8*%
%TO.N,PE8*%
X184200000Y-136475000D03*
%TO.P,U1,40,PE9*%
%TO.N,PE9*%
X184700000Y-136475000D03*
%TO.P,U1,41,PE10*%
%TO.N,PE10*%
X185200000Y-136475000D03*
%TO.P,U1,42,PE11*%
%TO.N,PE11*%
X185700000Y-136475000D03*
%TO.P,U1,43,PE12*%
%TO.N,PE12*%
X186200000Y-136475000D03*
%TO.P,U1,44,PE13*%
%TO.N,PE13*%
X186700000Y-136475000D03*
%TO.P,U1,45,PE14*%
%TO.N,PE14*%
X187200000Y-136475000D03*
%TO.P,U1,46,PE15*%
%TO.N,HVIL_SEND*%
X187700000Y-136475000D03*
%TO.P,U1,47,PB10*%
%TO.N,GND*%
X188200000Y-136475000D03*
%TO.P,U1,48,VSS*%
X188700000Y-136475000D03*
%TO.P,U1,49,VDD*%
%TO.N,+3V3*%
X189200000Y-136475000D03*
%TO.P,U1,50,PB11*%
%TO.N,PB11*%
X189700000Y-136475000D03*
D74*
%TO.P,U1,51,PB12*%
%TO.N,PB12*%
X191375000Y-134800000D03*
%TO.P,U1,52,PB13*%
%TO.N,CAN2_TX*%
X191375000Y-134300000D03*
%TO.P,U1,53,PB14*%
%TO.N,PB14*%
X191375000Y-133800000D03*
%TO.P,U1,54,PB15*%
%TO.N,PB15*%
X191375000Y-133300000D03*
%TO.P,U1,55,PD8*%
%TO.N,PD8*%
X191375000Y-132800000D03*
%TO.P,U1,56,PD9*%
%TO.N,PD9*%
X191375000Y-132300000D03*
%TO.P,U1,57,PD10*%
%TO.N,PD10*%
X191375000Y-131800000D03*
%TO.P,U1,58,PD11*%
%TO.N,PD11*%
X191375000Y-131300000D03*
%TO.P,U1,59,PD12*%
%TO.N,GND*%
X191375000Y-130800000D03*
%TO.P,U1,60,PD13*%
%TO.N,PD13*%
X191375000Y-130300000D03*
%TO.P,U1,61,PD14*%
%TO.N,PD14*%
X191375000Y-129800000D03*
%TO.P,U1,62,PD15*%
%TO.N,PD15*%
X191375000Y-129300000D03*
%TO.P,U1,63,VSS*%
%TO.N,GND*%
X191375000Y-128800000D03*
%TO.P,U1,64,VDD*%
%TO.N,+3V3*%
X191375000Y-128300000D03*
%TO.P,U1,65,PC6*%
%TO.N,PC6*%
X191375000Y-127800000D03*
%TO.P,U1,66,PC7*%
%TO.N,PC7*%
X191375000Y-127300000D03*
%TO.P,U1,67,PC8*%
%TO.N,I2C3_SCL*%
X191375000Y-126800000D03*
%TO.P,U1,68,PC9*%
%TO.N,I2C3_SDA*%
X191375000Y-126300000D03*
%TO.P,U1,69,PA8*%
%TO.N,PA8*%
X191375000Y-125800000D03*
%TO.P,U1,70,PA9*%
%TO.N,PA9*%
X191375000Y-125300000D03*
%TO.P,U1,71,PA10*%
%TO.N,DISABLE_HVIL*%
X191375000Y-124800000D03*
%TO.P,U1,72,PA11*%
%TO.N,GND*%
X191375000Y-124300000D03*
%TO.P,U1,73,PA12*%
X191375000Y-123800000D03*
%TO.P,U1,74,VSS*%
X191375000Y-123300000D03*
%TO.P,U1,75,VDD*%
%TO.N,+3V3*%
X191375000Y-122800000D03*
D75*
%TO.P,U1,76,PA13*%
%TO.N,PA13*%
X189700000Y-121125000D03*
%TO.P,U1,77,PA14*%
%TO.N,PA14*%
X189200000Y-121125000D03*
%TO.P,U1,78,PA15*%
%TO.N,CAN3_TX*%
X188700000Y-121125000D03*
%TO.P,U1,79,PC10*%
%TO.N,PC10*%
X188200000Y-121125000D03*
%TO.P,U1,80,PC11*%
%TO.N,PC11*%
X187700000Y-121125000D03*
%TO.P,U1,81,PC12*%
%TO.N,GND*%
X187200000Y-121125000D03*
%TO.P,U1,82,PD0*%
%TO.N,CAN1_RX*%
X186700000Y-121125000D03*
%TO.P,U1,83,PD1*%
%TO.N,CAN1_TX*%
X186200000Y-121125000D03*
%TO.P,U1,84,PD2*%
%TO.N,PD2*%
X185700000Y-121125000D03*
%TO.P,U1,85,PD3*%
%TO.N,PD3*%
X185200000Y-121125000D03*
%TO.P,U1,86,PD4*%
%TO.N,PD4*%
X184700000Y-121125000D03*
%TO.P,U1,87,PD5*%
%TO.N,PD5*%
X184200000Y-121125000D03*
%TO.P,U1,88,PD6*%
%TO.N,PD6*%
X183700000Y-121125000D03*
%TO.P,U1,89,PD7*%
%TO.N,PD7*%
X183200000Y-121125000D03*
%TO.P,U1,90,PB3*%
%TO.N,CAN3_RX*%
X182700000Y-121125000D03*
%TO.P,U1,91,PB4*%
%TO.N,PB4*%
X182200000Y-121125000D03*
%TO.P,U1,92,PB5*%
%TO.N,CAN2_RX*%
X181700000Y-121125000D03*
%TO.P,U1,93,PB6*%
%TO.N,PB6*%
X181200000Y-121125000D03*
%TO.P,U1,94,PB7*%
%TO.N,GND*%
X180700000Y-121125000D03*
%TO.P,U1,95,PB8*%
%TO.N,BOOT0*%
X180200000Y-121125000D03*
%TO.P,U1,96,PB9*%
%TO.N,PB9*%
X179700000Y-121125000D03*
%TO.P,U1,97,PE0*%
%TO.N,PE0*%
X179200000Y-121125000D03*
%TO.P,U1,98,PE1*%
%TO.N,PE1*%
X178700000Y-121125000D03*
%TO.P,U1,99,VSS*%
%TO.N,GND*%
X178200000Y-121125000D03*
%TO.P,U1,100,VDD*%
%TO.N,+3V3*%
X177700000Y-121125000D03*
%TD*%
D11*
%TO.P,R9,1*%
%TO.N,Net-(C28-Pad1)*%
X191100000Y-89790000D03*
%TO.P,R9,2*%
%TO.N,Net-(R145-Pad1)*%
X191100000Y-90810000D03*
%TD*%
D30*
%TO.P,D24,1,A*%
%TO.N,GND*%
X221150000Y-90937500D03*
%TO.P,D24,2,K*%
%TO.N,+3V3*%
X222450000Y-90937500D03*
%TO.P,D24,3,COM*%
%TO.N,PC3*%
X221800000Y-89062500D03*
%TD*%
D12*
%TO.P,C95,1*%
%TO.N,GND*%
X200480000Y-131100000D03*
%TO.P,C95,2*%
%TO.N,+3V3*%
X199520000Y-131100000D03*
%TD*%
D19*
%TO.P,R15,1*%
%TO.N,Net-(C36-Pad1)*%
X133110000Y-113400000D03*
%TO.P,R15,2*%
%TO.N,Net-(U2-PHASE)*%
X132090000Y-113400000D03*
%TD*%
D36*
%TO.P,C73,1*%
%TO.N,GND*%
X226900000Y-134080000D03*
%TO.P,C73,2*%
%TO.N,HVIL_END*%
X226900000Y-133120000D03*
%TD*%
D63*
%TO.P,R145,1*%
%TO.N,Net-(R145-Pad1)*%
X192100000Y-90620000D03*
%TO.P,R145,2*%
%TO.N,CAN3_L*%
X192100000Y-89980000D03*
%TD*%
D13*
%TO.P,+5V'1,1,1*%
%TO.N,+5V*%
X137100000Y-137900000D03*
%TD*%
D34*
%TO.P,C74,1*%
%TO.N,GND*%
X224500000Y-133120000D03*
%TO.P,C74,2*%
%TO.N,Net-(U14B-+)*%
X224500000Y-134080000D03*
%TD*%
D33*
%TO.P,U10,1,NC*%
%TO.N,unconnected-(U10-NC-Pad1)*%
X206350000Y-113350000D03*
%TO.P,U10,2*%
%TO.N,Net-(C9-Pad1)*%
X205400000Y-113350000D03*
%TO.P,U10,3,GND*%
%TO.N,GND*%
X204450000Y-113350000D03*
%TO.P,U10,4*%
%TO.N,PD15*%
X204450000Y-116050000D03*
%TO.P,U10,5,VCC*%
%TO.N,+3V3*%
X206350000Y-116050000D03*
%TD*%
D26*
%TO.P,C15,1*%
%TO.N,GND*%
X188420000Y-138500000D03*
%TO.P,C15,2*%
%TO.N,+3V3*%
X189380000Y-138500000D03*
%TD*%
D76*
%TO.P,D15,1,K*%
%TO.N,Net-(D15-K)*%
X131800000Y-93500000D03*
%TO.P,D15,2,A*%
%TO.N,+24V*%
X131800000Y-89500000D03*
%TD*%
D14*
%TO.P,R67,1*%
%TO.N,PC10*%
X224100000Y-110910000D03*
%TO.P,R67,2*%
%TO.N,DIG_INPUT_3*%
X224100000Y-109890000D03*
%TD*%
D19*
%TO.P,R90,1*%
%TO.N,Net-(U14B-+)*%
X222900000Y-142600000D03*
%TO.P,R90,2*%
%TO.N,GND*%
X221880000Y-142600000D03*
%TD*%
D12*
%TO.P,C45,1*%
%TO.N,Net-(C45-Pad1)*%
X218580000Y-111500000D03*
%TO.P,C45,2*%
%TO.N,GND*%
X217620000Y-111500000D03*
%TD*%
D11*
%TO.P,R40,1*%
%TO.N,Net-(U3-RXD)*%
X176600000Y-99990000D03*
%TO.P,R40,2*%
%TO.N,CAN1_RX*%
X176600000Y-101010000D03*
%TD*%
D12*
%TO.P,C17,1*%
%TO.N,GND*%
X194080000Y-122500000D03*
%TO.P,C17,2*%
%TO.N,+3V3*%
X193120000Y-122500000D03*
%TD*%
%TO.P,C27,1*%
%TO.N,GND*%
X181880000Y-88800000D03*
%TO.P,C27,2*%
%TO.N,CAN2_H*%
X180920000Y-88800000D03*
%TD*%
D30*
%TO.P,D30,1,A*%
%TO.N,GND*%
X227750000Y-90937500D03*
%TO.P,D30,2,K*%
%TO.N,+3V3*%
X229050000Y-90937500D03*
%TO.P,D30,3,COM*%
%TO.N,PC2*%
X228400000Y-89062500D03*
%TD*%
D14*
%TO.P,R4,1*%
%TO.N,Net-(R146-Pad2)*%
X173500000Y-90810000D03*
%TO.P,R4,2*%
%TO.N,Net-(C22-Pad1)*%
X173500000Y-89790000D03*
%TD*%
%TO.P,R43,1*%
%TO.N,Net-(U7-K)*%
X188700000Y-142110000D03*
%TO.P,R43,2*%
%TO.N,+3V3*%
X188700000Y-141090000D03*
%TD*%
D30*
%TO.P,D14,1,A*%
%TO.N,GND*%
X229550000Y-138537500D03*
%TO.P,D14,2,K*%
%TO.N,+5V*%
X230850000Y-138537500D03*
%TO.P,D14,3,COM*%
%TO.N,HVIL_START*%
X230200000Y-136662500D03*
%TD*%
D61*
%TO.P,R111,1*%
%TO.N,+5V*%
X234300000Y-140050000D03*
%TO.P,R111,2*%
%TO.N,Net-(D51-A)*%
X234300000Y-136950000D03*
%TD*%
D77*
%TO.P,L1,1,1*%
%TO.N,Net-(L1-Pad1)*%
X121570500Y-114000000D03*
%TO.P,L1,2,2*%
%TO.N,+5V*%
X112629500Y-114000000D03*
%TD*%
D36*
%TO.P,C77,1*%
%TO.N,PA0*%
X235800000Y-100080000D03*
%TO.P,C77,2*%
%TO.N,GND*%
X235800000Y-99120000D03*
%TD*%
D33*
%TO.P,U15,1,NC*%
%TO.N,unconnected-(U15-NC-Pad1)*%
X193150000Y-113350000D03*
%TO.P,U15,2*%
%TO.N,Net-(C7-Pad1)*%
X192200000Y-113350000D03*
%TO.P,U15,3,GND*%
%TO.N,GND*%
X191250000Y-113350000D03*
%TO.P,U15,4*%
%TO.N,PC7*%
X191250000Y-116050000D03*
%TO.P,U15,5,VCC*%
%TO.N,+3V3*%
X193150000Y-116050000D03*
%TD*%
D12*
%TO.P,C33,1*%
%TO.N,+3V3*%
X175180000Y-99900000D03*
%TO.P,C33,2*%
%TO.N,GND*%
X174220000Y-99900000D03*
%TD*%
D14*
%TO.P,R122,1*%
%TO.N,HVIL_START*%
X230200000Y-134110000D03*
%TO.P,R122,2*%
%TO.N,Net-(U14A-+)*%
X230200000Y-133090000D03*
%TD*%
D11*
%TO.P,R7,1*%
%TO.N,Net-(C25-Pad1)*%
X183400000Y-89890000D03*
%TO.P,R7,2*%
%TO.N,Net-(R157-Pad1)*%
X183400000Y-90910000D03*
%TD*%
%TO.P,R38,1*%
%TO.N,Net-(U4-RXD)*%
X184200000Y-99890000D03*
%TO.P,R38,2*%
%TO.N,CAN2_RX*%
X184200000Y-100910000D03*
%TD*%
D12*
%TO.P,C50,1*%
%TO.N,Net-(U13--)*%
X214980000Y-136800000D03*
%TO.P,C50,2*%
%TO.N,Net-(C50-Pad2)*%
X214020000Y-136800000D03*
%TD*%
D26*
%TO.P,C14,1*%
%TO.N,GND*%
X173320000Y-134200000D03*
%TO.P,C14,2*%
%TO.N,+3V3*%
X174280000Y-134200000D03*
%TD*%
D27*
%TO.P,R165,1*%
%TO.N,+24V*%
X134887500Y-85000000D03*
%TO.P,R165,2*%
%TO.N,Net-(D92-A)*%
X136712500Y-85000000D03*
%TD*%
D19*
%TO.P,R33,1*%
%TO.N,Net-(U13--)*%
X214410000Y-135800000D03*
%TO.P,R33,2*%
%TO.N,Net-(Q1-E)*%
X213390000Y-135800000D03*
%TD*%
D32*
%TO.P,D12,1,A*%
%TO.N,GND*%
X195750000Y-89062500D03*
%TO.P,D12,2,K*%
%TO.N,+3V3*%
X194450000Y-89062500D03*
%TO.P,D12,3,COM*%
%TO.N,PD2*%
X195100000Y-90937500D03*
%TD*%
D11*
%TO.P,R132,1*%
%TO.N,PA3*%
X221400000Y-98290000D03*
%TO.P,R132,2*%
%TO.N,GND*%
X221400000Y-99310000D03*
%TD*%
D78*
%TO.P,Q2,1,B*%
%TO.N,Net-(Q2-B)*%
X217300000Y-133750000D03*
%TO.P,Q2,2,E*%
%TO.N,+5V*%
X217300000Y-135650000D03*
%TO.P,Q2,3,C*%
%TO.N,Net-(Q2-C)*%
X220300000Y-134700000D03*
%TD*%
D36*
%TO.P,C71,1*%
%TO.N,GND*%
X231400000Y-134080000D03*
%TO.P,C71,2*%
%TO.N,HVIL_START*%
X231400000Y-133120000D03*
%TD*%
%TO.P,C53,1*%
%TO.N,VBAT*%
X174100000Y-125280000D03*
%TO.P,C53,2*%
%TO.N,GND*%
X174100000Y-124320000D03*
%TD*%
D11*
%TO.P,R105,1*%
%TO.N,PC2*%
X227800000Y-85890000D03*
%TO.P,R105,2*%
%TO.N,GND*%
X227800000Y-86910000D03*
%TD*%
D34*
%TO.P,C79,1*%
%TO.N,PD5*%
X209400000Y-99120000D03*
%TO.P,C79,2*%
%TO.N,GND*%
X209400000Y-100080000D03*
%TD*%
D14*
%TO.P,R160,1*%
%TO.N,Net-(U14A-+)*%
X227300000Y-145300000D03*
%TO.P,R160,2*%
%TO.N,GND*%
X227300000Y-144280000D03*
%TD*%
D34*
%TO.P,C5,1*%
%TO.N,+3.3VA*%
X183800000Y-138620000D03*
%TO.P,C5,2*%
%TO.N,Net-(C5-Pad2)*%
X183800000Y-139580000D03*
%TD*%
D14*
%TO.P,R25,1*%
%TO.N,NEUTRAL*%
X195800000Y-85810000D03*
%TO.P,R25,2*%
%TO.N,+3V3*%
X195800000Y-84790000D03*
%TD*%
D34*
%TO.P,C61,1*%
%TO.N,PC2*%
X229100000Y-86720000D03*
%TO.P,C61,2*%
%TO.N,GND*%
X229100000Y-87680000D03*
%TD*%
D79*
%TO.P,R133,1*%
%TO.N,+3V3*%
X152875000Y-142200000D03*
%TO.P,R133,2*%
%TO.N,Net-(D102-A)*%
X154525000Y-142200000D03*
%TD*%
D14*
%TO.P,R140,1*%
%TO.N,PA1*%
X229200000Y-98210000D03*
%TO.P,R140,2*%
%TO.N,DIG_INPUT_9*%
X229200000Y-97190000D03*
%TD*%
D23*
%TO.P,R64,1*%
%TO.N,Net-(Q10-G)*%
X156490000Y-100900000D03*
%TO.P,R64,2*%
%TO.N,Net-(Q9-D)*%
X157510000Y-100900000D03*
%TD*%
D14*
%TO.P,R123,1*%
%TO.N,HVIL_END*%
X225700000Y-134110000D03*
%TO.P,R123,2*%
%TO.N,Net-(U14B-+)*%
X225700000Y-133090000D03*
%TD*%
D80*
%TO.P,Y1,1,TRI-STATE*%
%TO.N,Net-(Y1-TRI-STATE)*%
X169850000Y-131850000D03*
%TO.P,Y1,2,GND*%
%TO.N,GND*%
X172150000Y-131850000D03*
%TO.P,Y1,3,OUTPUT*%
%TO.N,OSC_IN*%
X172150000Y-129950000D03*
%TO.P,Y1,4,VDD*%
%TO.N,+3V3*%
X169850000Y-129950000D03*
%TD*%
D23*
%TO.P,R92,1*%
%TO.N,NRST*%
X165490000Y-132200000D03*
%TO.P,R92,2*%
%TO.N,+3V3*%
X166510000Y-132200000D03*
%TD*%
D32*
%TO.P,D29,1,A*%
%TO.N,GND*%
X235650000Y-89062500D03*
%TO.P,D29,2,K*%
%TO.N,+3V3*%
X234350000Y-89062500D03*
%TO.P,D29,3,COM*%
%TO.N,PC1*%
X235000000Y-90937500D03*
%TD*%
D38*
%TO.P,D96,1,K*%
%TO.N,PC5*%
X178700000Y-145231000D03*
%TO.P,D96,2,A*%
%TO.N,GND*%
X178700000Y-145569000D03*
%TD*%
D81*
%TO.P,D51,1,K*%
%TO.N,HVIL_START*%
X236200000Y-132750000D03*
%TO.P,D51,2,A*%
%TO.N,Net-(D51-A)*%
X236200000Y-134850000D03*
%TD*%
D11*
%TO.P,R107,1*%
%TO.N,PD3*%
X201600000Y-98290000D03*
%TO.P,R107,2*%
%TO.N,GND*%
X201600000Y-99310000D03*
%TD*%
D34*
%TO.P,C63,1*%
%TO.N,PC10*%
X224100000Y-111820000D03*
%TO.P,C63,2*%
%TO.N,GND*%
X224100000Y-112780000D03*
%TD*%
D60*
%TO.P,R146,1*%
%TO.N,CAN1_H*%
X172600000Y-89980000D03*
%TO.P,R146,2*%
%TO.N,Net-(R146-Pad2)*%
X172600000Y-90620000D03*
%TD*%
D12*
%TO.P,C4,1*%
%TO.N,VREF+*%
X182180000Y-138700000D03*
%TO.P,C4,2*%
%TO.N,Net-(C4-Pad2)*%
X181220000Y-138700000D03*
%TD*%
D11*
%TO.P,R5,1*%
%TO.N,Net-(C22-Pad1)*%
X175800000Y-89790000D03*
%TO.P,R5,2*%
%TO.N,Net-(R151-Pad1)*%
X175800000Y-90810000D03*
%TD*%
D38*
%TO.P,D1,1,K*%
%TO.N,NRST*%
X169180000Y-137341000D03*
%TO.P,D1,2,A*%
%TO.N,GND*%
X169180000Y-137679000D03*
%TD*%
D11*
%TO.P,R30,1*%
%TO.N,DRIVE*%
X201500000Y-85890000D03*
%TO.P,R30,2*%
%TO.N,PD4*%
X201500000Y-86910000D03*
%TD*%
%TO.P,R26,1*%
%TO.N,NEUTRAL*%
X194600000Y-85890000D03*
%TO.P,R26,2*%
%TO.N,PD2*%
X194600000Y-86910000D03*
%TD*%
D34*
%TO.P,C82,1*%
%TO.N,PD7*%
X216000000Y-99120000D03*
%TO.P,C82,2*%
%TO.N,GND*%
X216000000Y-100080000D03*
%TD*%
D30*
%TO.P,D31,1,A*%
%TO.N,GND*%
X225050000Y-138537500D03*
%TO.P,D31,2,K*%
%TO.N,+5V*%
X226350000Y-138537500D03*
%TO.P,D31,3,COM*%
%TO.N,HVIL_END*%
X225700000Y-136662500D03*
%TD*%
D39*
%TO.P,RFB1,1*%
%TO.N,+5V*%
X133025000Y-118000000D03*
%TO.P,RFB1,2*%
%TO.N,Net-(U2-FB)*%
X134575000Y-118000000D03*
%TD*%
D82*
%TO.P,U14,1*%
%TO.N,HVIL_SEND*%
X225350000Y-147910000D03*
%TO.P,U14,2,-*%
X225350000Y-146640000D03*
%TO.P,U14,3,+*%
%TO.N,Net-(U14A-+)*%
X225350000Y-145370000D03*
%TO.P,U14,4,V-*%
%TO.N,GND*%
X225350000Y-144100000D03*
%TO.P,U14,5,+*%
%TO.N,Net-(U14B-+)*%
X220400000Y-144100000D03*
%TO.P,U14,6,-*%
%TO.N,HVIL_RETURN*%
X220400000Y-145370000D03*
%TO.P,U14,7*%
X220400000Y-146640000D03*
%TO.P,U14,8,V+*%
%TO.N,+5V*%
X220400000Y-147910000D03*
%TD*%
D79*
%TO.P,R36,1*%
%TO.N,GND*%
X140875000Y-102100000D03*
%TO.P,R36,2*%
%TO.N,Net-(U18-+)*%
X142525000Y-102100000D03*
%TD*%
D83*
%TO.N,NRST*%
X171100000Y-136000000D03*
X173999791Y-130399791D03*
%TO.N,GND*%
X201690000Y-79895000D03*
X202820000Y-102645000D03*
X172200000Y-87300000D03*
X194393000Y-80282162D03*
D84*
X164720000Y-133880000D03*
D83*
X184647500Y-87817500D03*
X181600000Y-109200000D03*
X176110000Y-116480000D03*
X207400000Y-109500000D03*
X182390000Y-86300000D03*
D84*
X176705000Y-94695000D03*
D83*
X208762514Y-80052486D03*
X207345000Y-72200000D03*
D84*
X223700000Y-132544500D03*
D83*
X202700900Y-89979500D03*
D84*
X152920000Y-91200000D03*
D83*
X180945000Y-119865000D03*
D84*
X216600001Y-147900001D03*
X229549999Y-139874999D03*
X186850000Y-107985000D03*
D83*
X169415000Y-69380000D03*
X216700000Y-73900000D03*
X199000000Y-79500000D03*
X182899377Y-135157887D03*
D85*
X126600000Y-124660000D03*
D83*
X215955000Y-91250000D03*
D84*
X166275000Y-114725000D03*
D83*
X174600000Y-124506599D03*
X189475000Y-109065000D03*
X213955000Y-87850000D03*
X187172500Y-122572500D03*
X211345000Y-73937000D03*
X190100001Y-89339999D03*
D84*
X145170000Y-138630000D03*
X227859999Y-134079999D03*
D83*
X176740000Y-146290000D03*
D84*
X181118453Y-95121547D03*
D83*
X206610000Y-73925000D03*
X189455000Y-71290000D03*
D84*
X194930000Y-111540000D03*
D83*
X200430000Y-89445000D03*
X201147500Y-131922500D03*
X190000000Y-86300000D03*
D84*
X141600000Y-83400000D03*
D83*
X205250000Y-72380000D03*
D85*
X122950000Y-90925000D03*
D83*
X206940000Y-87820000D03*
X227849999Y-102462501D03*
X192800000Y-130300000D03*
X185575000Y-93420000D03*
X203550000Y-111005000D03*
X228060000Y-100115000D03*
X187200000Y-138100000D03*
D84*
X211145000Y-114740000D03*
D83*
X199250000Y-73875000D03*
X196800000Y-73865000D03*
X183300000Y-141900000D03*
X178660000Y-119400000D03*
X167100000Y-111600000D03*
X175920000Y-70940000D03*
D84*
X145315000Y-109325000D03*
X204400000Y-114600000D03*
X225000000Y-140000000D03*
D83*
X211287930Y-79717070D03*
X216055000Y-103305000D03*
X131850000Y-119675000D03*
D84*
X152920000Y-96180000D03*
D83*
X197956400Y-79923463D03*
X182988000Y-71170000D03*
X195830000Y-90100000D03*
X174744999Y-89375001D03*
D84*
X217725000Y-114725000D03*
X152920000Y-106210000D03*
D83*
X218990000Y-88030000D03*
X203565000Y-72380000D03*
X204457202Y-126170472D03*
D84*
X170530000Y-76025000D03*
D83*
X178675000Y-71530000D03*
D84*
X220975000Y-141755000D03*
D83*
X194965000Y-107785000D03*
D84*
X197977711Y-114727100D03*
D83*
X173800000Y-111200000D03*
D84*
X166830000Y-110170000D03*
D85*
X122900000Y-103785000D03*
D83*
X226650000Y-92895000D03*
X219900000Y-103500000D03*
D84*
X222600000Y-141500000D03*
D83*
X232510000Y-87225000D03*
X219588000Y-78055000D03*
X172905000Y-116080000D03*
X200800000Y-109500000D03*
X178675000Y-88045000D03*
D84*
X163320000Y-130485000D03*
D83*
X214307070Y-73967070D03*
X210262070Y-72057930D03*
D84*
X152930000Y-111110000D03*
D83*
X166120000Y-119045000D03*
D84*
X127175000Y-122330000D03*
D83*
X204295019Y-73871325D03*
X208991537Y-73793463D03*
D84*
X126050000Y-122330000D03*
D83*
X222660000Y-88490000D03*
X210230000Y-90840000D03*
D84*
X131800000Y-128300000D03*
D83*
X176311537Y-65038463D03*
X170050000Y-65500000D03*
X177244108Y-133874110D03*
D84*
X152920000Y-101220000D03*
D83*
X193800000Y-85300000D03*
X198445000Y-88105000D03*
X201860000Y-73810000D03*
X204600000Y-79670000D03*
D84*
X223700000Y-144100000D03*
D83*
X166100000Y-121045000D03*
D84*
X172560000Y-73760000D03*
D83*
X211659570Y-71065430D03*
X235740000Y-90175000D03*
D84*
X152920000Y-86020000D03*
D83*
X193392000Y-123300000D03*
X185660000Y-71250000D03*
D84*
X229195000Y-132160000D03*
D83*
X180360000Y-72000000D03*
X174800000Y-84100000D03*
X214265000Y-79405000D03*
X193100000Y-129400000D03*
X193955000Y-73825000D03*
X216365000Y-79388000D03*
X214335000Y-112420000D03*
X202600000Y-112500000D03*
D84*
X166810000Y-95410000D03*
D83*
X234702510Y-100002510D03*
X221000000Y-69010000D03*
X135800000Y-117975000D03*
D84*
X138160000Y-107310000D03*
X163000000Y-136580000D03*
X232322500Y-134002500D03*
D83*
X222770000Y-117240000D03*
X166125000Y-120055000D03*
D84*
X166820000Y-100240000D03*
X122430000Y-128150000D03*
X200720000Y-136205000D03*
D83*
X198025000Y-72300000D03*
X184000000Y-146800500D03*
X194540000Y-104500000D03*
D84*
X166820000Y-105340000D03*
D83*
X172860000Y-65150000D03*
X194100000Y-100700000D03*
X203300000Y-127400000D03*
X182395000Y-89435000D03*
D84*
X191509999Y-94635002D03*
D83*
X220500000Y-99700000D03*
D84*
X189995000Y-114090000D03*
D83*
X230920000Y-93120000D03*
X166090000Y-122090000D03*
X178900000Y-129100000D03*
X169905000Y-137610000D03*
D84*
X132350000Y-124970000D03*
X166790000Y-90350000D03*
D83*
X190610000Y-101405000D03*
X209470000Y-102995000D03*
X185575000Y-103240000D03*
X185962321Y-140379629D03*
X219775090Y-109600000D03*
D84*
X209430000Y-145330100D03*
D83*
X221240000Y-92350000D03*
X200235000Y-72335000D03*
X214210000Y-71065000D03*
%TO.N,HVIL_SEND*%
X199030000Y-142815000D03*
X207000000Y-144700000D03*
D84*
%TO.N,HVIL_END*%
X236265000Y-130135000D03*
D83*
%TO.N,HVIL_RETURN*%
X178821501Y-138700000D03*
X206490000Y-146100000D03*
%TO.N,DIG_INPUT_3*%
X223650000Y-109657000D03*
X224170000Y-99480000D03*
X210850000Y-99015000D03*
X224785000Y-103800000D03*
%TO.N,SPEED_SENS_4*%
X225500000Y-73100000D03*
X241600000Y-106700000D03*
%TO.N,SPEED_SENS_3*%
X240700000Y-105100000D03*
X224545000Y-73485000D03*
%TO.N,SPEED_SENS_5*%
X242600000Y-107400000D03*
X226100000Y-72500000D03*
%TO.N,CAN2_TX*%
X186245000Y-114895000D03*
X187800000Y-133400000D03*
%TO.N,CAN2_RX*%
X181594614Y-122534525D03*
X184290000Y-111060000D03*
%TO.N,CAN3_RX*%
X182300000Y-124000000D03*
D84*
X188390000Y-111330000D03*
D83*
%TO.N,DISABLE_HVIL*%
X207100000Y-129400000D03*
X212200000Y-133800000D03*
%TO.N,PB12*%
X190345030Y-134924090D03*
%TO.N,PC0*%
X173713449Y-131513449D03*
D84*
X143120000Y-124720000D03*
D83*
%TO.N,PD5*%
X225948833Y-106674111D03*
X176469668Y-139569668D03*
X184429438Y-123190024D03*
X226100000Y-110800000D03*
%TO.N,PD14*%
X189000000Y-129100000D03*
X192735000Y-121435000D03*
%TO.N,PE10*%
X185400000Y-133100000D03*
%TO.N,PE11*%
X186200000Y-133500000D03*
%TO.N,PB6*%
X180691158Y-122822659D03*
X172500000Y-137200000D03*
%TO.N,PD13*%
X197315000Y-120040000D03*
X188700000Y-129900000D03*
%TO.N,PA0*%
X235000000Y-110200000D03*
X194400000Y-148800000D03*
X235000000Y-106600000D03*
X178247404Y-132147404D03*
%TO.N,PD15*%
X191998536Y-121081465D03*
X188800000Y-128255000D03*
%TO.N,PE13*%
X186900000Y-134900000D03*
%TO.N,PE14*%
X187800000Y-134700000D03*
%TO.N,PB2*%
X182600000Y-133900000D03*
%TO.N,PB15*%
X189446254Y-133200800D03*
%TO.N,PD8*%
X188859379Y-132287632D03*
%TO.N,PC7*%
X189600000Y-126400000D03*
X190370000Y-120800000D03*
%TO.N,PE12*%
X186900000Y-134000000D03*
%TO.N,PC1*%
X178000000Y-129800000D03*
X238700000Y-111000000D03*
X238700000Y-105500000D03*
X199500000Y-151000000D03*
%TO.N,PD7*%
X227585000Y-110300000D03*
X183138500Y-123800000D03*
X227656991Y-106552676D03*
X176368400Y-136500000D03*
%TO.N,PE9*%
X184700000Y-132700000D03*
%TO.N,PE8*%
X184207000Y-135060000D03*
%TO.N,PC11*%
X186323927Y-124554563D03*
X225320000Y-116800000D03*
X222103807Y-107061500D03*
X190100000Y-144376600D03*
%TO.N,PA3*%
X228323063Y-106008660D03*
X175668940Y-137220944D03*
X228587168Y-110847832D03*
X175678859Y-135627944D03*
%TO.N,PA1*%
X177481307Y-133063801D03*
X229250554Y-110300544D03*
X175063900Y-136550000D03*
X229183000Y-105998053D03*
%TO.N,PD2*%
X225803400Y-116050000D03*
X222928051Y-106732946D03*
X186300000Y-122500000D03*
X191000000Y-144700000D03*
%TO.N,PB0*%
X180988500Y-134814527D03*
%TO.N,PD11*%
X188623307Y-130778355D03*
%TO.N,PD9*%
X189658263Y-131886400D03*
%TO.N,PC10*%
X187145391Y-124300000D03*
X189000000Y-144100000D03*
%TO.N,PC3*%
X178500000Y-131400000D03*
X236900000Y-106000000D03*
X236800000Y-110500000D03*
X196100000Y-149982500D03*
%TO.N,PC2*%
X178500000Y-130600000D03*
X237700000Y-106600000D03*
X237700000Y-111500000D03*
X197600000Y-150100000D03*
%TO.N,PD3*%
X185692638Y-123208657D03*
X224242051Y-106703997D03*
X192031266Y-145058735D03*
X226400000Y-115300000D03*
%TO.N,PF2*%
X177469202Y-131775392D03*
X195200000Y-149500000D03*
X236000000Y-111400000D03*
X235900000Y-105600000D03*
%TO.N,PB1*%
X181696609Y-134196609D03*
%TO.N,PD4*%
X184936087Y-122563913D03*
X225200000Y-111300000D03*
X225097287Y-106794416D03*
X192900000Y-145521800D03*
%TO.N,PD6*%
X183619814Y-122900000D03*
X226808614Y-106693607D03*
X176676321Y-138000000D03*
X227000000Y-110900000D03*
%TO.N,PE7*%
X183600000Y-133800000D03*
%TO.N,PB14*%
X188600000Y-133200000D03*
%TO.N,PB11*%
X190560000Y-137165000D03*
%TO.N,PD10*%
X188417170Y-131549564D03*
%TO.N,PC6*%
X189200000Y-127300000D03*
X191161749Y-121400000D03*
D84*
%TO.N,+3V3*%
X150025000Y-132500000D03*
D83*
X170819999Y-125619999D03*
X202329812Y-83941484D03*
X209200000Y-83900000D03*
X213695000Y-90355000D03*
X169815000Y-135140000D03*
X209450000Y-95819000D03*
X218980000Y-90820000D03*
D84*
X193232864Y-114672900D03*
D83*
X208110000Y-104500000D03*
D84*
X153025000Y-134525000D03*
X199845000Y-114780000D03*
D83*
X194870000Y-109100000D03*
X225830000Y-113315000D03*
X178645000Y-93165000D03*
X190615000Y-103245000D03*
D84*
X151000000Y-133500000D03*
X206195100Y-114780000D03*
X219630000Y-114790000D03*
X152000000Y-132500000D03*
D83*
X207820000Y-91210000D03*
D84*
X195000000Y-127765000D03*
X143740000Y-139145000D03*
D83*
X229300000Y-93100000D03*
D84*
X151000000Y-132500000D03*
D83*
X214300000Y-103465000D03*
X169170000Y-133655000D03*
X188200000Y-140000000D03*
X223660000Y-103710000D03*
D84*
X191660000Y-96200000D03*
D83*
X201600000Y-104400000D03*
X214800000Y-95500000D03*
X195890000Y-83960000D03*
X216554570Y-84324570D03*
X234271400Y-90141710D03*
X223340000Y-90930000D03*
X198300000Y-93300000D03*
D84*
X213050000Y-114795000D03*
X182953453Y-96741547D03*
X150035000Y-134535000D03*
X153025000Y-133500000D03*
X152000000Y-133500000D03*
X194680000Y-121430000D03*
D83*
X185825000Y-109120000D03*
X201357308Y-90117286D03*
D84*
X150025000Y-133500000D03*
X179370000Y-117935000D03*
X176840000Y-118050000D03*
D83*
X235830000Y-102470000D03*
X195835000Y-104565000D03*
D84*
X175420000Y-96600000D03*
X153025000Y-132500000D03*
D83*
X229215000Y-104515000D03*
D84*
X151000000Y-134525000D03*
X152000000Y-134525000D03*
D83*
X195375000Y-92195000D03*
D85*
%TO.N,+5V*%
X113300000Y-127400000D03*
D84*
X124200000Y-134100000D03*
X230849999Y-139884999D03*
X133500000Y-136000000D03*
X139805000Y-132980000D03*
X133500000Y-137770000D03*
D85*
X130305000Y-137115000D03*
D84*
X234317499Y-141960000D03*
X238065000Y-141950000D03*
X216100000Y-139800000D03*
X226435000Y-139870000D03*
X223600000Y-147500000D03*
X133495000Y-136875000D03*
X215945000Y-136395000D03*
D83*
X215000000Y-147300000D03*
D86*
%TO.N,+24V*%
X134600000Y-87600000D03*
X134600000Y-90500000D03*
X134600000Y-89000000D03*
D83*
%TO.N,SPEED_SENS_2*%
X223700000Y-74000000D03*
X239800000Y-104000000D03*
D84*
%TO.N,Net-(Q4-D)*%
X161960000Y-86130000D03*
D83*
%TO.N,IN_HSO_1*%
X173796556Y-122576541D03*
X170100000Y-105300000D03*
X167975000Y-87725000D03*
D84*
%TO.N,Net-(Q5-D)*%
X161930000Y-91100000D03*
D83*
%TO.N,IN_HSO_2*%
X172879537Y-122933677D03*
X167825000Y-92725000D03*
X169300000Y-103000000D03*
D84*
%TO.N,Net-(Q6-G)*%
X155340000Y-91120000D03*
X161930000Y-92350000D03*
D83*
%TO.N,IN_HSO_3*%
X167750000Y-97695000D03*
X168700000Y-101500000D03*
X179200000Y-125600000D03*
D84*
%TO.N,Net-(Q9-D)*%
X161920000Y-100970000D03*
D83*
%TO.N,IN_HSO_4*%
X179900000Y-126200000D03*
D84*
%TO.N,Net-(Q10-G)*%
X161900000Y-102280000D03*
X154950000Y-101010000D03*
D83*
%TO.N,IN_HSO_5*%
X179200000Y-127000000D03*
%TO.N,IN_HSO_6*%
X179100000Y-127800000D03*
%TO.N,HVIL_MEAS*%
X177900000Y-138800000D03*
D84*
%TO.N,I2C3_SDA*%
X201310000Y-127980000D03*
X203230000Y-134790000D03*
%TO.N,I2C3_SCL*%
X201185000Y-128795000D03*
X201950000Y-134800000D03*
%TO.N,Net-(Q13-D)*%
X161920000Y-111050000D03*
%TO.N,Net-(Q8-G)*%
X155210000Y-96110000D03*
X161745000Y-97370000D03*
%TO.N,Net-(Q7-D)*%
X161670000Y-96112500D03*
%TO.N,Net-(Q3-G)*%
X161930000Y-87250000D03*
X155490000Y-86100000D03*
D83*
%TO.N,Net-(U2-V_{DD})*%
X129400000Y-119200000D03*
X129600000Y-123350000D03*
%TO.N,Net-(U2-FB)*%
X131805988Y-118851512D03*
X135725000Y-119425000D03*
%TO.N,Net-(U2-EN)*%
X131596483Y-117537512D03*
%TO.N,Net-(U2-MODE1)*%
X131500000Y-115825000D03*
%TO.N,Net-(U2-MODE2)*%
X131612191Y-116677653D03*
D85*
%TO.N,Net-(D15-K)*%
X133370000Y-107800000D03*
X133960000Y-97865000D03*
D84*
%TO.N,Net-(Q1-E)*%
X212700000Y-135895000D03*
%TO.N,Net-(C50-Pad2)*%
X212935000Y-138240000D03*
%TO.N,Net-(Q11-D)*%
X161910000Y-106010000D03*
%TO.N,Net-(Q12-G)*%
X155090000Y-106050000D03*
X161910000Y-107330000D03*
%TO.N,Net-(Q14-G)*%
X161910000Y-112390000D03*
X155170000Y-111060000D03*
D83*
%TO.N,PE1*%
X173303189Y-121300907D03*
X178147813Y-122427479D03*
%TO.N,PB4*%
X172335000Y-119155000D03*
X180090319Y-123900000D03*
%TO.N,PE0*%
X178803419Y-123180602D03*
X175150000Y-122185000D03*
%TO.N,PB9*%
X179461813Y-122627320D03*
X172285000Y-120130000D03*
%TD*%
D87*
%TO.N,NRST*%
X175995000Y-129300000D02*
X175080000Y-129300000D01*
D88*
X167500000Y-134140000D02*
X167500000Y-135890000D01*
X167500000Y-135890000D02*
X168190000Y-136580000D01*
X167160000Y-133800000D02*
X167500000Y-134140000D01*
D87*
X175080000Y-129300000D02*
X173999791Y-130380209D01*
D88*
X166318500Y-133438500D02*
X166680000Y-133800000D01*
D87*
X170520000Y-136580000D02*
X167980000Y-136580000D01*
D88*
X165565000Y-132205000D02*
X165565000Y-132682702D01*
D87*
X171100000Y-136000000D02*
X170520000Y-136580000D01*
D88*
X166318500Y-133436202D02*
X166318500Y-133438500D01*
D87*
X173999791Y-130380209D02*
X173999791Y-130399791D01*
D88*
X165565000Y-132682702D02*
X166318500Y-133436202D01*
X166680000Y-133800000D02*
X167160000Y-133800000D01*
D87*
X167900000Y-136500000D02*
X168730500Y-137330500D01*
X168730500Y-137330500D02*
X169180000Y-137330500D01*
D88*
%TO.N,Net-(U7-K)*%
X185200000Y-142500000D02*
X187100000Y-142500000D01*
X188700000Y-142110000D02*
X187960000Y-142110000D01*
X182800000Y-143175000D02*
X182100000Y-143175000D01*
X182825000Y-143200000D02*
X182800000Y-143175000D01*
X187960000Y-142110000D02*
X187350000Y-141500000D01*
X183820000Y-143720000D02*
X183300000Y-143200000D01*
X184000000Y-143700000D02*
X185200000Y-142500000D01*
X187100000Y-142500000D02*
X187350000Y-142250000D01*
X187350000Y-142250000D02*
X187350000Y-141500000D01*
X183300000Y-143200000D02*
X182825000Y-143200000D01*
X184000000Y-143720000D02*
X183820000Y-143720000D01*
%TO.N,GND*%
X215940000Y-87800000D02*
X215990000Y-87750000D01*
X217730000Y-111560000D02*
X217715000Y-111545000D01*
X176695000Y-93175000D02*
X176695000Y-94685000D01*
X175500000Y-117090000D02*
X176110000Y-116480000D01*
X221025000Y-103700000D02*
X220100000Y-103700000D01*
D87*
X177300000Y-146300000D02*
X176750000Y-146300000D01*
D88*
X193719999Y-123300000D02*
X194155000Y-122864999D01*
X195535000Y-99385000D02*
X194575000Y-99385000D01*
X162600000Y-140190000D02*
X162800000Y-139990000D01*
D89*
X121250000Y-129330000D02*
X122430000Y-128150000D01*
D88*
X172885000Y-93175000D02*
X172885000Y-94710000D01*
X171837500Y-133655000D02*
X171837500Y-132112500D01*
X197930000Y-114679389D02*
X197977711Y-114727100D01*
X180485000Y-94488094D02*
X181118453Y-95121547D01*
X184100000Y-141900000D02*
X183300000Y-141900000D01*
D87*
X176312500Y-146290000D02*
X176740000Y-146290000D01*
D88*
X229020000Y-87730000D02*
X228200000Y-86910000D01*
D87*
X178700000Y-145800000D02*
X178700000Y-145602500D01*
D88*
X188690000Y-138250000D02*
X188360000Y-138580000D01*
D87*
X173472500Y-116085000D02*
X173467500Y-116080000D01*
D90*
X145840000Y-139300000D02*
X145170000Y-138630000D01*
D88*
X141290000Y-103970000D02*
X140650000Y-103970000D01*
D87*
X167500000Y-111200000D02*
X167100000Y-111600000D01*
D88*
X183300000Y-141900000D02*
X182931500Y-142268500D01*
X200675150Y-138046888D02*
X200675150Y-136249850D01*
D89*
X128450000Y-130150000D02*
X127925000Y-129625000D01*
D88*
X202862500Y-99195000D02*
X203255000Y-99195000D01*
X234702510Y-100002510D02*
X234702510Y-99412510D01*
D89*
X127925000Y-129625000D02*
X121250000Y-129625000D01*
D88*
X173279291Y-130670709D02*
X173279291Y-130101350D01*
X172110000Y-127300000D02*
X177300000Y-127300000D01*
X142590000Y-109920000D02*
X144720000Y-109920000D01*
X195840000Y-90090000D02*
X195830000Y-90100000D01*
X209355000Y-89985000D02*
X209340000Y-89970000D01*
D89*
X132405000Y-125025000D02*
X132350000Y-124970000D01*
D88*
X215940000Y-89112500D02*
X215940000Y-87800000D01*
X195840000Y-87780000D02*
X195840000Y-90090000D01*
X225050000Y-138537500D02*
X225050000Y-139950000D01*
X163260000Y-130425000D02*
X163320000Y-130485000D01*
X191995000Y-94150001D02*
X191509999Y-94635002D01*
D87*
X166090000Y-122090000D02*
X166541000Y-122090000D01*
X177755000Y-145845000D02*
X177755000Y-145624000D01*
D90*
X225350000Y-144100000D02*
X223700000Y-144100000D01*
D88*
X229262500Y-99195000D02*
X228252500Y-99195000D01*
X217730000Y-113400000D02*
X217730000Y-114720000D01*
X189455000Y-98125000D02*
X189455000Y-99795000D01*
X209340000Y-89970000D02*
X209340000Y-89112500D01*
X191995000Y-93175000D02*
X191995000Y-94150001D01*
X175372500Y-95152500D02*
X176247500Y-95152500D01*
X191330000Y-113400000D02*
X191330000Y-111560000D01*
X200675150Y-133096888D02*
X201147500Y-132624538D01*
X221240000Y-90987500D02*
X221240000Y-92350000D01*
X194915000Y-111555000D02*
X194930000Y-111540000D01*
X176695000Y-94685000D02*
X176705000Y-94695000D01*
X204400000Y-111660000D02*
X204400000Y-114600000D01*
X200530000Y-131130000D02*
X200530000Y-131305000D01*
X182200000Y-136475000D02*
X182200000Y-135699599D01*
X219795000Y-111555000D02*
X220338500Y-111011500D01*
X211130000Y-113400000D02*
X211130000Y-111560000D01*
X161980000Y-130425000D02*
X163260000Y-130425000D01*
X228252500Y-99195000D02*
X228062500Y-99385000D01*
X174155000Y-99815000D02*
X174155000Y-98125000D01*
X197910000Y-111540000D02*
X197915000Y-111545000D01*
X235800000Y-99120000D02*
X234790000Y-99120000D01*
D87*
X204500000Y-126230202D02*
X204500000Y-127547000D01*
D88*
X174833298Y-133791000D02*
X177160998Y-133791000D01*
X221605000Y-141125000D02*
X221605000Y-139320001D01*
X138670000Y-105640001D02*
X138670000Y-106800000D01*
X228200000Y-86910000D02*
X227800000Y-86910000D01*
X174270000Y-88850000D02*
X174800000Y-88320000D01*
X177751546Y-118406840D02*
X178061545Y-118406840D01*
X178200000Y-121125000D02*
X178200000Y-120266428D01*
X202790000Y-87730000D02*
X202740000Y-87780000D01*
X224244500Y-132544500D02*
X223700000Y-132544500D01*
D87*
X173700000Y-111200000D02*
X173671500Y-111228500D01*
D88*
X235650000Y-87730000D02*
X234880000Y-86960000D01*
X217700000Y-111530000D02*
X217715000Y-111545000D01*
X188690000Y-136475000D02*
X188690000Y-138250000D01*
X227850000Y-103337500D02*
X227849999Y-102462501D01*
D90*
X165820000Y-104340000D02*
X166820000Y-105340000D01*
D87*
X175700000Y-145677500D02*
X176312500Y-146290000D01*
D88*
X194450000Y-104410000D02*
X194540000Y-104500000D01*
X203255000Y-99195000D02*
X203670000Y-99610000D01*
X222752500Y-116087500D02*
X222752500Y-117222500D01*
X174155000Y-98125000D02*
X174155000Y-96370000D01*
X173946202Y-133571500D02*
X174613798Y-133571500D01*
X234880000Y-86960000D02*
X234490000Y-86960000D01*
X203215150Y-138046888D02*
X203215150Y-136515150D01*
X220080000Y-141500000D02*
X220720000Y-141500000D01*
X217730000Y-114720000D02*
X217725000Y-114725000D01*
X182231500Y-135584928D02*
X182459928Y-135356500D01*
X188185000Y-94149999D02*
X188670001Y-94635000D01*
X182920000Y-88800000D02*
X182860000Y-88800000D01*
X191375000Y-128800000D02*
X192500000Y-128800000D01*
X211130000Y-114725000D02*
X211145000Y-114740000D01*
X185450000Y-140891950D02*
X185962321Y-140379629D01*
D87*
X173671500Y-111228500D02*
X173100000Y-111228500D01*
D88*
X182390000Y-89970000D02*
X182390000Y-89440000D01*
D90*
X164137500Y-104340000D02*
X165820000Y-104340000D01*
D87*
X174100000Y-124300000D02*
X174306599Y-124506599D01*
D90*
X165740000Y-94340000D02*
X166810000Y-95410000D01*
X140725000Y-84275000D02*
X141600000Y-83400000D01*
D88*
X181755000Y-98125000D02*
X181755000Y-95758094D01*
X192500000Y-128800000D02*
X193100000Y-129400000D01*
X191330000Y-111560000D02*
X191315000Y-111545000D01*
X234790000Y-99120000D02*
X234600000Y-99310000D01*
X203670000Y-99610000D02*
X203670000Y-101990000D01*
X139530000Y-105090000D02*
X139220001Y-105090000D01*
D89*
X130350000Y-130150000D02*
X129800000Y-130150000D01*
D88*
X171837500Y-132112500D02*
X173279291Y-130670709D01*
X192665000Y-123800000D02*
X193165000Y-123300000D01*
D87*
X131850000Y-119675000D02*
X133025000Y-119675000D01*
X177710500Y-145579500D02*
X177700000Y-145579500D01*
D88*
X191995000Y-94149999D02*
X191509999Y-94635000D01*
X174155000Y-96370000D02*
X175372500Y-95152500D01*
X232245000Y-134080000D02*
X232322500Y-134002500D01*
X221605000Y-139320001D02*
X221284999Y-139000000D01*
X222752500Y-112110000D02*
X222802500Y-112060000D01*
D87*
X180700000Y-120110000D02*
X180945000Y-119865000D01*
D88*
X182785000Y-135160000D02*
X182787113Y-135157887D01*
X177181000Y-127781000D02*
X177200000Y-127800000D01*
X211130000Y-111560000D02*
X211115000Y-111545000D01*
X209340000Y-89112500D02*
X209340000Y-87780000D01*
X197930000Y-113400000D02*
X197930000Y-114679389D01*
X182787113Y-135157887D02*
X182899377Y-135157887D01*
X191330000Y-113400000D02*
X190640000Y-114090000D01*
D90*
X221880000Y-142600000D02*
X221880000Y-142220000D01*
D88*
X178660000Y-119005295D02*
X178660000Y-119400000D01*
X168405000Y-126415000D02*
X171225000Y-126415000D01*
D87*
X166706000Y-120055000D02*
X166720500Y-120040500D01*
D88*
X144720000Y-109920000D02*
X145315000Y-109325000D01*
X164500000Y-136500000D02*
X163080000Y-136500000D01*
X209462500Y-101487500D02*
X209412500Y-101537500D01*
D87*
X177755000Y-145624000D02*
X177710500Y-145579500D01*
D88*
X201852500Y-99195000D02*
X201662500Y-99385000D01*
D90*
X165780000Y-89340000D02*
X166790000Y-90350000D01*
D88*
X174745000Y-89864433D02*
X174745000Y-89375000D01*
X177200000Y-127800000D02*
X177800000Y-127800000D01*
D87*
X204500000Y-127547000D02*
X205040501Y-128087501D01*
D88*
X207400000Y-111100000D02*
X207400000Y-109500000D01*
X190605000Y-94635000D02*
X191509999Y-94635000D01*
X190000000Y-89440000D02*
X190100001Y-89339999D01*
X209462500Y-100155000D02*
X209462500Y-101487500D01*
X173279291Y-130101350D02*
X174580641Y-128800000D01*
X182860000Y-88800000D02*
X182390000Y-88330000D01*
X197930000Y-111560000D02*
X197915000Y-111545000D01*
X193415000Y-111555000D02*
X194915000Y-111555000D01*
X206595000Y-111555000D02*
X206945000Y-111555000D01*
X224102500Y-112830000D02*
X223165000Y-112830000D01*
X184000000Y-146800500D02*
X184000000Y-144680000D01*
X227750000Y-91795000D02*
X226650000Y-92895000D01*
D90*
X227000000Y-144100000D02*
X225350000Y-144100000D01*
D88*
X221312500Y-103412500D02*
X221025000Y-103700000D01*
D87*
X176599110Y-133874110D02*
X177244108Y-133874110D01*
D88*
X220815000Y-99385000D02*
X220500000Y-99700000D01*
X182471001Y-135345427D02*
X182656428Y-135160000D01*
X221284999Y-139000000D02*
X220250000Y-139000000D01*
X182459928Y-135356500D02*
X182471001Y-135356500D01*
X191995000Y-93175000D02*
X191995000Y-94149999D01*
X221720000Y-99385000D02*
X220815000Y-99385000D01*
X193165000Y-123300000D02*
X193392000Y-123300000D01*
X194500000Y-99310000D02*
X194500000Y-100300000D01*
D90*
X165890000Y-114340000D02*
X166275000Y-114725000D01*
D88*
X226945000Y-134080000D02*
X227859999Y-134079999D01*
X182231500Y-135668099D02*
X182231500Y-135584928D01*
D87*
X169300000Y-111228500D02*
X169271500Y-111200000D01*
D90*
X164137500Y-109340000D02*
X166000000Y-109340000D01*
D88*
X209340000Y-87780000D02*
X209390000Y-87730000D01*
X228062500Y-99385000D02*
X228062500Y-100112500D01*
X210230000Y-90840000D02*
X209375000Y-89985000D01*
X200295000Y-136205000D02*
X200720000Y-136205000D01*
X222660000Y-88490000D02*
X222660000Y-87800000D01*
X194155000Y-122864999D02*
X194155000Y-122555000D01*
X167655000Y-127165000D02*
X168405000Y-126415000D01*
X191375000Y-124300000D02*
X192195000Y-124300000D01*
X174800000Y-88320000D02*
X174800000Y-84100000D01*
D87*
X203779500Y-127979500D02*
X203300000Y-127500000D01*
D89*
X131800000Y-128300000D02*
X131800000Y-128700000D01*
D87*
X176740000Y-145609000D02*
X176733500Y-145602500D01*
D88*
X176247500Y-95152500D02*
X176705000Y-94695000D01*
X190440000Y-88850000D02*
X190000000Y-88410000D01*
X222200000Y-138810000D02*
X221474999Y-138810000D01*
D87*
X166720500Y-120040500D02*
X166720500Y-120030000D01*
X180700000Y-121155000D02*
X180700000Y-120110000D01*
D88*
X229550000Y-138537500D02*
X229549999Y-139874999D01*
D90*
X217700000Y-147900000D02*
X216600001Y-147900001D01*
D87*
X204000000Y-127979500D02*
X203779500Y-127979500D01*
D88*
X235740000Y-89112500D02*
X235740000Y-87780000D01*
X185955000Y-105960000D02*
X186850000Y-106855000D01*
X142042500Y-108460000D02*
X142042500Y-109372500D01*
X203670000Y-101990000D02*
X203015000Y-102645000D01*
X201147500Y-132624538D02*
X201147500Y-131922500D01*
X189455000Y-95785000D02*
X190605000Y-94635000D01*
X220720000Y-141500000D02*
X220975000Y-141755000D01*
D87*
X176025000Y-133300000D02*
X176599110Y-133874110D01*
D88*
X191375000Y-123300000D02*
X193719999Y-123300000D01*
X182390000Y-89440000D02*
X182395000Y-89435000D01*
X211130000Y-113400000D02*
X211130000Y-114725000D01*
X202740000Y-87780000D02*
X202740000Y-89940400D01*
X209375000Y-89985000D02*
X209355000Y-89985000D01*
X182390000Y-88330000D02*
X182390000Y-86300000D01*
X178061545Y-118406840D02*
X178660000Y-119005295D01*
X181755000Y-98125000D02*
X181755000Y-99795000D01*
X192195000Y-124300000D02*
X192665000Y-123830000D01*
X192665000Y-123830000D02*
X192665000Y-123800000D01*
X222802500Y-112467500D02*
X222802500Y-112060000D01*
X181870000Y-88850000D02*
X182390000Y-88330000D01*
X213195000Y-111555000D02*
X213470000Y-111555000D01*
D89*
X129800000Y-130150000D02*
X128450000Y-130150000D01*
D88*
X176026000Y-127781000D02*
X177181000Y-127781000D01*
X160425000Y-141330000D02*
X161555000Y-140200000D01*
X185450000Y-141400000D02*
X185450000Y-140891950D01*
D87*
X176733500Y-145602500D02*
X176700000Y-145602500D01*
D90*
X227300000Y-144280000D02*
X227180000Y-144280000D01*
D88*
X229000000Y-132355000D02*
X229195000Y-132160000D01*
X220338500Y-111011500D02*
X220338500Y-110163412D01*
X183323452Y-95121547D02*
X181118453Y-95121547D01*
X188185000Y-93175000D02*
X188185000Y-94149999D01*
X224545000Y-132845000D02*
X224244500Y-132544500D01*
X201945150Y-136555150D02*
X201595000Y-136205000D01*
D89*
X134075000Y-125025000D02*
X132405000Y-125025000D01*
D88*
X225050000Y-139950000D02*
X225000000Y-140000000D01*
X209470000Y-101595000D02*
X209412500Y-101537500D01*
X182931500Y-142268500D02*
X181568500Y-142268500D01*
X139220001Y-105090000D02*
X138670000Y-105640001D01*
D87*
X191375000Y-130800000D02*
X192300000Y-130800000D01*
D88*
X202740000Y-89940400D02*
X202700900Y-89979500D01*
D87*
X169665000Y-137610000D02*
X169562500Y-137712500D01*
D88*
X140945000Y-103625000D02*
X141290000Y-103970000D01*
X201945150Y-138046888D02*
X201945150Y-136555150D01*
X175280000Y-88800000D02*
X174800000Y-88320000D01*
X174613798Y-133571500D02*
X174833298Y-133791000D01*
X201595000Y-136205000D02*
X200720000Y-136205000D01*
X173370687Y-134147015D02*
X173946202Y-133571500D01*
X216012500Y-101537500D02*
X216012500Y-103262500D01*
X235740000Y-89112500D02*
X235740000Y-90175000D01*
X199405150Y-137094850D02*
X200295000Y-136205000D01*
D90*
X165920000Y-99340000D02*
X166820000Y-100240000D01*
D88*
X189455000Y-98125000D02*
X189455000Y-95785000D01*
D87*
X169905000Y-137610000D02*
X169665000Y-137610000D01*
D88*
X215940000Y-89112500D02*
X215940000Y-91235000D01*
X187700000Y-138100000D02*
X187200000Y-138100000D01*
D87*
X173800000Y-111200000D02*
X173700000Y-111200000D01*
D88*
X171225000Y-126415000D02*
X172110000Y-127300000D01*
D87*
X204457202Y-126187404D02*
X204500000Y-126230202D01*
D88*
X223165000Y-112830000D02*
X222802500Y-112467500D01*
X177160998Y-133791000D02*
X177244108Y-133874110D01*
D87*
X205040501Y-128087501D02*
X205300000Y-128087501D01*
D88*
X182200000Y-135699599D02*
X182231500Y-135668099D01*
X202862500Y-99195000D02*
X201852500Y-99195000D01*
D87*
X166586000Y-121045000D02*
X166620500Y-121010500D01*
X187250000Y-122495000D02*
X187172500Y-122572500D01*
D88*
X215940000Y-91235000D02*
X215955000Y-91250000D01*
X182471001Y-135356500D02*
X182471001Y-135345427D01*
X190000000Y-88410000D02*
X190000000Y-86300000D01*
X224545000Y-133120000D02*
X224545000Y-132845000D01*
X178900000Y-128900000D02*
X178900000Y-129100000D01*
D87*
X166100000Y-121045000D02*
X166586000Y-121045000D01*
X166125000Y-120055000D02*
X166706000Y-120055000D01*
D89*
X131800000Y-128700000D02*
X130350000Y-130150000D01*
D88*
X194180000Y-128720000D02*
X193500000Y-129400000D01*
X217730000Y-113400000D02*
X217730000Y-111560000D01*
X222660000Y-87800000D02*
X222590000Y-87730000D01*
X180485000Y-93175000D02*
X180485000Y-94488094D01*
X175500000Y-118230000D02*
X175500000Y-117090000D01*
X142042500Y-109372500D02*
X142590000Y-109920000D01*
X220338500Y-110163412D02*
X219775090Y-109600000D01*
X234450000Y-100255020D02*
X234702510Y-100002510D01*
D90*
X164137500Y-99340000D02*
X165920000Y-99340000D01*
X221880000Y-142220000D02*
X222600000Y-141500000D01*
D88*
X227750000Y-86960000D02*
X227750000Y-91795000D01*
X162800000Y-136780000D02*
X163000000Y-136580000D01*
X213470000Y-111555000D02*
X214335000Y-112420000D01*
X195890000Y-87730000D02*
X195840000Y-87780000D01*
D87*
X203300000Y-127500000D02*
X203300000Y-127400000D01*
D88*
X186850000Y-106855000D02*
X186850000Y-107985000D01*
D90*
X227180000Y-144280000D02*
X227000000Y-144100000D01*
X164137500Y-114340000D02*
X165890000Y-114340000D01*
D87*
X166620500Y-121010500D02*
X166620500Y-121000000D01*
D88*
X216012500Y-103262500D02*
X216055000Y-103305000D01*
X202812500Y-101537500D02*
X202812500Y-102637500D01*
X178200000Y-120266428D02*
X178660000Y-119806428D01*
X195800000Y-99120000D02*
X195535000Y-99385000D01*
X222752500Y-117222500D02*
X222770000Y-117240000D01*
X187680000Y-138580000D02*
X187200000Y-138100000D01*
X173327500Y-95152500D02*
X176247500Y-95152500D01*
D90*
X140725000Y-85000000D02*
X140725000Y-84275000D01*
D88*
X177300000Y-127300000D02*
X178900000Y-128900000D01*
X181755000Y-95758094D02*
X181118453Y-95121547D01*
X138670000Y-106800000D02*
X138160000Y-107310000D01*
X182656428Y-135160000D02*
X182785000Y-135160000D01*
X206945000Y-111555000D02*
X207400000Y-111100000D01*
X234702510Y-99412510D02*
X234600000Y-99310000D01*
D87*
X177300000Y-146300000D02*
X178200000Y-146300000D01*
D88*
X203215150Y-136515150D02*
X202905000Y-136205000D01*
X222490000Y-100155000D02*
X221720000Y-99385000D01*
D89*
X121250000Y-129625000D02*
X121250000Y-129330000D01*
D88*
X216062500Y-101487500D02*
X216012500Y-101537500D01*
X221474999Y-138810000D02*
X221284999Y-139000000D01*
X199995000Y-111555000D02*
X200800000Y-110750000D01*
D87*
X169271500Y-111200000D02*
X167500000Y-111200000D01*
D88*
X140945000Y-102170000D02*
X140945000Y-103625000D01*
X178660000Y-119806428D02*
X178660000Y-119400000D01*
X235740000Y-87780000D02*
X235790000Y-87730000D01*
D87*
X166620500Y-119010500D02*
X166620500Y-119000000D01*
D90*
X166000000Y-109340000D02*
X166830000Y-110170000D01*
D88*
X188200000Y-136475000D02*
X188200000Y-137600000D01*
X194450000Y-103337500D02*
X194450000Y-104410000D01*
X199405150Y-138046888D02*
X199405150Y-137094850D01*
X194180000Y-128300000D02*
X194180000Y-128720000D01*
X200530000Y-131305000D02*
X201147500Y-131922500D01*
X184295000Y-93175000D02*
X184295000Y-94149999D01*
X231467500Y-134080000D02*
X232245000Y-134080000D01*
D87*
X204457202Y-126170472D02*
X204457202Y-126187404D01*
D88*
X188200000Y-137600000D02*
X187700000Y-138100000D01*
X162800000Y-139990000D02*
X162800000Y-136780000D01*
X222752500Y-116087500D02*
X222752500Y-112110000D01*
X176025000Y-126800000D02*
X176800000Y-126800000D01*
X194500000Y-100300000D02*
X194100000Y-100700000D01*
X180900000Y-141600000D02*
X180900000Y-140800000D01*
X190640000Y-114090000D02*
X189995000Y-114090000D01*
X197930000Y-113400000D02*
X197930000Y-111560000D01*
D87*
X166541000Y-122090000D02*
X166620500Y-122010500D01*
X192300000Y-130800000D02*
X192800000Y-130300000D01*
X174306599Y-124506599D02*
X174600000Y-124506599D01*
D90*
X164137500Y-89340000D02*
X165780000Y-89340000D01*
D87*
X166120000Y-119045000D02*
X166586000Y-119045000D01*
D88*
X202812500Y-102637500D02*
X202820000Y-102645000D01*
D87*
X173467500Y-116080000D02*
X172905000Y-116080000D01*
D88*
X184295000Y-94149999D02*
X183323452Y-95121547D01*
X154390000Y-124740000D02*
X160075000Y-130425000D01*
X220100000Y-103700000D02*
X219900000Y-103500000D01*
X172885000Y-94710000D02*
X173327500Y-95152500D01*
D90*
X164137500Y-94340000D02*
X165740000Y-94340000D01*
D87*
X169562500Y-137712500D02*
X169180000Y-137712500D01*
D88*
X181568500Y-142268500D02*
X180900000Y-141600000D01*
D87*
X176740000Y-146290000D02*
X176740000Y-145609000D01*
X166586000Y-119045000D02*
X166620500Y-119010500D01*
D88*
X204510000Y-111550000D02*
X204400000Y-111660000D01*
X200675150Y-136249850D02*
X200720000Y-136205000D01*
D87*
X177300000Y-146300000D02*
X177755000Y-145845000D01*
D88*
X140650000Y-103970000D02*
X139530000Y-105090000D01*
X234450000Y-103337500D02*
X234450000Y-100255020D01*
X209470000Y-102995000D02*
X209470000Y-101595000D01*
X200800000Y-110750000D02*
X200800000Y-109500000D01*
D90*
X146820000Y-139300000D02*
X145840000Y-139300000D01*
D88*
X228062500Y-100112500D02*
X228060000Y-100115000D01*
D87*
X187250000Y-121205000D02*
X187250000Y-122495000D01*
D88*
X164720000Y-133880000D02*
X165770000Y-133880000D01*
X189570000Y-88850000D02*
X190610000Y-88850000D01*
X202905000Y-136205000D02*
X201595000Y-136205000D01*
X193500000Y-129400000D02*
X193100000Y-129400000D01*
X203015000Y-102645000D02*
X202820000Y-102645000D01*
X174580641Y-128800000D02*
X178600000Y-128800000D01*
X188670001Y-94635000D02*
X190605000Y-94635000D01*
X229000000Y-133120000D02*
X229000000Y-132355000D01*
X191375000Y-123800000D02*
X192665000Y-123800000D01*
D87*
X178200000Y-146300000D02*
X178700000Y-145800000D01*
D88*
X163080000Y-136500000D02*
X163000000Y-136580000D01*
X178600000Y-128800000D02*
X178900000Y-129100000D01*
X160075000Y-130425000D02*
X161980000Y-130425000D01*
X176800000Y-126800000D02*
X177300000Y-127300000D01*
D87*
X176750000Y-146300000D02*
X176740000Y-146290000D01*
X166620500Y-122010500D02*
X166620500Y-122000000D01*
D88*
X220975000Y-141755000D02*
X221605000Y-141125000D01*
X216062500Y-100155000D02*
X216062500Y-101487500D01*
X188360000Y-138580000D02*
X187680000Y-138580000D01*
X190000000Y-89820000D02*
X190000000Y-89440000D01*
X161555000Y-140200000D02*
X162590000Y-140200000D01*
%TO.N,VREF+*%
X182710000Y-137940001D02*
X182710000Y-136475000D01*
X182180000Y-138470001D02*
X182710000Y-137940001D01*
X182180000Y-141345000D02*
X182180000Y-138470001D01*
%TO.N,Net-(C8-Pad1)*%
X198875000Y-111545000D02*
X198875000Y-113395000D01*
X198985000Y-110535000D02*
X198890000Y-110440000D01*
X198890000Y-110440000D02*
X198890000Y-111530000D01*
X198890000Y-111530000D02*
X198875000Y-111545000D01*
X199995000Y-110535000D02*
X198985000Y-110535000D01*
%TO.N,Net-(C9-Pad1)*%
X205475000Y-111545000D02*
X205475000Y-110455000D01*
X205490000Y-110440000D02*
X206500000Y-110440000D01*
X205480000Y-113400000D02*
X205480000Y-111550000D01*
X205480000Y-111550000D02*
X205475000Y-111545000D01*
%TO.N,OSC32_IN*%
X172150000Y-125535000D02*
X172905000Y-126290000D01*
X172905000Y-126290000D02*
X176075000Y-126290000D01*
D90*
%TO.N,HVIL_START*%
X230200000Y-134110000D02*
X230200000Y-136662500D01*
X242300000Y-78000000D02*
X231670000Y-78000000D01*
X241800000Y-113595000D02*
X246300000Y-109095000D01*
X246300000Y-109095000D02*
X246300000Y-82000000D01*
X231467500Y-133120000D02*
X235947500Y-133120000D01*
X241800000Y-127267500D02*
X241800000Y-113595000D01*
X246300000Y-82000000D02*
X242300000Y-78000000D01*
X231307900Y-133120000D02*
X231400000Y-133120000D01*
X230200000Y-134110000D02*
X230317900Y-134110000D01*
X230317900Y-134110000D02*
X231307900Y-133120000D01*
X235947500Y-133120000D02*
X241800000Y-127267500D01*
%TO.N,HVIL_SEND*%
X226660000Y-146640000D02*
X225350000Y-146640000D01*
D87*
X225350000Y-146640000D02*
X223540000Y-146640000D01*
X190088938Y-135595170D02*
X191810170Y-135595170D01*
X187986232Y-135420000D02*
X189913768Y-135420000D01*
X223540000Y-146640000D02*
X221600000Y-144700000D01*
D90*
X226590000Y-147910000D02*
X227000000Y-147500000D01*
X225350000Y-147910000D02*
X226590000Y-147910000D01*
D87*
X221600000Y-144700000D02*
X207000000Y-144700000D01*
D90*
X227000000Y-147500000D02*
X227000000Y-146980000D01*
D87*
X189913768Y-135420000D02*
X190088938Y-135595170D01*
X187700000Y-136505000D02*
X187700000Y-135706232D01*
D90*
X227000000Y-146980000D02*
X226660000Y-146640000D01*
D87*
X191810170Y-135595170D02*
X199030000Y-142815000D01*
X187700000Y-135706232D02*
X187986232Y-135420000D01*
D90*
%TO.N,HVIL_END*%
X240925000Y-80400000D02*
X243800000Y-83275000D01*
X225700000Y-134110000D02*
X225700000Y-136662500D01*
X240100000Y-111970000D02*
X240100000Y-126300000D01*
X226945000Y-133120000D02*
X229930000Y-130135000D01*
X229930000Y-130135000D02*
X236265000Y-130135000D01*
X228270000Y-80400000D02*
X240925000Y-80400000D01*
X243800000Y-108270000D02*
X240100000Y-111970000D01*
X243800000Y-83275000D02*
X243800000Y-108270000D01*
X226807900Y-133120000D02*
X226900000Y-133120000D01*
X225870000Y-78000000D02*
X228270000Y-80400000D01*
X225700000Y-134110000D02*
X225817900Y-134110000D01*
X240100000Y-126300000D02*
X236265000Y-130135000D01*
X225817900Y-134110000D02*
X226807900Y-133120000D01*
%TO.N,HVIL_RETURN*%
X221370000Y-145370000D02*
X221700000Y-145700000D01*
X220400000Y-145370000D02*
X221370000Y-145370000D01*
D87*
X218500000Y-146100000D02*
X206490000Y-146100000D01*
X219040000Y-146640000D02*
X218500000Y-146100000D01*
D90*
X221440000Y-146640000D02*
X220400000Y-146640000D01*
X221700000Y-145700000D02*
X221700000Y-146380000D01*
D87*
X220400000Y-146640000D02*
X219040000Y-146640000D01*
X178700000Y-136475000D02*
X178700000Y-138578499D01*
D90*
X221700000Y-146380000D02*
X221440000Y-146640000D01*
D87*
X178700000Y-138578499D02*
X178821501Y-138700000D01*
%TO.N,DRIVE*%
X201500000Y-82125000D02*
X200205000Y-80830000D01*
X200205000Y-80830000D02*
X200205000Y-78025000D01*
D88*
X202700000Y-85810000D02*
X201580000Y-85810000D01*
D87*
X201500000Y-85890000D02*
X201500000Y-82125000D01*
%TO.N,KEYON_IGNITION*%
X214600000Y-85890000D02*
X214600000Y-81700000D01*
D88*
X214600000Y-85890000D02*
X215820000Y-85890000D01*
D87*
X214600000Y-81700000D02*
X210900000Y-78000000D01*
%TO.N,PARK*%
X208000000Y-85850000D02*
X208000000Y-83015000D01*
X205260000Y-80275000D02*
X205260000Y-78000000D01*
X208000000Y-83015000D02*
X205260000Y-80275000D01*
D88*
X208000000Y-85890000D02*
X209220000Y-85890000D01*
D87*
%TO.N,NEUTRAL*%
X196380000Y-79295000D02*
X196380000Y-76670000D01*
D88*
X194600000Y-85890000D02*
X195720000Y-85890000D01*
D87*
X196380000Y-76670000D02*
X197590000Y-75460000D01*
X194600000Y-85890000D02*
X194600000Y-81075000D01*
X194600000Y-81075000D02*
X196380000Y-79295000D01*
%TO.N,REVERSE*%
X221200000Y-85890000D02*
X221200000Y-84015000D01*
X212880000Y-78980000D02*
X212880000Y-78000000D01*
X217485000Y-80300000D02*
X214200000Y-80300000D01*
X214200000Y-80300000D02*
X212880000Y-78980000D01*
X221200000Y-84015000D02*
X217485000Y-80300000D01*
D88*
X221200000Y-85890000D02*
X222420000Y-85890000D01*
D87*
%TO.N,DIG_INPUT_5*%
X197200000Y-80400000D02*
X197200000Y-78440000D01*
X202542501Y-97265000D02*
X199075000Y-93797499D01*
X199075000Y-82275000D02*
X197200000Y-80400000D01*
X197200000Y-78440000D02*
X197640000Y-78000000D01*
X202862500Y-97265000D02*
X202542501Y-97265000D01*
X199075000Y-93797499D02*
X199075000Y-82275000D01*
%TO.N,DIG_INPUT_1*%
X228610000Y-83705000D02*
X221800000Y-83705000D01*
X229190000Y-84285000D02*
X228610000Y-83705000D01*
X229190000Y-84830000D02*
X229190000Y-84285000D01*
X221800000Y-83705000D02*
X216095000Y-78000000D01*
X216095000Y-78000000D02*
X215420000Y-78000000D01*
%TO.N,DIG_INPUT_2*%
X222135000Y-83015000D02*
X217960000Y-78840000D01*
X235790000Y-83875000D02*
X234930000Y-83015000D01*
X235790000Y-84830000D02*
X235790000Y-83875000D01*
X217960000Y-78840000D02*
X217960000Y-78000000D01*
X234930000Y-83015000D02*
X222135000Y-83015000D01*
%TO.N,DIG_INPUT_3*%
X206205000Y-90765000D02*
X206205000Y-83300000D01*
X224170000Y-99480000D02*
X224785000Y-100095000D01*
X210430000Y-94990000D02*
X206205000Y-90765000D01*
X210430000Y-98595000D02*
X210430000Y-94990000D01*
X203200000Y-76600000D02*
X201230000Y-76600000D01*
X206205000Y-83300000D02*
X203900000Y-80995000D01*
X223829500Y-109657000D02*
X223650000Y-109657000D01*
X224102500Y-109930000D02*
X223829500Y-109657000D01*
X224785000Y-100095000D02*
X224785000Y-103800000D01*
X201230000Y-76600000D02*
X200180000Y-75550000D01*
X203900000Y-80995000D02*
X203900000Y-77300000D01*
X210850000Y-99015000D02*
X210430000Y-98595000D01*
X203900000Y-77300000D02*
X203200000Y-76600000D01*
%TO.N,DIG_INPUT_4*%
X195890000Y-97255000D02*
X195890000Y-94325000D01*
X193700000Y-92135000D02*
X193700000Y-88100000D01*
X195890000Y-94325000D02*
X193700000Y-92135000D01*
X193200000Y-87600000D02*
X193200000Y-79900000D01*
X193200000Y-79900000D02*
X195100000Y-78000000D01*
X193700000Y-88100000D02*
X193200000Y-87600000D01*
%TO.N,SPEED_SENS_1*%
X192370000Y-87421889D02*
X192370000Y-79845000D01*
X191310000Y-110440000D02*
X191310000Y-103670000D01*
X191310000Y-103670000D02*
X193310000Y-101670000D01*
X193900000Y-78315000D02*
X193900000Y-76660000D01*
X192370000Y-79845000D02*
X193900000Y-78315000D01*
X193900000Y-76660000D02*
X195100000Y-75460000D01*
X193310000Y-101670000D02*
X193310000Y-88361889D01*
X193310000Y-88361889D02*
X192370000Y-87421889D01*
%TO.N,SPEED_SENS_4*%
X224775000Y-72375000D02*
X225500000Y-73100000D01*
X239800000Y-108500000D02*
X241600000Y-106700000D01*
X214325000Y-72375000D02*
X224775000Y-72375000D01*
X211070000Y-110440000D02*
X213010000Y-108500000D01*
X213010000Y-108500000D02*
X239800000Y-108500000D01*
X212880000Y-75460000D02*
X212880000Y-73820000D01*
X212880000Y-73820000D02*
X214325000Y-72375000D01*
%TO.N,SPEED_SENS_3*%
X224525000Y-73485000D02*
X224180000Y-73140000D01*
X224180000Y-73140000D02*
X216530861Y-73140000D01*
X240700000Y-106600000D02*
X240700000Y-105100000D01*
X239200000Y-108100000D02*
X240700000Y-106600000D01*
X204470000Y-110440000D02*
X206810000Y-108100000D01*
X206810000Y-108100000D02*
X239200000Y-108100000D01*
X215420000Y-74250861D02*
X215420000Y-74885000D01*
X224545000Y-73485000D02*
X224525000Y-73485000D01*
X216530861Y-73140000D02*
X215420000Y-74250861D01*
%TO.N,SPEED_SENS_5*%
X212085000Y-71805000D02*
X225405000Y-71805000D01*
X217670000Y-110440000D02*
X219110000Y-109000000D01*
X241000000Y-109000000D02*
X242600000Y-107400000D01*
X219110000Y-109000000D02*
X241000000Y-109000000D01*
X210340000Y-73550000D02*
X212085000Y-71805000D01*
X210340000Y-75460000D02*
X210340000Y-73550000D01*
X225405000Y-71805000D02*
X226100000Y-72500000D01*
%TO.N,DIG_INPUT_6*%
X205410000Y-92240000D02*
X205410000Y-83535000D01*
X208270000Y-95100000D02*
X205410000Y-92240000D01*
X203015000Y-78975000D02*
X202720000Y-78680000D01*
X203015000Y-81140000D02*
X203015000Y-78975000D01*
X202720000Y-78680000D02*
X202720000Y-78000000D01*
D88*
X208200000Y-98290000D02*
X209320000Y-98290000D01*
D87*
X205410000Y-83535000D02*
X203015000Y-81140000D01*
X208270000Y-98357500D02*
X208270000Y-95100000D01*
%TO.N,DIG_INPUT_10*%
X209000000Y-78505000D02*
X209000000Y-76565000D01*
X212895000Y-82400000D02*
X209000000Y-78505000D01*
X212895000Y-90475000D02*
X212895000Y-82400000D01*
X234800000Y-95175000D02*
X217595000Y-95175000D01*
X235862500Y-97265000D02*
X235862500Y-96237500D01*
X209000000Y-76565000D02*
X207895000Y-75460000D01*
X217595000Y-95175000D02*
X212895000Y-90475000D01*
X235862500Y-96237500D02*
X234800000Y-95175000D01*
%TO.N,DIG_INPUT_8*%
X222662500Y-97265000D02*
X222662500Y-96867500D01*
X206715000Y-77140000D02*
X205260000Y-75685000D01*
X211715000Y-91060000D02*
X211715000Y-84040000D01*
X206715000Y-79040000D02*
X206715000Y-77140000D01*
X211715000Y-84040000D02*
X206715000Y-79040000D01*
X222662500Y-96867500D02*
X221965000Y-96170000D01*
X216825000Y-96170000D02*
X211715000Y-91060000D01*
X221965000Y-96170000D02*
X216825000Y-96170000D01*
%TO.N,DIG_INPUT_7*%
X204275000Y-76875000D02*
X203160000Y-75760000D01*
X213500000Y-95900000D02*
X213500000Y-93675000D01*
X214800000Y-98290000D02*
X214800000Y-97200000D01*
X205781184Y-76875000D02*
X204275000Y-76875000D01*
X213500000Y-93675000D02*
X211170000Y-91345000D01*
X211170000Y-84510000D02*
X206334000Y-79674000D01*
X206334000Y-77427816D02*
X205781184Y-76875000D01*
X214800000Y-97200000D02*
X213500000Y-95900000D01*
X206334000Y-79674000D02*
X206334000Y-77427816D01*
D88*
X216000000Y-98210000D02*
X214880000Y-98210000D01*
D87*
X211170000Y-91345000D02*
X211170000Y-84510000D01*
%TO.N,DIG_INPUT_9*%
X212295000Y-82675000D02*
X207800000Y-78180000D01*
X212295000Y-90650000D02*
X212295000Y-82675000D01*
X229262500Y-97265000D02*
X229262500Y-96552500D01*
X217330000Y-95685000D02*
X212295000Y-90650000D01*
X228395000Y-95685000D02*
X217330000Y-95685000D01*
X229262500Y-96552500D02*
X228395000Y-95685000D01*
D88*
%TO.N,BOOT0*%
X175340000Y-113005000D02*
X179470000Y-113005000D01*
X179470000Y-113005000D02*
X180200000Y-113735000D01*
X180200000Y-113735000D02*
X180200000Y-121125000D01*
%TO.N,Net-(Q2-B)*%
X214435000Y-134120000D02*
X215525000Y-134120000D01*
X215850000Y-133795000D02*
X215540000Y-134105000D01*
X217380000Y-133795000D02*
X215850000Y-133795000D01*
%TO.N,Net-(Q2-C)*%
X220380000Y-134745000D02*
X222010000Y-134745000D01*
X222275000Y-135010000D02*
X222275000Y-135815000D01*
X222010000Y-134745000D02*
X222275000Y-135010000D01*
%TO.N,Net-(U4-TXD)*%
X180490000Y-99940000D02*
X180490000Y-98130000D01*
D87*
%TO.N,CAN2_TX*%
X180490000Y-100960000D02*
X180490000Y-109490000D01*
X187800000Y-133592313D02*
X188507687Y-134300000D01*
X185895000Y-114895000D02*
X186245000Y-114895000D01*
X180490000Y-109490000D02*
X185895000Y-114895000D01*
X188507687Y-134300000D02*
X191375000Y-134300000D01*
X187800000Y-133400000D02*
X187800000Y-133592313D01*
%TO.N,CAN2_RX*%
X181750000Y-121205000D02*
X181750000Y-122379139D01*
X184290000Y-100960000D02*
X184290000Y-111060000D01*
X181750000Y-122379139D02*
X181594614Y-122534525D01*
D88*
%TO.N,Net-(U4-RXD)*%
X184290000Y-99940000D02*
X184290000Y-98130000D01*
D87*
%TO.N,CAN1_TX*%
X186250000Y-117815000D02*
X172890000Y-104455000D01*
X172890000Y-104455000D02*
X172890000Y-101060000D01*
X186250000Y-121205000D02*
X186250000Y-117815000D01*
D88*
%TO.N,Net-(U3-TXD)*%
X172885000Y-98125000D02*
X172885000Y-100035000D01*
D87*
%TO.N,CAN1_RX*%
X176690000Y-107085000D02*
X186750000Y-117145000D01*
X186750000Y-117145000D02*
X186750000Y-121205000D01*
X176690000Y-101060000D02*
X176690000Y-107085000D01*
D88*
%TO.N,Net-(U3-RXD)*%
X176695000Y-98125000D02*
X176695000Y-100035000D01*
D87*
%TO.N,CAN3_TX*%
X188750000Y-113008815D02*
X188750000Y-121205000D01*
X187670100Y-101259901D02*
X187670100Y-111928915D01*
X188290000Y-100960000D02*
X187970001Y-100960000D01*
X187670100Y-111928915D02*
X188750000Y-113008815D01*
X187970001Y-100960000D02*
X187670100Y-101259901D01*
D88*
%TO.N,Net-(U5-TXD)*%
X188185000Y-98125000D02*
X188185000Y-99835000D01*
D87*
%TO.N,CAN3_RX*%
X182700000Y-122897094D02*
X182300000Y-123297094D01*
X182700000Y-121125000D02*
X182700000Y-122897094D01*
X188390000Y-104460000D02*
X188390000Y-111330000D01*
X182300000Y-123297094D02*
X182300000Y-124000000D01*
X191890000Y-100960000D02*
X188390000Y-104460000D01*
D88*
%TO.N,Net-(U5-RXD)*%
X191995000Y-98125000D02*
X191995000Y-99835000D01*
X191995000Y-99835000D02*
X191890000Y-99940000D01*
D87*
%TO.N,DISABLE_HVIL*%
X197140000Y-124120000D02*
X205675000Y-124120000D01*
X205675000Y-124120000D02*
X207100000Y-125545000D01*
X213415000Y-134120000D02*
X212520000Y-134120000D01*
X191375000Y-124800000D02*
X196460000Y-124800000D01*
X207100000Y-125545000D02*
X207100000Y-129400000D01*
X196460000Y-124800000D02*
X197140000Y-124120000D01*
X212520000Y-134120000D02*
X212200000Y-133800000D01*
D90*
%TO.N,OUT_HSO_1*%
X154680000Y-86960000D02*
X154680000Y-79530000D01*
X157060000Y-89340000D02*
X154680000Y-86960000D01*
X154680000Y-79530000D02*
X156210000Y-78000000D01*
X158947500Y-89340000D02*
X157060000Y-89340000D01*
D87*
%TO.N,PB12*%
X190373190Y-134800000D02*
X190345030Y-134828160D01*
X191345000Y-134800000D02*
X190373190Y-134800000D01*
X190345030Y-134828160D02*
X190345030Y-134924090D01*
%TO.N,PC0*%
X174919658Y-130105343D02*
X174919658Y-130380342D01*
D88*
X141092500Y-122717500D02*
X143095000Y-124720000D01*
X141150000Y-107445000D02*
X141092500Y-107502500D01*
D87*
X143095000Y-124720000D02*
X143120000Y-124720000D01*
X176025000Y-129800000D02*
X175225001Y-129800000D01*
X173786551Y-131513449D02*
X173713449Y-131513449D01*
D88*
X141092500Y-107502500D02*
X141092500Y-108460000D01*
X142340000Y-106905000D02*
X141680000Y-106905000D01*
D87*
X175225001Y-129800000D02*
X174919658Y-130105343D01*
X174919658Y-130380342D02*
X173786551Y-131513449D01*
D88*
X141680000Y-106905000D02*
X141150000Y-107435000D01*
X142992500Y-106252500D02*
X142340000Y-106905000D01*
X141092500Y-108460000D02*
X141092500Y-122717500D01*
X141150000Y-107435000D02*
X141150000Y-107445000D01*
%TO.N,PD5*%
X208762500Y-99885000D02*
X208200000Y-99322500D01*
D91*
X184200000Y-123032495D02*
X184357529Y-123190024D01*
X208762500Y-103412500D02*
X210803400Y-105453400D01*
D88*
X208762500Y-103412500D02*
X208762500Y-99885000D01*
D91*
X200050000Y-146100000D02*
X192530000Y-146100000D01*
X224728122Y-105453400D02*
X225948833Y-106674111D01*
D88*
X209210000Y-99310000D02*
X209400000Y-99120000D01*
D91*
X174735000Y-146150000D02*
X174735000Y-141304337D01*
X206900000Y-133500000D02*
X206900000Y-139250000D01*
X174735000Y-141304337D02*
X176469668Y-139569668D01*
X184200000Y-121125000D02*
X184200000Y-123032495D01*
D88*
X208200000Y-99310000D02*
X209210000Y-99310000D01*
D91*
X206900000Y-139250000D02*
X200050000Y-146100000D01*
X211800400Y-128599600D02*
X206900000Y-133500000D01*
X190930000Y-147700000D02*
X176285000Y-147700000D01*
X222400400Y-128599600D02*
X211800400Y-128599600D01*
X210803400Y-105453400D02*
X224728122Y-105453400D01*
X227715000Y-112415000D02*
X227715000Y-123285000D01*
X184357529Y-123190024D02*
X184429438Y-123190024D01*
X192530000Y-146100000D02*
X190930000Y-147700000D01*
X226100000Y-110800000D02*
X227715000Y-112415000D01*
X227715000Y-123285000D02*
X222400400Y-128599600D01*
X176285000Y-147700000D02*
X174735000Y-146150000D01*
D87*
%TO.N,PD14*%
X211130000Y-116100000D02*
X207820000Y-119410000D01*
X194760000Y-119410000D02*
X192735000Y-121435000D01*
X207820000Y-119410000D02*
X194760000Y-119410000D01*
X189700000Y-129800000D02*
X189000000Y-129100000D01*
X191345000Y-129800000D02*
X189700000Y-129800000D01*
%TO.N,PE10*%
X185245000Y-136430000D02*
X185245000Y-133255000D01*
X185200000Y-136475000D02*
X185245000Y-136430000D01*
X185245000Y-133255000D02*
X185400000Y-133100000D01*
%TO.N,PE11*%
X185700000Y-136475000D02*
X185700000Y-134000000D01*
X185700000Y-134000000D02*
X186200000Y-133500000D01*
%TO.N,PB6*%
X180691158Y-122508842D02*
X180691158Y-122822659D01*
X166595000Y-142200000D02*
X162610000Y-142200000D01*
X181250000Y-121205000D02*
X181250000Y-121950000D01*
X172500000Y-137300000D02*
X171900000Y-137900000D01*
X172500000Y-137200000D02*
X172500000Y-137300000D01*
X171900000Y-137900000D02*
X170895000Y-137900000D01*
X181250000Y-121950000D02*
X180691158Y-122508842D01*
X170895000Y-137900000D02*
X166595000Y-142200000D01*
%TO.N,PD13*%
X217730000Y-116100000D02*
X217730000Y-118205000D01*
X217730000Y-118205000D02*
X215895000Y-120040000D01*
X191375000Y-130300000D02*
X189100000Y-130300000D01*
X215895000Y-120040000D02*
X197315000Y-120040000D01*
X189100000Y-130300000D02*
X188700000Y-129900000D01*
D88*
%TO.N,PA0*%
X235162500Y-100656441D02*
X235162500Y-101537500D01*
X236650000Y-99820000D02*
X236315000Y-100155000D01*
D91*
X224989800Y-130310200D02*
X235000000Y-120300000D01*
D88*
X234742500Y-98285000D02*
X236400000Y-98285000D01*
D91*
X176097100Y-132357900D02*
X178142100Y-132357900D01*
X235000000Y-120300000D02*
X235000000Y-110200000D01*
D88*
X236315000Y-100155000D02*
X235663941Y-100155000D01*
D91*
X235000000Y-101700000D02*
X235000000Y-106600000D01*
X194985000Y-148215000D02*
X200360000Y-148215000D01*
X178247404Y-132252596D02*
X178247404Y-132147404D01*
X209200000Y-139375000D02*
X209200000Y-133700922D01*
D88*
X234662500Y-98365000D02*
X234742500Y-98285000D01*
D91*
X200360000Y-148215000D02*
X209200000Y-139375000D01*
X212590722Y-130310200D02*
X224989800Y-130310200D01*
D88*
X236650000Y-98535000D02*
X236650000Y-99820000D01*
X235663941Y-100155000D02*
X235162500Y-100656441D01*
D91*
X209200000Y-133700922D02*
X212590722Y-130310200D01*
X194400000Y-148800000D02*
X194985000Y-148215000D01*
D88*
X236400000Y-98285000D02*
X236650000Y-98535000D01*
D91*
X178142100Y-132357900D02*
X178247404Y-132252596D01*
D87*
%TO.N,PD15*%
X202260000Y-118370000D02*
X194710000Y-118370000D01*
X204530000Y-116100000D02*
X202260000Y-118370000D01*
X194710000Y-118370000D02*
X191998536Y-121081465D01*
X190377010Y-129300000D02*
X189332010Y-128255000D01*
X189332010Y-128255000D02*
X188800000Y-128255000D01*
X191375000Y-129300000D02*
X190377010Y-129300000D01*
%TO.N,PE13*%
X186700000Y-135100000D02*
X186900000Y-134900000D01*
X186700000Y-136441128D02*
X186700000Y-135100000D01*
%TO.N,PE14*%
X187800000Y-134952790D02*
X187800000Y-134700000D01*
X187200000Y-135552790D02*
X187800000Y-134952790D01*
X187200000Y-136475000D02*
X187200000Y-135552790D01*
%TO.N,PB2*%
X182600000Y-134528125D02*
X182600000Y-133900000D01*
X182026500Y-135101625D02*
X182600000Y-134528125D01*
X181787000Y-135400810D02*
X182026500Y-135161310D01*
X181735500Y-136555000D02*
X181735500Y-135535482D01*
X182026500Y-135161310D02*
X182026500Y-135101625D01*
X181735500Y-135535482D02*
X181787000Y-135483982D01*
X181787000Y-135483982D02*
X181787000Y-135400810D01*
%TO.N,PB15*%
X189446254Y-133292400D02*
X189446254Y-133200800D01*
X189453854Y-133300000D02*
X189446254Y-133292400D01*
X191345000Y-133300000D02*
X189453854Y-133300000D01*
%TO.N,PD8*%
X190688643Y-132880000D02*
X190504643Y-132696000D01*
X189870876Y-132696000D02*
X189747818Y-132572942D01*
X190504643Y-132696000D02*
X189870876Y-132696000D01*
X189144689Y-132572942D02*
X188859379Y-132287632D01*
X191425000Y-132880000D02*
X190688643Y-132880000D01*
X189747818Y-132572942D02*
X189144689Y-132572942D01*
%TO.N,PC7*%
X191375000Y-127300000D02*
X190500000Y-127300000D01*
X190370000Y-117060000D02*
X190370000Y-120800000D01*
X190500000Y-127300000D02*
X189600000Y-126400000D01*
X191330000Y-116100000D02*
X190370000Y-117060000D01*
%TO.N,PE12*%
X186200000Y-134700000D02*
X186900000Y-134000000D01*
X186200000Y-136475000D02*
X186200000Y-134700000D01*
D91*
%TO.N,PC1*%
X199500000Y-151000000D02*
X199720000Y-151000000D01*
D88*
X233600000Y-87500000D02*
X234000000Y-87900000D01*
X235790000Y-85850000D02*
X233950000Y-85850000D01*
D91*
X199720000Y-151000000D02*
X211500000Y-139220000D01*
X235090000Y-90987502D02*
X238700000Y-94597502D01*
D88*
X235090000Y-89745668D02*
X235090000Y-90987502D01*
D91*
X227000000Y-131900000D02*
X238700000Y-120200000D01*
D88*
X233950000Y-85850000D02*
X233600000Y-86200000D01*
X234593668Y-87900000D02*
X235081500Y-88387832D01*
D91*
X238700000Y-94597502D02*
X238700000Y-105500000D01*
X238700000Y-120200000D02*
X238700000Y-111000000D01*
X178000000Y-129940000D02*
X178000000Y-129800000D01*
D88*
X235081500Y-88387832D02*
X235081500Y-89737168D01*
D91*
X213300000Y-131900000D02*
X227000000Y-131900000D01*
X177640000Y-130300000D02*
X178000000Y-129940000D01*
D88*
X235081500Y-89737168D02*
X235090000Y-89745668D01*
D91*
X211500000Y-133700000D02*
X213300000Y-131900000D01*
D88*
X234000000Y-87900000D02*
X234593668Y-87900000D01*
D91*
X211500000Y-139220000D02*
X211500000Y-133700000D01*
D88*
X235790000Y-86770000D02*
X235790000Y-85850000D01*
D91*
X176155000Y-130300000D02*
X177640000Y-130300000D01*
D88*
X233600000Y-86200000D02*
X233600000Y-87500000D01*
%TO.N,VBAT*%
X146790000Y-123260000D02*
X150940000Y-119110000D01*
X163250000Y-123480000D02*
X171880000Y-123480000D01*
X172918500Y-124818500D02*
X173400000Y-125300000D01*
X171880000Y-123480000D02*
X172918500Y-124518500D01*
D87*
X161980000Y-128875000D02*
X161980000Y-124750000D01*
D88*
X172918500Y-124518500D02*
X172918500Y-124818500D01*
X173400000Y-125300000D02*
X176025000Y-125300000D01*
X161990000Y-124740000D02*
X163250000Y-123480000D01*
X150940000Y-119110000D02*
X158345000Y-119110000D01*
X158345000Y-119110000D02*
X161990000Y-122755000D01*
D91*
%TO.N,PD7*%
X200195000Y-146900000D02*
X193170000Y-146900000D01*
X176300000Y-137568400D02*
X176300000Y-136568400D01*
X228965000Y-112065000D02*
X228965000Y-124030000D01*
X228965000Y-124030000D02*
X223735000Y-129260000D01*
X173745000Y-140987164D02*
X176006500Y-138725664D01*
X191370000Y-148700000D02*
X175885000Y-148700000D01*
X207700000Y-133800000D02*
X207700000Y-139395000D01*
X183055600Y-122301687D02*
X183055600Y-123717100D01*
X183055600Y-123717100D02*
X183138500Y-123800000D01*
X173745000Y-146560000D02*
X173745000Y-140987164D01*
X216743000Y-104793000D02*
X225858000Y-104793000D01*
X225858000Y-104793000D02*
X227617676Y-106552676D01*
X175885000Y-148700000D02*
X173745000Y-146560000D01*
D88*
X214800000Y-99322500D02*
X215362500Y-99885000D01*
D91*
X193170000Y-146900000D02*
X191370000Y-148700000D01*
D88*
X215810000Y-99310000D02*
X216000000Y-99120000D01*
D91*
X176006500Y-138725664D02*
X176006500Y-137861900D01*
X227617676Y-106552676D02*
X227656991Y-106552676D01*
D88*
X214800000Y-99310000D02*
X215810000Y-99310000D01*
D91*
X215362500Y-103412500D02*
X216743000Y-104793000D01*
X227585000Y-110685000D02*
X228965000Y-112065000D01*
X212240000Y-129260000D02*
X207700000Y-133800000D01*
X176300000Y-136568400D02*
X176368400Y-136500000D01*
X227585000Y-110300000D02*
X227585000Y-110685000D01*
D88*
X215362500Y-99885000D02*
X215362500Y-103412500D01*
D91*
X176006500Y-137861900D02*
X176300000Y-137568400D01*
X183200000Y-122157287D02*
X183055600Y-122301687D01*
X223735000Y-129260000D02*
X212240000Y-129260000D01*
X207700000Y-139395000D02*
X200195000Y-146900000D01*
X183200000Y-121125000D02*
X183200000Y-122157287D01*
D87*
%TO.N,PE9*%
X184700000Y-135465073D02*
X184864000Y-135301073D01*
X184864000Y-134818927D02*
X184700000Y-134654927D01*
X184864000Y-135301073D02*
X184864000Y-134818927D01*
X184700000Y-134654927D02*
X184700000Y-132700000D01*
X184700000Y-136475000D02*
X184700000Y-135465073D01*
%TO.N,PE8*%
X184200000Y-135065600D02*
X184205600Y-135060000D01*
X184205600Y-135060000D02*
X184207000Y-135060000D01*
X184200000Y-136505000D02*
X184200000Y-135065600D01*
D88*
%TO.N,PC11*%
X196480000Y-100155000D02*
X195775000Y-100155000D01*
D91*
X225320000Y-120580000D02*
X218900000Y-127000000D01*
X187750000Y-122834336D02*
X186323927Y-124260409D01*
D88*
X195775000Y-100155000D02*
X195100000Y-100830000D01*
D91*
X211041629Y-127000000D02*
X204900000Y-133141629D01*
X195190000Y-101537500D02*
X195190000Y-105375000D01*
D88*
X196730000Y-98820000D02*
X196730000Y-99905000D01*
X195100000Y-100830000D02*
X195100000Y-101462500D01*
D91*
X196915000Y-107100000D02*
X222065307Y-107100000D01*
X186323927Y-124260409D02*
X186323927Y-124554563D01*
D88*
X196185000Y-98275000D02*
X196730000Y-98820000D01*
X196730000Y-99905000D02*
X196480000Y-100155000D01*
D91*
X222065307Y-107100000D02*
X222103807Y-107061500D01*
X199625031Y-144079969D02*
X190320031Y-144079969D01*
X204900000Y-133141629D02*
X204900000Y-138805000D01*
X190100000Y-144300000D02*
X190100000Y-144376600D01*
X218900000Y-127000000D02*
X211041629Y-127000000D01*
X204900000Y-138805000D02*
X199625031Y-144079969D01*
D88*
X194590000Y-98365000D02*
X194680000Y-98275000D01*
D91*
X195190000Y-105375000D02*
X196915000Y-107100000D01*
X187750000Y-121205000D02*
X187750000Y-122834336D01*
D88*
X195100000Y-101462500D02*
X195175000Y-101537500D01*
X194680000Y-98275000D02*
X196185000Y-98275000D01*
D91*
X225320000Y-116800000D02*
X225320000Y-120580000D01*
X190320031Y-144079969D02*
X190100000Y-144300000D01*
D87*
%TO.N,SWD_IO*%
X169990000Y-83070000D02*
X169990000Y-83935000D01*
X172240000Y-75460000D02*
X170500000Y-77200000D01*
X170500000Y-82560000D02*
X169990000Y-83070000D01*
X170500000Y-77200000D02*
X170500000Y-82560000D01*
%TO.N,SWD_CLK*%
X171695000Y-76700000D02*
X173540000Y-76700000D01*
X170881000Y-82711000D02*
X170881000Y-77514000D01*
X171345000Y-83175000D02*
X170881000Y-82711000D01*
X170881000Y-77514000D02*
X171695000Y-76700000D01*
X173540000Y-76700000D02*
X174780000Y-75460000D01*
X171345000Y-83745000D02*
X171345000Y-83175000D01*
D88*
%TO.N,PA3*%
X223465000Y-99515000D02*
X223145000Y-99195000D01*
X222070000Y-98365000D02*
X221462500Y-98365000D01*
D91*
X175540000Y-134880000D02*
X175300000Y-135120000D01*
D88*
X222150000Y-98285000D02*
X222070000Y-98365000D01*
D91*
X173145000Y-141067500D02*
X175600000Y-138612500D01*
X228288660Y-106008660D02*
X228323063Y-106008660D01*
X175300000Y-135120000D02*
X175300000Y-135249085D01*
X212366974Y-129600000D02*
X208200000Y-133766974D01*
X226742795Y-104462795D02*
X228288660Y-106008660D01*
X229730000Y-123915000D02*
X224045000Y-129600000D01*
X175865000Y-149300000D02*
X173145000Y-146580000D01*
D88*
X221962500Y-101107500D02*
X222125000Y-100945000D01*
D91*
X208200000Y-133766974D02*
X208200000Y-139361973D01*
X228587168Y-110847832D02*
X228587168Y-110952168D01*
X208200000Y-139361973D02*
X200261973Y-147300000D01*
D88*
X222662500Y-98285000D02*
X222150000Y-98285000D01*
D91*
X222557851Y-104462795D02*
X226742795Y-104462795D01*
X221962500Y-101537500D02*
X221962500Y-103867444D01*
X173145000Y-146580000D02*
X173145000Y-141067500D01*
X175300000Y-135249085D02*
X175678859Y-135627944D01*
X193375000Y-147300000D02*
X191375000Y-149300000D01*
X191375000Y-149300000D02*
X175865000Y-149300000D01*
D88*
X223105000Y-100945000D02*
X223465000Y-100585000D01*
X223465000Y-100585000D02*
X223465000Y-99515000D01*
X222662500Y-98285000D02*
X222662500Y-99195000D01*
D91*
X228587168Y-110952168D02*
X229730000Y-112095000D01*
X175600000Y-138612500D02*
X175600000Y-137289884D01*
D88*
X221962500Y-101537500D02*
X221962500Y-101107500D01*
D91*
X224045000Y-129600000D02*
X212366974Y-129600000D01*
X200261973Y-147300000D02*
X193375000Y-147300000D01*
X221962500Y-103867444D02*
X222557851Y-104462795D01*
X229730000Y-112095000D02*
X229730000Y-123915000D01*
D88*
X223145000Y-99195000D02*
X222662500Y-99195000D01*
X222125000Y-100945000D02*
X223105000Y-100945000D01*
D91*
X175600000Y-137289884D02*
X175668940Y-137220944D01*
%TO.N,PA1*%
X229250554Y-110300544D02*
X230340000Y-111389990D01*
X175620000Y-149800000D02*
X172690000Y-146870000D01*
X172690000Y-146870000D02*
X172690000Y-140810000D01*
D88*
X229920000Y-98620000D02*
X229585000Y-98285000D01*
D91*
X193595000Y-147800000D02*
X191595000Y-149800000D01*
X208700000Y-139350000D02*
X200250000Y-147800000D01*
D88*
X228142500Y-98285000D02*
X228062500Y-98365000D01*
X228955000Y-100155000D02*
X228562500Y-100547500D01*
D91*
X172690000Y-140810000D02*
X174979477Y-138520523D01*
X228562500Y-105273101D02*
X229183000Y-105893601D01*
X177217506Y-132800000D02*
X177481307Y-133063801D01*
X230340000Y-124127500D02*
X224487500Y-129980000D01*
D88*
X229585000Y-98285000D02*
X229262500Y-98285000D01*
D91*
X191595000Y-149800000D02*
X175620000Y-149800000D01*
X174979477Y-138520523D02*
X174979477Y-136634423D01*
X174979477Y-136634423D02*
X175063900Y-136550000D01*
X200250000Y-147800000D02*
X193595000Y-147800000D01*
D88*
X229262500Y-100155000D02*
X229625000Y-100155000D01*
X229262500Y-100155000D02*
X228955000Y-100155000D01*
X228562500Y-100547500D02*
X228562500Y-101537500D01*
X229262500Y-98285000D02*
X228142500Y-98285000D01*
D91*
X212453948Y-129980000D02*
X208700000Y-133733948D01*
X176155000Y-132800000D02*
X177217506Y-132800000D01*
X229183000Y-105893601D02*
X229183000Y-105998053D01*
X224487500Y-129980000D02*
X212453948Y-129980000D01*
D88*
X229920000Y-99860000D02*
X229920000Y-98620000D01*
D91*
X230340000Y-111389990D02*
X230340000Y-124127500D01*
X228562500Y-101537500D02*
X228562500Y-105273101D01*
D88*
X229625000Y-100155000D02*
X229920000Y-99860000D01*
D91*
X208700000Y-133733948D02*
X208700000Y-139350000D01*
%TO.N,PD2*%
X225890000Y-121110000D02*
X225890000Y-116136600D01*
D88*
X194600000Y-86910000D02*
X195610000Y-86910000D01*
D91*
X185700000Y-121967634D02*
X186232366Y-122500000D01*
X199984831Y-144410169D02*
X205500000Y-138895000D01*
X185700000Y-121125000D02*
X185700000Y-121967634D01*
X222695105Y-106500000D02*
X222928051Y-106732946D01*
X197420000Y-93217500D02*
X197420000Y-103885000D01*
D88*
X196210000Y-86720000D02*
X195800000Y-86720000D01*
D91*
X186232366Y-122500000D02*
X186300000Y-122500000D01*
X205500000Y-133045000D02*
X211145000Y-127400000D01*
X219600000Y-127400000D02*
X225890000Y-121110000D01*
D88*
X195190000Y-90987500D02*
X195377500Y-90800000D01*
D91*
X195190000Y-90987500D02*
X197420000Y-93217500D01*
X197420000Y-103885000D02*
X200035000Y-106500000D01*
D88*
X195610000Y-86910000D02*
X195800000Y-86720000D01*
D91*
X205500000Y-138895000D02*
X205500000Y-133045000D01*
D88*
X196825000Y-90275000D02*
X196825000Y-87335000D01*
D91*
X191000000Y-144700000D02*
X191289831Y-144410169D01*
X211145000Y-127400000D02*
X219600000Y-127400000D01*
D88*
X196300000Y-90800000D02*
X196825000Y-90275000D01*
D91*
X225890000Y-116136600D02*
X225803400Y-116050000D01*
D88*
X195377500Y-90800000D02*
X196300000Y-90800000D01*
D91*
X200035000Y-106500000D02*
X222695105Y-106500000D01*
D88*
X196825000Y-87335000D02*
X196210000Y-86720000D01*
D91*
X191289831Y-144410169D02*
X199984831Y-144410169D01*
D87*
%TO.N,PB0*%
X180700000Y-135103027D02*
X180988500Y-134814527D01*
X180700000Y-136475000D02*
X180700000Y-135103027D01*
%TO.N,PA14*%
X177490813Y-122795216D02*
X177490813Y-122251997D01*
X179846583Y-124814000D02*
X178870185Y-123837602D01*
X171700000Y-92900000D02*
X171439000Y-92639000D01*
X178870185Y-123837602D02*
X178533199Y-123837602D01*
X187531000Y-125214000D02*
X185267816Y-125214000D01*
X171439000Y-92639000D02*
X171439000Y-86161000D01*
X172800000Y-112200000D02*
X173100000Y-111900000D01*
X189200000Y-121125000D02*
X189200000Y-123545000D01*
X173100000Y-111900000D02*
X173100000Y-111610500D01*
X171700000Y-113000000D02*
X172500000Y-112200000D01*
X171700000Y-116461184D02*
X171700000Y-92900000D01*
X177490813Y-122251997D02*
X171700000Y-116461184D01*
X184867815Y-124814000D02*
X179846583Y-124814000D01*
X189200000Y-123545000D02*
X187531000Y-125214000D01*
X172500000Y-112200000D02*
X172800000Y-112200000D01*
X171439000Y-86161000D02*
X171500000Y-86100000D01*
X185267816Y-125214000D02*
X184867815Y-124814000D01*
X178533199Y-123837602D02*
X177490813Y-122795216D01*
X171500000Y-86100000D02*
X171500000Y-85525000D01*
%TO.N,PD11*%
X190088300Y-130848200D02*
X189228225Y-130848200D01*
X191375000Y-131300000D02*
X190540101Y-131300000D01*
X188744952Y-130900000D02*
X188623307Y-130778355D01*
X190540101Y-131300000D02*
X190088300Y-130848200D01*
X189176426Y-130900000D02*
X188744952Y-130900000D01*
X189228225Y-130848200D02*
X189176426Y-130900000D01*
%TO.N,PD9*%
X191360000Y-132315000D02*
X190028692Y-132315000D01*
X189658263Y-131944571D02*
X189658263Y-131886400D01*
X190028692Y-132315000D02*
X189658263Y-131944571D01*
D91*
%TO.N,PC10*%
X199280000Y-143745000D02*
X189355000Y-143745000D01*
X204400000Y-132990000D02*
X204400000Y-138625000D01*
X218400000Y-126400000D02*
X210990000Y-126400000D01*
D88*
X223632500Y-113457500D02*
X224812500Y-113457500D01*
X224812500Y-113457500D02*
X224977500Y-113292500D01*
X224012500Y-111040000D02*
X224102500Y-110950000D01*
X224977500Y-113292500D02*
X224977500Y-112087500D01*
X224102500Y-111870000D02*
X224102500Y-110950000D01*
D91*
X188250000Y-123195391D02*
X187145391Y-124300000D01*
X189355000Y-143745000D02*
X189000000Y-144100000D01*
D88*
X224977500Y-112087500D02*
X224760000Y-111870000D01*
X223402500Y-113687500D02*
X223632500Y-113457500D01*
D91*
X223402500Y-121397500D02*
X218400000Y-126400000D01*
D88*
X223402500Y-114212500D02*
X223402500Y-113687500D01*
D91*
X223402500Y-114212500D02*
X223402500Y-121397500D01*
X210990000Y-126400000D02*
X204400000Y-132990000D01*
X204400000Y-138625000D02*
X199280000Y-143745000D01*
X188250000Y-121205000D02*
X188250000Y-123195391D01*
D88*
X222802500Y-111040000D02*
X224012500Y-111040000D01*
X224760000Y-111870000D02*
X224102500Y-111870000D01*
D91*
%TO.N,PC3*%
X226140000Y-131060000D02*
X236800000Y-120400000D01*
X236150000Y-94000000D02*
X237615000Y-95465000D01*
X212940000Y-131060000D02*
X226140000Y-131060000D01*
X177887028Y-131300000D02*
X178400000Y-131300000D01*
X177051376Y-131300000D02*
X177207584Y-131143792D01*
X210300000Y-133700000D02*
X212940000Y-131060000D01*
X236800000Y-120400000D02*
X236800000Y-110500000D01*
X221890000Y-92395000D02*
X223495000Y-94000000D01*
D88*
X221800000Y-87300000D02*
X222380000Y-86720000D01*
D91*
X200407000Y-149213000D02*
X210300000Y-139320000D01*
D88*
X222310000Y-86910000D02*
X222500000Y-86720000D01*
D91*
X223495000Y-94000000D02*
X236150000Y-94000000D01*
X221890000Y-89112500D02*
X221890000Y-92395000D01*
X177730820Y-131143792D02*
X177887028Y-131300000D01*
X196869500Y-149213000D02*
X200407000Y-149213000D01*
X178400000Y-131300000D02*
X178500000Y-131400000D01*
D88*
X221800000Y-87300000D02*
X221800000Y-89062500D01*
D91*
X196100000Y-149982500D02*
X196869500Y-149213000D01*
X237615000Y-95465000D02*
X237615000Y-105285000D01*
X210300000Y-139320000D02*
X210300000Y-133700000D01*
X177207584Y-131143792D02*
X177730820Y-131143792D01*
D88*
X221200000Y-86910000D02*
X222310000Y-86910000D01*
D91*
X237615000Y-105285000D02*
X236900000Y-106000000D01*
X176025000Y-131300000D02*
X177051376Y-131300000D01*
D88*
%TO.N,OSC_IN*%
X172145000Y-130055000D02*
X173910000Y-128290000D01*
X173910000Y-128290000D02*
X176016000Y-128290000D01*
D91*
%TO.N,PC2*%
X231887500Y-89112500D02*
X238055000Y-95280000D01*
X210900000Y-133700000D02*
X213100000Y-131500000D01*
D88*
X228490000Y-89112500D02*
X229324000Y-88278500D01*
D91*
X237700000Y-120400000D02*
X237700000Y-111500000D01*
X238055000Y-106245000D02*
X237700000Y-106600000D01*
X176030000Y-130805000D02*
X176140000Y-130695000D01*
D88*
X229190000Y-86770000D02*
X229190000Y-85850000D01*
D91*
X200070000Y-150100000D02*
X210900000Y-139270000D01*
X226600000Y-131500000D02*
X237700000Y-120400000D01*
D88*
X229190000Y-85850000D02*
X227980000Y-85850000D01*
D91*
X197600000Y-150100000D02*
X200070000Y-150100000D01*
D88*
X229900000Y-87055000D02*
X229615000Y-86770000D01*
X229615000Y-86770000D02*
X229190000Y-86770000D01*
X229900000Y-87842298D02*
X229900000Y-87055000D01*
X227980000Y-85850000D02*
X227890000Y-85940000D01*
D91*
X178405000Y-130695000D02*
X178500000Y-130600000D01*
X228490000Y-89112500D02*
X231887500Y-89112500D01*
X238055000Y-95280000D02*
X238055000Y-106245000D01*
X176140000Y-130695000D02*
X178405000Y-130695000D01*
X210900000Y-139270000D02*
X210900000Y-133700000D01*
X213100000Y-131500000D02*
X226600000Y-131500000D01*
D88*
X229324000Y-88278500D02*
X229463798Y-88278500D01*
X229463798Y-88278500D02*
X229900000Y-87842298D01*
%TO.N,PD3*%
X201662500Y-98365000D02*
X201742500Y-98285000D01*
D91*
X220500000Y-127800000D02*
X211400000Y-127800000D01*
D88*
X202800000Y-100100000D02*
X201090000Y-100100000D01*
D91*
X206000000Y-139000000D02*
X200110000Y-144890000D01*
X223651854Y-106113800D02*
X224242051Y-106703997D01*
X192200001Y-144890000D02*
X192031266Y-145058735D01*
X202162500Y-103412500D02*
X202162500Y-105132618D01*
D88*
X201090000Y-100100000D02*
X200910000Y-99920000D01*
D91*
X203143682Y-106113800D02*
X223651854Y-106113800D01*
X206000000Y-133200000D02*
X206000000Y-139000000D01*
X185692638Y-122427246D02*
X185692638Y-123208657D01*
D88*
X202100000Y-100800000D02*
X202100000Y-103337500D01*
D91*
X202162500Y-105132618D02*
X203143682Y-106113800D01*
X226400000Y-115300000D02*
X226435000Y-115335000D01*
D88*
X201065000Y-98365000D02*
X201662500Y-98365000D01*
D91*
X185200000Y-121125000D02*
X185200000Y-121934608D01*
D88*
X200910000Y-99920000D02*
X200910000Y-98520000D01*
X201742500Y-98285000D02*
X202862500Y-98285000D01*
D91*
X226435000Y-121865000D02*
X220500000Y-127800000D01*
X185200000Y-121934608D02*
X185692638Y-122427246D01*
D88*
X202100000Y-100800000D02*
X202800000Y-100100000D01*
D91*
X211400000Y-127800000D02*
X206000000Y-133200000D01*
X226435000Y-115335000D02*
X226435000Y-121865000D01*
D88*
X200910000Y-98520000D02*
X201065000Y-98365000D01*
D91*
X200110000Y-144890000D02*
X192200001Y-144890000D01*
%TO.N,PF2*%
X237205000Y-103895000D02*
X235900000Y-105200000D01*
D88*
X215200000Y-87470000D02*
X214690000Y-86960000D01*
D91*
X176095000Y-131900000D02*
X177394319Y-131900000D01*
X218143200Y-94643200D02*
X236043200Y-94643200D01*
X177394319Y-131900000D02*
X177469202Y-131825117D01*
D88*
X215710000Y-86910000D02*
X215900000Y-86720000D01*
D91*
X209800000Y-133567896D02*
X212702896Y-130665000D01*
D88*
X215200000Y-90937500D02*
X215200000Y-87470000D01*
D91*
X176075000Y-131880000D02*
X176095000Y-131900000D01*
X200220000Y-148800000D02*
X200474800Y-148545200D01*
X236000000Y-120300000D02*
X236000000Y-111400000D01*
X215290000Y-90987500D02*
X215290000Y-91790000D01*
D88*
X214600000Y-86910000D02*
X215710000Y-86910000D01*
D91*
X236043200Y-94643200D02*
X237205000Y-95805000D01*
X235900000Y-105200000D02*
X235900000Y-105600000D01*
X200474800Y-148545200D02*
X200496774Y-148545200D01*
X212702896Y-130665000D02*
X225635000Y-130665000D01*
X237205000Y-95805000D02*
X237205000Y-103895000D01*
X225635000Y-130665000D02*
X236000000Y-120300000D01*
X177469202Y-131825117D02*
X177469202Y-131775392D01*
X209800000Y-139241974D02*
X209800000Y-133567896D01*
X215290000Y-91790000D02*
X218143200Y-94643200D01*
X195200000Y-149500000D02*
X195900000Y-148800000D01*
X195900000Y-148800000D02*
X200220000Y-148800000D01*
X200496774Y-148545200D02*
X209800000Y-139241974D01*
D87*
%TO.N,PB1*%
X181600000Y-134293218D02*
X181696609Y-134196609D01*
X181250000Y-136555000D02*
X181250000Y-135398994D01*
X181600000Y-135048994D02*
X181600000Y-134293218D01*
X181250000Y-135398994D02*
X181600000Y-135048994D01*
D88*
%TO.N,PD4*%
X203600000Y-90400000D02*
X203600000Y-87200000D01*
D91*
X207230000Y-97885000D02*
X207230000Y-105250000D01*
X202090000Y-90987500D02*
X202090000Y-92745000D01*
D88*
X202510000Y-86910000D02*
X202700000Y-86720000D01*
D91*
X221440000Y-128260000D02*
X211640000Y-128260000D01*
D88*
X203300000Y-90700000D02*
X203600000Y-90400000D01*
D91*
X192921800Y-145500000D02*
X192900000Y-145521800D01*
X227025000Y-113125000D02*
X227025000Y-122675000D01*
X202090000Y-92745000D02*
X207230000Y-97885000D01*
X206400000Y-133500000D02*
X206400000Y-139185000D01*
D88*
X201500000Y-86910000D02*
X202510000Y-86910000D01*
X202377500Y-90700000D02*
X203300000Y-90700000D01*
X202090000Y-90987500D02*
X202377500Y-90700000D01*
D91*
X227025000Y-122675000D02*
X221440000Y-128260000D01*
X184700000Y-121125000D02*
X184700000Y-122327826D01*
X206400000Y-139185000D02*
X200085000Y-145500000D01*
X225200000Y-111300000D02*
X227025000Y-113125000D01*
X224348600Y-105783600D02*
X225097287Y-106532287D01*
X200085000Y-145500000D02*
X192921800Y-145500000D01*
X207763600Y-105783600D02*
X224348600Y-105783600D01*
X225097287Y-106532287D02*
X225097287Y-106794416D01*
X211640000Y-128260000D02*
X206400000Y-133500000D01*
X207230000Y-105250000D02*
X207763600Y-105783600D01*
D88*
X203600000Y-87200000D02*
X203120000Y-86720000D01*
D91*
X184700000Y-122327826D02*
X184936087Y-122563913D01*
D88*
X203120000Y-86720000D02*
X202742298Y-86720000D01*
D91*
%TO.N,PD6*%
X192850000Y-146500000D02*
X191050000Y-148300000D01*
X227000000Y-110900000D02*
X228350000Y-112250000D01*
X212403200Y-105123200D02*
X225278200Y-105123200D01*
X183700000Y-122819814D02*
X183619814Y-122900000D01*
X228350000Y-123850000D02*
X223270200Y-128929800D01*
X211485000Y-93782500D02*
X211485000Y-104205000D01*
X207300000Y-139328026D02*
X200128026Y-146500000D01*
X174235000Y-140965000D02*
X176676321Y-138523679D01*
D88*
X208680000Y-86720000D02*
X208490000Y-86910000D01*
D91*
X200128026Y-146500000D02*
X192850000Y-146500000D01*
D88*
X208600000Y-87765000D02*
X208600000Y-90897500D01*
X208000000Y-86910000D02*
X208000000Y-87165000D01*
D91*
X223270200Y-128929800D02*
X212070204Y-128929800D01*
X225278200Y-105123200D02*
X226808614Y-106653614D01*
X176676321Y-138523679D02*
X176676321Y-138000000D01*
X183700000Y-121125000D02*
X183700000Y-122819814D01*
X228350000Y-112250000D02*
X228350000Y-123850000D01*
X208690000Y-90987500D02*
X211485000Y-93782500D01*
X207300000Y-133700004D02*
X207300000Y-139328026D01*
X212070204Y-128929800D02*
X207300000Y-133700004D01*
X191050000Y-148300000D02*
X176180000Y-148300000D01*
X211485000Y-104205000D02*
X212403200Y-105123200D01*
D88*
X208000000Y-87165000D02*
X208600000Y-87765000D01*
D91*
X174235000Y-146355000D02*
X174235000Y-140965000D01*
X176180000Y-148300000D02*
X174235000Y-146355000D01*
D88*
X208490000Y-86910000D02*
X208000000Y-86910000D01*
X209300000Y-86720000D02*
X208680000Y-86720000D01*
D91*
X226808614Y-106653614D02*
X226808614Y-106693607D01*
D87*
%TO.N,PE7*%
X183550000Y-135332139D02*
X183550000Y-134787861D01*
X183550000Y-134787861D02*
X183700000Y-134637861D01*
X183700000Y-136475000D02*
X183700000Y-135482139D01*
X183700000Y-135482139D02*
X183550000Y-135332139D01*
X183700000Y-134637861D02*
X183700000Y-133900000D01*
X183700000Y-133900000D02*
X183600000Y-133800000D01*
%TO.N,PB14*%
X191425000Y-133858000D02*
X188994826Y-133858000D01*
X188994826Y-133858000D02*
X188600000Y-133463174D01*
X188600000Y-133463174D02*
X188600000Y-133200000D01*
%TO.N,PB11*%
X189700000Y-136910000D02*
X189955000Y-137165000D01*
X189955000Y-137165000D02*
X190560000Y-137165000D01*
%TO.N,PD10*%
X189065677Y-131549564D02*
X188417170Y-131549564D01*
X190501285Y-131800000D02*
X189930485Y-131229200D01*
X189930485Y-131229200D02*
X189386041Y-131229200D01*
X189386041Y-131229200D02*
X189065677Y-131549564D01*
X191375000Y-131800000D02*
X190501285Y-131800000D01*
%TO.N,PA13*%
X169778000Y-111500000D02*
X169667500Y-111610500D01*
X187688816Y-125595000D02*
X189700000Y-123583816D01*
X170300000Y-111500000D02*
X169778000Y-111500000D01*
X170550000Y-111750000D02*
X170300000Y-111500000D01*
X189700000Y-123583816D02*
X189700000Y-121125000D01*
X178712370Y-124218602D02*
X179688768Y-125195000D01*
X179688768Y-125195000D02*
X184710000Y-125195000D01*
X177109813Y-122409813D02*
X177109813Y-122954950D01*
X170700000Y-116000000D02*
X177109813Y-122409813D01*
X178373465Y-124218602D02*
X178712370Y-124218602D01*
X185110000Y-125595000D02*
X187688816Y-125595000D01*
X184710000Y-125195000D02*
X185110000Y-125595000D01*
X177109813Y-122954950D02*
X178373465Y-124218602D01*
X169667500Y-111610500D02*
X169300000Y-111610500D01*
X169995000Y-85590000D02*
X170700000Y-86295000D01*
X170700000Y-86295000D02*
X170700000Y-116000000D01*
%TO.N,PC6*%
X189700000Y-127800000D02*
X189200000Y-127300000D01*
X197930000Y-116100000D02*
X195660000Y-116100000D01*
X191161749Y-120598251D02*
X191161749Y-121400000D01*
X191375000Y-127800000D02*
X189700000Y-127800000D01*
X195660000Y-116100000D02*
X191161749Y-120598251D01*
D88*
%TO.N,Net-(Y1-TRI-STATE)*%
X167940000Y-131510000D02*
X168080000Y-131510000D01*
X168080000Y-131510000D02*
X168325000Y-131755000D01*
X167775000Y-131345000D02*
X167940000Y-131510000D01*
X168325000Y-131755000D02*
X169900000Y-131755000D01*
%TO.N,+3.3VA*%
X183220000Y-138479999D02*
X183390001Y-138650000D01*
X185175000Y-139285000D02*
X184540000Y-138650000D01*
X183220000Y-136475000D02*
X183220000Y-138479999D01*
X185175000Y-139660000D02*
X185175000Y-139285000D01*
X184540000Y-138650000D02*
X183700000Y-138650000D01*
D87*
X183700000Y-138650000D02*
X183555000Y-138650000D01*
D88*
X183390001Y-138650000D02*
X183700000Y-138650000D01*
%TO.N,+3V3*%
X177751546Y-119366840D02*
X177256840Y-119366840D01*
X222540000Y-91520000D02*
X222540000Y-90987500D01*
X213030000Y-114815000D02*
X213050000Y-114795000D01*
X199010000Y-130255000D02*
X199570000Y-130815000D01*
D87*
X143130000Y-139755000D02*
X143740000Y-139145000D01*
D90*
X144735000Y-139875000D02*
X144005000Y-139145000D01*
D88*
X192677269Y-122629500D02*
X192988202Y-122629500D01*
X178905000Y-116005000D02*
X178905000Y-117470000D01*
X189200000Y-136475000D02*
X189200000Y-137333572D01*
X177740000Y-119378386D02*
X177751546Y-119366840D01*
X187800000Y-139600000D02*
X188200000Y-140000000D01*
X222910000Y-103710000D02*
X223660000Y-103710000D01*
X214300000Y-103465000D02*
X214650000Y-103115000D01*
X215990000Y-84675028D02*
X216393491Y-84271537D01*
X189380000Y-138820000D02*
X188200000Y-140000000D01*
X216062500Y-96707500D02*
X214855000Y-95500000D01*
X199830000Y-114795000D02*
X199845000Y-114780000D01*
X178500000Y-115600000D02*
X178905000Y-116005000D01*
X183025000Y-98125000D02*
X183025000Y-99795000D01*
X169900000Y-130030000D02*
X170640000Y-130030000D01*
X224052500Y-116087500D02*
X224052500Y-115092500D01*
X222680000Y-91660000D02*
X222540000Y-91520000D01*
X193230000Y-114675764D02*
X193232864Y-114672900D01*
X214650000Y-103115000D02*
X214650000Y-101462500D01*
X206430000Y-116100000D02*
X206430000Y-115014900D01*
X171025000Y-132775000D02*
X170145000Y-133655000D01*
X169815000Y-135140000D02*
X170104942Y-134850058D01*
X194450000Y-89062500D02*
X194450000Y-91740334D01*
X222612500Y-103412500D02*
X222910000Y-103710000D01*
X190725000Y-97135000D02*
X191660000Y-96200000D01*
X194734900Y-127499900D02*
X195000000Y-127765000D01*
X176840000Y-118950000D02*
X176840000Y-118050000D01*
D90*
X139650000Y-106170000D02*
X139650000Y-123710000D01*
D88*
X175315000Y-99950000D02*
X175425000Y-99840000D01*
X201440000Y-89112500D02*
X201440000Y-90034594D01*
X214640000Y-89112500D02*
X213695000Y-90057500D01*
X167120000Y-125620000D02*
X167650000Y-125620000D01*
X209462500Y-97265000D02*
X209462500Y-95937500D01*
X189400000Y-137533572D02*
X189400000Y-138480000D01*
X167775000Y-130325000D02*
X167980000Y-130325000D01*
X170145000Y-133655000D02*
X169170000Y-133655000D01*
D87*
X143115000Y-139755000D02*
X143130000Y-139755000D01*
D88*
X209462500Y-95937500D02*
X209450000Y-95925000D01*
X235812500Y-102487500D02*
X235830000Y-102470000D01*
X208112500Y-104497500D02*
X208110000Y-104500000D01*
X183025000Y-99795000D02*
X182870000Y-99950000D01*
X175270000Y-99950000D02*
X175315000Y-99950000D01*
X193075001Y-128290000D02*
X193865101Y-127499900D01*
X188700000Y-140500000D02*
X188200000Y-140000000D01*
X223125000Y-91660000D02*
X222680000Y-91660000D01*
X167655000Y-125615000D02*
X170815000Y-125615000D01*
X177691000Y-121204000D02*
X177691000Y-120054180D01*
D90*
X148440000Y-132500000D02*
X150025000Y-132500000D01*
D88*
X209450000Y-95925000D02*
X209450000Y-95819000D01*
X150035000Y-140660000D02*
X150035000Y-134535000D01*
X216062500Y-97265000D02*
X216062500Y-96707500D01*
X183025000Y-96813094D02*
X182953453Y-96741547D01*
X152875000Y-142200000D02*
X151575000Y-142200000D01*
X208112500Y-101537500D02*
X208112500Y-104497500D01*
X209390000Y-84840000D02*
X209390000Y-84090000D01*
D90*
X139530000Y-106050000D02*
X139650000Y-106170000D01*
D88*
X201840000Y-130255000D02*
X197490000Y-130255000D01*
X201512500Y-101537500D02*
X201512500Y-104312500D01*
X201950000Y-130145000D02*
X203225000Y-130145000D01*
X234440000Y-89112500D02*
X234440000Y-89973110D01*
X214855000Y-95500000D02*
X214800000Y-95500000D01*
X178905000Y-117470000D02*
X179370000Y-117935000D01*
X201440000Y-90034594D02*
X201357308Y-90117286D01*
X177691000Y-120054180D02*
X177740000Y-120005180D01*
X224052500Y-115092500D02*
X225830000Y-113315000D01*
X223435000Y-85675000D02*
X222590000Y-84830000D01*
X190725000Y-98125000D02*
X190725000Y-97135000D01*
X201950000Y-130145000D02*
X201840000Y-130255000D01*
X235812500Y-103412500D02*
X235812500Y-102487500D01*
X216393491Y-84271537D02*
X216501537Y-84271537D01*
X139840000Y-106360000D02*
X140492500Y-106360000D01*
X199405150Y-133096888D02*
X199405150Y-131294850D01*
X202790000Y-84401672D02*
X202329812Y-83941484D01*
X195840000Y-103412500D02*
X195840000Y-104560000D01*
X190725000Y-99795000D02*
X190570000Y-99950000D01*
X177256840Y-119366840D02*
X176840000Y-118950000D01*
X175425000Y-99840000D02*
X175425000Y-98125000D01*
X207950000Y-91080000D02*
X207820000Y-91210000D01*
X191425000Y-122790000D02*
X192516769Y-122790000D01*
X174182298Y-134300000D02*
X176025000Y-134300000D01*
X222540000Y-89865000D02*
X223435000Y-88970000D01*
X193865101Y-127499900D02*
X194734900Y-127499900D01*
X189200000Y-137333572D02*
X189400000Y-137533572D01*
D87*
X142595000Y-140275000D02*
X143115000Y-139755000D01*
D88*
X194187702Y-121430000D02*
X194680000Y-121430000D01*
D90*
X139650000Y-123710000D02*
X148440000Y-132500000D01*
D88*
X229212500Y-104512500D02*
X229215000Y-104515000D01*
X194904666Y-92195000D02*
X195375000Y-92195000D01*
X166585000Y-132205000D02*
X167720000Y-132205000D01*
X215990000Y-84840000D02*
X215990000Y-84675028D01*
X173632240Y-134850058D02*
X174182298Y-134300000D01*
X223435000Y-88970000D02*
X223435000Y-85675000D01*
X195840000Y-104560000D02*
X195835000Y-104565000D01*
X216501537Y-84271537D02*
X216554570Y-84324570D01*
X189380000Y-138500000D02*
X189380000Y-138820000D01*
X190725000Y-98125000D02*
X190725000Y-99795000D01*
X188700000Y-141090000D02*
X188700000Y-140500000D01*
X166565000Y-127995000D02*
X166565000Y-126175000D01*
X167290000Y-128720000D02*
X166565000Y-127995000D01*
X167730000Y-128720000D02*
X167290000Y-128720000D01*
X175425000Y-96605000D02*
X175420000Y-96600000D01*
X194450000Y-91740334D02*
X194904666Y-92195000D01*
X166565000Y-126175000D02*
X167120000Y-125620000D01*
X197490000Y-130255000D02*
X195000000Y-127765000D01*
X171025000Y-130415000D02*
X171025000Y-132775000D01*
X151575000Y-142200000D02*
X150035000Y-140660000D01*
X170104942Y-134850058D02*
X173632240Y-134850058D01*
X207950000Y-89062500D02*
X207950000Y-91080000D01*
X199405150Y-131294850D02*
X199570000Y-131130000D01*
X199830000Y-116100000D02*
X199830000Y-114795000D01*
X167720000Y-132205000D02*
X169170000Y-133655000D01*
X192988202Y-122629500D02*
X194187702Y-121430000D01*
D90*
X144005000Y-139145000D02*
X143740000Y-139145000D01*
D88*
X223340000Y-91445000D02*
X223125000Y-91660000D01*
X177740000Y-120005180D02*
X177740000Y-119378386D01*
X219630000Y-116100000D02*
X219630000Y-114790000D01*
X229212500Y-103412500D02*
X229212500Y-104512500D01*
X170640000Y-130030000D02*
X171025000Y-130415000D01*
X223340000Y-90930000D02*
X223340000Y-91445000D01*
X195890000Y-84840000D02*
X195890000Y-83960000D01*
X175425000Y-98125000D02*
X175425000Y-96605000D01*
X186875000Y-139600000D02*
X187800000Y-139600000D01*
X213695000Y-90057500D02*
X213695000Y-90355000D01*
X140492500Y-106360000D02*
X141092500Y-105760000D01*
X168275000Y-130030000D02*
X169900000Y-130030000D01*
X191425000Y-128290000D02*
X193075001Y-128290000D01*
X198915000Y-130255000D02*
X199010000Y-130255000D01*
X192516769Y-122790000D02*
X192677269Y-122629500D01*
X206430000Y-115014900D02*
X206195100Y-114780000D01*
X167980000Y-130325000D02*
X168275000Y-130030000D01*
X213030000Y-116100000D02*
X213030000Y-114815000D01*
X229100000Y-92900000D02*
X229300000Y-93100000D01*
X209390000Y-84090000D02*
X209200000Y-83900000D01*
X201512500Y-104312500D02*
X201600000Y-104400000D01*
X234440000Y-89973110D02*
X234271400Y-90141710D01*
X193230000Y-116100000D02*
X193230000Y-114675764D01*
X222540000Y-90987500D02*
X222540000Y-89865000D01*
X229100000Y-90987500D02*
X229100000Y-92900000D01*
X170815000Y-125615000D02*
X170819999Y-125619999D01*
X183025000Y-98125000D02*
X183025000Y-96813094D01*
X202790000Y-84840000D02*
X202790000Y-84401672D01*
X139530000Y-106050000D02*
X139840000Y-106360000D01*
%TO.N,+5V*%
X216680000Y-136395000D02*
X215945000Y-136395000D01*
D89*
X122000000Y-132575000D02*
X123525000Y-134100000D01*
D87*
X133870000Y-120130058D02*
X133870000Y-118895000D01*
D89*
X128350000Y-132050000D02*
X127825000Y-132575000D01*
D88*
X218675000Y-139950000D02*
X219205000Y-140480000D01*
D90*
X223190000Y-147910000D02*
X223600000Y-147500000D01*
D89*
X123525000Y-134100000D02*
X124200000Y-134100000D01*
D92*
X238067500Y-141947500D02*
X238065000Y-141950000D01*
X238067500Y-140050000D02*
X238067500Y-141947500D01*
D87*
X133870000Y-118895000D02*
X132975000Y-118000000D01*
D88*
X226417500Y-138537500D02*
X226417500Y-139852500D01*
D90*
X218660000Y-147900000D02*
X220390000Y-147900000D01*
D87*
X132063134Y-118000000D02*
X131868622Y-118194512D01*
X131868622Y-118194512D02*
X131307013Y-118194512D01*
D88*
X216250000Y-139950000D02*
X216100000Y-139800000D01*
X217550000Y-139950000D02*
X216250000Y-139950000D01*
X217380000Y-135695000D02*
X216680000Y-136395000D01*
D89*
X129800000Y-132050000D02*
X128350000Y-132050000D01*
D88*
X217805000Y-139950000D02*
X218675000Y-139950000D01*
X219205000Y-140480000D02*
X219205000Y-141295000D01*
D87*
X131307013Y-118194512D02*
X130437500Y-117324999D01*
D89*
X125800000Y-132575000D02*
X122000000Y-132575000D01*
D87*
X130437500Y-117324999D02*
X130437500Y-117175000D01*
X139805000Y-132980000D02*
X139805000Y-126065058D01*
D90*
X220400000Y-147910000D02*
X223190000Y-147910000D01*
D88*
X217380000Y-135695000D02*
X216110000Y-135695000D01*
X226435000Y-139870000D02*
X226435000Y-140200000D01*
D87*
X139805000Y-126065058D02*
X133870000Y-120130058D01*
D92*
X234317500Y-140050000D02*
X234317499Y-141960000D01*
D89*
X133500000Y-136000000D02*
X133500000Y-133850000D01*
X127825000Y-132575000D02*
X125800000Y-132575000D01*
D88*
X226435000Y-140200000D02*
X227545000Y-141310000D01*
D89*
X133500000Y-133850000D02*
X131700000Y-132050000D01*
D88*
X226417500Y-139852500D02*
X226435000Y-139870000D01*
X216110000Y-135695000D02*
X215540000Y-135125000D01*
D87*
X132975000Y-118000000D02*
X132063134Y-118000000D01*
D88*
X230850000Y-138537500D02*
X230849999Y-139884999D01*
D89*
X131700000Y-132050000D02*
X129800000Y-132050000D01*
D90*
%TO.N,+24V*%
X134600000Y-87600000D02*
X135050000Y-87600000D01*
X140860000Y-93410000D02*
X140860000Y-100270000D01*
X135050000Y-87600000D02*
X140860000Y-93410000D01*
D88*
%TO.N,Net-(U18-+)*%
X142760000Y-101955000D02*
X142545000Y-102170000D01*
X143580000Y-104480000D02*
X142500000Y-104480000D01*
X143925000Y-104825000D02*
X143580000Y-104480000D01*
X142760000Y-100270000D02*
X142760000Y-101955000D01*
X143925000Y-106650000D02*
X143925000Y-104825000D01*
X142992500Y-108460000D02*
X142992500Y-107582500D01*
X142545000Y-102170000D02*
X142545000Y-103675000D01*
X142992500Y-107582500D02*
X143925000Y-106650000D01*
X142250000Y-104230000D02*
X142250000Y-103970000D01*
X142545000Y-103675000D02*
X142250000Y-103970000D01*
X142500000Y-104480000D02*
X142250000Y-104230000D01*
D87*
%TO.N,SPEED_SENS_2*%
X197870000Y-110440000D02*
X200610000Y-107700000D01*
X217960000Y-75460000D02*
X217960000Y-74650000D01*
X200610000Y-107700000D02*
X238500000Y-107700000D01*
X239800000Y-106400000D02*
X239800000Y-104000000D01*
X217960000Y-74650000D02*
X218610000Y-74000000D01*
X218610000Y-74000000D02*
X223700000Y-74000000D01*
X238500000Y-107700000D02*
X239800000Y-106400000D01*
D90*
%TO.N,OUT_HSO_2*%
X158947500Y-94340000D02*
X156540000Y-94340000D01*
X156540000Y-94340000D02*
X153770000Y-91570000D01*
X153770000Y-91570000D02*
X153770000Y-78010000D01*
%TO.N,OUT_HSO_3*%
X154730000Y-99340000D02*
X151860000Y-96470000D01*
X151860000Y-96470000D02*
X151860000Y-78640000D01*
X151860000Y-78640000D02*
X151220000Y-78000000D01*
X158947500Y-99340000D02*
X154730000Y-99340000D01*
%TO.N,OUT_HSO_4*%
X150940000Y-80260000D02*
X148680000Y-78000000D01*
X158937500Y-104350000D02*
X154350000Y-104350000D01*
X150940000Y-100940000D02*
X150940000Y-80260000D01*
X154350000Y-104350000D02*
X150940000Y-100940000D01*
%TO.N,Net-(HSO1-A)*%
X160852500Y-89340000D02*
X162562500Y-89340000D01*
%TO.N,OUT_HSO_5*%
X149840000Y-105780000D02*
X149840000Y-81700000D01*
X149840000Y-81700000D02*
X146140000Y-78000000D01*
X153400000Y-109340000D02*
X149840000Y-105780000D01*
X158947500Y-109340000D02*
X153400000Y-109340000D01*
%TO.N,OUT_HSO_6*%
X158947500Y-114340000D02*
X154580000Y-114340000D01*
X148740000Y-83140000D02*
X143600000Y-78000000D01*
X148740000Y-108500000D02*
X148740000Y-83140000D01*
X154580000Y-114340000D02*
X148740000Y-108500000D01*
%TO.N,Net-(HSO2-A)*%
X162562500Y-94340000D02*
X160852500Y-94340000D01*
%TO.N,Net-(Q4-D)*%
X161942500Y-86112500D02*
X161960000Y-86130000D01*
X157930000Y-86112500D02*
X161942500Y-86112500D01*
D87*
%TO.N,IN_HSO_1*%
X170100000Y-88350000D02*
X170100000Y-105300000D01*
X169475000Y-87725000D02*
X170100000Y-88350000D01*
X173796556Y-122674370D02*
X173796556Y-122576541D01*
X174002186Y-122880000D02*
X173796556Y-122674370D01*
X176075000Y-122880000D02*
X174002186Y-122880000D01*
X167975000Y-87725000D02*
X169475000Y-87725000D01*
D90*
%TO.N,Net-(Q5-D)*%
X161917500Y-91112500D02*
X161930000Y-91100000D01*
X157930000Y-91112500D02*
X161917500Y-91112500D01*
D87*
%TO.N,IN_HSO_2*%
X169300000Y-94200000D02*
X169300000Y-103000000D01*
X176075000Y-123380000D02*
X173325860Y-123380000D01*
X173325860Y-123380000D02*
X172879537Y-122933677D01*
X167825000Y-92725000D02*
X169300000Y-94200000D01*
D90*
%TO.N,Net-(Q6-G)*%
X155340000Y-91120000D02*
X156902500Y-91120000D01*
X156910000Y-91432499D02*
X157827501Y-92350000D01*
X157827501Y-92350000D02*
X161930000Y-92350000D01*
X156910000Y-91112500D02*
X156910000Y-91432499D01*
D87*
%TO.N,IN_HSO_3*%
X177400000Y-123800000D02*
X179200000Y-125600000D01*
X167750000Y-97695000D02*
X168700000Y-98645000D01*
X176025000Y-123800000D02*
X177400000Y-123800000D01*
X168700000Y-98645000D02*
X168700000Y-101500000D01*
D90*
%TO.N,Net-(Q9-D)*%
X157540000Y-100990000D02*
X161900000Y-100990000D01*
X161900000Y-100990000D02*
X161920000Y-100970000D01*
D87*
%TO.N,IN_HSO_4*%
X176935489Y-124300000D02*
X178835489Y-126200000D01*
X176025000Y-124300000D02*
X176935489Y-124300000D01*
X178835489Y-126200000D02*
X179900000Y-126200000D01*
D90*
%TO.N,Net-(Q10-G)*%
X161870000Y-102310000D02*
X161900000Y-102280000D01*
X154950000Y-101010000D02*
X156500000Y-101010000D01*
X156520000Y-100990000D02*
X156520000Y-101540000D01*
X156500000Y-101010000D02*
X156520000Y-100990000D01*
X157290000Y-102310000D02*
X161870000Y-102310000D01*
X156520000Y-101540000D02*
X157290000Y-102310000D01*
D87*
%TO.N,IN_HSO_5*%
X178920353Y-126895353D02*
X176825000Y-124800000D01*
X179200000Y-127000000D02*
X179095353Y-126895353D01*
X176825000Y-124800000D02*
X176128500Y-124800000D01*
X179095353Y-126895353D02*
X178920353Y-126895353D01*
%TO.N,IN_HSO_6*%
X178385353Y-127175946D02*
X178385353Y-127150353D01*
X179009407Y-127800000D02*
X178385353Y-127175946D01*
X177035000Y-125800000D02*
X176025000Y-125800000D01*
X178385353Y-127150353D02*
X177035000Y-125800000D01*
X179100000Y-127800000D02*
X179009407Y-127800000D01*
%TO.N,HVIL_MEAS*%
X178200000Y-138500000D02*
X177900000Y-138800000D01*
X178200000Y-136475000D02*
X178200000Y-138500000D01*
%TO.N,I2C3_SDA*%
X191375000Y-126300000D02*
X199630000Y-126300000D01*
X199630000Y-126300000D02*
X201310000Y-127980000D01*
X203215150Y-133096888D02*
X203215150Y-131174850D01*
X203230000Y-134790000D02*
X203230000Y-133111738D01*
%TO.N,I2C3_SCL*%
X191375000Y-126800000D02*
X199190000Y-126800000D01*
X199190000Y-126800000D02*
X201185000Y-128795000D01*
X201945150Y-134795150D02*
X201950000Y-134800000D01*
X201945150Y-133096888D02*
X201945150Y-131169850D01*
X201945150Y-133096888D02*
X201945150Y-134795150D01*
D88*
%TO.N,Net-(D102-K)*%
X155050000Y-141200000D02*
X156130000Y-142280000D01*
X156130000Y-142280000D02*
X157425000Y-142280000D01*
X155050000Y-140335000D02*
X155050000Y-141200000D01*
D90*
%TO.N,Net-(Q13-D)*%
X157550000Y-111060000D02*
X161910000Y-111060000D01*
X161910000Y-111060000D02*
X161920000Y-111050000D01*
%TO.N,Net-(Q8-G)*%
X156910000Y-96650000D02*
X157630000Y-97370000D01*
X155210000Y-96110000D02*
X156907500Y-96110000D01*
X156910000Y-96112500D02*
X156910000Y-96650000D01*
X157630000Y-97370000D02*
X161745000Y-97370000D01*
D88*
%TO.N,Net-(D102-A)*%
X154525000Y-142200000D02*
X154525000Y-141745000D01*
X154525000Y-141745000D02*
X153115000Y-140335000D01*
%TO.N,Net-(C45-Pad1)*%
X218680000Y-111550000D02*
X218675000Y-111545000D01*
X218690000Y-111530000D02*
X218675000Y-111545000D01*
X218690000Y-110440000D02*
X218690000Y-111530000D01*
X218680000Y-113400000D02*
X218680000Y-111550000D01*
X218690000Y-110440000D02*
X219700000Y-110440000D01*
D90*
%TO.N,Net-(Q7-D)*%
X157930000Y-96112500D02*
X161670000Y-96112500D01*
%TO.N,Net-(Q3-G)*%
X156910000Y-86112500D02*
X156910000Y-86432499D01*
X155490000Y-86100000D02*
X156897500Y-86100000D01*
X156910000Y-86432499D02*
X157727501Y-87250000D01*
X157727501Y-87250000D02*
X161930000Y-87250000D01*
%TO.N,Net-(HSO3-A)*%
X160852500Y-99340000D02*
X162562500Y-99340000D01*
%TO.N,Net-(HSO4-A)*%
X160862500Y-104350000D02*
X162552500Y-104350000D01*
%TO.N,Net-(HSO5-A)*%
X162552500Y-109350000D02*
X160862500Y-109350000D01*
D88*
%TO.N,Net-(U13-+)*%
X220250000Y-138050000D02*
X222180000Y-138050000D01*
X222180000Y-136930000D02*
X222255000Y-136855000D01*
X222180000Y-138050000D02*
X222180000Y-136930000D01*
D90*
%TO.N,Net-(HSO6-A)*%
X160852500Y-114340000D02*
X162562500Y-114340000D01*
D87*
%TO.N,Net-(U2-V_{DD})*%
X128875000Y-117637500D02*
X128875000Y-118675000D01*
X128875000Y-118675000D02*
X129400000Y-119200000D01*
X129600000Y-122520000D02*
X129600000Y-123350000D01*
D88*
%TO.N,Net-(R145-Pad1)*%
X192145000Y-90670000D02*
X191380000Y-90670000D01*
X191380000Y-90670000D02*
X191190000Y-90860000D01*
%TO.N,Net-(R142-Pad2)*%
X188030000Y-90670000D02*
X188800000Y-90670000D01*
X188800000Y-90670000D02*
X188990000Y-90860000D01*
%TO.N,Net-(R157-Pad1)*%
X184420000Y-90770000D02*
X183680000Y-90770000D01*
X183680000Y-90770000D02*
X183490000Y-90960000D01*
%TO.N,Net-(R154-Pad2)*%
X180330000Y-90770000D02*
X181100000Y-90770000D01*
X181100000Y-90770000D02*
X181290000Y-90960000D01*
%TO.N,Net-(R151-Pad1)*%
X176840000Y-90670000D02*
X176080000Y-90670000D01*
X176080000Y-90670000D02*
X175890000Y-90860000D01*
%TO.N,Net-(R146-Pad2)*%
X173365000Y-90645000D02*
X173590000Y-90870000D01*
X172700000Y-90645000D02*
X173365000Y-90645000D01*
X172675000Y-90670000D02*
X172700000Y-90645000D01*
D90*
%TO.N,Net-(D92-A)*%
X136712500Y-85000000D02*
X138675000Y-85000000D01*
D92*
%TO.N,Net-(D51-A)*%
X234317500Y-136850000D02*
X236267500Y-134900000D01*
X238067500Y-136700000D02*
X236267500Y-134900000D01*
D87*
%TO.N,Net-(U2-P_{GOOD})*%
X129380000Y-120380000D02*
X128425000Y-119425000D01*
X130305000Y-122175000D02*
X129630000Y-121500000D01*
X129380000Y-121280000D02*
X129380000Y-120380000D01*
X131900000Y-122175000D02*
X130305000Y-122175000D01*
X129600000Y-121500000D02*
X129380000Y-121280000D01*
X128425000Y-119425000D02*
X128425000Y-117637500D01*
%TO.N,Net-(U2-FB)*%
X134625000Y-119625000D02*
X134625000Y-118100000D01*
X131604476Y-118650000D02*
X131805988Y-118851512D01*
X129827776Y-117728817D02*
X130748959Y-118650000D01*
X135725000Y-119425000D02*
X135500000Y-119650000D01*
X135500000Y-119650000D02*
X134600000Y-119650000D01*
X130748959Y-118650000D02*
X131604476Y-118650000D01*
D88*
%TO.N,Net-(U13--)*%
X215060000Y-136865000D02*
X215060000Y-136475000D01*
X215060000Y-136475000D02*
X214480000Y-135895000D01*
X216295000Y-138100000D02*
X215060000Y-136865000D01*
X217500000Y-138100000D02*
X216295000Y-138100000D01*
D87*
%TO.N,Net-(U2-EN)*%
X130818768Y-116725000D02*
X131596483Y-117502715D01*
X131596483Y-117502715D02*
X131596483Y-117537512D01*
X134125000Y-117175000D02*
X132043983Y-117175000D01*
X131610353Y-117334653D02*
X131596483Y-117348523D01*
X130437500Y-116725000D02*
X130818768Y-116725000D01*
X131596483Y-117348523D02*
X131596483Y-117537512D01*
X131884330Y-117334653D02*
X131610353Y-117334653D01*
X132043983Y-117175000D02*
X131884330Y-117334653D01*
X134540000Y-116760000D02*
X134125000Y-117175000D01*
%TO.N,Net-(U2-PHASE)*%
X131700000Y-113475000D02*
X132115000Y-113475000D01*
X130950000Y-114225000D02*
X131700000Y-113475000D01*
X130437500Y-114225000D02*
X130950000Y-114225000D01*
%TO.N,Net-(U2-MODE1)*%
X131500000Y-115825000D02*
X130437500Y-115825000D01*
%TO.N,Net-(U2-MODE2)*%
X131423514Y-116677653D02*
X131612191Y-116677653D01*
X131020861Y-116275000D02*
X131423514Y-116677653D01*
X130437500Y-116275000D02*
X131020861Y-116275000D01*
D89*
%TO.N,Net-(D6-A)*%
X136200000Y-130175000D02*
X136200000Y-129975000D01*
X136200000Y-129975000D02*
X136225000Y-129950000D01*
X136225000Y-129950000D02*
X136225000Y-125125000D01*
D90*
%TO.N,Net-(D2-A)*%
X145140000Y-141285000D02*
X146755000Y-141285000D01*
X144900000Y-141525000D02*
X145140000Y-141285000D01*
D87*
%TO.N,Net-(U2-V_{DRV})*%
X126375000Y-118525000D02*
X127275000Y-118525000D01*
X127275000Y-118525000D02*
X127525000Y-118275000D01*
X125000000Y-119900000D02*
X126375000Y-118525000D01*
X127525000Y-118275000D02*
X127525000Y-117637500D01*
X124212500Y-119900000D02*
X125000000Y-119900000D01*
%TO.N,Net-(U2-BOOT)*%
X131250000Y-114675000D02*
X131400000Y-114525000D01*
X131400000Y-114525000D02*
X132145000Y-114525000D01*
X130437500Y-114675000D02*
X131250000Y-114675000D01*
%TO.N,Net-(D15-K)*%
X135560000Y-115810000D02*
X134875000Y-115125000D01*
X130437500Y-115125000D02*
X130025000Y-115125000D01*
X129686459Y-115000000D02*
X129302776Y-114616317D01*
X129900000Y-115000000D02*
X129686459Y-115000000D01*
X130025000Y-115125000D02*
X129900000Y-115000000D01*
X135560000Y-116750000D02*
X135560000Y-115810000D01*
X134875000Y-115125000D02*
X130437500Y-115125000D01*
D88*
%TO.N,Net-(C28-Pad1)*%
X189057702Y-89840000D02*
X189927702Y-90710000D01*
X190090000Y-90710000D02*
X190960000Y-89840000D01*
X190960000Y-89840000D02*
X191190000Y-89840000D01*
X188990000Y-89840000D02*
X189057702Y-89840000D01*
%TO.N,Net-(C25-Pad1)*%
X181290000Y-89990000D02*
X182110000Y-90810000D01*
X181290000Y-89940000D02*
X181290000Y-89990000D01*
X182110000Y-90810000D02*
X182490000Y-90810000D01*
X182490000Y-90810000D02*
X183360000Y-89940000D01*
%TO.N,Net-(C22-Pad1)*%
X173590000Y-89850000D02*
X173650000Y-89850000D01*
X173650000Y-89850000D02*
X174631410Y-90831410D01*
X174760283Y-90831410D02*
X175800000Y-89791693D01*
%TO.N,Net-(Q1-E)*%
X213460000Y-135895000D02*
X212700000Y-135895000D01*
%TO.N,Net-(C50-Pad2)*%
X214100000Y-136865000D02*
X213800000Y-136865000D01*
X212935000Y-137730000D02*
X212935000Y-138240000D01*
X220250000Y-139950000D02*
X219625000Y-139950000D01*
X214100000Y-137395000D02*
X214100000Y-136865000D01*
X213800000Y-136865000D02*
X212935000Y-137730000D01*
X219625000Y-139950000D02*
X218390000Y-138715000D01*
X215420000Y-138715000D02*
X214100000Y-137395000D01*
X218390000Y-138715000D02*
X215420000Y-138715000D01*
D87*
%TO.N,Net-(C36-Pad1)*%
X133125000Y-114525000D02*
X133350000Y-114300000D01*
X133350000Y-113690000D02*
X133135000Y-113475000D01*
X133350000Y-114300000D02*
X133350000Y-113690000D01*
D90*
%TO.N,Net-(Q11-D)*%
X157550000Y-106060000D02*
X161860000Y-106060000D01*
X161860000Y-106060000D02*
X161910000Y-106010000D01*
%TO.N,Net-(Q12-G)*%
X156530000Y-106379999D02*
X157480001Y-107330000D01*
X156520000Y-106050000D02*
X156530000Y-106060000D01*
X155090000Y-106050000D02*
X156520000Y-106050000D01*
X157480001Y-107330000D02*
X161910000Y-107330000D01*
X156530000Y-106060000D02*
X156530000Y-106379999D01*
D88*
%TO.N,Net-(C10-Pad1)*%
X213195000Y-110535000D02*
X212185000Y-110535000D01*
X212075000Y-111545000D02*
X212075000Y-110455000D01*
X212075000Y-111545000D02*
X212075000Y-113395000D01*
X212185000Y-110535000D02*
X212090000Y-110440000D01*
D90*
%TO.N,Net-(Q14-G)*%
X155170000Y-111060000D02*
X156530000Y-111060000D01*
X156530000Y-111379999D02*
X157540001Y-112390000D01*
X157540001Y-112390000D02*
X161910000Y-112390000D01*
X156530000Y-111060000D02*
X156530000Y-111379999D01*
D88*
%TO.N,Net-(Q15-B)*%
X161810000Y-141445000D02*
X161810000Y-142290000D01*
X161810000Y-142290000D02*
X160870000Y-143230000D01*
X162450000Y-141265000D02*
X161990000Y-141265000D01*
X160870000Y-143230000D02*
X162505000Y-143230000D01*
X161990000Y-141265000D02*
X161810000Y-141445000D01*
%TO.N,Net-(C7-Pad1)*%
X192275000Y-111545000D02*
X192275000Y-110495000D01*
X192325000Y-110445000D02*
X193325000Y-110445000D01*
X192280000Y-113400000D02*
X192280000Y-111550000D01*
X192280000Y-111550000D02*
X192275000Y-111545000D01*
%TO.N,Net-(Y2-TRI-STATE_OR_NC)*%
X169475000Y-128735000D02*
X169895000Y-128315000D01*
X168765000Y-128735000D02*
X169475000Y-128735000D01*
X169895000Y-128315000D02*
X169895000Y-127410000D01*
%TO.N,Net-(D101-K)*%
X174390000Y-118200000D02*
X174390000Y-117385000D01*
X174390000Y-117385000D02*
X175100000Y-116675000D01*
X175100000Y-116675000D02*
X175100000Y-115600000D01*
D87*
X174615000Y-116085000D02*
X173854500Y-116085000D01*
D88*
X174320000Y-114820002D02*
X175099998Y-115600000D01*
D87*
X175100000Y-115600000D02*
X174615000Y-116085000D01*
D88*
X174320000Y-113005000D02*
X174320000Y-114820002D01*
D87*
%TO.N,PE1*%
X168780000Y-121045000D02*
X169035907Y-121300907D01*
X168725000Y-121000000D02*
X167097500Y-121000000D01*
X178700000Y-121924999D02*
X178197520Y-122427479D01*
X178700000Y-121125000D02*
X178700000Y-121924999D01*
X169035907Y-121300907D02*
X173303189Y-121300907D01*
X178197520Y-122427479D02*
X178147813Y-122427479D01*
%TO.N,PB4*%
X182200000Y-121125000D02*
X182200000Y-122793037D01*
X181093037Y-123900000D02*
X180090319Y-123900000D01*
X172335000Y-119155000D02*
X172235000Y-119055000D01*
X182200000Y-122793037D02*
X181093037Y-123900000D01*
X172235000Y-119055000D02*
X168790000Y-119055000D01*
X168725000Y-119000000D02*
X167097500Y-119000000D01*
%TO.N,PE0*%
X179228421Y-121226579D02*
X179228421Y-121970320D01*
X179250000Y-121205000D02*
X179228421Y-121226579D01*
X175150000Y-122185000D02*
X174884541Y-121919541D01*
X174884541Y-121919541D02*
X170625459Y-121919541D01*
X179228421Y-121970320D02*
X178803419Y-122395322D01*
X178803419Y-122395322D02*
X178803419Y-123180602D01*
X170475000Y-122000000D02*
X167002501Y-122000000D01*
%TO.N,PB9*%
X179600440Y-122627320D02*
X179461813Y-122627320D01*
X172285000Y-120130000D02*
X172190000Y-120035000D01*
X172190000Y-120035000D02*
X170520000Y-120035000D01*
X179750000Y-122477760D02*
X179600440Y-122627320D01*
X179750000Y-121205000D02*
X179750000Y-122477760D01*
X170515000Y-120030000D02*
X167102500Y-120030000D01*
%TO.N,PA4*%
X175700000Y-143575000D02*
X175700000Y-145220500D01*
X177282521Y-139685955D02*
X175880000Y-141088476D01*
X177282521Y-138152666D02*
X177282521Y-139685955D01*
X175880000Y-141088476D02*
X175880000Y-143780000D01*
X177700000Y-136605000D02*
X177700000Y-137735187D01*
X177700000Y-137735187D02*
X177282521Y-138152666D01*
%TO.N,PC5*%
X180600000Y-139005000D02*
X178720000Y-140885000D01*
X180600000Y-137649971D02*
X180600000Y-139005000D01*
X180190000Y-137239971D02*
X180600000Y-137649971D01*
X180190000Y-136485000D02*
X180190000Y-137239971D01*
X178700000Y-141825000D02*
X178700000Y-145220500D01*
X178720000Y-140885000D02*
X178720000Y-141870000D01*
%TO.N,PA7*%
X179514000Y-138936640D02*
X179093640Y-139357000D01*
X179514000Y-137934609D02*
X179514000Y-138936640D01*
X179200000Y-136475000D02*
X179200000Y-137620609D01*
X176700000Y-141825000D02*
X176700000Y-145220500D01*
X179093640Y-139357000D02*
X178243000Y-139357000D01*
X179200000Y-137620609D02*
X179514000Y-137934609D01*
X176720000Y-140880000D02*
X176720000Y-141870000D01*
X178243000Y-139357000D02*
X176720000Y-140880000D01*
%TO.N,PC4*%
X177720000Y-140880000D02*
X177720000Y-143620000D01*
X180000000Y-138989455D02*
X179189455Y-139800000D01*
X180000000Y-137800000D02*
X180000000Y-138989455D01*
X179700000Y-136475000D02*
X179700000Y-137500000D01*
X179189455Y-139800000D02*
X178800000Y-139800000D01*
X178800000Y-139800000D02*
X177720000Y-140880000D01*
X177700000Y-143575000D02*
X177700000Y-145197499D01*
X179700000Y-137500000D02*
X180000000Y-137800000D01*
%TO.N,PA8*%
X204000000Y-127475000D02*
X203975000Y-127500000D01*
X203725000Y-126375000D02*
X204000000Y-126650000D01*
X191375000Y-125800000D02*
X201610000Y-125800000D01*
X201610000Y-125800000D02*
X202185000Y-126375000D01*
X202185000Y-126375000D02*
X203725000Y-126375000D01*
X204000000Y-126650000D02*
X204000000Y-127475000D01*
%TO.N,PA9*%
X205390000Y-127410000D02*
X205300000Y-127500000D01*
X191375000Y-125300000D02*
X205105000Y-125300000D01*
X205105000Y-125300000D02*
X205390000Y-125585000D01*
X205390000Y-125585000D02*
X205390000Y-127410000D01*
D88*
%TO.N,Net-(C4-Pad2)*%
X181200000Y-139380000D02*
X181200000Y-138720000D01*
X180900000Y-139680000D02*
X181200000Y-139380000D01*
X180900000Y-139780000D02*
X180900000Y-139680000D01*
%TO.N,Net-(C5-Pad2)*%
X184100000Y-140880000D02*
X184100000Y-140300000D01*
X184100000Y-140300000D02*
X183800000Y-140000000D01*
X183800000Y-140000000D02*
X183800000Y-139580000D01*
%TO.N,CAN2_L*%
X185155000Y-89245000D02*
X184760000Y-88850000D01*
X183275000Y-91710000D02*
X184775000Y-91710000D01*
X184420000Y-89400000D02*
X183870000Y-88850000D01*
X184940000Y-78310000D02*
X183300000Y-79950000D01*
X185155000Y-91330000D02*
X185155000Y-89245000D01*
X183025000Y-91960000D02*
X183275000Y-91710000D01*
X184775000Y-91710000D02*
X185155000Y-91330000D01*
X183300000Y-79950000D02*
X183300000Y-87400000D01*
X183025000Y-93175000D02*
X183025000Y-91960000D01*
X183300000Y-87400000D02*
X183900000Y-88000000D01*
X183900000Y-88000000D02*
X183900000Y-88780000D01*
X184420000Y-90130000D02*
X184420000Y-89400000D01*
X184760000Y-88850000D02*
X183870000Y-88850000D01*
%TO.N,CAN3_H*%
X189105000Y-91635000D02*
X187650000Y-91635000D01*
X188610000Y-88707702D02*
X188610000Y-88850000D01*
X187260000Y-91245000D02*
X187260000Y-89340000D01*
X187650000Y-91635000D02*
X187260000Y-91245000D01*
X189455000Y-91985000D02*
X189105000Y-91635000D01*
X189000000Y-88317702D02*
X188610000Y-88707702D01*
X187260000Y-89340000D02*
X187750000Y-88850000D01*
X188030000Y-90030000D02*
X188030000Y-89430000D01*
X187750000Y-88850000D02*
X188610000Y-88850000D01*
X189455000Y-93175000D02*
X189455000Y-91985000D01*
X188030000Y-89430000D02*
X188610000Y-88850000D01*
X187480000Y-78270000D02*
X189000000Y-79790000D01*
X189000000Y-79790000D02*
X189000000Y-88317702D01*
%TO.N,CAN3_L*%
X192145000Y-89425000D02*
X192145000Y-90030000D01*
X192325000Y-88850000D02*
X191570000Y-88850000D01*
X192745000Y-91225000D02*
X192745000Y-89270000D01*
X190725000Y-93175000D02*
X190725000Y-92005000D01*
X192745000Y-89270000D02*
X192325000Y-88850000D01*
X192330000Y-91640000D02*
X192745000Y-91225000D01*
X191090000Y-91640000D02*
X192330000Y-91640000D01*
X190950000Y-79850000D02*
X190950000Y-88230000D01*
X192560000Y-78240000D02*
X190950000Y-79850000D01*
X190950000Y-88230000D02*
X191570000Y-88850000D01*
X190725000Y-92005000D02*
X191090000Y-91640000D01*
X191570000Y-88850000D02*
X192145000Y-89425000D01*
%TO.N,CAN2_H*%
X180330000Y-90130000D02*
X180330000Y-89430000D01*
X179900000Y-88850000D02*
X180910000Y-88850000D01*
X181755000Y-93175000D02*
X181755000Y-91960000D01*
X179955000Y-91700000D02*
X179535000Y-91280000D01*
X181500000Y-87400000D02*
X180910000Y-87990000D01*
X179860000Y-78330000D02*
X181500000Y-79970000D01*
X179535000Y-91280000D02*
X179535000Y-89215000D01*
X181495000Y-91700000D02*
X179955000Y-91700000D01*
X179535000Y-89215000D02*
X179900000Y-88850000D01*
X181755000Y-91960000D02*
X181495000Y-91700000D01*
X181500000Y-79970000D02*
X181500000Y-87400000D01*
X180910000Y-87990000D02*
X180910000Y-88850000D01*
X180330000Y-89430000D02*
X180910000Y-88850000D01*
%TO.N,CAN1_H*%
X173840000Y-79865000D02*
X173840000Y-88277702D01*
X172240000Y-78265000D02*
X173840000Y-79865000D01*
X174065000Y-93085000D02*
X174065000Y-91950000D01*
X173690000Y-91575000D02*
X172275000Y-91575000D01*
X171900000Y-91200000D02*
X171900000Y-89100000D01*
X171900000Y-89100000D02*
X172200000Y-88800000D01*
X173840000Y-88277702D02*
X173320000Y-88797702D01*
X172275000Y-91575000D02*
X171900000Y-91200000D01*
X174065000Y-91950000D02*
X173690000Y-91575000D01*
X173300000Y-88800000D02*
X172600000Y-89500000D01*
X172600000Y-89500000D02*
X172600000Y-89980000D01*
X172200000Y-88800000D02*
X173320000Y-88800000D01*
%TO.N,CAN1_L*%
X175740000Y-79810000D02*
X175740000Y-87980000D01*
X175850000Y-91575000D02*
X177180000Y-91575000D01*
X176840000Y-89420000D02*
X176840000Y-90030000D01*
X175335000Y-92090000D02*
X175850000Y-91575000D01*
X175335000Y-93085000D02*
X175335000Y-92090000D01*
X177320000Y-78230000D02*
X175740000Y-79810000D01*
X176270000Y-88850000D02*
X176840000Y-89420000D01*
X175740000Y-87980000D02*
X176280000Y-88520000D01*
X177500000Y-89115000D02*
X177235000Y-88850000D01*
X177180000Y-91575000D02*
X177500000Y-91255000D01*
X177500000Y-91255000D02*
X177500000Y-89115000D01*
X176280000Y-88520000D02*
X176280000Y-88800000D01*
X177235000Y-88850000D02*
X176270000Y-88850000D01*
D90*
%TO.N,Net-(U14B-+)*%
X224320000Y-134080000D02*
X223900000Y-134500000D01*
X224500000Y-134080000D02*
X224320000Y-134080000D01*
X223500000Y-142600000D02*
X222900000Y-142600000D01*
X224675110Y-134080000D02*
X225665110Y-133090000D01*
X222600000Y-143800000D02*
X222300000Y-144100000D01*
X222600000Y-142900000D02*
X222600000Y-143800000D01*
X224500000Y-134080000D02*
X224675110Y-134080000D01*
X223900000Y-134500000D02*
X223900000Y-142200000D01*
X222300000Y-144100000D02*
X220400000Y-144100000D01*
X223900000Y-142200000D02*
X223500000Y-142600000D01*
X222900000Y-142600000D02*
X222600000Y-142900000D01*
%TO.N,Net-(U14A-+)*%
X227730000Y-145370000D02*
X225350000Y-145370000D01*
X229120000Y-134080000D02*
X230110000Y-133090000D01*
X229000000Y-134080000D02*
X229120000Y-134080000D01*
X228600000Y-134480000D02*
X228600000Y-144500000D01*
X230110000Y-133090000D02*
X230200000Y-133090000D01*
X228600000Y-144500000D02*
X227730000Y-145370000D01*
X229000000Y-134080000D02*
X228600000Y-134480000D01*
%TD*%
%TA.AperFunction,Conductor*%
%TO.N,Net-(D15-K)*%
G36*
X136840677Y-91844685D02*
G01*
X136861319Y-91861319D01*
X137588681Y-92588681D01*
X137622166Y-92650004D01*
X137625000Y-92676362D01*
X137625000Y-106593638D01*
X137605315Y-106660677D01*
X137588681Y-106681319D01*
X130731819Y-113538181D01*
X130670496Y-113571666D01*
X130644138Y-113574500D01*
X130112272Y-113574500D01*
X129999764Y-113589313D01*
X129999763Y-113589313D01*
X129859770Y-113647300D01*
X129739549Y-113739549D01*
X129647300Y-113859770D01*
X129589313Y-113999763D01*
X129589313Y-113999764D01*
X129574500Y-114112272D01*
X129574500Y-114337722D01*
X129587150Y-114433816D01*
X129587150Y-114466184D01*
X129574500Y-114562277D01*
X129574500Y-114775500D01*
X129554815Y-114842539D01*
X129502011Y-114888294D01*
X129450500Y-114899500D01*
X129054500Y-114899500D01*
X128987461Y-114879815D01*
X128941706Y-114827011D01*
X128930500Y-114775500D01*
X128930500Y-114487561D01*
X128939939Y-114440108D01*
X128942545Y-114433816D01*
X128945698Y-114426205D01*
X128975500Y-114276380D01*
X128975500Y-114123620D01*
X128945698Y-113973795D01*
X128937072Y-113952972D01*
X128927951Y-113914366D01*
X128925355Y-113878061D01*
X128925355Y-113878060D01*
X128884819Y-113740008D01*
X128807031Y-113618968D01*
X128807028Y-113618965D01*
X128801225Y-113612268D01*
X128802405Y-113611245D01*
X128770021Y-113560847D01*
X128765000Y-113525919D01*
X128765000Y-110936362D01*
X128784685Y-110869323D01*
X128801319Y-110848681D01*
X128950000Y-110700000D01*
X128950000Y-92726362D01*
X128969685Y-92659323D01*
X128986319Y-92638681D01*
X129763681Y-91861319D01*
X129825004Y-91827834D01*
X129851362Y-91825000D01*
X136773638Y-91825000D01*
X136840677Y-91844685D01*
G37*
%TD.AperFunction*%
%TD*%
%TA.AperFunction,Conductor*%
%TO.N,+24V*%
G36*
X132440677Y-75044685D02*
G01*
X132461319Y-75061319D01*
X135638681Y-78238681D01*
X135672166Y-78300004D01*
X135675000Y-78326362D01*
X135675000Y-90823638D01*
X135655315Y-90890677D01*
X135638681Y-90911319D01*
X135311319Y-91238681D01*
X135249996Y-91272166D01*
X135223638Y-91275000D01*
X129481362Y-91275000D01*
X129414323Y-91255315D01*
X129393681Y-91238681D01*
X128886319Y-90731319D01*
X128852834Y-90669996D01*
X128850000Y-90643638D01*
X128850000Y-77813909D01*
X129125000Y-77813909D01*
X129125000Y-78046090D01*
X129161318Y-78275393D01*
X129233065Y-78496205D01*
X129338465Y-78703064D01*
X129395238Y-78781207D01*
X129998958Y-78177487D01*
X130023978Y-78237890D01*
X130095112Y-78344351D01*
X130185649Y-78434888D01*
X130292110Y-78506022D01*
X130352510Y-78531041D01*
X129748791Y-79134759D01*
X129748791Y-79134760D01*
X129826935Y-79191534D01*
X130033794Y-79296934D01*
X130254606Y-79368681D01*
X130483910Y-79405000D01*
X130716090Y-79405000D01*
X130945393Y-79368681D01*
X131166205Y-79296934D01*
X131373071Y-79191530D01*
X131451207Y-79134762D01*
X131451208Y-79134760D01*
X130847488Y-78531041D01*
X130907890Y-78506022D01*
X131014351Y-78434888D01*
X131104888Y-78344351D01*
X131176022Y-78237890D01*
X131201041Y-78177489D01*
X131804760Y-78781208D01*
X131804762Y-78781207D01*
X131861530Y-78703071D01*
X131966934Y-78496205D01*
X132038681Y-78275393D01*
X132075000Y-78046090D01*
X132075000Y-77813909D01*
X132038681Y-77584606D01*
X131966934Y-77363794D01*
X131861534Y-77156935D01*
X131804760Y-77078791D01*
X131804759Y-77078791D01*
X131201041Y-77682510D01*
X131176022Y-77622110D01*
X131104888Y-77515649D01*
X131014351Y-77425112D01*
X130907890Y-77353978D01*
X130847487Y-77328957D01*
X131451207Y-76725238D01*
X131373064Y-76668465D01*
X131166205Y-76563065D01*
X130945393Y-76491318D01*
X130716090Y-76455000D01*
X130483910Y-76455000D01*
X130254606Y-76491318D01*
X130033794Y-76563065D01*
X129826925Y-76668470D01*
X129748791Y-76725237D01*
X129748791Y-76725238D01*
X130352511Y-77328958D01*
X130292110Y-77353978D01*
X130185649Y-77425112D01*
X130095112Y-77515649D01*
X130023978Y-77622110D01*
X129998958Y-77682511D01*
X129395238Y-77078791D01*
X129395237Y-77078791D01*
X129338470Y-77156925D01*
X129233065Y-77363794D01*
X129161318Y-77584606D01*
X129125000Y-77813909D01*
X128850000Y-77813909D01*
X128850000Y-75726362D01*
X128869685Y-75659323D01*
X128886319Y-75638681D01*
X129463681Y-75061319D01*
X129525004Y-75027834D01*
X129551362Y-75025000D01*
X132373638Y-75025000D01*
X132440677Y-75044685D01*
G37*
%TD.AperFunction*%
%TD*%
%TA.AperFunction,Conductor*%
%TO.N,Net-(L1-Pad1)*%
G36*
X123240677Y-110344685D02*
G01*
X123261319Y-110361319D01*
X126692013Y-113792013D01*
X126694201Y-113796020D01*
X126698045Y-113798491D01*
X126710794Y-113826409D01*
X126725498Y-113853336D01*
X126725702Y-113859051D01*
X126727070Y-113862047D01*
X126727070Y-113897341D01*
X126724555Y-113914833D01*
X126716379Y-113944636D01*
X126704303Y-113973790D01*
X126704300Y-113973798D01*
X126674500Y-114123616D01*
X126674500Y-114276384D01*
X126704300Y-114426197D01*
X126704302Y-114426205D01*
X126710061Y-114440108D01*
X126719500Y-114487561D01*
X126719500Y-115062439D01*
X126710062Y-115109890D01*
X126704301Y-115123798D01*
X126704299Y-115123802D01*
X126674500Y-115273615D01*
X126674500Y-115426384D01*
X126704300Y-115576197D01*
X126704302Y-115576205D01*
X126710061Y-115590108D01*
X126719500Y-115637561D01*
X126719500Y-115950500D01*
X126699815Y-116017539D01*
X126647011Y-116063294D01*
X126595500Y-116074500D01*
X126239772Y-116074500D01*
X126127264Y-116089313D01*
X126127263Y-116089313D01*
X125987270Y-116147300D01*
X125867049Y-116239549D01*
X125774800Y-116359770D01*
X125740138Y-116443453D01*
X125696297Y-116497856D01*
X125630003Y-116519921D01*
X125625577Y-116520000D01*
X124754999Y-116520000D01*
X122736319Y-118538681D01*
X122674996Y-118572166D01*
X122648638Y-118575000D01*
X117951362Y-118575000D01*
X117884323Y-118555315D01*
X117863681Y-118538681D01*
X116736319Y-117411319D01*
X116702834Y-117349996D01*
X116700000Y-117323638D01*
X116700000Y-112701362D01*
X116719685Y-112634323D01*
X116736319Y-112613681D01*
X118988681Y-110361319D01*
X119050004Y-110327834D01*
X119076362Y-110325000D01*
X123173638Y-110325000D01*
X123240677Y-110344685D01*
G37*
%TD.AperFunction*%
%TD*%
%TA.AperFunction,Conductor*%
%TO.N,GND*%
G36*
X130803119Y-66244685D02*
G01*
X130848874Y-66297489D01*
X130849942Y-66299942D01*
X132838681Y-68288681D01*
X132872166Y-68350004D01*
X132875000Y-68376362D01*
X132875000Y-72623638D01*
X132855315Y-72690677D01*
X132838681Y-72711319D01*
X131736319Y-73813681D01*
X131674996Y-73847166D01*
X131648638Y-73850000D01*
X129199999Y-73850000D01*
X128280000Y-74769999D01*
X128280000Y-110784910D01*
X128278738Y-110802557D01*
X128259500Y-110936363D01*
X128259500Y-113525924D01*
X128264643Y-113597850D01*
X128269665Y-113632782D01*
X128284986Y-113703227D01*
X128344751Y-113834116D01*
X128354103Y-113848669D01*
X128354282Y-113848949D01*
X128381900Y-113892184D01*
X128381778Y-113892263D01*
X128410617Y-113937138D01*
X128410816Y-113937449D01*
X128410907Y-113937764D01*
X128425295Y-113969269D01*
X128425714Y-113970696D01*
X128429312Y-113986888D01*
X128435994Y-114030589D01*
X128435994Y-114030590D01*
X128445116Y-114069201D01*
X128453726Y-114095867D01*
X128457341Y-114109772D01*
X128467617Y-114161430D01*
X128470000Y-114185620D01*
X128470000Y-114214379D01*
X128467617Y-114238572D01*
X128454035Y-114306849D01*
X128451080Y-114318645D01*
X128444153Y-114341482D01*
X128434711Y-114388952D01*
X128429274Y-114444163D01*
X128425000Y-114487561D01*
X128425000Y-114775500D01*
X128425001Y-114775509D01*
X128436552Y-114882950D01*
X128436554Y-114882962D01*
X128447759Y-114934469D01*
X128483654Y-115042312D01*
X128490000Y-115081472D01*
X128490000Y-115190000D01*
X128730000Y-115430000D01*
X129771000Y-115430000D01*
X129838039Y-115449685D01*
X129883794Y-115502489D01*
X129895000Y-115554000D01*
X129895000Y-116951000D01*
X129875315Y-117018039D01*
X129823987Y-117063109D01*
X129798828Y-117075000D01*
X129715000Y-117075000D01*
X129639872Y-117150127D01*
X129621982Y-117158583D01*
X129554007Y-117204004D01*
X129509249Y-117270987D01*
X129509249Y-117270988D01*
X129497500Y-117330056D01*
X129497500Y-117944944D01*
X129506311Y-117989245D01*
X129509249Y-118004013D01*
X129554006Y-118070994D01*
X129562642Y-118079630D01*
X129559675Y-118082596D01*
X129589688Y-118118497D01*
X129600000Y-118168005D01*
X129600000Y-118250000D01*
X130350000Y-119000000D01*
X131291620Y-119000000D01*
X131358659Y-119019685D01*
X131399007Y-119062000D01*
X131439734Y-119132542D01*
X131439736Y-119132545D01*
X131439737Y-119132546D01*
X131524954Y-119217763D01*
X131524956Y-119217764D01*
X131524960Y-119217767D01*
X131598556Y-119260257D01*
X131629323Y-119278020D01*
X131745731Y-119309212D01*
X131745733Y-119309212D01*
X131866243Y-119309212D01*
X131866245Y-119309212D01*
X131982653Y-119278020D01*
X132087022Y-119217763D01*
X132172239Y-119132546D01*
X132194678Y-119093681D01*
X132212969Y-119062000D01*
X132263536Y-119013784D01*
X132320356Y-119000000D01*
X133398638Y-119000000D01*
X133428078Y-119008644D01*
X133458065Y-119015168D01*
X133463080Y-119018922D01*
X133465677Y-119019685D01*
X133486319Y-119036319D01*
X133543681Y-119093681D01*
X133577166Y-119155004D01*
X133580000Y-119181362D01*
X133580000Y-120143638D01*
X133560315Y-120210677D01*
X133543681Y-120231319D01*
X133486319Y-120288681D01*
X133424996Y-120322166D01*
X133398638Y-120325000D01*
X131226362Y-120325000D01*
X131159323Y-120305315D01*
X131138681Y-120288681D01*
X129236319Y-118386319D01*
X129202834Y-118324996D01*
X129200000Y-118298638D01*
X129200000Y-117160000D01*
X129115000Y-117075000D01*
X128375000Y-117075000D01*
X128374998Y-117075000D01*
X128322163Y-117127834D01*
X128281947Y-117154708D01*
X128270990Y-117159247D01*
X128204006Y-117204004D01*
X128166792Y-117259699D01*
X128163798Y-117264181D01*
X128152464Y-117281143D01*
X128148908Y-117278767D01*
X128131343Y-117300546D01*
X128147184Y-117343016D01*
X128147500Y-117351862D01*
X128147500Y-117944942D01*
X128159249Y-118004013D01*
X128161059Y-118008382D01*
X128170500Y-118055839D01*
X128170500Y-119475621D01*
X128170501Y-119475626D01*
X128210561Y-119572342D01*
X128220000Y-119619794D01*
X128220000Y-123270000D01*
X128825000Y-123875000D01*
X134198638Y-123875000D01*
X134265677Y-123894685D01*
X134286319Y-123911319D01*
X134888681Y-124513681D01*
X134922166Y-124575004D01*
X134925000Y-124601362D01*
X134925000Y-130098638D01*
X134905315Y-130165677D01*
X134888681Y-130186319D01*
X134421319Y-130653681D01*
X134359996Y-130687166D01*
X134333638Y-130690000D01*
X120041362Y-130690000D01*
X119974323Y-130670315D01*
X119953681Y-130653681D01*
X119486319Y-130186319D01*
X119452834Y-130124996D01*
X119450000Y-130098638D01*
X119450000Y-122826362D01*
X119469685Y-122759323D01*
X119486319Y-122738681D01*
X120163681Y-122061319D01*
X120225004Y-122027834D01*
X120251362Y-122025000D01*
X124799999Y-122025000D01*
X124800000Y-122025000D01*
X126225000Y-120450000D01*
X126225000Y-119176362D01*
X126244685Y-119109323D01*
X126261319Y-119088681D01*
X126534181Y-118815819D01*
X126595504Y-118782334D01*
X126621862Y-118779500D01*
X127325622Y-118779500D01*
X127325623Y-118779500D01*
X127325623Y-118779499D01*
X127336270Y-118777382D01*
X127360460Y-118775000D01*
X127525000Y-118775000D01*
X127840000Y-118460000D01*
X127840000Y-117411362D01*
X127848644Y-117381921D01*
X127855168Y-117351935D01*
X127858922Y-117346919D01*
X127859685Y-117344323D01*
X127876319Y-117323681D01*
X127935819Y-117264181D01*
X127936913Y-117263583D01*
X127925000Y-117213124D01*
X127925000Y-116450000D01*
X127775000Y-116300000D01*
X127758749Y-116300000D01*
X127703624Y-116283813D01*
X127703099Y-116285083D01*
X127691816Y-116280409D01*
X127626916Y-116267500D01*
X127626914Y-116267500D01*
X127393086Y-116267500D01*
X127386994Y-116267500D01*
X127386994Y-116265466D01*
X127327476Y-116254162D01*
X127276780Y-116206082D01*
X127260000Y-116143794D01*
X127260000Y-113744778D01*
X127259999Y-113744777D01*
X127220714Y-113703227D01*
X127213659Y-113695765D01*
X127211179Y-113692036D01*
X127209092Y-113690660D01*
X127200527Y-113676021D01*
X127190365Y-113660744D01*
X127187627Y-113654557D01*
X127186902Y-113652084D01*
X127185534Y-113649088D01*
X127185263Y-113649211D01*
X127174798Y-113625556D01*
X127174775Y-113625386D01*
X127172015Y-113618721D01*
X127169162Y-113611072D01*
X127169160Y-113611066D01*
X127165226Y-113603863D01*
X127161273Y-113595967D01*
X127157868Y-113588509D01*
X127153429Y-113581600D01*
X127148917Y-113573994D01*
X127135683Y-113549757D01*
X127132370Y-113545332D01*
X127119167Y-113527696D01*
X127114126Y-113520433D01*
X127080116Y-113467505D01*
X127080115Y-113467504D01*
X127080114Y-113467502D01*
X127073076Y-113461402D01*
X127055021Y-113442006D01*
X127049461Y-113434579D01*
X127049460Y-113434578D01*
X127049455Y-113434571D01*
X127049450Y-113434566D01*
X127049445Y-113434560D01*
X125536319Y-111921434D01*
X125502834Y-111860111D01*
X125500000Y-111833753D01*
X125500000Y-108450000D01*
X123650000Y-106600000D01*
X119551362Y-106600000D01*
X119484323Y-106580315D01*
X119463681Y-106563681D01*
X116661319Y-103761319D01*
X116627834Y-103699996D01*
X116625000Y-103673638D01*
X116625000Y-77813909D01*
X117525000Y-77813909D01*
X117525000Y-78046090D01*
X117561318Y-78275393D01*
X117633065Y-78496205D01*
X117738465Y-78703064D01*
X117795238Y-78781207D01*
X118398958Y-78177487D01*
X118423978Y-78237890D01*
X118495112Y-78344351D01*
X118585649Y-78434888D01*
X118692110Y-78506022D01*
X118752510Y-78531041D01*
X118148791Y-79134759D01*
X118148791Y-79134760D01*
X118226935Y-79191534D01*
X118433794Y-79296934D01*
X118654606Y-79368681D01*
X118883910Y-79405000D01*
X119116090Y-79405000D01*
X119345393Y-79368681D01*
X119566205Y-79296934D01*
X119773071Y-79191530D01*
X119851207Y-79134762D01*
X119851208Y-79134760D01*
X119247488Y-78531041D01*
X119307890Y-78506022D01*
X119414351Y-78434888D01*
X119504888Y-78344351D01*
X119576022Y-78237890D01*
X119601041Y-78177489D01*
X120204760Y-78781208D01*
X120204762Y-78781207D01*
X120261530Y-78703071D01*
X120366934Y-78496205D01*
X120438681Y-78275393D01*
X120475000Y-78046090D01*
X120475000Y-77813909D01*
X123325000Y-77813909D01*
X123325000Y-78046090D01*
X123361318Y-78275393D01*
X123433065Y-78496205D01*
X123538465Y-78703064D01*
X123595238Y-78781207D01*
X124198958Y-78177487D01*
X124223978Y-78237890D01*
X124295112Y-78344351D01*
X124385649Y-78434888D01*
X124492110Y-78506022D01*
X124552510Y-78531041D01*
X123948791Y-79134759D01*
X123948791Y-79134760D01*
X124026935Y-79191534D01*
X124233794Y-79296934D01*
X124454606Y-79368681D01*
X124683910Y-79405000D01*
X124916090Y-79405000D01*
X125145393Y-79368681D01*
X125366205Y-79296934D01*
X125573071Y-79191530D01*
X125651207Y-79134762D01*
X125651208Y-79134760D01*
X125047488Y-78531041D01*
X125107890Y-78506022D01*
X125214351Y-78434888D01*
X125304888Y-78344351D01*
X125376022Y-78237890D01*
X125401041Y-78177489D01*
X126004760Y-78781208D01*
X126004762Y-78781207D01*
X126061530Y-78703071D01*
X126166934Y-78496205D01*
X126238681Y-78275393D01*
X126275000Y-78046090D01*
X126275000Y-77813909D01*
X126238681Y-77584606D01*
X126166934Y-77363794D01*
X126061534Y-77156935D01*
X126004760Y-77078791D01*
X126004759Y-77078791D01*
X125401041Y-77682510D01*
X125376022Y-77622110D01*
X125304888Y-77515649D01*
X125214351Y-77425112D01*
X125107890Y-77353978D01*
X125047487Y-77328957D01*
X125651207Y-76725238D01*
X125573064Y-76668465D01*
X125366205Y-76563065D01*
X125145393Y-76491318D01*
X124916090Y-76455000D01*
X124683910Y-76455000D01*
X124454606Y-76491318D01*
X124233794Y-76563065D01*
X124026925Y-76668470D01*
X123948791Y-76725237D01*
X123948791Y-76725238D01*
X124552511Y-77328958D01*
X124492110Y-77353978D01*
X124385649Y-77425112D01*
X124295112Y-77515649D01*
X124223978Y-77622110D01*
X124198958Y-77682511D01*
X123595238Y-77078791D01*
X123595237Y-77078791D01*
X123538470Y-77156925D01*
X123433065Y-77363794D01*
X123361318Y-77584606D01*
X123325000Y-77813909D01*
X120475000Y-77813909D01*
X120438681Y-77584606D01*
X120366934Y-77363794D01*
X120261534Y-77156935D01*
X120204760Y-77078791D01*
X120204759Y-77078791D01*
X119601041Y-77682510D01*
X119576022Y-77622110D01*
X119504888Y-77515649D01*
X119414351Y-77425112D01*
X119307890Y-77353978D01*
X119247487Y-77328957D01*
X119851207Y-76725238D01*
X119773064Y-76668465D01*
X119566205Y-76563065D01*
X119345393Y-76491318D01*
X119116090Y-76455000D01*
X118883910Y-76455000D01*
X118654606Y-76491318D01*
X118433794Y-76563065D01*
X118226925Y-76668470D01*
X118148791Y-76725237D01*
X118148791Y-76725238D01*
X118752511Y-77328958D01*
X118692110Y-77353978D01*
X118585649Y-77425112D01*
X118495112Y-77515649D01*
X118423978Y-77622110D01*
X118398958Y-77682511D01*
X117795238Y-77078791D01*
X117795237Y-77078791D01*
X117738470Y-77156925D01*
X117633065Y-77363794D01*
X117561318Y-77584606D01*
X117525000Y-77813909D01*
X116625000Y-77813909D01*
X116625000Y-72013909D01*
X120425000Y-72013909D01*
X120425000Y-72246090D01*
X120461318Y-72475393D01*
X120533065Y-72696205D01*
X120638465Y-72903064D01*
X120695238Y-72981207D01*
X121298958Y-72377487D01*
X121323978Y-72437890D01*
X121395112Y-72544351D01*
X121485649Y-72634888D01*
X121592110Y-72706022D01*
X121652510Y-72731041D01*
X121048791Y-73334759D01*
X121048791Y-73334760D01*
X121126935Y-73391534D01*
X121333794Y-73496934D01*
X121554606Y-73568681D01*
X121783910Y-73605000D01*
X122016090Y-73605000D01*
X122245393Y-73568681D01*
X122466205Y-73496934D01*
X122673071Y-73391530D01*
X122751207Y-73334762D01*
X122751208Y-73334760D01*
X122147488Y-72731041D01*
X122207890Y-72706022D01*
X122314351Y-72634888D01*
X122404888Y-72544351D01*
X122476022Y-72437890D01*
X122501041Y-72377489D01*
X123104760Y-72981208D01*
X123104762Y-72981207D01*
X123161530Y-72903071D01*
X123266934Y-72696205D01*
X123338681Y-72475393D01*
X123375000Y-72246090D01*
X123375000Y-72013909D01*
X126225000Y-72013909D01*
X126225000Y-72246090D01*
X126261318Y-72475393D01*
X126333065Y-72696205D01*
X126438465Y-72903064D01*
X126495238Y-72981207D01*
X127098958Y-72377487D01*
X127123978Y-72437890D01*
X127195112Y-72544351D01*
X127285649Y-72634888D01*
X127392110Y-72706022D01*
X127452510Y-72731041D01*
X126848791Y-73334759D01*
X126848791Y-73334760D01*
X126926935Y-73391534D01*
X127133794Y-73496934D01*
X127354606Y-73568681D01*
X127583910Y-73605000D01*
X127816090Y-73605000D01*
X128045393Y-73568681D01*
X128266205Y-73496934D01*
X128473071Y-73391530D01*
X128551207Y-73334762D01*
X128551208Y-73334760D01*
X127947488Y-72731041D01*
X128007890Y-72706022D01*
X128114351Y-72634888D01*
X128204888Y-72544351D01*
X128276022Y-72437890D01*
X128301041Y-72377489D01*
X128904760Y-72981208D01*
X128904762Y-72981207D01*
X128961530Y-72903071D01*
X129066934Y-72696205D01*
X129138681Y-72475393D01*
X129175000Y-72246090D01*
X129175000Y-72013909D01*
X129138681Y-71784606D01*
X129066934Y-71563794D01*
X128961534Y-71356935D01*
X128904760Y-71278791D01*
X128904759Y-71278791D01*
X128301041Y-71882510D01*
X128276022Y-71822110D01*
X128204888Y-71715649D01*
X128114351Y-71625112D01*
X128007890Y-71553978D01*
X127947487Y-71528957D01*
X128551207Y-70925238D01*
X128473064Y-70868465D01*
X128266205Y-70763065D01*
X128045393Y-70691318D01*
X127816090Y-70655000D01*
X127583910Y-70655000D01*
X127354606Y-70691318D01*
X127133794Y-70763065D01*
X126926925Y-70868470D01*
X126848791Y-70925237D01*
X126848791Y-70925238D01*
X127452511Y-71528958D01*
X127392110Y-71553978D01*
X127285649Y-71625112D01*
X127195112Y-71715649D01*
X127123978Y-71822110D01*
X127098958Y-71882511D01*
X126495238Y-71278791D01*
X126495237Y-71278791D01*
X126438470Y-71356925D01*
X126333065Y-71563794D01*
X126261318Y-71784606D01*
X126225000Y-72013909D01*
X123375000Y-72013909D01*
X123338681Y-71784606D01*
X123266934Y-71563794D01*
X123161534Y-71356935D01*
X123104760Y-71278791D01*
X123104759Y-71278791D01*
X122501041Y-71882510D01*
X122476022Y-71822110D01*
X122404888Y-71715649D01*
X122314351Y-71625112D01*
X122207890Y-71553978D01*
X122147487Y-71528957D01*
X122751207Y-70925238D01*
X122673064Y-70868465D01*
X122466205Y-70763065D01*
X122245393Y-70691318D01*
X122016090Y-70655000D01*
X121783910Y-70655000D01*
X121554606Y-70691318D01*
X121333794Y-70763065D01*
X121126925Y-70868470D01*
X121048791Y-70925237D01*
X121048791Y-70925238D01*
X121652511Y-71528958D01*
X121592110Y-71553978D01*
X121485649Y-71625112D01*
X121395112Y-71715649D01*
X121323978Y-71822110D01*
X121298958Y-71882511D01*
X120695238Y-71278791D01*
X120695237Y-71278791D01*
X120638470Y-71356925D01*
X120533065Y-71563794D01*
X120461318Y-71784606D01*
X120425000Y-72013909D01*
X116625000Y-72013909D01*
X116625000Y-69683909D01*
X117525000Y-69683909D01*
X117525000Y-69916090D01*
X117561318Y-70145393D01*
X117633065Y-70366205D01*
X117738465Y-70573064D01*
X117795238Y-70651207D01*
X118398958Y-70047487D01*
X118423978Y-70107890D01*
X118495112Y-70214351D01*
X118585649Y-70304888D01*
X118692110Y-70376022D01*
X118752510Y-70401041D01*
X118148791Y-71004759D01*
X118148791Y-71004760D01*
X118226935Y-71061534D01*
X118433794Y-71166934D01*
X118654606Y-71238681D01*
X118883910Y-71275000D01*
X119116090Y-71275000D01*
X119345393Y-71238681D01*
X119566205Y-71166934D01*
X119773071Y-71061530D01*
X119851208Y-71004761D01*
X119851208Y-71004760D01*
X119247488Y-70401041D01*
X119307890Y-70376022D01*
X119414351Y-70304888D01*
X119504888Y-70214351D01*
X119576022Y-70107890D01*
X119601041Y-70047489D01*
X120204760Y-70651208D01*
X120204762Y-70651207D01*
X120261530Y-70573071D01*
X120366934Y-70366205D01*
X120438681Y-70145393D01*
X120475000Y-69916090D01*
X120475000Y-69683909D01*
X123325000Y-69683909D01*
X123325000Y-69916090D01*
X123361318Y-70145393D01*
X123433065Y-70366205D01*
X123538465Y-70573064D01*
X123595238Y-70651207D01*
X124198958Y-70047487D01*
X124223978Y-70107890D01*
X124295112Y-70214351D01*
X124385649Y-70304888D01*
X124492110Y-70376022D01*
X124552510Y-70401041D01*
X123948791Y-71004759D01*
X123948791Y-71004760D01*
X124026935Y-71061534D01*
X124233794Y-71166934D01*
X124454606Y-71238681D01*
X124683910Y-71275000D01*
X124916090Y-71275000D01*
X125145393Y-71238681D01*
X125366205Y-71166934D01*
X125573071Y-71061530D01*
X125651208Y-71004761D01*
X125651208Y-71004760D01*
X125047488Y-70401041D01*
X125107890Y-70376022D01*
X125214351Y-70304888D01*
X125304888Y-70214351D01*
X125376022Y-70107890D01*
X125401041Y-70047489D01*
X126004760Y-70651208D01*
X126004762Y-70651207D01*
X126061530Y-70573071D01*
X126166934Y-70366205D01*
X126238681Y-70145393D01*
X126275000Y-69916090D01*
X126275000Y-69683909D01*
X129125000Y-69683909D01*
X129125000Y-69916090D01*
X129161318Y-70145393D01*
X129233065Y-70366205D01*
X129338465Y-70573064D01*
X129395238Y-70651207D01*
X129998958Y-70047487D01*
X130023978Y-70107890D01*
X130095112Y-70214351D01*
X130185649Y-70304888D01*
X130292110Y-70376022D01*
X130352510Y-70401041D01*
X129748791Y-71004759D01*
X129748791Y-71004760D01*
X129826935Y-71061534D01*
X130033794Y-71166934D01*
X130254606Y-71238681D01*
X130483910Y-71275000D01*
X130716090Y-71275000D01*
X130945393Y-71238681D01*
X131166205Y-71166934D01*
X131373071Y-71061530D01*
X131451207Y-71004762D01*
X131451208Y-71004760D01*
X130847488Y-70401041D01*
X130907890Y-70376022D01*
X131014351Y-70304888D01*
X131104888Y-70214351D01*
X131176022Y-70107890D01*
X131201041Y-70047489D01*
X131804760Y-70651208D01*
X131804762Y-70651207D01*
X131861530Y-70573071D01*
X131966934Y-70366205D01*
X132038681Y-70145393D01*
X132075000Y-69916090D01*
X132075000Y-69683909D01*
X132038681Y-69454606D01*
X131966934Y-69233794D01*
X131861534Y-69026935D01*
X131804760Y-68948791D01*
X131804759Y-68948791D01*
X131201041Y-69552510D01*
X131176022Y-69492110D01*
X131104888Y-69385649D01*
X131014351Y-69295112D01*
X130907890Y-69223978D01*
X130847487Y-69198957D01*
X131451207Y-68595238D01*
X131373064Y-68538465D01*
X131166205Y-68433065D01*
X130945393Y-68361318D01*
X130716090Y-68325000D01*
X130483910Y-68325000D01*
X130254606Y-68361318D01*
X130033794Y-68433065D01*
X129826925Y-68538470D01*
X129748791Y-68595237D01*
X129748791Y-68595238D01*
X130352511Y-69198958D01*
X130292110Y-69223978D01*
X130185649Y-69295112D01*
X130095112Y-69385649D01*
X130023978Y-69492110D01*
X129998958Y-69552511D01*
X129395238Y-68948791D01*
X129395237Y-68948791D01*
X129338470Y-69026925D01*
X129233065Y-69233794D01*
X129161318Y-69454606D01*
X129125000Y-69683909D01*
X126275000Y-69683909D01*
X126238681Y-69454606D01*
X126166934Y-69233794D01*
X126061534Y-69026935D01*
X126004760Y-68948791D01*
X126004759Y-68948791D01*
X125401041Y-69552510D01*
X125376022Y-69492110D01*
X125304888Y-69385649D01*
X125214351Y-69295112D01*
X125107890Y-69223978D01*
X125047487Y-69198957D01*
X125651207Y-68595238D01*
X125573064Y-68538465D01*
X125366205Y-68433065D01*
X125145393Y-68361318D01*
X124916090Y-68325000D01*
X124683910Y-68325000D01*
X124454606Y-68361318D01*
X124233794Y-68433065D01*
X124026925Y-68538470D01*
X123948791Y-68595237D01*
X123948791Y-68595238D01*
X124552511Y-69198958D01*
X124492110Y-69223978D01*
X124385649Y-69295112D01*
X124295112Y-69385649D01*
X124223978Y-69492110D01*
X124198958Y-69552511D01*
X123595238Y-68948791D01*
X123595237Y-68948791D01*
X123538470Y-69026925D01*
X123433065Y-69233794D01*
X123361318Y-69454606D01*
X123325000Y-69683909D01*
X120475000Y-69683909D01*
X120438681Y-69454606D01*
X120366934Y-69233794D01*
X120261534Y-69026935D01*
X120204760Y-68948791D01*
X120204759Y-68948791D01*
X119601041Y-69552510D01*
X119576022Y-69492110D01*
X119504888Y-69385649D01*
X119414351Y-69295112D01*
X119307890Y-69223978D01*
X119247487Y-69198957D01*
X119851207Y-68595238D01*
X119773064Y-68538465D01*
X119566205Y-68433065D01*
X119345393Y-68361318D01*
X119116090Y-68325000D01*
X118883910Y-68325000D01*
X118654606Y-68361318D01*
X118433794Y-68433065D01*
X118226925Y-68538470D01*
X118148791Y-68595237D01*
X118148791Y-68595238D01*
X118752511Y-69198958D01*
X118692110Y-69223978D01*
X118585649Y-69295112D01*
X118495112Y-69385649D01*
X118423978Y-69492110D01*
X118398958Y-69552511D01*
X117795238Y-68948791D01*
X117795237Y-68948791D01*
X117738470Y-69026925D01*
X117633065Y-69233794D01*
X117561318Y-69454606D01*
X117525000Y-69683909D01*
X116625000Y-69683909D01*
X116625000Y-68401362D01*
X116644685Y-68334323D01*
X116661319Y-68313681D01*
X118713681Y-66261319D01*
X118775004Y-66227834D01*
X118801362Y-66225000D01*
X130736080Y-66225000D01*
X130803119Y-66244685D01*
G37*
%TD.AperFunction*%
%TD*%
%TA.AperFunction,Conductor*%
%TO.N,+5V*%
G36*
X113765677Y-110644685D02*
G01*
X113786319Y-110661319D01*
X115738681Y-112613681D01*
X115772166Y-112675004D01*
X115775000Y-112701362D01*
X115775000Y-118150000D01*
X118588681Y-120963681D01*
X118622166Y-121025004D01*
X118625000Y-121051362D01*
X118625000Y-130550000D01*
X119325000Y-131250000D01*
X140668461Y-131250000D01*
X140735500Y-131269685D01*
X140756142Y-131286319D01*
X141678504Y-132208681D01*
X141711989Y-132270004D01*
X141714823Y-132296362D01*
X141714823Y-138354888D01*
X141695138Y-138421927D01*
X141678504Y-138442569D01*
X140082392Y-140038681D01*
X140021069Y-140072166D01*
X139994711Y-140075000D01*
X113796362Y-140075000D01*
X113729323Y-140055315D01*
X113708681Y-140038681D01*
X107936319Y-134266319D01*
X107902834Y-134204996D01*
X107900000Y-134178638D01*
X107900000Y-112626362D01*
X107919685Y-112559323D01*
X107936319Y-112538681D01*
X109813681Y-110661319D01*
X109875004Y-110627834D01*
X109901362Y-110625000D01*
X113698638Y-110625000D01*
X113765677Y-110644685D01*
G37*
%TD.AperFunction*%
%TD*%
M02*
