M48
; DRILL file {KiCad 9.0.7} date 2026-04-21T21:49:45+0300
; FORMAT={-:-/ absolute / metric / decimal}
; #@! TF.CreationDate,2026-04-21T21:49:45+03:00
; #@! TF.GenerationSoftware,Kicad,Pcbnew,9.0.7
; #@! TF.FileFunction,Plated,1,4,PTH
FMAT,2
METRIC
; #@! TA.AperFunction,Plated,PTH,ComponentDrill
T1C0.200
; #@! TA.AperFunction,Plated,PTH,ViaDrill
T2C0.305
; #@! TA.AperFunction,Plated,PTH,ViaDrill
T3C0.330
; #@! TA.AperFunction,Plated,PTH,ViaDrill
T4C0.381
; #@! TA.AperFunction,Plated,PTH,ComponentDrill
T5C1.000
; #@! TA.AperFunction,Plated,PTH,ComponentDrill
T6C1.300
; #@! TA.AperFunction,Plated,PTH,ViaDrill
T7C2.032
; #@! TA.AperFunction,Plated,PTH,ComponentDrill
T8C2.200
%
G90
G05
T1
X127.45Y-114.2
X127.45Y-115.35
X128.2Y-114.2
X128.2Y-115.35
X128.2Y-116.5
X129.25Y-114.545
X129.26Y-116.19
T2
X129.4Y-119.2
X129.6Y-123.35
X131.5Y-115.825
X131.596Y-117.538
X131.612Y-116.678
X131.806Y-118.852
X131.85Y-119.675
X135.725Y-119.425
X135.8Y-117.975
X166.09Y-122.09
X166.1Y-121.045
X166.12Y-119.045
X166.125Y-120.055
X167.1Y-111.6
X167.75Y-97.695
X167.825Y-92.725
X167.975Y-87.725
X168.7Y-101.5
X169.17Y-133.655
X169.3Y-103.0
X169.415Y-69.38
X169.815Y-135.14
X169.905Y-137.61
X170.05Y-65.5
X170.1Y-105.3
X170.82Y-125.62
X171.1Y-136.0
X172.2Y-87.3
X172.285Y-120.13
X172.335Y-119.155
X172.5Y-137.2
X172.86Y-65.15
X172.88Y-122.934
X172.905Y-116.08
X173.303Y-121.301
X173.713Y-131.513
X173.797Y-122.577
X173.8Y-111.2
X174.0Y-130.4
X174.6Y-124.507
X174.745Y-89.375
X174.8Y-84.1
X175.064Y-136.55
X175.15Y-122.185
X175.669Y-137.221
X175.679Y-135.628
X175.92Y-70.94
X176.11Y-116.48
X176.312Y-65.038
X176.368Y-136.5
X176.47Y-139.57
X176.676Y-138.0
X176.74Y-146.29
X177.244Y-133.874
X177.469Y-131.775
X177.481Y-133.064
X177.9Y-138.8
X178.0Y-129.8
X178.148Y-122.427
X178.247Y-132.147
X178.5Y-130.6
X178.5Y-131.4
X178.645Y-93.165
X178.66Y-119.4
X178.675Y-71.53
X178.675Y-88.045
X178.803Y-123.181
X178.822Y-138.7
X178.9Y-129.1
X179.1Y-127.8
X179.2Y-125.6
X179.2Y-127.0
X179.462Y-122.627
X179.9Y-126.2
X180.09Y-123.9
X180.36Y-72.0
X180.691Y-122.823
X180.945Y-119.865
X180.988Y-134.815
X181.595Y-122.535
X181.6Y-109.2
X181.697Y-134.197
X182.3Y-124.0
X182.39Y-86.3
X182.395Y-89.435
X182.6Y-133.9
X182.899Y-135.158
X182.988Y-71.17
X183.138Y-123.8
X183.3Y-141.9
X183.6Y-133.8
X183.62Y-122.9
X184.0Y-146.8
X184.207Y-135.06
X184.29Y-111.06
X184.429Y-123.19
X184.647Y-87.817
X184.7Y-132.7
X184.936Y-122.564
X185.4Y-133.1
X185.575Y-93.42
X185.575Y-103.24
X185.66Y-71.25
X185.693Y-123.209
X185.825Y-109.12
X185.962Y-140.38
X186.2Y-133.5
X186.245Y-114.895
X186.3Y-122.5
X186.324Y-124.555
X186.9Y-134.0
X186.9Y-134.9
X187.145Y-124.3
X187.172Y-122.572
X187.2Y-138.1
X187.8Y-133.4
X187.8Y-134.7
X188.2Y-140.0
X188.417Y-131.55
X188.6Y-133.2
X188.623Y-130.778
X188.7Y-129.9
X188.8Y-128.255
X188.859Y-132.288
X189.0Y-129.1
X189.0Y-144.1
X189.2Y-127.3
X189.446Y-133.201
X189.455Y-71.29
X189.475Y-109.065
X189.6Y-126.4
X189.658Y-131.886
X190.0Y-86.3
X190.1Y-144.377
X190.1Y-89.34
X190.345Y-134.924
X190.37Y-120.8
X190.56Y-137.165
X190.61Y-101.405
X190.615Y-103.245
X191.0Y-144.7
X191.162Y-121.4
X191.999Y-121.081
X192.031Y-145.059
X192.735Y-121.435
X192.8Y-130.3
X192.9Y-145.522
X193.1Y-129.4
X193.392Y-123.3
X193.8Y-85.3
X193.955Y-73.825
X194.1Y-100.7
X194.393Y-80.282
X194.4Y-148.8
X194.54Y-104.5
X194.87Y-109.1
X194.965Y-107.785
X195.2Y-149.5
X195.375Y-92.195
X195.83Y-90.1
X195.835Y-104.565
X195.89Y-83.96
X196.1Y-149.982
X196.8Y-73.865
X197.315Y-120.04
X197.6Y-150.1
X197.956Y-79.923
X198.025Y-72.3
X198.3Y-93.3
X198.445Y-88.105
X199.0Y-79.5
X199.03Y-142.815
X199.25Y-73.875
X199.5Y-151.0
X200.235Y-72.335
X200.43Y-89.445
X200.8Y-109.5
X201.147Y-131.922
X201.357Y-90.117
X201.6Y-104.4
X201.69Y-79.895
X201.86Y-73.81
X202.33Y-83.941
X202.6Y-112.5
X202.701Y-89.98
X202.82Y-102.645
X203.3Y-127.4
X203.55Y-111.005
X203.565Y-72.38
X204.295Y-73.871
X204.457Y-126.17
X204.6Y-79.67
X205.25Y-72.38
X206.49Y-146.1
X206.61Y-73.925
X206.94Y-87.82
X207.0Y-144.7
X207.1Y-129.4
X207.345Y-72.2
X207.4Y-109.5
X207.82Y-91.21
X208.11Y-104.5
X208.763Y-80.052
X208.992Y-73.793
X209.2Y-83.9
X209.45Y-95.819
X209.47Y-102.995
X210.23Y-90.84
X210.262Y-72.058
X210.85Y-99.015
X211.288Y-79.717
X211.345Y-73.937
X211.66Y-71.065
X212.2Y-133.8
X213.695Y-90.355
X213.955Y-87.85
X214.21Y-71.065
X214.265Y-79.405
X214.3Y-103.465
X214.307Y-73.967
X214.335Y-112.42
X214.8Y-95.5
X215.0Y-147.3
X215.955Y-91.25
X216.055Y-103.305
X216.365Y-79.388
X216.555Y-84.325
X216.7Y-73.9
X218.98Y-90.82
X218.99Y-88.03
X219.588Y-78.055
X219.775Y-109.6
X219.9Y-103.5
X220.5Y-99.7
X221.0Y-69.01
X221.24Y-92.35
X222.104Y-107.061
X222.66Y-88.49
X222.77Y-117.24
X222.928Y-106.733
X223.34Y-90.93
X223.65Y-109.657
X223.66Y-103.71
X223.7Y-74.0
X224.17Y-99.48
X224.242Y-106.704
X224.545Y-73.485
X224.785Y-103.8
X225.097Y-106.794
X225.2Y-111.3
X225.32Y-116.8
X225.5Y-73.1
X225.803Y-116.05
X225.83Y-113.315
X225.949Y-106.674
X226.1Y-72.5
X226.1Y-110.8
X226.4Y-115.3
X226.65Y-92.895
X226.809Y-106.694
X227.0Y-110.9
X227.585Y-110.3
X227.657Y-106.553
X227.85Y-102.463
X228.06Y-100.115
X228.323Y-106.009
X228.587Y-110.848
X229.183Y-105.998
X229.215Y-104.515
X229.251Y-110.301
X229.3Y-93.1
X230.92Y-93.12
X232.51Y-87.225
X234.271Y-90.142
X234.703Y-100.003
X235.0Y-106.6
X235.0Y-110.2
X235.74Y-90.175
X235.83Y-102.47
X235.9Y-105.6
X236.0Y-111.4
X236.8Y-110.5
X236.9Y-106.0
X237.7Y-106.6
X237.7Y-111.5
X238.7Y-105.5
X238.7Y-111.0
X239.8Y-104.0
X240.7Y-105.1
X241.6Y-106.7
X242.6Y-107.4
T3
X122.43Y-128.15
X124.2Y-134.1
X126.05Y-122.33
X127.175Y-122.33
X131.8Y-128.3
X132.35Y-124.97
X133.495Y-136.875
X133.5Y-136.0
X133.5Y-137.77
X138.16Y-107.31
X139.805Y-132.98
X141.6Y-83.4
X143.12Y-124.72
X143.74Y-139.145
X145.17Y-138.63
X145.315Y-109.325
X150.025Y-132.5
X150.025Y-133.5
X150.035Y-134.535
X151.0Y-132.5
X151.0Y-133.5
X151.0Y-134.525
X152.0Y-132.5
X152.0Y-133.5
X152.0Y-134.525
X152.92Y-86.02
X152.92Y-91.2
X152.92Y-96.18
X152.92Y-101.22
X152.92Y-106.21
X152.93Y-111.11
X153.025Y-132.5
X153.025Y-133.5
X153.025Y-134.525
X154.95Y-101.01
X155.09Y-106.05
X155.17Y-111.06
X155.21Y-96.11
X155.34Y-91.12
X155.49Y-86.1
X161.67Y-96.112
X161.745Y-97.37
X161.9Y-102.28
X161.91Y-106.01
X161.91Y-107.33
X161.91Y-112.39
X161.92Y-100.97
X161.92Y-111.05
X161.93Y-87.25
X161.93Y-91.1
X161.93Y-92.35
X161.96Y-86.13
X163.0Y-136.58
X163.32Y-130.485
X164.72Y-133.88
X166.275Y-114.725
X166.79Y-90.35
X166.81Y-95.41
X166.82Y-100.24
X166.82Y-105.34
X166.83Y-110.17
X170.53Y-76.025
X172.56Y-73.76
X175.42Y-96.6
X176.705Y-94.695
X176.84Y-118.05
X179.37Y-117.935
X181.118Y-95.122
X182.953Y-96.742
X186.85Y-107.985
X188.39Y-111.33
X189.995Y-114.09
X191.51Y-94.635
X191.66Y-96.2
X193.233Y-114.673
X194.68Y-121.43
X194.93Y-111.54
X195.0Y-127.765
X197.978Y-114.727
X199.845Y-114.78
X200.72Y-136.205
X201.185Y-128.795
X201.31Y-127.98
X201.95Y-134.8
X203.23Y-134.79
X204.4Y-114.6
X206.195Y-114.78
X209.43Y-145.33
X211.145Y-114.74
X212.7Y-135.895
X212.935Y-138.24
X213.05Y-114.795
X215.945Y-136.395
X216.1Y-139.8
X216.6Y-147.9
X217.725Y-114.725
X219.63Y-114.79
X220.975Y-141.755
X222.6Y-141.5
X223.6Y-147.5
X223.7Y-132.544
X223.7Y-144.1
X225.0Y-140.0
X226.435Y-139.87
X227.86Y-134.08
X229.195Y-132.16
X229.55Y-139.875
X230.85Y-139.885
X232.322Y-134.002
X234.317Y-141.96
X236.265Y-130.135
X238.065Y-141.95
T4
X134.6Y-87.6
X134.6Y-89.0
X134.6Y-90.5
T5
X138.5Y-66.8
X138.5Y-69.34
X138.5Y-75.39
X138.5Y-77.93
X141.04Y-66.8
X141.04Y-69.34
X141.04Y-75.39
X141.04Y-77.93
X143.58Y-66.8
X143.58Y-69.34
X143.58Y-75.39
X143.58Y-77.93
X146.12Y-66.8
X146.12Y-69.34
X146.12Y-75.39
X146.12Y-77.93
X148.66Y-66.8
X148.66Y-69.34
X148.66Y-75.39
X148.66Y-77.93
X151.2Y-66.8
X151.2Y-69.34
X151.2Y-75.39
X151.2Y-77.93
X153.74Y-66.8
X153.74Y-69.34
X153.74Y-75.39
X153.74Y-77.93
X156.28Y-66.8
X156.28Y-69.34
X156.28Y-75.39
X156.28Y-77.93
X172.22Y-66.8
X172.22Y-69.34
X172.22Y-75.39
X172.22Y-77.93
X174.76Y-66.8
X174.76Y-69.34
X174.76Y-75.39
X174.76Y-77.93
X177.3Y-66.8
X177.3Y-69.34
X177.3Y-75.39
X177.3Y-77.93
X179.84Y-66.8
X179.84Y-69.34
X179.84Y-75.39
X179.84Y-77.93
X182.38Y-66.8
X182.38Y-69.34
X182.38Y-75.39
X182.38Y-77.93
X184.92Y-66.8
X184.92Y-69.34
X184.92Y-75.39
X184.92Y-77.93
X187.46Y-66.8
X187.46Y-69.34
X187.46Y-75.39
X187.46Y-77.93
X190.0Y-66.8
X190.0Y-69.34
X190.0Y-75.39
X190.0Y-77.93
X192.54Y-66.8
X192.54Y-69.34
X192.54Y-75.39
X192.54Y-77.93
X195.08Y-66.8
X195.08Y-69.34
X195.08Y-75.39
X195.08Y-77.93
X197.62Y-66.8
X197.62Y-69.34
X197.62Y-75.39
X197.62Y-77.93
X200.16Y-66.8
X200.16Y-69.34
X200.16Y-75.39
X200.16Y-77.93
X202.7Y-66.8
X202.7Y-69.34
X202.7Y-75.39
X202.7Y-77.93
X205.24Y-66.8
X205.24Y-69.34
X205.24Y-75.39
X205.24Y-77.93
X207.78Y-66.8
X207.78Y-69.34
X207.78Y-75.39
X207.78Y-77.93
X210.32Y-66.8
X210.32Y-69.34
X210.32Y-75.39
X210.32Y-77.93
X212.86Y-66.8
X212.86Y-69.34
X212.86Y-75.39
X212.86Y-77.93
X215.4Y-66.8
X215.4Y-69.34
X215.4Y-75.39
X215.4Y-77.93
X217.94Y-66.8
X217.94Y-69.34
X217.94Y-75.39
X217.94Y-77.93
T6
X119.0Y-69.8
X119.0Y-77.93
X121.9Y-72.13
X124.8Y-69.8
X124.8Y-77.93
X127.7Y-72.13
X130.6Y-69.8
X130.6Y-77.93
X225.85Y-69.8
X225.85Y-77.93
X228.75Y-72.13
X231.65Y-69.8
X231.65Y-77.93
T7
X113.3Y-127.4
X122.9Y-103.785
X122.95Y-90.925
X126.6Y-124.66
X130.305Y-137.115
X133.37Y-107.8
X133.96Y-97.865
T8
X109.1Y-87.1
X109.1Y-145.3
X241.7Y-145.3
M30
